<svg viewBox="0 0 856.6666870117188 400" xmlns="http://www.w3.org/2000/svg"><g><g><g><g><g><line x1="41.0620002746582" y1="377.8999996185303" x2="36.0620002746582" y2="377.8999996185303" style="visibility: inherit;" fill="rgb(0, 0, 0)" stroke="rgb(204, 204, 204)" stroke-width="1px"></line><line x1="41.0620002746582" y1="330.662499666214" x2="36.0620002746582" y2="330.662499666214" style="visibility: inherit;" fill="rgb(0, 0, 0)" stroke="rgb(204, 204, 204)" stroke-width="1px"></line><line x1="41.0620002746582" y1="283.42499971389765" x2="36.0620002746582" y2="283.42499971389765" style="visibility: inherit;" fill="rgb(0, 0, 0)" stroke="rgb(204, 204, 204)" stroke-width="1px"></line><line x1="41.0620002746582" y1="236.18749976158145" x2="36.0620002746582" y2="236.18749976158145" style="visibility: inherit;" fill="rgb(0, 0, 0)" stroke="rgb(204, 204, 204)" stroke-width="1px"></line><line x1="41.0620002746582" y1="188.9499998092651" x2="36.0620002746582" y2="188.9499998092651" style="visibility: inherit;" fill="rgb(0, 0, 0)" stroke="rgb(204, 204, 204)" stroke-width="1px"></line><line x1="41.0620002746582" y1="141.71249985694888" x2="36.0620002746582" y2="141.71249985694888" style="visibility: inherit;" fill="rgb(0, 0, 0)" stroke="rgb(204, 204, 204)" stroke-width="1px"></line><line x1="41.0620002746582" y1="94.47499990463257" x2="36.0620002746582" y2="94.47499990463257" style="visibility: inherit;" fill="rgb(0, 0, 0)" stroke="rgb(204, 204, 204)" stroke-width="1px"></line><line x1="41.0620002746582" y1="47.23749995231623" x2="36.0620002746582" y2="47.23749995231623" style="visibility: inherit;" fill="rgb(0, 0, 0)" stroke="rgb(204, 204, 204)" stroke-width="1px"></line><line x1="41.0620002746582" y1="0" x2="36.0620002746582" y2="0" style="visibility: inherit;" fill="rgb(0, 0, 0)" stroke="rgb(204, 204, 204)" stroke-width="1px"></line></g><g transform="translate(31.062000274658203, 0)"><text style="text-anchor: end; visibility: hidden; font-family: &quot;Helvetica Neue&quot;, sans-serif; font-size: 12px; font-weight: 200;" x="0" y="377.8999996185303" dx="0em" dy="0.3em" fill="rgb(50, 49, 63)" stroke="none" stroke-width="1px">0.9</text><text style="text-anchor: end; visibility: inherit; font-family: &quot;Helvetica Neue&quot;, sans-serif; font-size: 12px; font-weight: 200;" x="0" y="330.662499666214" dx="0em" dy="0.3em" fill="rgb(50, 49, 63)" stroke="none" stroke-width="1px">1</text><text style="text-anchor: end; visibility: inherit; font-family: &quot;Helvetica Neue&quot;, sans-serif; font-size: 12px; font-weight: 200;" x="0" y="283.42499971389765" dx="0em" dy="0.3em" fill="rgb(50, 49, 63)" stroke="none" stroke-width="1px">1.1</text><text style="text-anchor: end; visibility: inherit; font-family: &quot;Helvetica Neue&quot;, sans-serif; font-size: 12px; font-weight: 200;" x="0" y="236.18749976158145" dx="0em" dy="0.3em" fill="rgb(50, 49, 63)" stroke="none" stroke-width="1px">1.2</text><text style="text-anchor: end; visibility: inherit; font-family: &quot;Helvetica Neue&quot;, sans-serif; font-size: 12px; font-weight: 200;" x="0" y="188.9499998092651" dx="0em" dy="0.3em" fill="rgb(50, 49, 63)" stroke="none" stroke-width="1px">1.3</text><text style="text-anchor: end; visibility: inherit; font-family: &quot;Helvetica Neue&quot;, sans-serif; font-size: 12px; font-weight: 200;" x="0" y="141.71249985694888" dx="0em" dy="0.3em" fill="rgb(50, 49, 63)" stroke="none" stroke-width="1px">1.4</text><text style="text-anchor: end; visibility: inherit; font-family: &quot;Helvetica Neue&quot;, sans-serif; font-size: 12px; font-weight: 200;" x="0" y="94.47499990463257" dx="0em" dy="0.3em" fill="rgb(50, 49, 63)" stroke="none" stroke-width="1px">1.5</text><text style="text-anchor: end; visibility: inherit; font-family: &quot;Helvetica Neue&quot;, sans-serif; font-size: 12px; font-weight: 200;" x="0" y="47.23749995231623" dx="0em" dy="0.3em" fill="rgb(50, 49, 63)" stroke="none" stroke-width="1px">1.6</text><text style="text-anchor: end; visibility: hidden; font-family: &quot;Helvetica Neue&quot;, sans-serif; font-size: 12px; font-weight: 200;" x="0" y="0" dx="0em" dy="0.3em" fill="rgb(50, 49, 63)" stroke="none" stroke-width="1px">1.7</text></g><line x1="41.0620002746582" y1="0" x2="41.0620002746582" y2="377.8999996185303" fill="rgb(0, 0, 0)" stroke="rgb(204, 204, 204)" stroke-width="1px"></line></g></g><g transform="translate(41, 0)" clip-path="url(#clip_0)"><clipPath id="clip_0"><rect width="815" height="377"></rect></clipPath><g><g><g><line x1="0" y1="0" x2="0" y2="377.8999996185303" fill="rgb(0, 0, 0)" stroke="rgb(60, 60, 60)" stroke-width="1px" opacity="0.25"></line><line x1="67.96708331044515" y1="0" x2="67.96708331044515" y2="377.8999996185303" fill="rgb(0, 0, 0)" stroke="rgb(60, 60, 60)" stroke-width="1px" opacity="0.25"></line><line x1="135.9341666208903" y1="0" x2="135.9341666208903" y2="377.8999996185303" fill="rgb(0, 0, 0)" stroke="rgb(60, 60, 60)" stroke-width="1px" opacity="0.25"></line><line x1="203.90124993133546" y1="0" x2="203.90124993133546" y2="377.8999996185303" fill="rgb(0, 0, 0)" stroke="rgb(60, 60, 60)" stroke-width="1px" opacity="0.25"></line><line x1="271.8683332417806" y1="0" x2="271.8683332417806" y2="377.8999996185303" fill="rgb(0, 0, 0)" stroke="rgb(60, 60, 60)" stroke-width="1px" opacity="0.25"></line><line x1="339.83541655222575" y1="0" x2="339.83541655222575" y2="377.8999996185303" fill="rgb(0, 0, 0)" stroke="rgb(60, 60, 60)" stroke-width="1px" opacity="0.25"></line><line x1="407.8024998626709" y1="0" x2="407.8024998626709" y2="377.8999996185303" fill="rgb(0, 0, 0)" stroke="rgb(60, 60, 60)" stroke-width="1px" opacity="0.25"></line><line x1="475.7695831731161" y1="0" x2="475.7695831731161" y2="377.8999996185303" fill="rgb(0, 0, 0)" stroke="rgb(60, 60, 60)" stroke-width="1px" opacity="0.25"></line><line x1="543.7366664835612" y1="0" x2="543.7366664835612" y2="377.8999996185303" fill="rgb(0, 0, 0)" stroke="rgb(60, 60, 60)" stroke-width="1px" opacity="0.25"></line><line x1="611.7037497940064" y1="0" x2="611.7037497940064" y2="377.8999996185303" fill="rgb(0, 0, 0)" stroke="rgb(60, 60, 60)" stroke-width="1px" opacity="0.25"></line><line x1="679.6708331044515" y1="0" x2="679.6708331044515" y2="377.8999996185303" fill="rgb(0, 0, 0)" stroke="rgb(60, 60, 60)" stroke-width="1px" opacity="0.25"></line><line x1="747.6379164148966" y1="0" x2="747.6379164148966" y2="377.8999996185303" fill="rgb(0, 0, 0)" stroke="rgb(60, 60, 60)" stroke-width="1px" opacity="0.25"></line><line x1="815.6049997253418" y1="0" x2="815.6049997253418" y2="377.8999996185303" fill="rgb(0, 0, 0)" stroke="rgb(60, 60, 60)" stroke-width="1px" opacity="0.25"></line></g><g><line x1="0" y1="377.8999996185303" x2="815.6049997253418" y2="377.8999996185303" fill="rgb(0, 0, 0)" stroke="rgb(60, 60, 60)" stroke-width="1px" opacity="0.25"></line><line x1="0" y1="330.662499666214" x2="815.6049997253418" y2="330.662499666214" fill="rgb(0, 0, 0)" stroke="rgb(60, 60, 60)" stroke-width="1px" opacity="0.25"></line><line x1="0" y1="283.42499971389765" x2="815.6049997253418" y2="283.42499971389765" fill="rgb(0, 0, 0)" stroke="rgb(60, 60, 60)" stroke-width="1px" opacity="0.25"></line><line x1="0" y1="236.18749976158145" x2="815.6049997253418" y2="236.18749976158145" fill="rgb(0, 0, 0)" stroke="rgb(60, 60, 60)" stroke-width="1px" opacity="0.25"></line><line x1="0" y1="188.9499998092651" x2="815.6049997253418" y2="188.9499998092651" fill="rgb(0, 0, 0)" stroke="rgb(60, 60, 60)" stroke-width="1px" opacity="0.25"></line><line x1="0" y1="141.71249985694888" x2="815.6049997253418" y2="141.71249985694888" fill="rgb(0, 0, 0)" stroke="rgb(60, 60, 60)" stroke-width="1px" opacity="0.25"></line><line x1="0" y1="94.47499990463257" x2="815.6049997253418" y2="94.47499990463257" fill="rgb(0, 0, 0)" stroke="rgb(60, 60, 60)" stroke-width="1px" opacity="0.25"></line><line x1="0" y1="47.23749995231623" x2="815.6049997253418" y2="47.23749995231623" fill="rgb(0, 0, 0)" stroke="rgb(60, 60, 60)" stroke-width="1px" opacity="0.25"></line><line x1="0" y1="0" x2="815.6049997253418" y2="0" fill="rgb(0, 0, 0)" stroke="rgb(60, 60, 60)" stroke-width="1px" opacity="0.25"></line></g></g></g><g><g><line x1="0" y1="803.0374991893768" x2="815.6049997253418" y2="803.0374991893768" fill="rgb(0, 0, 0)" stroke="rgb(153, 153, 153)" stroke-width="1.5px"></line></g></g><g><g><line x1="67.96708331044515" y1="0" x2="67.96708331044515" y2="377.8999996185303" fill="rgb(0, 0, 0)" stroke="rgb(153, 153, 153)" stroke-width="1.5px"></line></g></g><g><g><g><g><g><path style="fill: none;" stroke="rgb(0, 119, 187)" stroke-width="2px" d="M67.96708331044515,86.11426433274715L81.56049997253419,119.9469454683283L95.15391663462322,146.0566252426773L108.74733329671224,166.9317967661552L122.34074995880127,184.00003697972662L135.9341666208903,198.15780702862534L149.52758328297932,210.017734579512L163.12099994506838,220.02498601184436L176.7144166071574,228.5142491518095L190.30783326924643,235.7399975679112L203.90124993133546,241.89359647499134L217.49466659342448,247.1171504178391L231.0880832555135,251.51309009533838L244.68149991760254,255.15058049306393L258.2749165796916,258.0716657943383L271.8683332417806,260.29406423300975L285.46174990386965,261.8149438423928L299.05516656595864,262.6137262890319L312.6485832280477,262.6520430649836L326.24199989013675,261.8775642343045L339.83541655222575,260.226385976099L353.4288332143148,257.61776175649317L367.0222498764038,253.9636392152196L380.61566653849286,249.17557265283824L394.20908320058186,243.1640485887357L407.8024998626709,235.85781187921174L421.39591652475997,227.2215875687642L434.98933318684897,217.26630833772506L448.582749848938,206.05067838606317L462.176166511027,193.67796719676L475.7695831731161,180.28021062016722L489.3629998352051,165.96088927397167L502.95641649729413,150.70749016373043L516.5498331593832,134.3322412313158L530.1432498214722,116.41477080028994L543.7366664835612,96.39830085103176L557.3300831456503,73.8752217934325L570.9234998077393,48.99190476278085L584.5169164698283,22.816893324076773L598.1103331319173,-2.8163018826920734" fill="none"></path></g><g><path style="fill: none;" stroke="rgb(255, 112, 67)" stroke-width="2px" d="M67.96708331044515,45.09658222414589L81.56049997253419,102.15032612130113L95.15391663462322,140.6305732157739L108.74733329671224,168.6799943670465L122.34074995880127,190.10147866546941L135.9341666208903,207.0161188630866L149.52758328297932,220.7258749315127L163.12099994506838,232.0864049783155L176.7144166071574,241.68628405361977L190.30783326924643,249.9422566753948L203.90124993133546,257.1553390350258L217.49466659342448,263.5455575595495L231.0880832555135,269.276253674975L244.68149991760254,274.4707660505934L258.2749165796916,279.2240542975319L271.8683332417806,283.61089194693966L285.46174990386965,287.6935500181069L299.05516656595864,291.525763051794L312.6485832280477,295.15653193832816L326.24199989013675,298.63096426654874L339.83541655222575,301.9930302805279L353.4288332143148,305.28686597376327L367.0222498764038,308.5575707799576L380.61566653849286,311.849294943933L394.20908320058186,315.2040449392261L407.8024998626709,318.66213690187243L421.39591652475997,322.2507102272287L434.98933318684897,325.98751208630586L448.582749848938,329.87039647778136L462.176166511027,333.85969369185887L475.7695831731161,337.86838650934106L489.3629998352051,341.7498977357999L502.95641649729413,345.28932112904755L516.5498331593832,348.189262729347L530.1432498214722,350.0617173078179L543.7366664835612,350.4228901498012L557.3300831456503,348.68573161349786L570.9234998077393,344.1305569237403L584.5169164698283,335.8966306070312L598.1103331319173,322.97745502075094L611.7037497940064,304.16815285239L625.2971664560954,277.67547399697276L638.8905831181844,240.39199767109864L652.4839997802735,186.41197610071447L666.0774164423625,107.03427880407548L679.6708331044515,-10.317471902389514" fill="none"></path></g></g></g></g><g opacity="0.2"><g><g><g><path style="fill: none;" stroke="rgb(0, 119, 187)" stroke-width="2px" d="M67.96708331044515,86.11426433274715L81.56049997253419,140.24655414967697L95.15391663462322,171.12191782605237L108.74733329671224,191.48099847776507L122.34074995880127,206.2843314025659L135.9341666208903,217.7430998034697L149.52758328297932,226.97762073612068L163.12099994506838,234.61565466979863L176.7144166071574,241.0342633287857L190.30783326924643,246.4693918481987L203.90124993133546,251.06818214642914L217.49466659342448,254.9240549822261L231.0880832555135,258.09264610582716L244.68149991760254,260.5996898672916L258.2749165796916,262.4498601201313L271.8683332417806,263.6260944834535L285.46174990386965,264.0956196711872L299.05516656595864,263.8116971482137L312.6485832280477,262.709512391736L326.24199989013675,260.7159167787191L339.83541655222575,257.7497091433304L353.4288332143148,253.7049112649757L367.0222498764038,248.48252754758448L380.61566653849286,241.99352952847903L394.20908320058186,234.1468052199221L407.8024998626709,224.89848797268792L421.39591652475997,214.26727320082392L434.98933318684897,202.33340477486507L448.582749848938,189.22724378975062L462.176166511027,175.11890725101466L475.7695831731161,160.18358019811984L489.3629998352051,144.48191010374416L502.95641649729413,127.82739331931793L516.5498331593832,109.76936900561924L530.1432498214722,89.53856592378628L543.7366664835612,66.37359644329052L557.3300831456503,40.09060355550275L570.9234998077393,11.6669294477947L584.5169164698283,-16.445623688190096" fill="none"></path></g><g><path style="fill: none;" stroke="rgb(255, 112, 67)" stroke-width="2px" d="M67.96708331044515,45.096582224146005L81.56049997253419,136.38257245959437L95.15391663462322,177.5716104264677L108.74733329671224,201.6661136409428L122.34074995880127,218.06936856549044L135.9341666208903,230.41515552686207L149.52758328297932,240.331045465459L163.12099994506838,248.65016684764242L176.7144166071574,255.8442410091817L190.30783326924643,262.20141383465744L203.90124993133546,267.9095404483536L217.49466659342448,273.0961100593166L231.0880832555135,277.8535861309979L244.68149991760254,282.2523580235159L258.2749165796916,286.3483993560368L271.8683332417806,290.1880544832625L285.46174990386965,293.8158094807878L299.05516656595864,297.2731096038504L312.6485832280477,300.6021321570333L326.24199989013675,303.8422951820027L339.83541655222575,307.0359449178059L353.4288332143148,310.2275111285496L367.0222498764038,313.46356341488814L380.61566653849286,316.78684219628536L394.20908320058186,320.23614608803854L407.8024998626709,323.8492600986592L421.39591652475997,327.6335610330878L434.98933318684897,331.59270913805045L448.582749848938,335.6947194883094L462.176166511027,339.8436373081512L475.7695831731161,343.8814244062381L489.3629998352051,347.5721638031973L502.95641649729413,350.59845579638306L516.5498331593832,352.53917492207904L530.1432498214722,352.8703990950521L543.7366664835612,350.96464940346294L557.3300831456503,346.07999383591977L570.9234998077393,337.2977949313895L584.5169164698283,323.54574117782875L598.1103331319173,303.598691684505L611.7037497940064,275.9541996375634L625.2971664560954,237.93645574571968L638.8905831181844,184.4667832092003L652.4839997802735,105.4419437685172L666.0774164423625,-12.03226712025554" fill="none"></path></g></g></g></g></g><g><g opacity="0.0757671"><span fill="rgb(0, 0, 0)" stroke="none" stroke-width="1px">Alt + Scroll to Zoom</span></g></g></g><g transform="translate(41, 377)" clip-path="url(#clip_1)"><clipPath id="clip_1"><rect width="815" height="22"></rect></clipPath><g><g><line x1="0" y1="0" x2="0" y2="5" style="visibility: inherit;" fill="rgb(0, 0, 0)" stroke="rgb(204, 204, 204)" stroke-width="1px"></line><line x1="67.96708331044515" y1="0" x2="67.96708331044515" y2="5" style="visibility: inherit;" fill="rgb(0, 0, 0)" stroke="rgb(204, 204, 204)" stroke-width="1px"></line><line x1="135.9341666208903" y1="0" x2="135.9341666208903" y2="5" style="visibility: inherit;" fill="rgb(0, 0, 0)" stroke="rgb(204, 204, 204)" stroke-width="1px"></line><line x1="203.90124993133546" y1="0" x2="203.90124993133546" y2="5" style="visibility: inherit;" fill="rgb(0, 0, 0)" stroke="rgb(204, 204, 204)" stroke-width="1px"></line><line x1="271.8683332417806" y1="0" x2="271.8683332417806" y2="5" style="visibility: inherit;" fill="rgb(0, 0, 0)" stroke="rgb(204, 204, 204)" stroke-width="1px"></line><line x1="339.83541655222575" y1="0" x2="339.83541655222575" y2="5" style="visibility: inherit;" fill="rgb(0, 0, 0)" stroke="rgb(204, 204, 204)" stroke-width="1px"></line><line x1="407.8024998626709" y1="0" x2="407.8024998626709" y2="5" style="visibility: inherit;" fill="rgb(0, 0, 0)" stroke="rgb(204, 204, 204)" stroke-width="1px"></line><line x1="475.7695831731161" y1="0" x2="475.7695831731161" y2="5" style="visibility: inherit;" fill="rgb(0, 0, 0)" stroke="rgb(204, 204, 204)" stroke-width="1px"></line><line x1="543.7366664835612" y1="0" x2="543.7366664835612" y2="5" style="visibility: inherit;" fill="rgb(0, 0, 0)" stroke="rgb(204, 204, 204)" stroke-width="1px"></line><line x1="611.7037497940064" y1="0" x2="611.7037497940064" y2="5" style="visibility: inherit;" fill="rgb(0, 0, 0)" stroke="rgb(204, 204, 204)" stroke-width="1px"></line><line x1="679.6708331044515" y1="0" x2="679.6708331044515" y2="5" style="visibility: inherit;" fill="rgb(0, 0, 0)" stroke="rgb(204, 204, 204)" stroke-width="1px"></line><line x1="747.6379164148966" y1="0" x2="747.6379164148966" y2="5" style="visibility: inherit;" fill="rgb(0, 0, 0)" stroke="rgb(204, 204, 204)" stroke-width="1px"></line><line x1="815.6049997253418" y1="0" x2="815.6049997253418" y2="5" style="visibility: inherit;" fill="rgb(0, 0, 0)" stroke="rgb(204, 204, 204)" stroke-width="1px"></line></g><g transform="translate(0, 8)"><text style="text-anchor: middle; visibility: hidden; font-family: &quot;Helvetica Neue&quot;, sans-serif; font-size: 12px; font-weight: 200;" x="0" y="0" dx="0em" dy="0.95em" fill="rgb(50, 49, 63)" stroke="none" stroke-width="1px">-5</text><text style="text-anchor: middle; visibility: hidden; font-family: &quot;Helvetica Neue&quot;, sans-serif; font-size: 12px; font-weight: 200;" x="67.96708331044515" y="0" dx="0em" dy="0.95em" fill="rgb(50, 49, 63)" stroke="none" stroke-width="1px">0</text><text style="text-anchor: middle; visibility: hidden; font-family: &quot;Helvetica Neue&quot;, sans-serif; font-size: 12px; font-weight: 200;" x="135.9341666208903" y="0" dx="0em" dy="0.95em" fill="rgb(50, 49, 63)" stroke="none" stroke-width="1px">5</text><text style="text-anchor: middle; visibility: hidden; font-family: &quot;Helvetica Neue&quot;, sans-serif; font-size: 12px; font-weight: 200;" x="203.90124993133546" y="0" dx="0em" dy="0.95em" fill="rgb(50, 49, 63)" stroke="none" stroke-width="1px">10</text><text style="text-anchor: middle; visibility: hidden; font-family: &quot;Helvetica Neue&quot;, sans-serif; font-size: 12px; font-weight: 200;" x="271.8683332417806" y="0" dx="0em" dy="0.95em" fill="rgb(50, 49, 63)" stroke="none" stroke-width="1px">15</text><text style="text-anchor: middle; visibility: hidden; font-family: &quot;Helvetica Neue&quot;, sans-serif; font-size: 12px; font-weight: 200;" x="339.83541655222575" y="0" dx="0em" dy="0.95em" fill="rgb(50, 49, 63)" stroke="none" stroke-width="1px">20</text><text style="text-anchor: middle; visibility: hidden; font-family: &quot;Helvetica Neue&quot;, sans-serif; font-size: 12px; font-weight: 200;" x="407.8024998626709" y="0" dx="0em" dy="0.95em" fill="rgb(50, 49, 63)" stroke="none" stroke-width="1px">25</text><text style="text-anchor: middle; visibility: hidden; font-family: &quot;Helvetica Neue&quot;, sans-serif; font-size: 12px; font-weight: 200;" x="475.7695831731161" y="0" dx="0em" dy="0.95em" fill="rgb(50, 49, 63)" stroke="none" stroke-width="1px">30</text><text style="text-anchor: middle; visibility: hidden; font-family: &quot;Helvetica Neue&quot;, sans-serif; font-size: 12px; font-weight: 200;" x="543.7366664835612" y="0" dx="0em" dy="0.95em" fill="rgb(50, 49, 63)" stroke="none" stroke-width="1px">35</text><text style="text-anchor: middle; visibility: hidden; font-family: &quot;Helvetica Neue&quot;, sans-serif; font-size: 12px; font-weight: 200;" x="611.7037497940064" y="0" dx="0em" dy="0.95em" fill="rgb(50, 49, 63)" stroke="none" stroke-width="1px">40</text><text style="text-anchor: middle; visibility: hidden; font-family: &quot;Helvetica Neue&quot;, sans-serif; font-size: 12px; font-weight: 200;" x="679.6708331044515" y="0" dx="0em" dy="0.95em" fill="rgb(50, 49, 63)" stroke="none" stroke-width="1px">45</text><text style="text-anchor: middle; visibility: hidden; font-family: &quot;Helvetica Neue&quot;, sans-serif; font-size: 12px; font-weight: 200;" x="747.6379164148966" y="0" dx="0em" dy="0.95em" fill="rgb(50, 49, 63)" stroke="none" stroke-width="1px">50</text><text style="text-anchor: middle; visibility: hidden; font-family: &quot;Helvetica Neue&quot;, sans-serif; font-size: 12px; font-weight: 200;" x="815.6049997253418" y="0" dx="0em" dy="0.95em" fill="rgb(50, 49, 63)" stroke="none" stroke-width="1px">55</text></g><line x1="0" y1="0" x2="815.6049997253418" y2="0" fill="rgb(0, 0, 0)" stroke="rgb(204, 204, 204)" stroke-width="1px"></line></g></g></g></g></svg>