<svg viewBox="0 0 856.6666870117188 400" xmlns="http://www.w3.org/2000/svg"><g><g><g><g><g><line x1="51.41600036621094" y1="377.8999996185303" x2="46.41600036621094" y2="377.8999996185303" style="visibility: inherit;" fill="rgb(0, 0, 0)" stroke="rgb(204, 204, 204)" stroke-width="1px"></line><line x1="51.41600036621094" y1="335.911110772027" x2="46.41600036621094" y2="335.911110772027" style="visibility: inherit;" fill="rgb(0, 0, 0)" stroke="rgb(204, 204, 204)" stroke-width="1px"></line><line x1="51.41600036621094" y1="293.92222192552356" x2="46.41600036621094" y2="293.92222192552356" style="visibility: inherit;" fill="rgb(0, 0, 0)" stroke="rgb(204, 204, 204)" stroke-width="1px"></line><line x1="51.41600036621094" y1="251.9333330790202" x2="46.41600036621094" y2="251.9333330790202" style="visibility: inherit;" fill="rgb(0, 0, 0)" stroke="rgb(204, 204, 204)" stroke-width="1px"></line><line x1="51.41600036621094" y1="209.9444442325168" x2="46.41600036621094" y2="209.9444442325168" style="visibility: inherit;" fill="rgb(0, 0, 0)" stroke="rgb(204, 204, 204)" stroke-width="1px"></line><line x1="51.41600036621094" y1="167.95555538601357" x2="46.41600036621094" y2="167.95555538601357" style="visibility: inherit;" fill="rgb(0, 0, 0)" stroke="rgb(204, 204, 204)" stroke-width="1px"></line><line x1="51.41600036621094" y1="125.96666653951019" x2="46.41600036621094" y2="125.96666653951019" style="visibility: inherit;" fill="rgb(0, 0, 0)" stroke="rgb(204, 204, 204)" stroke-width="1px"></line><line x1="51.41600036621094" y1="83.97777769300683" x2="46.41600036621094" y2="83.97777769300683" style="visibility: inherit;" fill="rgb(0, 0, 0)" stroke="rgb(204, 204, 204)" stroke-width="1px"></line><line x1="51.41600036621094" y1="41.98888884650336" x2="46.41600036621094" y2="41.98888884650336" style="visibility: inherit;" fill="rgb(0, 0, 0)" stroke="rgb(204, 204, 204)" stroke-width="1px"></line><line x1="51.41600036621094" y1="0" x2="46.41600036621094" y2="0" style="visibility: inherit;" fill="rgb(0, 0, 0)" stroke="rgb(204, 204, 204)" stroke-width="1px"></line></g><g transform="translate(41.41600036621094, 0)"><text style="text-anchor: end; visibility: hidden; font-family: &quot;Helvetica Neue&quot;, sans-serif; font-size: 12px; font-weight: 200;" x="0" y="377.8999996185303" dx="0em" dy="0.3em" fill="rgb(50, 49, 63)" stroke="none" stroke-width="1px">0.9</text><text style="text-anchor: end; visibility: inherit; font-family: &quot;Helvetica Neue&quot;, sans-serif; font-size: 12px; font-weight: 200;" x="0" y="335.911110772027" dx="0em" dy="0.3em" fill="rgb(50, 49, 63)" stroke="none" stroke-width="1px">0.95</text><text style="text-anchor: end; visibility: inherit; font-family: &quot;Helvetica Neue&quot;, sans-serif; font-size: 12px; font-weight: 200;" x="0" y="293.92222192552356" dx="0em" dy="0.3em" fill="rgb(50, 49, 63)" stroke="none" stroke-width="1px">1</text><text style="text-anchor: end; visibility: inherit; font-family: &quot;Helvetica Neue&quot;, sans-serif; font-size: 12px; font-weight: 200;" x="0" y="251.9333330790202" dx="0em" dy="0.3em" fill="rgb(50, 49, 63)" stroke="none" stroke-width="1px">1.05</text><text style="text-anchor: end; visibility: inherit; font-family: &quot;Helvetica Neue&quot;, sans-serif; font-size: 12px; font-weight: 200;" x="0" y="209.9444442325168" dx="0em" dy="0.3em" fill="rgb(50, 49, 63)" stroke="none" stroke-width="1px">1.1</text><text style="text-anchor: end; visibility: inherit; font-family: &quot;Helvetica Neue&quot;, sans-serif; font-size: 12px; font-weight: 200;" x="0" y="167.95555538601357" dx="0em" dy="0.3em" fill="rgb(50, 49, 63)" stroke="none" stroke-width="1px">1.15</text><text style="text-anchor: end; visibility: inherit; font-family: &quot;Helvetica Neue&quot;, sans-serif; font-size: 12px; font-weight: 200;" x="0" y="125.96666653951019" dx="0em" dy="0.3em" fill="rgb(50, 49, 63)" stroke="none" stroke-width="1px">1.2</text><text style="text-anchor: end; visibility: inherit; font-family: &quot;Helvetica Neue&quot;, sans-serif; font-size: 12px; font-weight: 200;" x="0" y="83.97777769300683" dx="0em" dy="0.3em" fill="rgb(50, 49, 63)" stroke="none" stroke-width="1px">1.25</text><text style="text-anchor: end; visibility: inherit; font-family: &quot;Helvetica Neue&quot;, sans-serif; font-size: 12px; font-weight: 200;" x="0" y="41.98888884650336" dx="0em" dy="0.3em" fill="rgb(50, 49, 63)" stroke="none" stroke-width="1px">1.3</text><text style="text-anchor: end; visibility: hidden; font-family: &quot;Helvetica Neue&quot;, sans-serif; font-size: 12px; font-weight: 200;" x="0" y="0" dx="0em" dy="0.3em" fill="rgb(50, 49, 63)" stroke="none" stroke-width="1px">1.35</text></g><line x1="51.41600036621094" y1="0" x2="51.41600036621094" y2="377.8999996185303" fill="rgb(0, 0, 0)" stroke="rgb(204, 204, 204)" stroke-width="1px"></line></g></g><g transform="translate(51, 0)" clip-path="url(#clip_0)"><clipPath id="clip_0"><rect width="805" height="377"></rect></clipPath><g><g><g><line x1="0" y1="0" x2="0" y2="377.8999996185303" fill="rgb(0, 0, 0)" stroke="rgb(60, 60, 60)" stroke-width="1px" opacity="0.25"></line><line x1="57.51792854527065" y1="0" x2="57.51792854527065" y2="377.8999996185303" fill="rgb(0, 0, 0)" stroke="rgb(60, 60, 60)" stroke-width="1px" opacity="0.25"></line><line x1="115.0358570905413" y1="0" x2="115.0358570905413" y2="377.8999996185303" fill="rgb(0, 0, 0)" stroke="rgb(60, 60, 60)" stroke-width="1px" opacity="0.25"></line><line x1="172.55378563581195" y1="0" x2="172.55378563581195" y2="377.8999996185303" fill="rgb(0, 0, 0)" stroke="rgb(60, 60, 60)" stroke-width="1px" opacity="0.25"></line><line x1="230.0717141810826" y1="0" x2="230.0717141810826" y2="377.8999996185303" fill="rgb(0, 0, 0)" stroke="rgb(60, 60, 60)" stroke-width="1px" opacity="0.25"></line><line x1="287.58964272635325" y1="0" x2="287.58964272635325" y2="377.8999996185303" fill="rgb(0, 0, 0)" stroke="rgb(60, 60, 60)" stroke-width="1px" opacity="0.25"></line><line x1="345.1075712716239" y1="0" x2="345.1075712716239" y2="377.8999996185303" fill="rgb(0, 0, 0)" stroke="rgb(60, 60, 60)" stroke-width="1px" opacity="0.25"></line><line x1="402.62549981689455" y1="0" x2="402.62549981689455" y2="377.8999996185303" fill="rgb(0, 0, 0)" stroke="rgb(60, 60, 60)" stroke-width="1px" opacity="0.25"></line><line x1="460.1434283621652" y1="0" x2="460.1434283621652" y2="377.8999996185303" fill="rgb(0, 0, 0)" stroke="rgb(60, 60, 60)" stroke-width="1px" opacity="0.25"></line><line x1="517.6613569074359" y1="0" x2="517.6613569074359" y2="377.8999996185303" fill="rgb(0, 0, 0)" stroke="rgb(60, 60, 60)" stroke-width="1px" opacity="0.25"></line><line x1="575.1792854527065" y1="0" x2="575.1792854527065" y2="377.8999996185303" fill="rgb(0, 0, 0)" stroke="rgb(60, 60, 60)" stroke-width="1px" opacity="0.25"></line><line x1="632.6972139979771" y1="0" x2="632.6972139979771" y2="377.8999996185303" fill="rgb(0, 0, 0)" stroke="rgb(60, 60, 60)" stroke-width="1px" opacity="0.25"></line><line x1="690.2151425432478" y1="0" x2="690.2151425432478" y2="377.8999996185303" fill="rgb(0, 0, 0)" stroke="rgb(60, 60, 60)" stroke-width="1px" opacity="0.25"></line><line x1="747.7330710885185" y1="0" x2="747.7330710885185" y2="377.8999996185303" fill="rgb(0, 0, 0)" stroke="rgb(60, 60, 60)" stroke-width="1px" opacity="0.25"></line><line x1="805.2509996337891" y1="0" x2="805.2509996337891" y2="377.8999996185303" fill="rgb(0, 0, 0)" stroke="rgb(60, 60, 60)" stroke-width="1px" opacity="0.25"></line></g><g><line x1="0" y1="377.8999996185303" x2="805.2509996337891" y2="377.8999996185303" fill="rgb(0, 0, 0)" stroke="rgb(60, 60, 60)" stroke-width="1px" opacity="0.25"></line><line x1="0" y1="335.911110772027" x2="805.2509996337891" y2="335.911110772027" fill="rgb(0, 0, 0)" stroke="rgb(60, 60, 60)" stroke-width="1px" opacity="0.25"></line><line x1="0" y1="293.92222192552356" x2="805.2509996337891" y2="293.92222192552356" fill="rgb(0, 0, 0)" stroke="rgb(60, 60, 60)" stroke-width="1px" opacity="0.25"></line><line x1="0" y1="251.9333330790202" x2="805.2509996337891" y2="251.9333330790202" fill="rgb(0, 0, 0)" stroke="rgb(60, 60, 60)" stroke-width="1px" opacity="0.25"></line><line x1="0" y1="209.9444442325168" x2="805.2509996337891" y2="209.9444442325168" fill="rgb(0, 0, 0)" stroke="rgb(60, 60, 60)" stroke-width="1px" opacity="0.25"></line><line x1="0" y1="167.95555538601357" x2="805.2509996337891" y2="167.95555538601357" fill="rgb(0, 0, 0)" stroke="rgb(60, 60, 60)" stroke-width="1px" opacity="0.25"></line><line x1="0" y1="125.96666653951019" x2="805.2509996337891" y2="125.96666653951019" fill="rgb(0, 0, 0)" stroke="rgb(60, 60, 60)" stroke-width="1px" opacity="0.25"></line><line x1="0" y1="83.97777769300683" x2="805.2509996337891" y2="83.97777769300683" fill="rgb(0, 0, 0)" stroke="rgb(60, 60, 60)" stroke-width="1px" opacity="0.25"></line><line x1="0" y1="41.98888884650336" x2="805.2509996337891" y2="41.98888884650336" fill="rgb(0, 0, 0)" stroke="rgb(60, 60, 60)" stroke-width="1px" opacity="0.25"></line><line x1="0" y1="0" x2="805.2509996337891" y2="0" fill="rgb(0, 0, 0)" stroke="rgb(60, 60, 60)" stroke-width="1px" opacity="0.25"></line></g></g></g><g><g><line x1="0" y1="1133.6999988555908" x2="805.2509996337891" y2="1133.6999988555908" fill="rgb(0, 0, 0)" stroke="rgb(153, 153, 153)" stroke-width="1.5px"></line></g></g><g><g><line x1="57.51792854527065" y1="0" x2="57.51792854527065" y2="377.8999996185303" fill="rgb(0, 0, 0)" stroke="rgb(153, 153, 153)" stroke-width="1.5px"></line></g></g><g><g><g><g><g><path style="fill: none;" stroke="rgb(0, 119, 187)" stroke-width="2px" d="M69.02151425432479,-28.640922398644307L74.77330710885185,1.9255553620746468L80.52509996337892,29.339783275844752L86.27689281790597,53.724556872289384L92.02868567243304,75.2744013568115L97.78047852696011,94.23879952069348L103.53227138148716,110.89824897383164L109.28406423601423,125.53980126818931L115.0358570905413,138.4376503800369L120.78764994506835,149.84286103262303L126.53944279959542,159.9770028640799L132.2912356541225,169.03128125342482L138.04302850864957,177.16789488556847L143.79482136317662,184.52321500199562L149.5466142177037,191.21066837717788L155.29840707223076,197.32464462445338L161.05019992675784,202.9434818838897L166.8019927812849,208.13225627549696L172.55378563581195,212.94541303842433L178.305578490339,217.4286025174171L184.05737134486608,221.62008993655294L189.80916419939314,225.55243569239954L195.56095705392022,229.2535000368666L201.31274990844727,232.74660352502036L207.06454276297433,236.0521439270226L212.8163356175014,239.18796515613215L218.56812847202846,242.1691778823876L224.31992132655554,245.00925304395213L230.0717141810826,247.71979689710332L235.82350703560968,250.31129695618228L241.5752998901367,252.79296887221548L247.32709274466382,255.17302493727044L253.07888559919084,257.45855487171104L258.83067845371795,259.6563352532917L264.582471308245,261.77211385987414L270.33426416277206,263.811101279077L276.08605701729914,265.77814574192166L281.83784987182617,267.6771973228782L287.58964272635325,269.5127083397548L293.3414355808803,271.2877906638806L299.0932284354074,273.0059532105847L304.84502128993444,274.6698619411022L310.5968141444615,276.2823177438578L316.34860699898854,277.8460823324407L322.1003998535157,279.3634534345812L327.8521927080427,280.83641034277815L333.6039855625698,282.26674128839716L339.3557784170968,283.6561999535756L345.1075712716239,285.00635911601694L350.859364126151,286.31912349173894L356.611156980678,287.5950752982029L362.3629498352051,288.8352045654833L368.11474268973217,290.0412665796454L373.86653554425925,291.2136738127308L379.6183283987863,292.3536347973608L385.37012125331336,293.4616544126215L391.12191410784044,294.53847606693813L396.8737069623675,295.58476604585223L402.62549981689455,296.6011844049007L408.37729267142157,297.5882272867178L414.12908552594865,298.5457719177728L419.8808783804758,299.47452548658225L425.6326712350028,300.3747521313568L431.38446408952984,301.24661033502264L437.1362569440569,302.09033534037263L442.88804979858406,302.90546763720937L448.6398426531111,303.69189169431377L454.3916355076381,304.44967834599174L460.1434283621652,305.1783695462658L465.8952212166923,305.8775503145125L471.64701407121936,306.54681148745806L477.3988069257464,307.1858074578264L483.1505997802734,307.7946111673256L488.9023926348005,308.37256561579574L494.65418548932763,308.9187560347172L500.40597834385466,309.4324934099412L506.1577711983817,309.91260350220637L511.90956405290876,310.35780113394486L517.6613569074359,310.76651432411893L523.4131497619629,311.13779988410585L529.16494261649,311.470451201134L534.916735471017,311.7617020775722L540.6685283255441,312.0100129260165L546.4203211800711,312.2140595567756L552.1721140345983,312.3717260131144L557.9239068891253,312.48090180276927L563.6756997436523,312.53937960284804L569.4274925981795,312.5439129208216L575.1792854527065,312.49151272432573L580.9310783072335,312.3792643696459L586.6828711617605,312.20385736528345L592.4346640162877,311.9614033394081L598.1864568708148,311.64812769482614L603.9382497253418,311.25868230640697L609.6900425798689,310.78775600351645L615.4418354343959,310.2304802473297L621.193628288923,309.5798494546153L626.9454211434501,308.83031881065153L632.6972139979771,307.974957491367L638.4490068525042,307.00624332943016L644.2007997070314,305.9153783458814L649.9525925615584,304.6924386812601L655.7043854160854,303.32608413889545L661.4561782706124,301.80566640319745L667.2079711251396,300.1206719811511L672.9597639796666,298.25956707085186L678.7115568341936,296.2075627992209L684.4633496887207,293.94927873711976L690.2151425432478,291.467437838367L695.9669353977749,288.74466622340225L701.718728252302,285.7624907757904L707.470521106829,282.5000569568035L713.222313961356,278.93187787634724L718.9741068158831,275.0322099881746L724.7258996704102,270.7763170203685L730.4776925249372,266.13462111902743L736.2294853794643,261.0784836786461L741.9812782339914,255.5741434338269" fill="none"></path></g><g><path style="fill: none;" stroke="rgb(255, 112, 67)" stroke-width="2px" d="M74.77330710885185,-21.624427540090664L80.52509996337892,10.950478842413588L86.27689281790597,39.54417521138038L92.02868567243304,64.51476850091444L97.78047852696011,86.25235651247203L103.53227138148716,105.15783753303396L109.28406423601423,121.61970957419231L115.0358570905413,135.9969398489561L120.78764994506835,148.61007416338123L126.53944279959542,159.73624977642908L132.2912356541225,169.61138311510564L138.04302850864957,178.43291894865024L143.79482136317662,186.36473391481732L149.5466142177037,193.54192160714382L155.29840707223076,200.07575583568635L161.05019992675784,206.05804920815748L166.8019927812849,211.5645155228232L172.55378563581195,216.65789982785665L178.305578490339,221.39007124242525L184.05737134486608,225.80502720156687L189.80916419939314,229.9393273872053L195.56095705392022,233.82375185862796L201.31274990844727,237.48545515873818L207.06454276297433,240.94637452281316L212.8163356175014,244.22671907044338L218.56812847202846,247.34309865595264L224.31992132655554,250.31068458857732L230.0717141810826,253.14146263967876L235.82350703560968,255.8475095153304L241.5752998901367,258.438874247968L247.32709274466382,260.9241490260315L253.07888559919084,263.3115725126862L258.83067845371795,265.6079299076111L264.582471308245,267.81965490493064L270.33426416277206,269.9531705163853L276.08605701729914,272.012290503493L281.83784987182617,274.0028670136544L287.58964272635325,275.9289319031363L293.3414355808803,277.79402550965256L299.0932284354074,279.60179369718037L304.84502128993444,281.3560257329861L310.5968141444615,283.05819430286545L316.34860699898854,284.71278695349645L322.1003998535157,286.321334944842L327.8521927080427,287.886398825587L333.6039855625698,289.40991536218337L339.3557784170968,290.89388753271953L345.1075712716239,292.34045815158134L350.859364126151,293.7502722078005L356.611156980678,295.1262194275993L362.3629498352051,296.46915268476386L368.11474268973217,297.78042462178735L373.86653554425925,299.06122723955195L379.6183283987863,300.3128163288727L385.37012125331336,301.53610553913774L391.12191410784044,302.73190334419184L396.8737069623675,303.90167589960095L402.62549981689455,305.0465832047787L408.37729267142157,306.16708099702424L414.12908552594865,307.26382313410284L419.8808783804758,308.33812293634617L425.6326712350028,309.389947499593L431.38446408952984,310.4196775185954L437.1362569440569,311.42830224097753L442.88804979858406,312.41619497482645L448.6398426531111,313.3840802515554L454.3916355076381,314.331812156002L460.1434283621652,315.2609649536507L465.8952212166923,316.1717223730198L471.64701407121936,317.06477528523055L477.3988069257464,317.9400777101199L483.1505997802734,318.7982828029128L488.9023926348005,319.63984252233155L494.65418548932763,320.46514817478396L500.40597834385466,321.27437447852753L506.1577711983817,322.06820689852736L511.90956405290876,322.84667629837634L517.6613569074359,323.60998139299187L523.4131497619629,324.35888211092254L529.16494261649,325.09417478095855L534.916735471017,325.8160568943003L540.6685283255441,326.5251274703663L546.4203211800711,327.2215056584583L552.1721140345983,327.9059436914804L557.9239068891253,328.5794535213229L563.6756997436523,329.24186146648515L569.4274925981795,329.89426462981294L575.1792854527065,330.53710103252683L580.9310783072335,331.1711940995073L586.6828711617605,331.79693777637056L592.4346640162877,332.41566963292L598.1864568708148,333.0286927575988L603.9382497253418,333.63714939699634L609.6900425798689,334.2428261015002L615.4418354343959,334.8467948013432L621.193628288923,335.45160073159593L626.9454211434501,336.05921151427435L632.6972139979771,336.6724094715828L638.4490068525042,337.2936848932036L644.2007997070314,337.9255530679303L649.9525925615584,338.5712050054832L655.7043854160854,339.2356386785098L661.4561782706124,339.92337453214316L667.2079711251396,340.6379457298229L672.9597639796666,341.3851962360257L678.7115568341936,342.17123527155366L684.4633496887207,343.0012700522956L690.2151425432478,343.8820288430229L695.9669353977749,344.8213127127359L701.718728252302,345.8255041611415L707.470521106829,346.9032179131857L713.222313961356,348.06390748239676L718.9741068158831,349.3188711202356L724.7258996704102,350.6786518877162L730.4776925249372,352.1544609558809L736.2294853794643,353.7586711925613L741.9812782339914,355.5028108002553" fill="none"></path></g></g></g></g><g opacity="0.2"><g><g><g><path style="fill: none;" stroke="rgb(0, 119, 187)" stroke-width="2px" d="M63.26972139979771,-40.204620553864004L69.02151425432479,3.7856136177844633L74.77330710885185,37.87173320867987L80.52509996337892,65.13179924006289L86.27689281790597,87.4574772746671L92.02868567243304,106.09102376718971L97.78047852696011,121.8890741018555L103.53227138148716,135.4677009857486L109.28406423601423,147.28080004024028L115.0358570905413,157.66744150564494L120.78764994506835,166.88861035878546L126.53944279959542,175.14512587987159L132.2912356541225,182.59496056350503L138.04302850864957,189.3632510498962L143.79482136317662,195.551007635023L149.5466142177037,201.23901853380534L155.29840707223076,206.49405665745948L161.05019992675784,211.3708817997415L166.8019927812849,215.91494358837588L172.55378563581195,220.1648842178596L178.305578490339,224.15323921464736L184.05737134486608,227.907238311649L189.80916419939314,231.45090774378488L195.56095705392022,234.80507024798604L201.31274990844727,237.98624386076025L207.06454276297433,241.0104460720545L212.8163356175014,243.89169218557228L218.56812847202846,246.64099422565215L224.31992132655554,249.26936421663265L230.0717141810826,251.78561177798457L235.82350703560968,254.19854652917877L241.5752998901367,256.51547645000346L247.32709274466382,258.743108864374L253.07888559919084,260.8868496751474L258.83067845371795,262.95300576899035L264.582471308245,264.9457817370139L270.33426416277206,266.8695823889534L276.08605701729914,268.7287124252322L281.83784987182617,270.52577468796653L287.58964272635325,272.2659748613893L293.3414355808803,273.9504141479342L299.0932284354074,275.5831970294003L304.84502128993444,277.1657250361578L310.5968141444615,278.7010014475719L316.34860699898854,280.1917292150711L322.1003998535157,281.63951008765L327.8521927080427,283.0458457049913L333.6039855625698,284.4122377067773L339.3557784170968,285.74038795131503L345.1075712716239,287.03159785966267L350.859364126151,288.2882700553122L356.611156980678,289.5090030078933L362.3629498352051,290.69539846640055L368.11474268973217,291.85035960088703L373.86653554425925,292.97228466235794L379.6183283987863,294.0635762743053L385.37012125331336,295.1236838355122L391.12191410784044,296.15370854841257L396.8737069623675,297.15420101422325L402.62549981689455,298.1258119434733L408.37729267142157,299.0687916094433L414.12908552594865,299.9820888643553L419.8808783804758,300.86765583979667L425.6326712350028,301.72509209851876L431.38446408952984,302.55439764052153L437.1362569440569,303.35592284839754L442.88804979858406,304.1281660824643L448.6398426531111,304.87152777997056L454.3916355076381,305.58635832350876L460.1434283621652,306.27140634667694L465.8952212166923,306.92632146688237L471.64701407121936,307.5507032468765L477.3988069257464,308.1443014133788L483.1505997802734,308.70781673157455L488.9023926348005,309.2394972885008L494.65418548932763,309.73804166309924L500.40597834385466,310.2030994727774L506.1577711983817,310.632768640604L511.90956405290876,311.0255975815527L517.6613569074359,311.37958410938006L523.4131497619629,311.6947282240861L529.16494261649,311.96942817667605L534.916735471017,312.1985783922295L540.6685283255441,312.38247919868274L546.4203211800711,312.52012950291424L552.1721140345983,312.6082256976224L557.9239068891253,312.6446654872517L563.6756997436523,312.62709630296615L569.4274925981795,312.5507128977817L575.1792854527065,312.4129124295819L580.9310783072335,312.21089183762615L586.6828711617605,311.94074685873983L592.4346640162877,311.5977223005949L598.1864568708148,311.1782142279534L603.9382497253418,310.67451422377826L609.6900425798689,310.08136654918064L615.4418354343959,309.39456661304956L621.193628288923,308.6039032655438L626.9454211434501,307.7060228447057L632.6972139979771,306.6919155124401L638.4490068525042,305.55317208652497L644.2007997070314,304.2790808705581L649.9525925615584,302.8580291843282L655.7043854160854,301.27655232534835L661.4561782706124,299.5250397996506L667.2079711251396,297.59318034808155L672.9597639796666,295.46790970540314L678.7115568341936,293.12955639177443L684.4633496887207,290.561852643968L690.2151425432478,287.7446764902379L695.9669353977749,284.66050880095486L701.718728252302,281.2892276043729L707.470521106829,277.606406228323L713.222313961356,273.5796092556626L718.9741068158831,269.1827081559157L724.7258996704102,264.3924775686593L730.4776925249372,259.1720772670154L736.2294853794643,253.49427751807428L741.9812782339914,247.31763306659815" fill="none"></path></g><g><path style="fill: none;" stroke="rgb(255, 112, 67)" stroke-width="2px" d="M69.02151425432479,-18.68982794782363L74.77330710885185,21.73981831793253L80.52509996337892,53.4802766154109L86.27689281790597,79.0995510203544L92.02868567243304,100.22311643444084L97.78047852696011,117.94596851416782L103.53227138148716,133.03974983772915L109.28406423601423,146.06367102289727L115.0358570905413,157.43238484067365L120.78764994506835,167.46113551507636L126.53944279959542,176.3891843021879L132.2912356541225,184.4047367088848L138.04302850864957,191.65485331474233L143.79482136317662,198.25686223362183L149.5466142177037,204.30466600033728L155.29840707223076,209.8748482386974L161.05019992675784,215.03057792468053L166.8019927812849,219.8237116819898L172.55378563581195,224.29769695210632L178.305578490339,228.48817265016203L184.05737134486608,232.42737397467513L189.80916419939314,236.14072869093638L195.56095705392022,239.65036095693503L201.31274990844727,242.9779944934116L207.06454276297433,246.13774471338178L212.8163356175014,249.14723085578726L218.56812847202846,252.01766516359083L224.31992132655554,254.76206184737447L230.0717141810826,257.3876287776143L235.82350703560968,259.90657929039475L241.5752998901367,262.3259210375677L247.32709274466382,264.6520610151119L253.07888559919084,266.89270764006426L258.83067845371795,269.05246594078466L264.582471308245,271.1372423666909L270.33426416277206,273.15344391376186L276.08605701729914,275.1009704726853L281.83784987182617,276.9887317722442L287.58964272635325,278.81802923349676L293.3414355808803,280.5916659171837L299.0932284354074,282.3134459771675L304.84502128993444,283.9873737859348L310.5968141444615,285.6114471572422L316.34860699898854,287.19467592918494L322.1003998535157,288.7341569317101L327.8521927080427,290.23399464661657L333.6039855625698,291.69519016702606L339.3557784170968,293.1198457884941L345.1075712716239,294.51031407985664L350.859364126151,295.86499329211904L356.611156980678,297.19014025729166L362.3629498352051,298.483552570507L368.11474268973217,299.7473325273205L373.86653554425925,300.9824311661977L379.6183283987863,302.190199962853L385.37012125331336,303.37103935453496L391.12191410784044,304.52560005177276L396.8737069623675,305.65633473271447L402.62549981689455,306.7639441625453L408.37729267142157,307.8478276853922L414.12908552594865,308.9089363397208L419.8808783804758,309.949572639711L425.6326712350028,310.9676843444633L431.38446408952984,311.9642725470994L437.1362569440569,312.9412393245505L442.88804979858406,313.8980340755997L448.6398426531111,314.835908166649L454.3916355076381,315.75341001267213L460.1434283621652,316.65469415012393L465.8952212166923,317.5378585020733L471.64701407121936,318.4043546535466L477.3988069257464,319.25303134745394L483.1505997802734,320.08559044210216L488.9023926348005,320.9021821014595L494.65418548932763,321.70310665346256L500.40597834385466,322.488213934143L506.1577711983817,323.2589555285272L511.90956405290876,324.01438039814974L517.6613569074359,324.75493903491525L523.4131497619629,325.48223318781845L529.16494261649,326.1971137860128L534.916735471017,326.898880064313L540.6685283255441,327.58873333446525L546.4203211800711,328.2660729405964L552.1721140345983,328.9326007410134L557.9239068891253,329.58971826608655L563.6756997436523,330.2354733842286L569.4274925981795,330.8728693748046L575.1792854527065,331.5013556365976L580.9310783072335,332.122333699978L586.6828711617605,332.7355532916654L592.4346640162877,333.3437674177443L598.1864568708148,333.94822744461686L603.9382497253418,334.5498343560927L609.6900425798689,335.15134115825634L615.4418354343959,335.7527478511078L621.193628288923,336.3588096269751L626.9454211434501,336.9706276882921L632.6972139979771,337.59220640754546L638.4490068525042,338.2255980256347L644.2007997070314,338.87335533002016L649.9525925615584,339.5396829118128L655.7043854160854,340.23228918804966L661.4561782706124,340.9549783125931L667.2079711251396,341.7098025263426L672.9597639796666,342.5060719953298L678.7115568341936,343.35029382484566L684.4633496887207,344.24632222340864L690.2151425432478,345.2031670291139L695.9669353977749,346.2302385173052L701.718728252302,347.3317913337499L707.470521106829,348.5197885412519L713.222313961356,349.80494183621335L718.9741068158831,351.2013165769938L724.7258996704102,352.71832303893717L730.4776925249372,354.368174558128L736.2294853794643,356.1649865475819L741.9812782339914,358.1190202117963" fill="none"></path></g></g></g></g></g><g><g opacity="0.232387"><span fill="rgb(0, 0, 0)" stroke="none" stroke-width="1px">Alt + Scroll to Zoom</span></g></g></g><g transform="translate(51, 377)" clip-path="url(#clip_1)"><clipPath id="clip_1"><rect width="805" height="22"></rect></clipPath><g><g><line x1="0" y1="0" x2="0" y2="5" style="visibility: inherit;" fill="rgb(0, 0, 0)" stroke="rgb(204, 204, 204)" stroke-width="1px"></line><line x1="57.51792854527065" y1="0" x2="57.51792854527065" y2="5" style="visibility: inherit;" fill="rgb(0, 0, 0)" stroke="rgb(204, 204, 204)" stroke-width="1px"></line><line x1="115.0358570905413" y1="0" x2="115.0358570905413" y2="5" style="visibility: inherit;" fill="rgb(0, 0, 0)" stroke="rgb(204, 204, 204)" stroke-width="1px"></line><line x1="172.55378563581195" y1="0" x2="172.55378563581195" y2="5" style="visibility: inherit;" fill="rgb(0, 0, 0)" stroke="rgb(204, 204, 204)" stroke-width="1px"></line><line x1="230.0717141810826" y1="0" x2="230.0717141810826" y2="5" style="visibility: inherit;" fill="rgb(0, 0, 0)" stroke="rgb(204, 204, 204)" stroke-width="1px"></line><line x1="287.58964272635325" y1="0" x2="287.58964272635325" y2="5" style="visibility: inherit;" fill="rgb(0, 0, 0)" stroke="rgb(204, 204, 204)" stroke-width="1px"></line><line x1="345.1075712716239" y1="0" x2="345.1075712716239" y2="5" style="visibility: inherit;" fill="rgb(0, 0, 0)" stroke="rgb(204, 204, 204)" stroke-width="1px"></line><line x1="402.62549981689455" y1="0" x2="402.62549981689455" y2="5" style="visibility: inherit;" fill="rgb(0, 0, 0)" stroke="rgb(204, 204, 204)" stroke-width="1px"></line><line x1="460.1434283621652" y1="0" x2="460.1434283621652" y2="5" style="visibility: inherit;" fill="rgb(0, 0, 0)" stroke="rgb(204, 204, 204)" stroke-width="1px"></line><line x1="517.6613569074359" y1="0" x2="517.6613569074359" y2="5" style="visibility: inherit;" fill="rgb(0, 0, 0)" stroke="rgb(204, 204, 204)" stroke-width="1px"></line><line x1="575.1792854527065" y1="0" x2="575.1792854527065" y2="5" style="visibility: inherit;" fill="rgb(0, 0, 0)" stroke="rgb(204, 204, 204)" stroke-width="1px"></line><line x1="632.6972139979771" y1="0" x2="632.6972139979771" y2="5" style="visibility: inherit;" fill="rgb(0, 0, 0)" stroke="rgb(204, 204, 204)" stroke-width="1px"></line><line x1="690.2151425432478" y1="0" x2="690.2151425432478" y2="5" style="visibility: inherit;" fill="rgb(0, 0, 0)" stroke="rgb(204, 204, 204)" stroke-width="1px"></line><line x1="747.7330710885185" y1="0" x2="747.7330710885185" y2="5" style="visibility: inherit;" fill="rgb(0, 0, 0)" stroke="rgb(204, 204, 204)" stroke-width="1px"></line><line x1="805.2509996337891" y1="0" x2="805.2509996337891" y2="5" style="visibility: inherit;" fill="rgb(0, 0, 0)" stroke="rgb(204, 204, 204)" stroke-width="1px"></line></g><g transform="translate(0, 8)"><text style="text-anchor: middle; visibility: hidden; font-family: &quot;Helvetica Neue&quot;, sans-serif; font-size: 12px; font-weight: 200;" x="0" y="0" dx="0em" dy="0.95em" fill="rgb(50, 49, 63)" stroke="none" stroke-width="1px">-10</text><text style="text-anchor: middle; visibility: hidden; font-family: &quot;Helvetica Neue&quot;, sans-serif; font-size: 12px; font-weight: 200;" x="57.51792854527065" y="0" dx="0em" dy="0.95em" fill="rgb(50, 49, 63)" stroke="none" stroke-width="1px">0</text><text style="text-anchor: middle; visibility: hidden; font-family: &quot;Helvetica Neue&quot;, sans-serif; font-size: 12px; font-weight: 200;" x="115.0358570905413" y="0" dx="0em" dy="0.95em" fill="rgb(50, 49, 63)" stroke="none" stroke-width="1px">10</text><text style="text-anchor: middle; visibility: hidden; font-family: &quot;Helvetica Neue&quot;, sans-serif; font-size: 12px; font-weight: 200;" x="172.55378563581195" y="0" dx="0em" dy="0.95em" fill="rgb(50, 49, 63)" stroke="none" stroke-width="1px">20</text><text style="text-anchor: middle; visibility: hidden; font-family: &quot;Helvetica Neue&quot;, sans-serif; font-size: 12px; font-weight: 200;" x="230.0717141810826" y="0" dx="0em" dy="0.95em" fill="rgb(50, 49, 63)" stroke="none" stroke-width="1px">30</text><text style="text-anchor: middle; visibility: hidden; font-family: &quot;Helvetica Neue&quot;, sans-serif; font-size: 12px; font-weight: 200;" x="287.58964272635325" y="0" dx="0em" dy="0.95em" fill="rgb(50, 49, 63)" stroke="none" stroke-width="1px">40</text><text style="text-anchor: middle; visibility: hidden; font-family: &quot;Helvetica Neue&quot;, sans-serif; font-size: 12px; font-weight: 200;" x="345.1075712716239" y="0" dx="0em" dy="0.95em" fill="rgb(50, 49, 63)" stroke="none" stroke-width="1px">50</text><text style="text-anchor: middle; visibility: hidden; font-family: &quot;Helvetica Neue&quot;, sans-serif; font-size: 12px; font-weight: 200;" x="402.62549981689455" y="0" dx="0em" dy="0.95em" fill="rgb(50, 49, 63)" stroke="none" stroke-width="1px">60</text><text style="text-anchor: middle; visibility: hidden; font-family: &quot;Helvetica Neue&quot;, sans-serif; font-size: 12px; font-weight: 200;" x="460.1434283621652" y="0" dx="0em" dy="0.95em" fill="rgb(50, 49, 63)" stroke="none" stroke-width="1px">70</text><text style="text-anchor: middle; visibility: hidden; font-family: &quot;Helvetica Neue&quot;, sans-serif; font-size: 12px; font-weight: 200;" x="517.6613569074359" y="0" dx="0em" dy="0.95em" fill="rgb(50, 49, 63)" stroke="none" stroke-width="1px">80</text><text style="text-anchor: middle; visibility: hidden; font-family: &quot;Helvetica Neue&quot;, sans-serif; font-size: 12px; font-weight: 200;" x="575.1792854527065" y="0" dx="0em" dy="0.95em" fill="rgb(50, 49, 63)" stroke="none" stroke-width="1px">90</text><text style="text-anchor: middle; visibility: hidden; font-family: &quot;Helvetica Neue&quot;, sans-serif; font-size: 12px; font-weight: 200;" x="632.6972139979771" y="0" dx="0em" dy="0.95em" fill="rgb(50, 49, 63)" stroke="none" stroke-width="1px">100</text><text style="text-anchor: middle; visibility: hidden; font-family: &quot;Helvetica Neue&quot;, sans-serif; font-size: 12px; font-weight: 200;" x="690.2151425432478" y="0" dx="0em" dy="0.95em" fill="rgb(50, 49, 63)" stroke="none" stroke-width="1px">110</text><text style="text-anchor: middle; visibility: hidden; font-family: &quot;Helvetica Neue&quot;, sans-serif; font-size: 12px; font-weight: 200;" x="747.7330710885185" y="0" dx="0em" dy="0.95em" fill="rgb(50, 49, 63)" stroke="none" stroke-width="1px">120</text><text style="text-anchor: middle; visibility: hidden; font-family: &quot;Helvetica Neue&quot;, sans-serif; font-size: 12px; font-weight: 200;" x="805.2509996337891" y="0" dx="0em" dy="0.95em" fill="rgb(50, 49, 63)" stroke="none" stroke-width="1px">130</text></g><line x1="0" y1="0" x2="805.2509996337891" y2="0" fill="rgb(0, 0, 0)" stroke="rgb(204, 204, 204)" stroke-width="1px"></line></g></g></g></g></svg>