<svg viewBox="0 0 642.5390625 399.984375" xmlns="http://www.w3.org/2000/svg"><g><g><g><g><g><line x1="70" y1="377.984" x2="65" y2="377.984" style="visibility: inherit;" fill="rgb(0, 0, 0)" stroke="rgb(204, 204, 204)" stroke-width="1px"></line><line x1="70" y1="343.6218181818182" x2="65" y2="343.6218181818182" style="visibility: inherit;" fill="rgb(0, 0, 0)" stroke="rgb(204, 204, 204)" stroke-width="1px"></line><line x1="70" y1="309.25963636363633" x2="65" y2="309.25963636363633" style="visibility: inherit;" fill="rgb(0, 0, 0)" stroke="rgb(204, 204, 204)" stroke-width="1px"></line><line x1="70" y1="274.89745454545454" x2="65" y2="274.89745454545454" style="visibility: inherit;" fill="rgb(0, 0, 0)" stroke="rgb(204, 204, 204)" stroke-width="1px"></line><line x1="70" y1="240.5352727272727" x2="65" y2="240.5352727272727" style="visibility: inherit;" fill="rgb(0, 0, 0)" stroke="rgb(204, 204, 204)" stroke-width="1px"></line><line x1="70" y1="206.17309090909092" x2="65" y2="206.17309090909092" style="visibility: inherit;" fill="rgb(0, 0, 0)" stroke="rgb(204, 204, 204)" stroke-width="1px"></line><line x1="70" y1="171.8109090909091" x2="65" y2="171.8109090909091" style="visibility: inherit;" fill="rgb(0, 0, 0)" stroke="rgb(204, 204, 204)" stroke-width="1px"></line><line x1="70" y1="137.44872727272733" x2="65" y2="137.44872727272733" style="visibility: inherit;" fill="rgb(0, 0, 0)" stroke="rgb(204, 204, 204)" stroke-width="1px"></line><line x1="70" y1="103.0865454545455" x2="65" y2="103.0865454545455" style="visibility: inherit;" fill="rgb(0, 0, 0)" stroke="rgb(204, 204, 204)" stroke-width="1px"></line><line x1="70" y1="68.72436363636365" x2="65" y2="68.72436363636365" style="visibility: inherit;" fill="rgb(0, 0, 0)" stroke="rgb(204, 204, 204)" stroke-width="1px"></line><line x1="70" y1="34.36218181818185" x2="65" y2="34.36218181818185" style="visibility: inherit;" fill="rgb(0, 0, 0)" stroke="rgb(204, 204, 204)" stroke-width="1px"></line><line x1="70" y1="0" x2="65" y2="0" style="visibility: inherit;" fill="rgb(0, 0, 0)" stroke="rgb(204, 204, 204)" stroke-width="1px"></line></g><g transform="translate(60, 0)"><text x="0" y="377.984" dx="0em" dy="0.3em" style="text-anchor: end; visibility: hidden; font-family: &quot;Helvetica Neue&quot;, sans-serif; font-size: 12px; font-weight: 200;" fill="rgb(50, 49, 63)" stroke="none" stroke-width="1px">-0.05</text><text x="0" y="343.6218181818182" dx="0em" dy="0.3em" style="text-anchor: end; visibility: inherit; font-family: &quot;Helvetica Neue&quot;, sans-serif; font-size: 12px; font-weight: 200;" fill="rgb(50, 49, 63)" stroke="none" stroke-width="1px">0</text><text x="0" y="309.25963636363633" dx="0em" dy="0.3em" style="text-anchor: end; visibility: inherit; font-family: &quot;Helvetica Neue&quot;, sans-serif; font-size: 12px; font-weight: 200;" fill="rgb(50, 49, 63)" stroke="none" stroke-width="1px">0.05</text><text x="0" y="274.89745454545454" dx="0em" dy="0.3em" style="text-anchor: end; visibility: inherit; font-family: &quot;Helvetica Neue&quot;, sans-serif; font-size: 12px; font-weight: 200;" fill="rgb(50, 49, 63)" stroke="none" stroke-width="1px">0.1</text><text x="0" y="240.5352727272727" dx="0em" dy="0.3em" style="text-anchor: end; visibility: inherit; font-family: &quot;Helvetica Neue&quot;, sans-serif; font-size: 12px; font-weight: 200;" fill="rgb(50, 49, 63)" stroke="none" stroke-width="1px">0.15</text><text x="0" y="206.17309090909092" dx="0em" dy="0.3em" style="text-anchor: end; visibility: inherit; font-family: &quot;Helvetica Neue&quot;, sans-serif; font-size: 12px; font-weight: 200;" fill="rgb(50, 49, 63)" stroke="none" stroke-width="1px">0.2</text><text x="0" y="171.8109090909091" dx="0em" dy="0.3em" style="text-anchor: end; visibility: inherit; font-family: &quot;Helvetica Neue&quot;, sans-serif; font-size: 12px; font-weight: 200;" fill="rgb(50, 49, 63)" stroke="none" stroke-width="1px">0.25</text><text x="0" y="137.44872727272733" dx="0em" dy="0.3em" style="text-anchor: end; visibility: inherit; font-family: &quot;Helvetica Neue&quot;, sans-serif; font-size: 12px; font-weight: 200;" fill="rgb(50, 49, 63)" stroke="none" stroke-width="1px">0.3</text><text x="0" y="103.0865454545455" dx="0em" dy="0.3em" style="text-anchor: end; visibility: inherit; font-family: &quot;Helvetica Neue&quot;, sans-serif; font-size: 12px; font-weight: 200;" fill="rgb(50, 49, 63)" stroke="none" stroke-width="1px">0.35</text><text x="0" y="68.72436363636365" dx="0em" dy="0.3em" style="text-anchor: end; visibility: inherit; font-family: &quot;Helvetica Neue&quot;, sans-serif; font-size: 12px; font-weight: 200;" fill="rgb(50, 49, 63)" stroke="none" stroke-width="1px">0.4</text><text x="0" y="34.36218181818185" dx="0em" dy="0.3em" style="text-anchor: end; visibility: inherit; font-family: &quot;Helvetica Neue&quot;, sans-serif; font-size: 12px; font-weight: 200;" fill="rgb(50, 49, 63)" stroke="none" stroke-width="1px">0.45</text><text x="0" y="0" dx="0em" dy="0.3em" style="text-anchor: end; visibility: hidden; font-family: &quot;Helvetica Neue&quot;, sans-serif; font-size: 12px; font-weight: 200;" fill="rgb(50, 49, 63)" stroke="none" stroke-width="1px">0.5</text></g><line x1="70" y1="0" x2="70" y2="377.984" fill="rgb(0, 0, 0)" stroke="rgb(204, 204, 204)" stroke-width="1px"></line></g></g><g transform="translate(70, 0)" clip-path="url(#clip_0)"><clipPath id="clip_0"><rect width="572" height="377"></rect></clipPath><g><g><g><line x1="0" y1="0" x2="0" y2="377.984" fill="rgb(0, 0, 0)" stroke="rgb(60, 60, 60)" stroke-width="1px" opacity="0.25"></line><line x1="63.61544444444444" y1="0" x2="63.61544444444444" y2="377.984" fill="rgb(0, 0, 0)" stroke="rgb(60, 60, 60)" stroke-width="1px" opacity="0.25"></line><line x1="127.23088888888888" y1="0" x2="127.23088888888888" y2="377.984" fill="rgb(0, 0, 0)" stroke="rgb(60, 60, 60)" stroke-width="1px" opacity="0.25"></line><line x1="190.84633333333332" y1="0" x2="190.84633333333332" y2="377.984" fill="rgb(0, 0, 0)" stroke="rgb(60, 60, 60)" stroke-width="1px" opacity="0.25"></line><line x1="254.46177777777777" y1="0" x2="254.46177777777777" y2="377.984" fill="rgb(0, 0, 0)" stroke="rgb(60, 60, 60)" stroke-width="1px" opacity="0.25"></line><line x1="318.07722222222225" y1="0" x2="318.07722222222225" y2="377.984" fill="rgb(0, 0, 0)" stroke="rgb(60, 60, 60)" stroke-width="1px" opacity="0.25"></line><line x1="381.69266666666664" y1="0" x2="381.69266666666664" y2="377.984" fill="rgb(0, 0, 0)" stroke="rgb(60, 60, 60)" stroke-width="1px" opacity="0.25"></line><line x1="445.3081111111111" y1="0" x2="445.3081111111111" y2="377.984" fill="rgb(0, 0, 0)" stroke="rgb(60, 60, 60)" stroke-width="1px" opacity="0.25"></line><line x1="508.92355555555554" y1="0" x2="508.92355555555554" y2="377.984" fill="rgb(0, 0, 0)" stroke="rgb(60, 60, 60)" stroke-width="1px" opacity="0.25"></line><line x1="572.539" y1="0" x2="572.539" y2="377.984" fill="rgb(0, 0, 0)" stroke="rgb(60, 60, 60)" stroke-width="1px" opacity="0.25"></line></g><g><line x1="0" y1="377.984" x2="572.539" y2="377.984" fill="rgb(0, 0, 0)" stroke="rgb(60, 60, 60)" stroke-width="1px" opacity="0.25"></line><line x1="0" y1="343.6218181818182" x2="572.539" y2="343.6218181818182" fill="rgb(0, 0, 0)" stroke="rgb(60, 60, 60)" stroke-width="1px" opacity="0.25"></line><line x1="0" y1="309.25963636363633" x2="572.539" y2="309.25963636363633" fill="rgb(0, 0, 0)" stroke="rgb(60, 60, 60)" stroke-width="1px" opacity="0.25"></line><line x1="0" y1="274.89745454545454" x2="572.539" y2="274.89745454545454" fill="rgb(0, 0, 0)" stroke="rgb(60, 60, 60)" stroke-width="1px" opacity="0.25"></line><line x1="0" y1="240.5352727272727" x2="572.539" y2="240.5352727272727" fill="rgb(0, 0, 0)" stroke="rgb(60, 60, 60)" stroke-width="1px" opacity="0.25"></line><line x1="0" y1="206.17309090909092" x2="572.539" y2="206.17309090909092" fill="rgb(0, 0, 0)" stroke="rgb(60, 60, 60)" stroke-width="1px" opacity="0.25"></line><line x1="0" y1="171.8109090909091" x2="572.539" y2="171.8109090909091" fill="rgb(0, 0, 0)" stroke="rgb(60, 60, 60)" stroke-width="1px" opacity="0.25"></line><line x1="0" y1="137.44872727272733" x2="572.539" y2="137.44872727272733" fill="rgb(0, 0, 0)" stroke="rgb(60, 60, 60)" stroke-width="1px" opacity="0.25"></line><line x1="0" y1="103.0865454545455" x2="572.539" y2="103.0865454545455" fill="rgb(0, 0, 0)" stroke="rgb(60, 60, 60)" stroke-width="1px" opacity="0.25"></line><line x1="0" y1="68.72436363636365" x2="572.539" y2="68.72436363636365" fill="rgb(0, 0, 0)" stroke="rgb(60, 60, 60)" stroke-width="1px" opacity="0.25"></line><line x1="0" y1="34.36218181818185" x2="572.539" y2="34.36218181818185" fill="rgb(0, 0, 0)" stroke="rgb(60, 60, 60)" stroke-width="1px" opacity="0.25"></line><line x1="0" y1="0" x2="572.539" y2="0" fill="rgb(0, 0, 0)" stroke="rgb(60, 60, 60)" stroke-width="1px" opacity="0.25"></line></g></g></g><g><g><line x1="0" y1="343.6218181818182" x2="572.539" y2="343.6218181818182" fill="rgb(0, 0, 0)" stroke="rgb(153, 153, 153)" stroke-width="1.5px"></line></g></g><g><g><line x1="63.61544444444444" y1="0" x2="63.61544444444444" y2="377.984" fill="rgb(0, 0, 0)" stroke="rgb(153, 153, 153)" stroke-width="1.5px"></line></g></g><g><g><g><g><g><path stroke="rgb(204, 51, 17)" stroke-width="2px" d="M63.61544444444444,238.47354378440164L76.33853333333333,232.7465125426379L89.06162222222223,226.55196724022917L101.78471111111111,218.55526530380556L114.5078,209.3098015027392L127.23088888888888,200.30435850821138L139.95397777777777,192.63241132704974L152.67706666666666,186.39828097863798L165.40015555555553,180.04110454472237L178.12324444444445,174.23987051090816L190.84633333333332,169.40217094089803L203.56942222222222,164.30682668200288L216.2925111111111,159.23818375401746L229.0156,154.55055650690753L241.73868888888887,149.2650904232824L254.46177777777777,142.97902267594083L267.18486666666666,137.55884987229777L279.90795555555553,131.64972562605067L292.6310444444444,126.36350698199908L305.3541333333333,120.80945087885812L318.07722222222225,114.17830686787539L330.80031111111106,108.09213576399247L343.5234,102.33292586209404L356.2464888888889,96.40333929805553L368.9695777777778,91.83764446528596L381.69266666666664,88.27353633509443L394.41575555555556,84.66895384954978L407.13884444444443,81.22335400561889L419.8619333333333,77.96477712458017L432.5850222222222,75.4598356195416L445.3081111111111,73.40707497472636L458.0312,71.62562269506248L470.7542888888889,70.28185748952666L483.47737777777775,68.55926621382639L496.20046666666667,67.34245159747024L508.92355555555554,66.33746073027629L521.6466444444444,65.45957229954297L534.3697333333333,64.65794532820962L547.0928222222223,63.81043300258824L559.8159111111111,62.7521295844067" style="fill: none;" fill="none"></path></g><g><path stroke="rgb(0, 119, 187)" stroke-width="2px" d="M63.61544444444444,243.28248734214088L76.33853333333333,238.32428517081522L89.06162222222223,231.40978206089565L101.78471111111111,223.56579571377148L114.5078,214.76473573885525L127.23088888888888,205.85476444709207L139.95397777777777,196.67146731150177L152.67706666666666,188.3404372598227L165.40015555555553,180.89950310226996L178.12324444444445,174.23661448887748L190.84633333333332,168.062920558694L203.56942222222222,162.66519702688416L216.2925111111111,157.64926026416578L229.0156,152.52673008528498L241.73868888888887,147.4764740434869L254.46177777777777,142.46889647985108L267.18486666666666,137.19266496307617L279.90795555555553,131.87260504563815L292.6310444444444,126.3302132280242L305.3541333333333,120.71311745214712L318.07722222222225,114.40473096647224L330.80031111111106,108.66097271855011L343.5234,103.00130129461348L356.2464888888889,97.52919727505423L368.9695777777778,92.65932225221502L381.69266666666664,88.09201320315657L394.41575555555556,84.35264460482915L407.13884444444443,81.44303406447915L419.8619333333333,79.26633888216446L432.5850222222222,76.90256952481508L445.3081111111111,75.05337015224262L458.0312,73.10157120525122L470.7542888888889,71.59749620967779L483.47737777777775,70.12700214479037L496.20046666666667,68.50036043859865L508.92355555555554,66.97591479479871L521.6466444444444,65.78701710072272L534.3697333333333,64.76027124183952L547.0928222222223,63.73287415749877L559.8159111111111,62.78344019702098" style="fill: none;" fill="none"></path></g></g></g></g><g opacity="0.2"><g><g><g><path stroke="rgb(204, 51, 17)" stroke-width="2px" d="M63.61544444444444,238.47354378440164L76.33853333333333,229.3102937975797L89.06162222222223,220.60520374991677L101.78471111111111,209.1511438265714L114.5078,197.23892396406694L127.23088888888888,187.84658888730138L139.95397777777777,181.66140410683371L152.67706666666666,177.3088590830023L165.40015555555553,170.66550412264738L178.12324444444445,165.62571406971327L190.84633333333332,162.1894991649281L203.56942222222222,156.69153893210674L216.2925111111111,151.651769360629L229.0156,147.528299186013L241.73868888888887,141.34310416481716L254.46177777777777,133.55435447692875L267.18486666666666,129.43088430231268L279.90795555555553,122.78753958268598L292.6310444444444,118.43498431812634L305.3541333333333,112.47887438687411L318.07722222222225,104.23195451909851L330.80031111111106,98.96307937622072L343.5234,93.69422471479942L356.2464888888889,87.50902969360357L368.9695777777778,84.98913466713651L381.69266666666664,82.92738933910027L394.41575555555556,79.26208934437147L407.13884444444443,76.05495952952992L419.8619333333333,73.076914804632L432.5850222222222,71.70242474642669L445.3081111111111,70.32793468822132L458.0312,68.95344463001601L470.7542888888889,68.26620984164151L483.47737777777775,65.9753794236617L496.20046666666667,65.51722972523083L508.92355555555554,64.82997445539996L521.6466444444444,64.14273966702552L534.3697333333333,63.45550487865103L547.0928222222223,62.53916451887653L559.8159111111111,61.16467446067122" style="fill: none;" fill="none"></path></g><g><path stroke="rgb(0, 119, 187)" stroke-width="2px" d="M63.61544444444444,243.28248734214088L76.33853333333333,235.3493638680198L89.06162222222223,224.77185907537287L101.78471111111111,214.34126776955347L114.5078,203.2740718356046L127.23088888888888,193.52906656091866L139.95397777777777,183.53920547485356L152.67706666666666,176.19371546658604L165.40015555555553,169.92557054693052L178.12324444444445,164.34300141768026L190.84633333333332,158.85837461298163L203.56942222222222,154.59798590226606L216.2925111111111,150.1417330239036L229.0156,144.85297038685192L241.73868888888887,139.90702636718754L254.46177777777777,134.9610618660667L267.18486666666666,129.28055041226474L279.90795555555553,123.89386593211782L292.6310444444444,118.01746982921253L305.3541333333333,112.28798721313478L318.07722222222225,104.94249720486732L330.80031111111106,100.0455243474787L343.5234,94.51190589904786L356.2464888888889,89.32110606800427L368.9695777777778,85.35454433094372L381.69266666666664,81.2410691070557L394.41575555555556,78.74360127535732L407.13884444444443,77.07862272089181L419.8619333333333,76.00129811373625L432.5850222222222,73.35691679521045L445.3081111111111,72.27957170659846L458.0312,70.17387317310681L470.7542888888889,69.34138389587406L483.47737777777775,67.92126115278768L496.20046666666667,66.06039794921878L508.92355555555554,64.68924636840825L521.6466444444444,64.00367057800298L534.3697333333333,63.22015246304602L547.0928222222223,62.191778536709876L559.8159111111111,61.35928925947712" style="fill: none;" fill="none"></path></g></g></g></g></g></g><g transform="translate(70, 377)" clip-path="url(#clip_1)"><clipPath id="clip_1"><rect width="572" height="21"></rect></clipPath><g><g><line x1="0" y1="0" x2="0" y2="5" style="visibility: inherit;" fill="rgb(0, 0, 0)" stroke="rgb(204, 204, 204)" stroke-width="1px"></line><line x1="63.61544444444444" y1="0" x2="63.61544444444444" y2="5" style="visibility: inherit;" fill="rgb(0, 0, 0)" stroke="rgb(204, 204, 204)" stroke-width="1px"></line><line x1="127.23088888888888" y1="0" x2="127.23088888888888" y2="5" style="visibility: inherit;" fill="rgb(0, 0, 0)" stroke="rgb(204, 204, 204)" stroke-width="1px"></line><line x1="190.84633333333332" y1="0" x2="190.84633333333332" y2="5" style="visibility: inherit;" fill="rgb(0, 0, 0)" stroke="rgb(204, 204, 204)" stroke-width="1px"></line><line x1="254.46177777777777" y1="0" x2="254.46177777777777" y2="5" style="visibility: inherit;" fill="rgb(0, 0, 0)" stroke="rgb(204, 204, 204)" stroke-width="1px"></line><line x1="318.07722222222225" y1="0" x2="318.07722222222225" y2="5" style="visibility: inherit;" fill="rgb(0, 0, 0)" stroke="rgb(204, 204, 204)" stroke-width="1px"></line><line x1="381.69266666666664" y1="0" x2="381.69266666666664" y2="5" style="visibility: inherit;" fill="rgb(0, 0, 0)" stroke="rgb(204, 204, 204)" stroke-width="1px"></line><line x1="445.3081111111111" y1="0" x2="445.3081111111111" y2="5" style="visibility: inherit;" fill="rgb(0, 0, 0)" stroke="rgb(204, 204, 204)" stroke-width="1px"></line><line x1="508.92355555555554" y1="0" x2="508.92355555555554" y2="5" style="visibility: inherit;" fill="rgb(0, 0, 0)" stroke="rgb(204, 204, 204)" stroke-width="1px"></line><line x1="572.539" y1="0" x2="572.539" y2="5" style="visibility: inherit;" fill="rgb(0, 0, 0)" stroke="rgb(204, 204, 204)" stroke-width="1px"></line></g><g transform="translate(0, 8)"><text x="0" y="0" dx="0em" dy="0.95em" style="text-anchor: middle; visibility: hidden; font-family: &quot;Helvetica Neue&quot;, sans-serif; font-size: 12px; font-weight: 200;" fill="rgb(50, 49, 63)" stroke="none" stroke-width="1px">-5</text><text x="63.61544444444444" y="0" dx="0em" dy="0.95em" style="text-anchor: middle; visibility: inherit; font-family: &quot;Helvetica Neue&quot;, sans-serif; font-size: 12px; font-weight: 200;" fill="rgb(50, 49, 63)" stroke="none" stroke-width="1px">0</text><text x="127.23088888888888" y="0" dx="0em" dy="0.95em" style="text-anchor: middle; visibility: inherit; font-family: &quot;Helvetica Neue&quot;, sans-serif; font-size: 12px; font-weight: 200;" fill="rgb(50, 49, 63)" stroke="none" stroke-width="1px">5</text><text x="190.84633333333332" y="0" dx="0em" dy="0.95em" style="text-anchor: middle; visibility: inherit; font-family: &quot;Helvetica Neue&quot;, sans-serif; font-size: 12px; font-weight: 200;" fill="rgb(50, 49, 63)" stroke="none" stroke-width="1px">10</text><text x="254.46177777777777" y="0" dx="0em" dy="0.95em" style="text-anchor: middle; visibility: inherit; font-family: &quot;Helvetica Neue&quot;, sans-serif; font-size: 12px; font-weight: 200;" fill="rgb(50, 49, 63)" stroke="none" stroke-width="1px">15</text><text x="318.07722222222225" y="0" dx="0em" dy="0.95em" style="text-anchor: middle; visibility: inherit; font-family: &quot;Helvetica Neue&quot;, sans-serif; font-size: 12px; font-weight: 200;" fill="rgb(50, 49, 63)" stroke="none" stroke-width="1px">20</text><text x="381.69266666666664" y="0" dx="0em" dy="0.95em" style="text-anchor: middle; visibility: inherit; font-family: &quot;Helvetica Neue&quot;, sans-serif; font-size: 12px; font-weight: 200;" fill="rgb(50, 49, 63)" stroke="none" stroke-width="1px">25</text><text x="445.3081111111111" y="0" dx="0em" dy="0.95em" style="text-anchor: middle; visibility: inherit; font-family: &quot;Helvetica Neue&quot;, sans-serif; font-size: 12px; font-weight: 200;" fill="rgb(50, 49, 63)" stroke="none" stroke-width="1px">30</text><text x="508.92355555555554" y="0" dx="0em" dy="0.95em" style="text-anchor: middle; visibility: inherit; font-family: &quot;Helvetica Neue&quot;, sans-serif; font-size: 12px; font-weight: 200;" fill="rgb(50, 49, 63)" stroke="none" stroke-width="1px">35</text><text x="572.539" y="0" dx="0em" dy="0.95em" style="text-anchor: middle; visibility: hidden; font-family: &quot;Helvetica Neue&quot;, sans-serif; font-size: 12px; font-weight: 200;" fill="rgb(50, 49, 63)" stroke="none" stroke-width="1px">40</text></g><line x1="0" y1="0" x2="572.539" y2="0" fill="rgb(0, 0, 0)" stroke="rgb(204, 204, 204)" stroke-width="1px"></line></g></g></g></g></svg>