<svg viewBox="0 0 889.2890625 399.984375" xmlns="http://www.w3.org/2000/svg"><g><g><g><g><g><line x1="58" y1="377.984" x2="53" y2="377.984" style="visibility: inherit;" fill="rgb(0, 0, 0)" stroke="rgb(204, 204, 204)" stroke-width="1px"></line><line x1="58" y1="350.9851428571429" x2="53" y2="350.9851428571429" style="visibility: inherit;" fill="rgb(0, 0, 0)" stroke="rgb(204, 204, 204)" stroke-width="1px"></line><line x1="58" y1="323.9862857142857" x2="53" y2="323.9862857142857" style="visibility: inherit;" fill="rgb(0, 0, 0)" stroke="rgb(204, 204, 204)" stroke-width="1px"></line><line x1="58" y1="296.98742857142855" x2="53" y2="296.98742857142855" style="visibility: inherit;" fill="rgb(0, 0, 0)" stroke="rgb(204, 204, 204)" stroke-width="1px"></line><line x1="58" y1="269.98857142857145" x2="53" y2="269.98857142857145" style="visibility: inherit;" fill="rgb(0, 0, 0)" stroke="rgb(204, 204, 204)" stroke-width="1px"></line><line x1="58" y1="242.98971428571426" x2="53" y2="242.98971428571426" style="visibility: inherit;" fill="rgb(0, 0, 0)" stroke="rgb(204, 204, 204)" stroke-width="1px"></line><line x1="58" y1="215.99085714285712" x2="53" y2="215.99085714285712" style="visibility: inherit;" fill="rgb(0, 0, 0)" stroke="rgb(204, 204, 204)" stroke-width="1px"></line><line x1="58" y1="188.99200000000002" x2="53" y2="188.99200000000002" style="visibility: inherit;" fill="rgb(0, 0, 0)" stroke="rgb(204, 204, 204)" stroke-width="1px"></line><line x1="58" y1="161.99314285714286" x2="53" y2="161.99314285714286" style="visibility: inherit;" fill="rgb(0, 0, 0)" stroke="rgb(204, 204, 204)" stroke-width="1px"></line><line x1="58" y1="134.9942857142857" x2="53" y2="134.9942857142857" style="visibility: inherit;" fill="rgb(0, 0, 0)" stroke="rgb(204, 204, 204)" stroke-width="1px"></line><line x1="58" y1="107.99542857142859" x2="53" y2="107.99542857142859" style="visibility: inherit;" fill="rgb(0, 0, 0)" stroke="rgb(204, 204, 204)" stroke-width="1px"></line><line x1="58" y1="80.99657142857143" x2="53" y2="80.99657142857143" style="visibility: inherit;" fill="rgb(0, 0, 0)" stroke="rgb(204, 204, 204)" stroke-width="1px"></line><line x1="58" y1="53.99771428571432" x2="53" y2="53.99771428571432" style="visibility: inherit;" fill="rgb(0, 0, 0)" stroke="rgb(204, 204, 204)" stroke-width="1px"></line><line x1="58" y1="26.99885714285716" x2="53" y2="26.99885714285716" style="visibility: inherit;" fill="rgb(0, 0, 0)" stroke="rgb(204, 204, 204)" stroke-width="1px"></line><line x1="58" y1="0" x2="53" y2="0" style="visibility: inherit;" fill="rgb(0, 0, 0)" stroke="rgb(204, 204, 204)" stroke-width="1px"></line></g><g transform="translate(48, 0)"><text x="0" y="377.984" dx="0em" dy="0.3em" style="text-anchor: end; visibility: hidden; font-family: &quot;Helvetica Neue&quot;, sans-serif; font-size: 12px; font-weight: 200;" fill="rgb(50, 49, 63)" stroke="none" stroke-width="1px">0.16</text><text x="0" y="350.9851428571429" dx="0em" dy="0.3em" style="text-anchor: end; visibility: inherit; font-family: &quot;Helvetica Neue&quot;, sans-serif; font-size: 12px; font-weight: 200;" fill="rgb(50, 49, 63)" stroke="none" stroke-width="1px">0.18</text><text x="0" y="323.9862857142857" dx="0em" dy="0.3em" style="text-anchor: end; visibility: inherit; font-family: &quot;Helvetica Neue&quot;, sans-serif; font-size: 12px; font-weight: 200;" fill="rgb(50, 49, 63)" stroke="none" stroke-width="1px">0.2</text><text x="0" y="296.98742857142855" dx="0em" dy="0.3em" style="text-anchor: end; visibility: inherit; font-family: &quot;Helvetica Neue&quot;, sans-serif; font-size: 12px; font-weight: 200;" fill="rgb(50, 49, 63)" stroke="none" stroke-width="1px">0.22</text><text x="0" y="269.98857142857145" dx="0em" dy="0.3em" style="text-anchor: end; visibility: inherit; font-family: &quot;Helvetica Neue&quot;, sans-serif; font-size: 12px; font-weight: 200;" fill="rgb(50, 49, 63)" stroke="none" stroke-width="1px">0.24</text><text x="0" y="242.98971428571426" dx="0em" dy="0.3em" style="text-anchor: end; visibility: inherit; font-family: &quot;Helvetica Neue&quot;, sans-serif; font-size: 12px; font-weight: 200;" fill="rgb(50, 49, 63)" stroke="none" stroke-width="1px">0.26</text><text x="0" y="215.99085714285712" dx="0em" dy="0.3em" style="text-anchor: end; visibility: inherit; font-family: &quot;Helvetica Neue&quot;, sans-serif; font-size: 12px; font-weight: 200;" fill="rgb(50, 49, 63)" stroke="none" stroke-width="1px">0.28</text><text x="0" y="188.99200000000002" dx="0em" dy="0.3em" style="text-anchor: end; visibility: inherit; font-family: &quot;Helvetica Neue&quot;, sans-serif; font-size: 12px; font-weight: 200;" fill="rgb(50, 49, 63)" stroke="none" stroke-width="1px">0.3</text><text x="0" y="161.99314285714286" dx="0em" dy="0.3em" style="text-anchor: end; visibility: inherit; font-family: &quot;Helvetica Neue&quot;, sans-serif; font-size: 12px; font-weight: 200;" fill="rgb(50, 49, 63)" stroke="none" stroke-width="1px">0.32</text><text x="0" y="134.9942857142857" dx="0em" dy="0.3em" style="text-anchor: end; visibility: inherit; font-family: &quot;Helvetica Neue&quot;, sans-serif; font-size: 12px; font-weight: 200;" fill="rgb(50, 49, 63)" stroke="none" stroke-width="1px">0.34</text><text x="0" y="107.99542857142859" dx="0em" dy="0.3em" style="text-anchor: end; visibility: inherit; font-family: &quot;Helvetica Neue&quot;, sans-serif; font-size: 12px; font-weight: 200;" fill="rgb(50, 49, 63)" stroke="none" stroke-width="1px">0.36</text><text x="0" y="80.99657142857143" dx="0em" dy="0.3em" style="text-anchor: end; visibility: inherit; font-family: &quot;Helvetica Neue&quot;, sans-serif; font-size: 12px; font-weight: 200;" fill="rgb(50, 49, 63)" stroke="none" stroke-width="1px">0.38</text><text x="0" y="53.99771428571432" dx="0em" dy="0.3em" style="text-anchor: end; visibility: inherit; font-family: &quot;Helvetica Neue&quot;, sans-serif; font-size: 12px; font-weight: 200;" fill="rgb(50, 49, 63)" stroke="none" stroke-width="1px">0.4</text><text x="0" y="26.99885714285716" dx="0em" dy="0.3em" style="text-anchor: end; visibility: inherit; font-family: &quot;Helvetica Neue&quot;, sans-serif; font-size: 12px; font-weight: 200;" fill="rgb(50, 49, 63)" stroke="none" stroke-width="1px">0.42</text><text x="0" y="0" dx="0em" dy="0.3em" style="text-anchor: end; visibility: hidden; font-family: &quot;Helvetica Neue&quot;, sans-serif; font-size: 12px; font-weight: 200;" fill="rgb(50, 49, 63)" stroke="none" stroke-width="1px">0.44</text></g><line x1="58" y1="0" x2="58" y2="377.984" fill="rgb(0, 0, 0)" stroke="rgb(204, 204, 204)" stroke-width="1px"></line></g></g><g transform="translate(58, 0)" clip-path="url(#clip_0)"><clipPath id="clip_0"><rect width="584" height="377"></rect></clipPath><g><g><g><line x1="0" y1="0" x2="0" y2="377.984" fill="rgb(0, 0, 0)" stroke="rgb(60, 60, 60)" stroke-width="1px" opacity="0.25"></line><line x1="41.752785714285714" y1="0" x2="41.752785714285714" y2="377.984" fill="rgb(0, 0, 0)" stroke="rgb(60, 60, 60)" stroke-width="1px" opacity="0.25"></line><line x1="83.50557142857143" y1="0" x2="83.50557142857143" y2="377.984" fill="rgb(0, 0, 0)" stroke="rgb(60, 60, 60)" stroke-width="1px" opacity="0.25"></line><line x1="125.25835714285714" y1="0" x2="125.25835714285714" y2="377.984" fill="rgb(0, 0, 0)" stroke="rgb(60, 60, 60)" stroke-width="1px" opacity="0.25"></line><line x1="167.01114285714286" y1="0" x2="167.01114285714286" y2="377.984" fill="rgb(0, 0, 0)" stroke="rgb(60, 60, 60)" stroke-width="1px" opacity="0.25"></line><line x1="208.76392857142858" y1="0" x2="208.76392857142858" y2="377.984" fill="rgb(0, 0, 0)" stroke="rgb(60, 60, 60)" stroke-width="1px" opacity="0.25"></line><line x1="250.51671428571427" y1="0" x2="250.51671428571427" y2="377.984" fill="rgb(0, 0, 0)" stroke="rgb(60, 60, 60)" stroke-width="1px" opacity="0.25"></line><line x1="292.2695" y1="0" x2="292.2695" y2="377.984" fill="rgb(0, 0, 0)" stroke="rgb(60, 60, 60)" stroke-width="1px" opacity="0.25"></line><line x1="334.0222857142857" y1="0" x2="334.0222857142857" y2="377.984" fill="rgb(0, 0, 0)" stroke="rgb(60, 60, 60)" stroke-width="1px" opacity="0.25"></line><line x1="375.77507142857144" y1="0" x2="375.77507142857144" y2="377.984" fill="rgb(0, 0, 0)" stroke="rgb(60, 60, 60)" stroke-width="1px" opacity="0.25"></line><line x1="417.52785714285716" y1="0" x2="417.52785714285716" y2="377.984" fill="rgb(0, 0, 0)" stroke="rgb(60, 60, 60)" stroke-width="1px" opacity="0.25"></line><line x1="459.2806428571428" y1="0" x2="459.2806428571428" y2="377.984" fill="rgb(0, 0, 0)" stroke="rgb(60, 60, 60)" stroke-width="1px" opacity="0.25"></line><line x1="501.03342857142854" y1="0" x2="501.03342857142854" y2="377.984" fill="rgb(0, 0, 0)" stroke="rgb(60, 60, 60)" stroke-width="1px" opacity="0.25"></line><line x1="542.7862142857143" y1="0" x2="542.7862142857143" y2="377.984" fill="rgb(0, 0, 0)" stroke="rgb(60, 60, 60)" stroke-width="1px" opacity="0.25"></line><line x1="584.539" y1="0" x2="584.539" y2="377.984" fill="rgb(0, 0, 0)" stroke="rgb(60, 60, 60)" stroke-width="1px" opacity="0.25"></line></g><g><line x1="0" y1="377.984" x2="584.539" y2="377.984" fill="rgb(0, 0, 0)" stroke="rgb(60, 60, 60)" stroke-width="1px" opacity="0.25"></line><line x1="0" y1="350.9851428571429" x2="584.539" y2="350.9851428571429" fill="rgb(0, 0, 0)" stroke="rgb(60, 60, 60)" stroke-width="1px" opacity="0.25"></line><line x1="0" y1="323.9862857142857" x2="584.539" y2="323.9862857142857" fill="rgb(0, 0, 0)" stroke="rgb(60, 60, 60)" stroke-width="1px" opacity="0.25"></line><line x1="0" y1="296.98742857142855" x2="584.539" y2="296.98742857142855" fill="rgb(0, 0, 0)" stroke="rgb(60, 60, 60)" stroke-width="1px" opacity="0.25"></line><line x1="0" y1="269.98857142857145" x2="584.539" y2="269.98857142857145" fill="rgb(0, 0, 0)" stroke="rgb(60, 60, 60)" stroke-width="1px" opacity="0.25"></line><line x1="0" y1="242.98971428571426" x2="584.539" y2="242.98971428571426" fill="rgb(0, 0, 0)" stroke="rgb(60, 60, 60)" stroke-width="1px" opacity="0.25"></line><line x1="0" y1="215.99085714285712" x2="584.539" y2="215.99085714285712" fill="rgb(0, 0, 0)" stroke="rgb(60, 60, 60)" stroke-width="1px" opacity="0.25"></line><line x1="0" y1="188.99200000000002" x2="584.539" y2="188.99200000000002" fill="rgb(0, 0, 0)" stroke="rgb(60, 60, 60)" stroke-width="1px" opacity="0.25"></line><line x1="0" y1="161.99314285714286" x2="584.539" y2="161.99314285714286" fill="rgb(0, 0, 0)" stroke="rgb(60, 60, 60)" stroke-width="1px" opacity="0.25"></line><line x1="0" y1="134.9942857142857" x2="584.539" y2="134.9942857142857" fill="rgb(0, 0, 0)" stroke="rgb(60, 60, 60)" stroke-width="1px" opacity="0.25"></line><line x1="0" y1="107.99542857142859" x2="584.539" y2="107.99542857142859" fill="rgb(0, 0, 0)" stroke="rgb(60, 60, 60)" stroke-width="1px" opacity="0.25"></line><line x1="0" y1="80.99657142857143" x2="584.539" y2="80.99657142857143" fill="rgb(0, 0, 0)" stroke="rgb(60, 60, 60)" stroke-width="1px" opacity="0.25"></line><line x1="0" y1="53.99771428571432" x2="584.539" y2="53.99771428571432" fill="rgb(0, 0, 0)" stroke="rgb(60, 60, 60)" stroke-width="1px" opacity="0.25"></line><line x1="0" y1="26.99885714285716" x2="584.539" y2="26.99885714285716" fill="rgb(0, 0, 0)" stroke="rgb(60, 60, 60)" stroke-width="1px" opacity="0.25"></line><line x1="0" y1="0" x2="584.539" y2="0" fill="rgb(0, 0, 0)" stroke="rgb(60, 60, 60)" stroke-width="1px" opacity="0.25"></line></g></g></g><g><g><line x1="0" y1="593.9748571428571" x2="584.539" y2="593.9748571428571" fill="rgb(0, 0, 0)" stroke="rgb(153, 153, 153)" stroke-width="1.5px"></line></g></g><g><g><line x1="41.752785714285714" y1="0" x2="41.752785714285714" y2="377.984" fill="rgb(0, 0, 0)" stroke="rgb(153, 153, 153)" stroke-width="1.5px"></line></g></g><g><g><g><g><g><path stroke="rgb(238, 51, 119)" stroke-width="2px" d="M41.752785714285714,331.63596667889186L50.103342857142856,320.38644102542736L58.453900000000004,305.6931791803955L66.80445714285715,292.17990655584896L75.15501428571427,275.5288591562711L83.50557142857143,258.4778028518186L91.85612857142857,243.4008748080668L100.20668571428571,229.503562477329L108.55724285714285,215.86134819309183L116.90780000000001,200.88322109506896L125.25835714285714,187.25767811411265L133.6089142857143,175.1455849623219L141.95947142857142,164.47088771550133L150.31002857142855,155.37299863865505L158.6605857142857,147.93798132297516L167.01114285714286,140.7785638772463L175.36169999999998,135.0440312579936L183.71225714285714,129.8038280634571L192.06281428571427,124.68000859581909L200.41337142857142,120.8859087106116L208.76392857142858,116.989575358948L217.1144857142857,113.39186156578324L225.46504285714286,109.97331783678925L233.81560000000002,107.02224356685934L242.16615714285714,103.27168480447432L250.51671428571427,100.84136063648822L258.8672714285714,97.5832448537526L267.2178285714286,94.90841145748317L275.5683857142857,93.30351247098577L283.91894285714284,90.54065096664351L292.2695,87.62298238570548L300.6200571428571,85.51239060055445L308.9706142857143,83.8860608567253L317.3211714285714,81.65031112191434L325.67172857142856,79.76889112187604L334.0222857142857,77.92005742387494L342.37284285714287,76.63076178835212L350.72339999999997,75.49720964775554L359.0739571428572,74.81707836609144L367.4245142857143,74.40899959806262L375.77507142857144,72.00423938725379L384.12562857142854,70.56138326200283L392.4761857142857,69.69566958729678L400.82674285714285,68.996245954789L409.17729999999995,68.21661701227168L417.52785714285716,67.20885336334095L425.87841428571426,66.24422041095647L434.2289714285714,65.48544521173193L442.57952857142857,64.67018923657764L450.9300857142857,63.281074604993364L459.2806428571428,61.36764935174051L467.63120000000004,58.95965839024694L475.98175714285713,57.15487295772908L484.3323142857143,55.172040651728025L492.68287142857145,53.26237564944978L501.03342857142854,51.936581220270625L509.3839857142857,50.96110913495056L517.7345428571429,49.835855692893006L526.0851,48.440721916407085L534.4356571428572,47.24366688746284" style="fill: none;" fill="none"></path></g><g><path stroke="rgb(51, 187, 238)" stroke-width="2px" d="M41.752785714285714,341.08902561650956L50.103342857142856,331.04909569011414L58.453900000000004,318.16025591612834L66.80445714285715,303.5445202115594L75.15501428571427,285.2839631793387L83.50557142857143,267.1686366584132L91.85612857142857,249.61197883463186L100.20668571428571,233.56698481681744L108.55724285714285,218.5560924402409L116.90780000000001,205.0404170790597L125.25835714285714,192.34954158620164L133.6089142857143,179.79025513759953L141.95947142857142,169.7679694547293L150.31002857142855,161.14455139746454L158.6605857142857,153.47268819176116L167.01114285714286,146.8320532300604L175.36169999999998,140.84775921281422L183.71225714285714,135.68014818558734L192.06281428571427,130.23270487498053L200.41337142857142,125.50230717281411L208.76392857142858,121.50986585186217L217.1144857142857,118.2294826957625L225.46504285714286,115.68413184341017L233.81560000000002,113.50283237974935L242.16615714285714,111.11672286868094L250.51671428571427,108.64618759582885L258.8672714285714,105.85567035468034L267.2178285714286,103.14250515678532L275.5683857142857,100.66812136571792L283.91894285714284,98.22159010235805L292.2695,95.5609061219946L300.6200571428571,93.38735187946594L308.9706142857143,91.42912069559947L317.3211714285714,89.52312862277796L325.67172857142856,87.76391202741428L334.0222857142857,86.13123804934861L342.37284285714287,84.4205802673606L350.72339999999997,83.04790562013699L359.0739571428572,81.68561804883052L367.4245142857143,80.21414678928898L375.77507142857144,78.90802936738675L384.12562857142854,77.27787348774189L392.4761857142857,75.29940125882194L400.82674285714285,73.45821920389642L409.17729999999995,71.81484327862802L417.52785714285716,70.0977643221288L425.87841428571426,68.18257027228282L434.2289714285714,66.57172574095284L442.57952857142857,64.9895976461321L450.9300857142857,63.0784194296873L459.2806428571428,61.623893765523746L467.63120000000004,60.55880775066163L475.98175714285713,59.68889209101701L484.3323142857143,58.93607864450206L492.68287142857145,57.98420122592012L501.03342857142854,56.68202137336897L509.3839857142857,55.746820187258834L517.7345428571429,54.57007809955519L526.0851,53.36382740368708L534.4356571428572,52.25531966085754" style="fill: none;" fill="none"></path></g></g></g></g><g opacity="0.2"><g><g><g><path stroke="rgb(238, 51, 119)" stroke-width="2px" d="M41.752785714285714,331.63596667889186L50.103342857142856,313.63672563334876L58.453900000000004,291.5876478091649L66.80445714285715,276.28829794938224L75.15501428571427,253.78925167138237L83.50557142857143,234.89005360249112L91.85612857142857,221.840626474653L100.20668571428571,209.24114768491472L108.55724285714285,195.74173198754448L116.90780000000001,178.6424479653495L125.25835714285714,166.94294631467548L133.6089142857143,157.04335871069773L141.95947142857142,148.49369658388412L150.31002857142855,141.743988735199L158.6605857142857,136.79419493321015L167.01114285714286,130.044487084525L175.36169999999998,126.44465899113251L183.71225714285714,121.94485375867572L192.06281428571427,116.99505995668687L200.41337142857142,115.19510567855838L208.76392857142858,111.14528901563375L217.1144857142857,107.99540926034109L225.46504285714286,104.84556973648074L233.81560000000002,102.59566712025236L242.16615714285714,97.64587331826345L250.51671428571427,97.19588474873137L258.8672714285714,92.69607951627461L267.2178285714286,90.89616546957836L275.5683857142857,90.89616546957836L283.91894285714284,86.3963602371216L292.2695,83.246480481829L300.6200571428571,82.34650334276472L308.9706142857143,81.44656643513275L317.3211714285714,78.29668667984015L325.67172857142856,76.94676120267599L334.0222857142857,75.14680692454749L342.37284285714287,74.69681835501535L350.72339999999997,73.79688144738338L359.0739571428572,73.79688144738338L367.4245142857143,73.79688144738338L375.77507142857144,68.3970990758624L384.12562857142854,68.3970990758624L392.4761857142857,68.3970990758624L400.82674285714285,67.94711050633026L409.17729999999995,67.04717359869824L417.52785714285716,65.69720789010188L425.87841428571426,64.79727098246985L434.2289714285714,64.34728241293772L442.57952857142857,63.447305273873496L450.9300857142857,61.197402657645114L459.2806428571428,58.49751147188459L467.63120000000004,55.34767194802424L475.98175714285713,54.44769480896002L484.3323142857143,52.19779219273164L492.68287142857145,50.39787814603534L501.03342857142854,49.94788957650326L509.3839857142857,49.49790100697112L517.7345428571429,48.147975529806956L526.0851,46.34802125167852L534.4356571428572,45.44808434404649" style="fill: none;" fill="none"></path></g><g><path stroke="rgb(51, 187, 238)" stroke-width="2px" d="M41.752785714285714,341.08902561650956L50.103342857142856,325.0251377342769L58.453900000000004,305.78696973310196L66.80445714285715,286.35641502298625L75.15501428571427,261.4429799180712L83.50557142857143,242.10861856242587L91.85612857142857,224.50567724009923L100.20668571428571,210.17322950690135L108.55724285714285,196.4179419005258L116.90780000000001,184.9712143385751L125.25835714285714,173.42833365358626L133.6089142857143,161.01967254693167L141.95947142857142,154.76726543208534L150.31002857142855,148.22631848526004L158.6605857142857,141.97391137041367L167.01114285714286,136.87578427777973L175.36169999999998,131.8738505396162L183.71225714285714,127.93004370062695L192.06281428571427,122.06236977222991L200.41337142857142,118.40714299665177L208.76392857142858,115.52142282540456L217.1144857142857,113.30901590401788L225.46504285714286,111.8661558183943L233.81560000000002,110.2309090238299L242.16615714285714,107.53757556152345L250.51671428571427,104.94039522225518L258.8672714285714,101.66990163312641L267.2178285714286,99.07276152529039L275.5683857142857,96.95654795837407L283.91894285714284,94.55179455947882L292.2695,91.56988103376119L300.6200571428571,90.12702094813761L308.9706142857143,88.4917741535732L317.3211714285714,86.66414065006808L325.67172857142856,85.12508720997408L334.0222857142857,83.68222712435045L342.37284285714287,81.85459362084526L350.72339999999997,80.988893662044L359.0739571428572,79.64218669945853L367.4245142857143,78.00693990489418L375.77507142857144,76.94885323715215L384.12562857142854,74.83263967023578L392.4761857142857,72.33169291687017L400.82674285714285,70.69644612230576L409.17729999999995,69.34977939115254L417.52785714285716,67.52214588764741L425.87841428571426,65.30977919769293L434.2289714285714,64.15545894404823L442.57952857142857,62.61640550395424L450.9300857142857,60.21165210505899L459.2806428571428,59.44210526929584L467.63120000000004,58.96117872837618L475.98175714285713,58.384018601553805L484.3323142857143,57.806858474731484L492.68287142857145,56.55638509804868L501.03342857142854,54.728751594543496L509.3839857142857,54.3440184080942L517.7345428571429,52.804964968000206L526.0851,51.55445135988509L534.4356571428572,50.592558046613476" style="fill: none;" fill="none"></path></g></g></g></g></g></g><g transform="translate(58, 377)" clip-path="url(#clip_1)"><clipPath id="clip_1"><rect width="584" height="21"></rect></clipPath><g><g><line x1="0" y1="0" x2="0" y2="5" style="visibility: inherit;" fill="rgb(0, 0, 0)" stroke="rgb(204, 204, 204)" stroke-width="1px"></line><line x1="41.752785714285714" y1="0" x2="41.752785714285714" y2="5" style="visibility: inherit;" fill="rgb(0, 0, 0)" stroke="rgb(204, 204, 204)" stroke-width="1px"></line><line x1="83.50557142857143" y1="0" x2="83.50557142857143" y2="5" style="visibility: inherit;" fill="rgb(0, 0, 0)" stroke="rgb(204, 204, 204)" stroke-width="1px"></line><line x1="125.25835714285714" y1="0" x2="125.25835714285714" y2="5" style="visibility: inherit;" fill="rgb(0, 0, 0)" stroke="rgb(204, 204, 204)" stroke-width="1px"></line><line x1="167.01114285714286" y1="0" x2="167.01114285714286" y2="5" style="visibility: inherit;" fill="rgb(0, 0, 0)" stroke="rgb(204, 204, 204)" stroke-width="1px"></line><line x1="208.76392857142858" y1="0" x2="208.76392857142858" y2="5" style="visibility: inherit;" fill="rgb(0, 0, 0)" stroke="rgb(204, 204, 204)" stroke-width="1px"></line><line x1="250.51671428571427" y1="0" x2="250.51671428571427" y2="5" style="visibility: inherit;" fill="rgb(0, 0, 0)" stroke="rgb(204, 204, 204)" stroke-width="1px"></line><line x1="292.2695" y1="0" x2="292.2695" y2="5" style="visibility: inherit;" fill="rgb(0, 0, 0)" stroke="rgb(204, 204, 204)" stroke-width="1px"></line><line x1="334.0222857142857" y1="0" x2="334.0222857142857" y2="5" style="visibility: inherit;" fill="rgb(0, 0, 0)" stroke="rgb(204, 204, 204)" stroke-width="1px"></line><line x1="375.77507142857144" y1="0" x2="375.77507142857144" y2="5" style="visibility: inherit;" fill="rgb(0, 0, 0)" stroke="rgb(204, 204, 204)" stroke-width="1px"></line><line x1="417.52785714285716" y1="0" x2="417.52785714285716" y2="5" style="visibility: inherit;" fill="rgb(0, 0, 0)" stroke="rgb(204, 204, 204)" stroke-width="1px"></line><line x1="459.2806428571428" y1="0" x2="459.2806428571428" y2="5" style="visibility: inherit;" fill="rgb(0, 0, 0)" stroke="rgb(204, 204, 204)" stroke-width="1px"></line><line x1="501.03342857142854" y1="0" x2="501.03342857142854" y2="5" style="visibility: inherit;" fill="rgb(0, 0, 0)" stroke="rgb(204, 204, 204)" stroke-width="1px"></line><line x1="542.7862142857143" y1="0" x2="542.7862142857143" y2="5" style="visibility: inherit;" fill="rgb(0, 0, 0)" stroke="rgb(204, 204, 204)" stroke-width="1px"></line><line x1="584.539" y1="0" x2="584.539" y2="5" style="visibility: inherit;" fill="rgb(0, 0, 0)" stroke="rgb(204, 204, 204)" stroke-width="1px"></line></g><g transform="translate(0, 8)"><text x="0" y="0" dx="0em" dy="0.95em" style="text-anchor: middle; visibility: hidden; font-family: &quot;Helvetica Neue&quot;, sans-serif; font-size: 12px; font-weight: 200;" fill="rgb(50, 49, 63)" stroke="none" stroke-width="1px">-5</text><text x="41.752785714285714" y="0" dx="0em" dy="0.95em" style="text-anchor: middle; visibility: inherit; font-family: &quot;Helvetica Neue&quot;, sans-serif; font-size: 12px; font-weight: 200;" fill="rgb(50, 49, 63)" stroke="none" stroke-width="1px">0</text><text x="83.50557142857143" y="0" dx="0em" dy="0.95em" style="text-anchor: middle; visibility: inherit; font-family: &quot;Helvetica Neue&quot;, sans-serif; font-size: 12px; font-weight: 200;" fill="rgb(50, 49, 63)" stroke="none" stroke-width="1px">5</text><text x="125.25835714285714" y="0" dx="0em" dy="0.95em" style="text-anchor: middle; visibility: inherit; font-family: &quot;Helvetica Neue&quot;, sans-serif; font-size: 12px; font-weight: 200;" fill="rgb(50, 49, 63)" stroke="none" stroke-width="1px">10</text><text x="167.01114285714286" y="0" dx="0em" dy="0.95em" style="text-anchor: middle; visibility: inherit; font-family: &quot;Helvetica Neue&quot;, sans-serif; font-size: 12px; font-weight: 200;" fill="rgb(50, 49, 63)" stroke="none" stroke-width="1px">15</text><text x="208.76392857142858" y="0" dx="0em" dy="0.95em" style="text-anchor: middle; visibility: inherit; font-family: &quot;Helvetica Neue&quot;, sans-serif; font-size: 12px; font-weight: 200;" fill="rgb(50, 49, 63)" stroke="none" stroke-width="1px">20</text><text x="250.51671428571427" y="0" dx="0em" dy="0.95em" style="text-anchor: middle; visibility: inherit; font-family: &quot;Helvetica Neue&quot;, sans-serif; font-size: 12px; font-weight: 200;" fill="rgb(50, 49, 63)" stroke="none" stroke-width="1px">25</text><text x="292.2695" y="0" dx="0em" dy="0.95em" style="text-anchor: middle; visibility: inherit; font-family: &quot;Helvetica Neue&quot;, sans-serif; font-size: 12px; font-weight: 200;" fill="rgb(50, 49, 63)" stroke="none" stroke-width="1px">30</text><text x="334.0222857142857" y="0" dx="0em" dy="0.95em" style="text-anchor: middle; visibility: inherit; font-family: &quot;Helvetica Neue&quot;, sans-serif; font-size: 12px; font-weight: 200;" fill="rgb(50, 49, 63)" stroke="none" stroke-width="1px">35</text><text x="375.77507142857144" y="0" dx="0em" dy="0.95em" style="text-anchor: middle; visibility: inherit; font-family: &quot;Helvetica Neue&quot;, sans-serif; font-size: 12px; font-weight: 200;" fill="rgb(50, 49, 63)" stroke="none" stroke-width="1px">40</text><text x="417.52785714285716" y="0" dx="0em" dy="0.95em" style="text-anchor: middle; visibility: inherit; font-family: &quot;Helvetica Neue&quot;, sans-serif; font-size: 12px; font-weight: 200;" fill="rgb(50, 49, 63)" stroke="none" stroke-width="1px">45</text><text x="459.2806428571428" y="0" dx="0em" dy="0.95em" style="text-anchor: middle; visibility: inherit; font-family: &quot;Helvetica Neue&quot;, sans-serif; font-size: 12px; font-weight: 200;" fill="rgb(50, 49, 63)" stroke="none" stroke-width="1px">50</text><text x="501.03342857142854" y="0" dx="0em" dy="0.95em" style="text-anchor: middle; visibility: inherit; font-family: &quot;Helvetica Neue&quot;, sans-serif; font-size: 12px; font-weight: 200;" fill="rgb(50, 49, 63)" stroke="none" stroke-width="1px">55</text><text x="542.7862142857143" y="0" dx="0em" dy="0.95em" style="text-anchor: middle; visibility: inherit; font-family: &quot;Helvetica Neue&quot;, sans-serif; font-size: 12px; font-weight: 200;" fill="rgb(50, 49, 63)" stroke="none" stroke-width="1px">60</text><text x="584.539" y="0" dx="0em" dy="0.95em" style="text-anchor: middle; visibility: hidden; font-family: &quot;Helvetica Neue&quot;, sans-serif; font-size: 12px; font-weight: 200;" fill="rgb(50, 49, 63)" stroke="none" stroke-width="1px">65</text></g><line x1="0" y1="0" x2="584.539" y2="0" fill="rgb(0, 0, 0)" stroke="rgb(204, 204, 204)" stroke-width="1px"></line></g></g></g></g></svg>