<svg viewBox="0 0 856.6666870117188 400" xmlns="http://www.w3.org/2000/svg"><g><g><g><g><g><line x1="61.77000045776367" y1="377.8999996185303" x2="56.77000045776367" y2="377.8999996185303" style="visibility: inherit;" fill="rgb(0, 0, 0)" stroke="rgb(204, 204, 204)" stroke-width="1px"></line><line x1="61.77000045776367" y1="343.5454541986639" x2="56.77000045776367" y2="343.5454541986639" style="visibility: inherit;" fill="rgb(0, 0, 0)" stroke="rgb(204, 204, 204)" stroke-width="1px"></line><line x1="61.77000045776367" y1="309.1909087787975" x2="56.77000045776367" y2="309.1909087787975" style="visibility: inherit;" fill="rgb(0, 0, 0)" stroke="rgb(204, 204, 204)" stroke-width="1px"></line><line x1="61.77000045776367" y1="274.83636335893107" x2="56.77000045776367" y2="274.83636335893107" style="visibility: inherit;" fill="rgb(0, 0, 0)" stroke="rgb(204, 204, 204)" stroke-width="1px"></line><line x1="61.77000045776367" y1="240.4818179390647" x2="56.77000045776367" y2="240.4818179390647" style="visibility: inherit;" fill="rgb(0, 0, 0)" stroke="rgb(204, 204, 204)" stroke-width="1px"></line><line x1="61.77000045776367" y1="206.12727251919833" x2="56.77000045776367" y2="206.12727251919833" style="visibility: inherit;" fill="rgb(0, 0, 0)" stroke="rgb(204, 204, 204)" stroke-width="1px"></line><line x1="61.77000045776367" y1="171.77272709933195" x2="56.77000045776367" y2="171.77272709933195" style="visibility: inherit;" fill="rgb(0, 0, 0)" stroke="rgb(204, 204, 204)" stroke-width="1px"></line><line x1="61.77000045776367" y1="137.4181816794656" x2="56.77000045776367" y2="137.4181816794656" style="visibility: inherit;" fill="rgb(0, 0, 0)" stroke="rgb(204, 204, 204)" stroke-width="1px"></line><line x1="61.77000045776367" y1="103.0636362595992" x2="56.77000045776367" y2="103.0636362595992" style="visibility: inherit;" fill="rgb(0, 0, 0)" stroke="rgb(204, 204, 204)" stroke-width="1px"></line><line x1="61.77000045776367" y1="68.70909083973282" x2="56.77000045776367" y2="68.70909083973282" style="visibility: inherit;" fill="rgb(0, 0, 0)" stroke="rgb(204, 204, 204)" stroke-width="1px"></line><line x1="61.77000045776367" y1="34.35454541986638" x2="56.77000045776367" y2="34.35454541986638" style="visibility: inherit;" fill="rgb(0, 0, 0)" stroke="rgb(204, 204, 204)" stroke-width="1px"></line><line x1="61.77000045776367" y1="0" x2="56.77000045776367" y2="0" style="visibility: inherit;" fill="rgb(0, 0, 0)" stroke="rgb(204, 204, 204)" stroke-width="1px"></line></g><g transform="translate(51.77000045776367, 0)"><text style="text-anchor: end; visibility: hidden; font-family: &quot;Helvetica Neue&quot;, sans-serif; font-size: 12px; font-weight: 200;" x="0" y="377.8999996185303" dx="0em" dy="0.3em" fill="rgb(50, 49, 63)" stroke="none" stroke-width="1px">-0.05</text><text style="text-anchor: end; visibility: inherit; font-family: &quot;Helvetica Neue&quot;, sans-serif; font-size: 12px; font-weight: 200;" x="0" y="343.5454541986639" dx="0em" dy="0.3em" fill="rgb(50, 49, 63)" stroke="none" stroke-width="1px">0</text><text style="text-anchor: end; visibility: inherit; font-family: &quot;Helvetica Neue&quot;, sans-serif; font-size: 12px; font-weight: 200;" x="0" y="309.1909087787975" dx="0em" dy="0.3em" fill="rgb(50, 49, 63)" stroke="none" stroke-width="1px">0.05</text><text style="text-anchor: end; visibility: inherit; font-family: &quot;Helvetica Neue&quot;, sans-serif; font-size: 12px; font-weight: 200;" x="0" y="274.83636335893107" dx="0em" dy="0.3em" fill="rgb(50, 49, 63)" stroke="none" stroke-width="1px">0.1</text><text style="text-anchor: end; visibility: inherit; font-family: &quot;Helvetica Neue&quot;, sans-serif; font-size: 12px; font-weight: 200;" x="0" y="240.4818179390647" dx="0em" dy="0.3em" fill="rgb(50, 49, 63)" stroke="none" stroke-width="1px">0.15</text><text style="text-anchor: end; visibility: inherit; font-family: &quot;Helvetica Neue&quot;, sans-serif; font-size: 12px; font-weight: 200;" x="0" y="206.12727251919833" dx="0em" dy="0.3em" fill="rgb(50, 49, 63)" stroke="none" stroke-width="1px">0.2</text><text style="text-anchor: end; visibility: inherit; font-family: &quot;Helvetica Neue&quot;, sans-serif; font-size: 12px; font-weight: 200;" x="0" y="171.77272709933195" dx="0em" dy="0.3em" fill="rgb(50, 49, 63)" stroke="none" stroke-width="1px">0.25</text><text style="text-anchor: end; visibility: inherit; font-family: &quot;Helvetica Neue&quot;, sans-serif; font-size: 12px; font-weight: 200;" x="0" y="137.4181816794656" dx="0em" dy="0.3em" fill="rgb(50, 49, 63)" stroke="none" stroke-width="1px">0.3</text><text style="text-anchor: end; visibility: inherit; font-family: &quot;Helvetica Neue&quot;, sans-serif; font-size: 12px; font-weight: 200;" x="0" y="103.0636362595992" dx="0em" dy="0.3em" fill="rgb(50, 49, 63)" stroke="none" stroke-width="1px">0.35</text><text style="text-anchor: end; visibility: inherit; font-family: &quot;Helvetica Neue&quot;, sans-serif; font-size: 12px; font-weight: 200;" x="0" y="68.70909083973282" dx="0em" dy="0.3em" fill="rgb(50, 49, 63)" stroke="none" stroke-width="1px">0.4</text><text style="text-anchor: end; visibility: inherit; font-family: &quot;Helvetica Neue&quot;, sans-serif; font-size: 12px; font-weight: 200;" x="0" y="34.35454541986638" dx="0em" dy="0.3em" fill="rgb(50, 49, 63)" stroke="none" stroke-width="1px">0.45</text><text style="text-anchor: end; visibility: hidden; font-family: &quot;Helvetica Neue&quot;, sans-serif; font-size: 12px; font-weight: 200;" x="0" y="0" dx="0em" dy="0.3em" fill="rgb(50, 49, 63)" stroke="none" stroke-width="1px">0.5</text></g><line x1="61.77000045776367" y1="0" x2="61.77000045776367" y2="377.8999996185303" fill="rgb(0, 0, 0)" stroke="rgb(204, 204, 204)" stroke-width="1px"></line></g></g><g transform="translate(61, 0)" clip-path="url(#clip_0)"><clipPath id="clip_0"><rect width="794" height="377"></rect></clipPath><g><g><g><line x1="0" y1="0" x2="0" y2="377.8999996185303" fill="rgb(0, 0, 0)" stroke="rgb(60, 60, 60)" stroke-width="1px" opacity="0.25"></line><line x1="66.24141662851969" y1="0" x2="66.24141662851969" y2="377.8999996185303" fill="rgb(0, 0, 0)" stroke="rgb(60, 60, 60)" stroke-width="1px" opacity="0.25"></line><line x1="132.48283325703937" y1="0" x2="132.48283325703937" y2="377.8999996185303" fill="rgb(0, 0, 0)" stroke="rgb(60, 60, 60)" stroke-width="1px" opacity="0.25"></line><line x1="198.7242498855591" y1="0" x2="198.7242498855591" y2="377.8999996185303" fill="rgb(0, 0, 0)" stroke="rgb(60, 60, 60)" stroke-width="1px" opacity="0.25"></line><line x1="264.96566651407875" y1="0" x2="264.96566651407875" y2="377.8999996185303" fill="rgb(0, 0, 0)" stroke="rgb(60, 60, 60)" stroke-width="1px" opacity="0.25"></line><line x1="331.2070831425985" y1="0" x2="331.2070831425985" y2="377.8999996185303" fill="rgb(0, 0, 0)" stroke="rgb(60, 60, 60)" stroke-width="1px" opacity="0.25"></line><line x1="397.4484997711182" y1="0" x2="397.4484997711182" y2="377.8999996185303" fill="rgb(0, 0, 0)" stroke="rgb(60, 60, 60)" stroke-width="1px" opacity="0.25"></line><line x1="463.6899163996379" y1="0" x2="463.6899163996379" y2="377.8999996185303" fill="rgb(0, 0, 0)" stroke="rgb(60, 60, 60)" stroke-width="1px" opacity="0.25"></line><line x1="529.9313330281575" y1="0" x2="529.9313330281575" y2="377.8999996185303" fill="rgb(0, 0, 0)" stroke="rgb(60, 60, 60)" stroke-width="1px" opacity="0.25"></line><line x1="596.1727496566773" y1="0" x2="596.1727496566773" y2="377.8999996185303" fill="rgb(0, 0, 0)" stroke="rgb(60, 60, 60)" stroke-width="1px" opacity="0.25"></line><line x1="662.414166285197" y1="0" x2="662.414166285197" y2="377.8999996185303" fill="rgb(0, 0, 0)" stroke="rgb(60, 60, 60)" stroke-width="1px" opacity="0.25"></line><line x1="728.6555829137167" y1="0" x2="728.6555829137167" y2="377.8999996185303" fill="rgb(0, 0, 0)" stroke="rgb(60, 60, 60)" stroke-width="1px" opacity="0.25"></line><line x1="794.8969995422364" y1="0" x2="794.8969995422364" y2="377.8999996185303" fill="rgb(0, 0, 0)" stroke="rgb(60, 60, 60)" stroke-width="1px" opacity="0.25"></line></g><g><line x1="0" y1="377.8999996185303" x2="794.8969995422364" y2="377.8999996185303" fill="rgb(0, 0, 0)" stroke="rgb(60, 60, 60)" stroke-width="1px" opacity="0.25"></line><line x1="0" y1="343.5454541986639" x2="794.8969995422364" y2="343.5454541986639" fill="rgb(0, 0, 0)" stroke="rgb(60, 60, 60)" stroke-width="1px" opacity="0.25"></line><line x1="0" y1="309.1909087787975" x2="794.8969995422364" y2="309.1909087787975" fill="rgb(0, 0, 0)" stroke="rgb(60, 60, 60)" stroke-width="1px" opacity="0.25"></line><line x1="0" y1="274.83636335893107" x2="794.8969995422364" y2="274.83636335893107" fill="rgb(0, 0, 0)" stroke="rgb(60, 60, 60)" stroke-width="1px" opacity="0.25"></line><line x1="0" y1="240.4818179390647" x2="794.8969995422364" y2="240.4818179390647" fill="rgb(0, 0, 0)" stroke="rgb(60, 60, 60)" stroke-width="1px" opacity="0.25"></line><line x1="0" y1="206.12727251919833" x2="794.8969995422364" y2="206.12727251919833" fill="rgb(0, 0, 0)" stroke="rgb(60, 60, 60)" stroke-width="1px" opacity="0.25"></line><line x1="0" y1="171.77272709933195" x2="794.8969995422364" y2="171.77272709933195" fill="rgb(0, 0, 0)" stroke="rgb(60, 60, 60)" stroke-width="1px" opacity="0.25"></line><line x1="0" y1="137.4181816794656" x2="794.8969995422364" y2="137.4181816794656" fill="rgb(0, 0, 0)" stroke="rgb(60, 60, 60)" stroke-width="1px" opacity="0.25"></line><line x1="0" y1="103.0636362595992" x2="794.8969995422364" y2="103.0636362595992" fill="rgb(0, 0, 0)" stroke="rgb(60, 60, 60)" stroke-width="1px" opacity="0.25"></line><line x1="0" y1="68.70909083973282" x2="794.8969995422364" y2="68.70909083973282" fill="rgb(0, 0, 0)" stroke="rgb(60, 60, 60)" stroke-width="1px" opacity="0.25"></line><line x1="0" y1="34.35454541986638" x2="794.8969995422364" y2="34.35454541986638" fill="rgb(0, 0, 0)" stroke="rgb(60, 60, 60)" stroke-width="1px" opacity="0.25"></line><line x1="0" y1="0" x2="794.8969995422364" y2="0" fill="rgb(0, 0, 0)" stroke="rgb(60, 60, 60)" stroke-width="1px" opacity="0.25"></line></g></g></g><g><g><line x1="0" y1="343.5454541986639" x2="794.8969995422364" y2="343.5454541986639" fill="rgb(0, 0, 0)" stroke="rgb(153, 153, 153)" stroke-width="1.5px"></line></g></g><g><g><line x1="66.24141662851969" y1="0" x2="66.24141662851969" y2="377.8999996185303" fill="rgb(0, 0, 0)" stroke="rgb(153, 153, 153)" stroke-width="1.5px"></line></g></g><g><g><g><g><g><path style="fill: none;" stroke="rgb(51, 187, 238)" stroke-width="2px" d="M66.24141662851969,251.47527018000864L79.48969995422364,249.90068579029136L92.73798327992758,244.86143575576347L105.98626660563151,237.79660670707224L119.23454993133545,228.43158409197255L132.48283325703937,217.72790075987555L145.7311165827433,207.2989794731237L158.97939990844728,196.75915870142265L172.22768323415121,185.18212202621612L185.47596655985515,174.90075385041104L198.7242498855591,162.97928667394098L211.97253321126303,152.08985816240954L225.22081653696696,141.9021095235327L238.4690998626709,132.40567592105262L251.71738318837484,124.8794781801771L264.96566651407875,118.71653808570005L278.2139498397827,112.82082754342042L291.4622331654866,108.27620360366859L304.7105164911906,104.81678699499992L317.95879981689455,100.81734725993152L331.2070831425985,97.31840520730202L344.45536646830243,94.30295670448118L357.70364979400637,91.11952164581407L370.9519331197103,88.93463438262194L384.20021644541424,86.98242750555181L397.4484997711182,84.89497684040361L410.6967830968222,83.4592893796659L423.94506642252605,82.04820366543453L437.19334974823005,81.01832538016214L450.44163307393393,79.8507246896765L463.6899163996379,78.60049871777625L476.9381997253418,77.39230303555769L490.1864830510458,75.93448446829979L503.4347663767497,74.32690035779217L516.6830497024537,72.99589522705026L529.9313330281575,71.9224593354644L543.1796163538615,70.36227746441415L556.4278996795654,68.60165348852871L569.6761830052694,66.99561345605736L582.9244663309732,65.94037576683814L596.1727496566773,64.75755931310704L609.4210329823812,63.773036616393426L622.6693163080852,63.09070932673819L635.9175996337891,62.40647193731178L649.165882959493,61.629483006840076L662.414166285197,60.79684315173222L675.6624496109009,59.655971726111375L688.9107329366049,58.51338870199828L702.1590162623088,57.369778718783095L715.4072995880127,56.40877990391181" fill="none"></path></g><g><path style="fill: none;" stroke="rgb(204, 51, 17)" stroke-width="2px" d="M66.24141662851969,257.9650821560784L79.48969995422364,256.618709670414L92.73798327992758,253.2590245325198L105.98626660563151,246.6919085340679L119.23454993133545,238.58566968196465L132.48283325703937,228.94795707772062L145.7311165827433,217.90065735477407L158.97939990844728,206.6533881032346L172.22768323415121,195.1011970613866L185.47596655985515,183.91024046882157L198.7242498855591,172.99366729193306L211.97253321126303,162.30834356447278L225.22081653696696,152.30396427201342L238.4690998626709,143.1150740113918L251.71738318837484,134.76539227539558L264.96566651407875,127.1135609077395L278.2139498397827,120.36928421890917L291.4622331654866,114.2865435497842L304.7105164911906,109.14885230450568L317.95879981689455,104.77387206126627L331.2070831425985,100.46475668907772L344.45536646830243,96.78265603723753L357.70364979400637,93.57465365087177L370.9519331197103,90.76859561183295L384.20021644541424,88.18412217028731L397.4484997711182,85.85010157540131L410.6967830968222,83.7446794048193L423.94506642252605,81.61975060930814L437.19334974823005,79.9531199793069L450.44163307393393,78.30688254640546L463.6899163996379,76.86871388117737L476.9381997253418,75.61413872943797L490.1864830510458,74.2347184790442L503.4347663767497,72.72164701361896L516.6830497024537,71.2654572154492L529.9313330281575,70.00007749577043L543.1796163538615,68.94708799478673L556.4278996795654,68.00195670053989L569.6761830052694,67.00404384909154L582.9244663309732,66.17029498952405L596.1727496566773,65.21961929547314L609.4210329823812,64.1987875006514L622.6693163080852,63.3121190507581L635.9175996337891,62.42761216083295L649.165882959493,61.38773750388026L662.414166285197,60.587555704339934L675.6624496109009,59.77453310701924L688.9107329366049,58.79712494654473L702.1590162623088,58.09317537998783L715.4072995880127,57.377052155107776" fill="none"></path></g></g></g></g><g opacity="0.2"><g><g><g><path style="fill: none;" stroke="rgb(51, 187, 238)" stroke-width="2px" d="M66.24141662851969,251.47527018000864L79.48969995422364,248.95593515646098L92.73798327992758,240.02375572261667L105.98626660563151,229.4883677458113L119.23454993133545,216.20461056569852L132.48283325703937,202.92085338558576L145.7311165827433,192.385455170328L158.97939990844728,181.39199883400312L172.22768323415121,168.10824165389033L185.47596655985515,159.63412034111315L198.7242498855591,145.20521273910643L211.97253321126303,135.814975184195L225.22081653696696,126.65375133213854L238.4690998626709,118.17963001936135L251.71738318837484,113.59902833178552L264.96566651407875,109.4764745268244L278.2139498397827,103.97975659711437L291.4622331654866,101.46042157356669L304.7105164911906,99.62818908929825L317.95879981689455,94.8185532219627L331.2070831425985,92.07018401865531L344.45536646830243,89.7798831748674L357.70364979400637,86.34443190918552L370.9519331197103,85.65732936990622L384.20021644541424,84.0541310653976L397.4484997711182,81.76380974470487L410.6967830968222,81.30576186209021L423.94506642252605,79.93157726043643L437.19334974823005,79.47350890091695L450.44163307393393,78.09932429926329L463.6899163996379,76.72516017451437L476.9381997253418,75.58000975262041L490.1864830510458,73.74775679144716L503.4347663767497,71.91552430717871L516.6830497024537,70.99938758813977L529.9313330281575,70.31230552576528L543.1796163538615,68.02200468197736L556.4278996795654,65.96071754104446L569.6761830052694,64.58655341629549L582.9244663309732,64.35751923653578L596.1727496566773,62.983334634882056L609.4210329823812,62.29625257250757L622.6693163080852,62.06721839274786L635.9175996337891,61.380115853468624L649.165882959493,60.46399961133437L662.414166285197,59.54788336920018L675.6624496109009,57.94466458778675L688.9107329366049,56.79951416589279L702.1590162623088,55.65436374399883L715.4072995880127,54.96728168162434" fill="none"></path></g><g><path style="fill: none;" stroke="rgb(204, 51, 17)" stroke-width="2px" d="M66.24141662851969,257.9650821560784L79.48969995422364,255.81088617901537L92.73798327992758,250.0337268001413L105.98626660563151,238.96898011988853L119.23454993133545,228.00216423665864L132.48283325703937,215.6155309695136L145.7311165827433,202.1028419941649L158.97939990844728,190.25476156070522L172.22768323415121,178.0639591722488L185.47596655985515,167.29297416770757L198.7242498855591,156.71782004185494L211.97253321126303,146.33850703314334L225.22081653696696,137.33006136751402L238.4690998626709,129.3497406130655L251.71738318837484,122.25068440884675L264.96566651407875,115.64121052057578L278.2139498397827,110.25572313753139L291.4622331654866,105.16397695329368L304.7105164911906,101.44309811213827L317.95879981689455,98.21180158693068L331.2070831425985,94.00131995292276L344.45536646830243,91.25962622056767L357.70364979400637,88.76271340773411L370.9519331197103,86.5595417937073L384.20021644541424,84.30743037729991L397.4484997711182,82.34908063660413L410.6967830968222,80.58655153614461L423.94506642252605,78.43236067830776L437.19334974823005,77.45317556950744L450.44163307393393,75.83752730690367L463.6899163996379,74.71146136024765L476.9381997253418,73.73227625144733L490.1864830510458,72.16558826812877L503.4347663767497,70.45203992385922L516.6830497024537,69.08117258077692L529.9313330281575,68.10200794888141L543.1796163538615,67.36760375960262L556.4278996795654,66.58425976794331L569.6761830052694,65.50717457747731L582.9244663309732,64.91967170295902L596.1727496566773,63.79360575630301L609.4210329823812,62.66753980964694L622.6693163080852,61.98211637655817L635.9175996337891,61.10085182632838L649.165882959493,59.82792551872137L662.414166285197,59.387283005154075L675.6624496109009,58.55499921111431L688.9107329366049,57.33101270588776L702.1590162623088,57.037251030176265L715.4072995880127,56.302867317802225" fill="none"></path></g></g></g></g></g></g><g transform="translate(61, 377)" clip-path="url(#clip_1)"><clipPath id="clip_1"><rect width="794" height="22"></rect></clipPath><g><g><line x1="0" y1="0" x2="0" y2="5" style="visibility: inherit;" fill="rgb(0, 0, 0)" stroke="rgb(204, 204, 204)" stroke-width="1px"></line><line x1="66.24141662851969" y1="0" x2="66.24141662851969" y2="5" style="visibility: inherit;" fill="rgb(0, 0, 0)" stroke="rgb(204, 204, 204)" stroke-width="1px"></line><line x1="132.48283325703937" y1="0" x2="132.48283325703937" y2="5" style="visibility: inherit;" fill="rgb(0, 0, 0)" stroke="rgb(204, 204, 204)" stroke-width="1px"></line><line x1="198.7242498855591" y1="0" x2="198.7242498855591" y2="5" style="visibility: inherit;" fill="rgb(0, 0, 0)" stroke="rgb(204, 204, 204)" stroke-width="1px"></line><line x1="264.96566651407875" y1="0" x2="264.96566651407875" y2="5" style="visibility: inherit;" fill="rgb(0, 0, 0)" stroke="rgb(204, 204, 204)" stroke-width="1px"></line><line x1="331.2070831425985" y1="0" x2="331.2070831425985" y2="5" style="visibility: inherit;" fill="rgb(0, 0, 0)" stroke="rgb(204, 204, 204)" stroke-width="1px"></line><line x1="397.4484997711182" y1="0" x2="397.4484997711182" y2="5" style="visibility: inherit;" fill="rgb(0, 0, 0)" stroke="rgb(204, 204, 204)" stroke-width="1px"></line><line x1="463.6899163996379" y1="0" x2="463.6899163996379" y2="5" style="visibility: inherit;" fill="rgb(0, 0, 0)" stroke="rgb(204, 204, 204)" stroke-width="1px"></line><line x1="529.9313330281575" y1="0" x2="529.9313330281575" y2="5" style="visibility: inherit;" fill="rgb(0, 0, 0)" stroke="rgb(204, 204, 204)" stroke-width="1px"></line><line x1="596.1727496566773" y1="0" x2="596.1727496566773" y2="5" style="visibility: inherit;" fill="rgb(0, 0, 0)" stroke="rgb(204, 204, 204)" stroke-width="1px"></line><line x1="662.414166285197" y1="0" x2="662.414166285197" y2="5" style="visibility: inherit;" fill="rgb(0, 0, 0)" stroke="rgb(204, 204, 204)" stroke-width="1px"></line><line x1="728.6555829137167" y1="0" x2="728.6555829137167" y2="5" style="visibility: inherit;" fill="rgb(0, 0, 0)" stroke="rgb(204, 204, 204)" stroke-width="1px"></line><line x1="794.8969995422364" y1="0" x2="794.8969995422364" y2="5" style="visibility: inherit;" fill="rgb(0, 0, 0)" stroke="rgb(204, 204, 204)" stroke-width="1px"></line></g><g transform="translate(0, 8)"><text style="text-anchor: middle; visibility: hidden; font-family: &quot;Helvetica Neue&quot;, sans-serif; font-size: 12px; font-weight: 200;" x="0" y="0" dx="0em" dy="0.95em" fill="rgb(50, 49, 63)" stroke="none" stroke-width="1px">-5</text><text style="text-anchor: middle; visibility: hidden; font-family: &quot;Helvetica Neue&quot;, sans-serif; font-size: 12px; font-weight: 200;" x="66.24141662851969" y="0" dx="0em" dy="0.95em" fill="rgb(50, 49, 63)" stroke="none" stroke-width="1px">0</text><text style="text-anchor: middle; visibility: hidden; font-family: &quot;Helvetica Neue&quot;, sans-serif; font-size: 12px; font-weight: 200;" x="132.48283325703937" y="0" dx="0em" dy="0.95em" fill="rgb(50, 49, 63)" stroke="none" stroke-width="1px">5</text><text style="text-anchor: middle; visibility: hidden; font-family: &quot;Helvetica Neue&quot;, sans-serif; font-size: 12px; font-weight: 200;" x="198.7242498855591" y="0" dx="0em" dy="0.95em" fill="rgb(50, 49, 63)" stroke="none" stroke-width="1px">10</text><text style="text-anchor: middle; visibility: hidden; font-family: &quot;Helvetica Neue&quot;, sans-serif; font-size: 12px; font-weight: 200;" x="264.96566651407875" y="0" dx="0em" dy="0.95em" fill="rgb(50, 49, 63)" stroke="none" stroke-width="1px">15</text><text style="text-anchor: middle; visibility: hidden; font-family: &quot;Helvetica Neue&quot;, sans-serif; font-size: 12px; font-weight: 200;" x="331.2070831425985" y="0" dx="0em" dy="0.95em" fill="rgb(50, 49, 63)" stroke="none" stroke-width="1px">20</text><text style="text-anchor: middle; visibility: hidden; font-family: &quot;Helvetica Neue&quot;, sans-serif; font-size: 12px; font-weight: 200;" x="397.4484997711182" y="0" dx="0em" dy="0.95em" fill="rgb(50, 49, 63)" stroke="none" stroke-width="1px">25</text><text style="text-anchor: middle; visibility: hidden; font-family: &quot;Helvetica Neue&quot;, sans-serif; font-size: 12px; font-weight: 200;" x="463.6899163996379" y="0" dx="0em" dy="0.95em" fill="rgb(50, 49, 63)" stroke="none" stroke-width="1px">30</text><text style="text-anchor: middle; visibility: hidden; font-family: &quot;Helvetica Neue&quot;, sans-serif; font-size: 12px; font-weight: 200;" x="529.9313330281575" y="0" dx="0em" dy="0.95em" fill="rgb(50, 49, 63)" stroke="none" stroke-width="1px">35</text><text style="text-anchor: middle; visibility: hidden; font-family: &quot;Helvetica Neue&quot;, sans-serif; font-size: 12px; font-weight: 200;" x="596.1727496566773" y="0" dx="0em" dy="0.95em" fill="rgb(50, 49, 63)" stroke="none" stroke-width="1px">40</text><text style="text-anchor: middle; visibility: hidden; font-family: &quot;Helvetica Neue&quot;, sans-serif; font-size: 12px; font-weight: 200;" x="662.414166285197" y="0" dx="0em" dy="0.95em" fill="rgb(50, 49, 63)" stroke="none" stroke-width="1px">45</text><text style="text-anchor: middle; visibility: hidden; font-family: &quot;Helvetica Neue&quot;, sans-serif; font-size: 12px; font-weight: 200;" x="728.6555829137167" y="0" dx="0em" dy="0.95em" fill="rgb(50, 49, 63)" stroke="none" stroke-width="1px">50</text><text style="text-anchor: middle; visibility: hidden; font-family: &quot;Helvetica Neue&quot;, sans-serif; font-size: 12px; font-weight: 200;" x="794.8969995422364" y="0" dx="0em" dy="0.95em" fill="rgb(50, 49, 63)" stroke="none" stroke-width="1px">55</text></g><line x1="0" y1="0" x2="794.8969995422364" y2="0" fill="rgb(0, 0, 0)" stroke="rgb(204, 204, 204)" stroke-width="1px"></line></g></g></g></g></svg>