<svg viewBox="0 0 856.6666870117188 400" xmlns="http://www.w3.org/2000/svg"><g><g><g><g><g><line x1="41.0620002746582" y1="377.8999996185303" x2="36.0620002746582" y2="377.8999996185303" style="visibility: inherit;" fill="rgb(0, 0, 0)" stroke="rgb(204, 204, 204)" stroke-width="1px"></line><line x1="41.0620002746582" y1="330.662499666214" x2="36.0620002746582" y2="330.662499666214" style="visibility: inherit;" fill="rgb(0, 0, 0)" stroke="rgb(204, 204, 204)" stroke-width="1px"></line><line x1="41.0620002746582" y1="283.42499971389765" x2="36.0620002746582" y2="283.42499971389765" style="visibility: inherit;" fill="rgb(0, 0, 0)" stroke="rgb(204, 204, 204)" stroke-width="1px"></line><line x1="41.0620002746582" y1="236.18749976158145" x2="36.0620002746582" y2="236.18749976158145" style="visibility: inherit;" fill="rgb(0, 0, 0)" stroke="rgb(204, 204, 204)" stroke-width="1px"></line><line x1="41.0620002746582" y1="188.9499998092651" x2="36.0620002746582" y2="188.9499998092651" style="visibility: inherit;" fill="rgb(0, 0, 0)" stroke="rgb(204, 204, 204)" stroke-width="1px"></line><line x1="41.0620002746582" y1="141.71249985694888" x2="36.0620002746582" y2="141.71249985694888" style="visibility: inherit;" fill="rgb(0, 0, 0)" stroke="rgb(204, 204, 204)" stroke-width="1px"></line><line x1="41.0620002746582" y1="94.47499990463257" x2="36.0620002746582" y2="94.47499990463257" style="visibility: inherit;" fill="rgb(0, 0, 0)" stroke="rgb(204, 204, 204)" stroke-width="1px"></line><line x1="41.0620002746582" y1="47.23749995231623" x2="36.0620002746582" y2="47.23749995231623" style="visibility: inherit;" fill="rgb(0, 0, 0)" stroke="rgb(204, 204, 204)" stroke-width="1px"></line><line x1="41.0620002746582" y1="0" x2="36.0620002746582" y2="0" style="visibility: inherit;" fill="rgb(0, 0, 0)" stroke="rgb(204, 204, 204)" stroke-width="1px"></line></g><g transform="translate(31.062000274658203, 0)"><text style="text-anchor: end; visibility: hidden; font-family: &quot;Helvetica Neue&quot;, sans-serif; font-size: 12px; font-weight: 200;" x="0" y="377.8999996185303" dx="0em" dy="0.3em" fill="rgb(50, 49, 63)" stroke="none" stroke-width="1px">0.9</text><text style="text-anchor: end; visibility: inherit; font-family: &quot;Helvetica Neue&quot;, sans-serif; font-size: 12px; font-weight: 200;" x="0" y="330.662499666214" dx="0em" dy="0.3em" fill="rgb(50, 49, 63)" stroke="none" stroke-width="1px">1</text><text style="text-anchor: end; visibility: inherit; font-family: &quot;Helvetica Neue&quot;, sans-serif; font-size: 12px; font-weight: 200;" x="0" y="283.42499971389765" dx="0em" dy="0.3em" fill="rgb(50, 49, 63)" stroke="none" stroke-width="1px">1.1</text><text style="text-anchor: end; visibility: inherit; font-family: &quot;Helvetica Neue&quot;, sans-serif; font-size: 12px; font-weight: 200;" x="0" y="236.18749976158145" dx="0em" dy="0.3em" fill="rgb(50, 49, 63)" stroke="none" stroke-width="1px">1.2</text><text style="text-anchor: end; visibility: inherit; font-family: &quot;Helvetica Neue&quot;, sans-serif; font-size: 12px; font-weight: 200;" x="0" y="188.9499998092651" dx="0em" dy="0.3em" fill="rgb(50, 49, 63)" stroke="none" stroke-width="1px">1.3</text><text style="text-anchor: end; visibility: inherit; font-family: &quot;Helvetica Neue&quot;, sans-serif; font-size: 12px; font-weight: 200;" x="0" y="141.71249985694888" dx="0em" dy="0.3em" fill="rgb(50, 49, 63)" stroke="none" stroke-width="1px">1.4</text><text style="text-anchor: end; visibility: inherit; font-family: &quot;Helvetica Neue&quot;, sans-serif; font-size: 12px; font-weight: 200;" x="0" y="94.47499990463257" dx="0em" dy="0.3em" fill="rgb(50, 49, 63)" stroke="none" stroke-width="1px">1.5</text><text style="text-anchor: end; visibility: inherit; font-family: &quot;Helvetica Neue&quot;, sans-serif; font-size: 12px; font-weight: 200;" x="0" y="47.23749995231623" dx="0em" dy="0.3em" fill="rgb(50, 49, 63)" stroke="none" stroke-width="1px">1.6</text><text style="text-anchor: end; visibility: hidden; font-family: &quot;Helvetica Neue&quot;, sans-serif; font-size: 12px; font-weight: 200;" x="0" y="0" dx="0em" dy="0.3em" fill="rgb(50, 49, 63)" stroke="none" stroke-width="1px">1.7</text></g><line x1="41.0620002746582" y1="0" x2="41.0620002746582" y2="377.8999996185303" fill="rgb(0, 0, 0)" stroke="rgb(204, 204, 204)" stroke-width="1px"></line></g></g><g transform="translate(41, 0)" clip-path="url(#clip_0)"><clipPath id="clip_0"><rect width="815" height="377"></rect></clipPath><g><g><g><line x1="0" y1="0" x2="0" y2="377.8999996185303" fill="rgb(0, 0, 0)" stroke="rgb(60, 60, 60)" stroke-width="1px" opacity="0.25"></line><line x1="67.96708331044515" y1="0" x2="67.96708331044515" y2="377.8999996185303" fill="rgb(0, 0, 0)" stroke="rgb(60, 60, 60)" stroke-width="1px" opacity="0.25"></line><line x1="135.9341666208903" y1="0" x2="135.9341666208903" y2="377.8999996185303" fill="rgb(0, 0, 0)" stroke="rgb(60, 60, 60)" stroke-width="1px" opacity="0.25"></line><line x1="203.90124993133546" y1="0" x2="203.90124993133546" y2="377.8999996185303" fill="rgb(0, 0, 0)" stroke="rgb(60, 60, 60)" stroke-width="1px" opacity="0.25"></line><line x1="271.8683332417806" y1="0" x2="271.8683332417806" y2="377.8999996185303" fill="rgb(0, 0, 0)" stroke="rgb(60, 60, 60)" stroke-width="1px" opacity="0.25"></line><line x1="339.83541655222575" y1="0" x2="339.83541655222575" y2="377.8999996185303" fill="rgb(0, 0, 0)" stroke="rgb(60, 60, 60)" stroke-width="1px" opacity="0.25"></line><line x1="407.8024998626709" y1="0" x2="407.8024998626709" y2="377.8999996185303" fill="rgb(0, 0, 0)" stroke="rgb(60, 60, 60)" stroke-width="1px" opacity="0.25"></line><line x1="475.7695831731161" y1="0" x2="475.7695831731161" y2="377.8999996185303" fill="rgb(0, 0, 0)" stroke="rgb(60, 60, 60)" stroke-width="1px" opacity="0.25"></line><line x1="543.7366664835612" y1="0" x2="543.7366664835612" y2="377.8999996185303" fill="rgb(0, 0, 0)" stroke="rgb(60, 60, 60)" stroke-width="1px" opacity="0.25"></line><line x1="611.7037497940064" y1="0" x2="611.7037497940064" y2="377.8999996185303" fill="rgb(0, 0, 0)" stroke="rgb(60, 60, 60)" stroke-width="1px" opacity="0.25"></line><line x1="679.6708331044515" y1="0" x2="679.6708331044515" y2="377.8999996185303" fill="rgb(0, 0, 0)" stroke="rgb(60, 60, 60)" stroke-width="1px" opacity="0.25"></line><line x1="747.6379164148966" y1="0" x2="747.6379164148966" y2="377.8999996185303" fill="rgb(0, 0, 0)" stroke="rgb(60, 60, 60)" stroke-width="1px" opacity="0.25"></line><line x1="815.6049997253418" y1="0" x2="815.6049997253418" y2="377.8999996185303" fill="rgb(0, 0, 0)" stroke="rgb(60, 60, 60)" stroke-width="1px" opacity="0.25"></line></g><g><line x1="0" y1="377.8999996185303" x2="815.6049997253418" y2="377.8999996185303" fill="rgb(0, 0, 0)" stroke="rgb(60, 60, 60)" stroke-width="1px" opacity="0.25"></line><line x1="0" y1="330.662499666214" x2="815.6049997253418" y2="330.662499666214" fill="rgb(0, 0, 0)" stroke="rgb(60, 60, 60)" stroke-width="1px" opacity="0.25"></line><line x1="0" y1="283.42499971389765" x2="815.6049997253418" y2="283.42499971389765" fill="rgb(0, 0, 0)" stroke="rgb(60, 60, 60)" stroke-width="1px" opacity="0.25"></line><line x1="0" y1="236.18749976158145" x2="815.6049997253418" y2="236.18749976158145" fill="rgb(0, 0, 0)" stroke="rgb(60, 60, 60)" stroke-width="1px" opacity="0.25"></line><line x1="0" y1="188.9499998092651" x2="815.6049997253418" y2="188.9499998092651" fill="rgb(0, 0, 0)" stroke="rgb(60, 60, 60)" stroke-width="1px" opacity="0.25"></line><line x1="0" y1="141.71249985694888" x2="815.6049997253418" y2="141.71249985694888" fill="rgb(0, 0, 0)" stroke="rgb(60, 60, 60)" stroke-width="1px" opacity="0.25"></line><line x1="0" y1="94.47499990463257" x2="815.6049997253418" y2="94.47499990463257" fill="rgb(0, 0, 0)" stroke="rgb(60, 60, 60)" stroke-width="1px" opacity="0.25"></line><line x1="0" y1="47.23749995231623" x2="815.6049997253418" y2="47.23749995231623" fill="rgb(0, 0, 0)" stroke="rgb(60, 60, 60)" stroke-width="1px" opacity="0.25"></line><line x1="0" y1="0" x2="815.6049997253418" y2="0" fill="rgb(0, 0, 0)" stroke="rgb(60, 60, 60)" stroke-width="1px" opacity="0.25"></line></g></g></g><g><g><line x1="0" y1="803.0374991893768" x2="815.6049997253418" y2="803.0374991893768" fill="rgb(0, 0, 0)" stroke="rgb(153, 153, 153)" stroke-width="1.5px"></line></g></g><g><g><line x1="67.96708331044515" y1="0" x2="67.96708331044515" y2="377.8999996185303" fill="rgb(0, 0, 0)" stroke="rgb(153, 153, 153)" stroke-width="1.5px"></line></g></g><g><g><g><g><g><path style="fill: none;" stroke="rgb(51, 187, 238)" stroke-width="2px" d="M67.96708331044515,4.7866228979191305L81.56049997253419,29.086860134148083L95.15391663462322,50.58435968649951L108.74733329671224,69.81447514269263L122.34074995880127,87.12763504787614L135.9341666208903,102.77438724789556L149.52758328297932,116.96482228175961L163.12099994506838,129.8833902915144L176.7144166071574,141.6890898172627L190.30783326924643,152.5283908878895L203.90124993133546,162.5276037047345L217.49466659342448,171.7912086273892L231.0880832555135,180.4093711751962L244.68149991760254,188.45495199122388L258.2749165796916,195.98428920615444L271.8683332417806,203.04262607893287L285.46174990386965,209.6702448172175L299.05516656595864,215.89831325538424L312.6485832280477,221.7542853750064L326.24199989013675,227.2626715537698L339.83541655222575,232.44429723620325L353.4288332143148,237.31838556058932L367.0222498764038,241.90343639508512L380.61566653849286,246.21873922388127L394.20908320058186,250.28232698158698L407.8024998626709,254.1112106984619L421.39591652475997,257.72208238879557L434.98933318684897,261.1310604740588L448.582749848938,264.35193747021555L462.176166511027,267.3981016677401L475.7695831731161,270.2826764286066L489.3629998352051,273.0169143625555L502.95641649729413,275.6116439326868L516.5498331593832,278.0766958260755L530.1432498214722,280.4218651924796L543.7366664835612,282.65525904674945L557.3300831456503,284.7855932979755L570.9234998077393,286.82125093174545L584.5169164698283,288.76879341006656L598.1103331319173,290.63450016701717L611.7037497940064,292.4234678135744L625.2971664560954,294.14075900496573L638.8905831181844,295.79112320337333L652.4839997802735,297.37844621737725L666.0774164423625,298.90575779451524L679.6708331044515,300.3759569638448L693.2642497665405,301.7924724874227L706.8576664286296,303.15839775385166L720.4510830907186,304.47579151764376L734.0444997528076,305.7458439823118" fill="none"></path></g><g><path style="fill: none;" stroke="rgb(204, 51, 17)" stroke-width="2px" d="M67.96708331044515,-30.12779488502531L81.56049997253419,1.6833742173158157L95.15391663462322,28.729397680758098L108.74733329671224,52.23870510439485L122.34074995880127,72.92703610232036L135.9341666208903,91.28491818356792L149.52758328297932,107.68861634773623L163.12099994506838,122.44539348487828L176.7144166071574,135.8016956154391L190.30783326924643,147.96961354234818L203.90124993133546,159.12048480346604L217.49466659342448,169.39651858543644L231.0880832555135,178.9116057621719L244.68149991760254,187.7548865218478L258.2749165796916,195.99750802056099L271.8683332417806,203.69739696115062L285.46174990386965,210.90321494657186L299.05516656595864,217.65263352621355L312.6485832280477,223.97870320141683L326.24199989013675,229.91088204003958L339.83541655222575,235.4731842032136L353.4288332143148,240.68847772911525L367.0222498764038,245.57891202134297L380.61566653849286,250.16447882968575L394.20908320058186,254.46746121218203L407.8024998626709,258.50895169661237L421.39591652475997,262.3052529597625L434.98933318684897,265.87558339782464L448.582749848938,269.23622616119155L462.176166511027,272.40267206463534L475.7695831731161,275.3903421053989L489.3629998352051,278.2127684524628L502.95641649729413,280.8832735312293L516.5498331593832,283.41183292878577L530.1432498214722,285.80898194743094L543.7366664835612,288.08559172645477L557.3300831456503,290.2496265176529L570.9234998077393,292.30967152540745L584.5169164698283,294.2731303299926L598.1103331319173,296.14608937396156L611.7037497940064,297.93463317852945L625.2971664560954,299.64419189910484L638.8905831181844,301.2799156947366L652.4839997802735,302.846358759433L666.0774164423625,304.3469068227969L679.6708331044515,305.78523561800586L693.2642497665405,307.1632127160168L706.8576664286296,308.48369305322524L720.4510830907186,309.74742103386666L734.0444997528076,310.95626234997803" fill="none"></path></g></g></g></g><g opacity="0.2"><g><g><g><path style="fill: none;" stroke="rgb(51, 187, 238)" stroke-width="2px" d="M67.96708331044515,4.7866228979191305L81.56049997253419,43.66700247588568L95.15391663462322,71.22195925675669L108.74733329671224,92.42909091917568L122.34074995880127,109.73169662008388L135.9341666208903,124.41947837131437L149.52758328297932,137.25737142714564L163.12099994506838,148.7187864679899L176.7144166071574,159.10020347866578L190.30783326924643,168.6234897222664L203.90124993133546,177.4357308056952L217.49466659342448,185.63620388246306L231.0880832555135,193.3084752009026L244.68149991760254,200.5075610848823L258.2749165796916,207.2694445752947L271.8683332417806,213.62515330207998L285.46174990386965,219.60886833851163L299.05516656595864,225.23883460673233L312.6485832280477,230.53735145602758L326.24199989013675,235.52474733359958L339.83541655222575,240.21645158718627L353.4288332143148,244.62935766321607L367.0222498764038,248.78092212299833L380.61566653849286,252.69164234819954L394.20908320058186,256.37767973590286L407.8024998626709,259.85451994533435L421.39591652475997,263.1383806850653L434.98933318684897,266.2445223683693L448.582749848938,269.18324999756777L462.176166511027,271.9673462804582L475.7695831731161,274.6095376133499L489.3629998352051,277.1182707194572L502.95641649729413,279.5037379781252L516.5498331593832,281.77427348959185L530.1432498214722,283.9396191412976L543.7366664835612,286.00534977056384L557.3300831456503,287.9810946418547L570.9234998077393,289.8747373635035L584.5169164698283,291.6901071167007L598.1103331319173,293.43306029620805L611.7037497940064,295.1069192798232L625.2971664560954,296.7166957899866L638.8905831181844,298.2666694997934L652.4839997802735,299.759430737696L666.0774164423625,301.1967251598253L679.6708331044515,302.58125571760985L693.2642497665405,303.91724577265677L706.8576664286296,305.2072856534184L720.4510830907186,306.4518821632876L734.0444997528076,307.6509226792882" fill="none"></path></g><g><path style="fill: none;" stroke="rgb(204, 51, 17)" stroke-width="2px" d="M67.96708331044515,-30.12779488502531L81.56049997253419,20.77007567872073L95.15391663462322,54.69358020566261L108.74733329671224,79.88565063459163L122.34074995880127,99.93772105321199L135.9341666208903,116.68047793948261L149.52758328297932,131.14616718166758L163.12099994506838,143.96091621589193L176.7144166071574,155.49964692989022L190.30783326924643,166.03755356598128L203.90124993133546,175.74565411350875L217.49466659342448,184.75464753634043L231.0880832555135,193.1531681167374L244.68149991760254,201.00248275374668L258.2749165796916,208.35175137647497L271.8683332417806,215.24179981379092L285.46174990386965,221.70889266402753L299.05516656595864,227.77504771902983L312.6485832280477,233.46684400117852L326.24199989013675,238.8086080733305L339.83541655222575,243.8163323981047L353.4288332143148,248.51124640651278L367.0222498764038,252.9144669065903L380.61566653849286,257.04277472178944L394.20908320058186,260.9219042021695L407.8024998626709,264.571170188147L421.39591652475997,267.9996951407932L434.98933318684897,271.2310735736199L448.582749848938,274.27718721061495L462.176166511027,277.1523391697545L475.7695831731161,279.8718461758003L489.3629998352051,282.44640741149027L502.95641649729413,284.88903083057437L516.5498331593832,287.2046718440049L530.1432498214722,289.404705372377L543.7366664835612,291.5005063362858L557.3300831456503,293.49567867096937L570.9234998077393,295.3997390179157L584.5169164698283,297.21831852593425L598.1103331319173,298.95552793365596L611.7037497940064,300.61744888179504L625.2971664560954,302.208529977911L638.8905831181844,303.73350138700374L652.4839997802735,305.19602335579947L666.0774164423625,306.5977289174529L679.6708331044515,307.942728810595L693.2642497665405,309.23017836290427L706.8576664286296,310.46441355896405L720.4510830907186,311.64301300478627L734.0444997528076,312.7695243241209" fill="none"></path></g></g></g></g></g></g><g transform="translate(41, 377)" clip-path="url(#clip_1)"><clipPath id="clip_1"><rect width="815" height="22"></rect></clipPath><g><g><line x1="0" y1="0" x2="0" y2="5" style="visibility: inherit;" fill="rgb(0, 0, 0)" stroke="rgb(204, 204, 204)" stroke-width="1px"></line><line x1="67.96708331044515" y1="0" x2="67.96708331044515" y2="5" style="visibility: inherit;" fill="rgb(0, 0, 0)" stroke="rgb(204, 204, 204)" stroke-width="1px"></line><line x1="135.9341666208903" y1="0" x2="135.9341666208903" y2="5" style="visibility: inherit;" fill="rgb(0, 0, 0)" stroke="rgb(204, 204, 204)" stroke-width="1px"></line><line x1="203.90124993133546" y1="0" x2="203.90124993133546" y2="5" style="visibility: inherit;" fill="rgb(0, 0, 0)" stroke="rgb(204, 204, 204)" stroke-width="1px"></line><line x1="271.8683332417806" y1="0" x2="271.8683332417806" y2="5" style="visibility: inherit;" fill="rgb(0, 0, 0)" stroke="rgb(204, 204, 204)" stroke-width="1px"></line><line x1="339.83541655222575" y1="0" x2="339.83541655222575" y2="5" style="visibility: inherit;" fill="rgb(0, 0, 0)" stroke="rgb(204, 204, 204)" stroke-width="1px"></line><line x1="407.8024998626709" y1="0" x2="407.8024998626709" y2="5" style="visibility: inherit;" fill="rgb(0, 0, 0)" stroke="rgb(204, 204, 204)" stroke-width="1px"></line><line x1="475.7695831731161" y1="0" x2="475.7695831731161" y2="5" style="visibility: inherit;" fill="rgb(0, 0, 0)" stroke="rgb(204, 204, 204)" stroke-width="1px"></line><line x1="543.7366664835612" y1="0" x2="543.7366664835612" y2="5" style="visibility: inherit;" fill="rgb(0, 0, 0)" stroke="rgb(204, 204, 204)" stroke-width="1px"></line><line x1="611.7037497940064" y1="0" x2="611.7037497940064" y2="5" style="visibility: inherit;" fill="rgb(0, 0, 0)" stroke="rgb(204, 204, 204)" stroke-width="1px"></line><line x1="679.6708331044515" y1="0" x2="679.6708331044515" y2="5" style="visibility: inherit;" fill="rgb(0, 0, 0)" stroke="rgb(204, 204, 204)" stroke-width="1px"></line><line x1="747.6379164148966" y1="0" x2="747.6379164148966" y2="5" style="visibility: inherit;" fill="rgb(0, 0, 0)" stroke="rgb(204, 204, 204)" stroke-width="1px"></line><line x1="815.6049997253418" y1="0" x2="815.6049997253418" y2="5" style="visibility: inherit;" fill="rgb(0, 0, 0)" stroke="rgb(204, 204, 204)" stroke-width="1px"></line></g><g transform="translate(0, 8)"><text style="text-anchor: middle; visibility: hidden; font-family: &quot;Helvetica Neue&quot;, sans-serif; font-size: 12px; font-weight: 200;" x="0" y="0" dx="0em" dy="0.95em" fill="rgb(50, 49, 63)" stroke="none" stroke-width="1px">-5</text><text style="text-anchor: middle; visibility: inherit; font-family: &quot;Helvetica Neue&quot;, sans-serif; font-size: 12px; font-weight: 200;" x="67.96708331044515" y="0" dx="0em" dy="0.95em" fill="rgb(50, 49, 63)" stroke="none" stroke-width="1px">0</text><text style="text-anchor: middle; visibility: inherit; font-family: &quot;Helvetica Neue&quot;, sans-serif; font-size: 12px; font-weight: 200;" x="135.9341666208903" y="0" dx="0em" dy="0.95em" fill="rgb(50, 49, 63)" stroke="none" stroke-width="1px">5</text><text style="text-anchor: middle; visibility: inherit; font-family: &quot;Helvetica Neue&quot;, sans-serif; font-size: 12px; font-weight: 200;" x="203.90124993133546" y="0" dx="0em" dy="0.95em" fill="rgb(50, 49, 63)" stroke="none" stroke-width="1px">10</text><text style="text-anchor: middle; visibility: inherit; font-family: &quot;Helvetica Neue&quot;, sans-serif; font-size: 12px; font-weight: 200;" x="271.8683332417806" y="0" dx="0em" dy="0.95em" fill="rgb(50, 49, 63)" stroke="none" stroke-width="1px">15</text><text style="text-anchor: middle; visibility: inherit; font-family: &quot;Helvetica Neue&quot;, sans-serif; font-size: 12px; font-weight: 200;" x="339.83541655222575" y="0" dx="0em" dy="0.95em" fill="rgb(50, 49, 63)" stroke="none" stroke-width="1px">20</text><text style="text-anchor: middle; visibility: inherit; font-family: &quot;Helvetica Neue&quot;, sans-serif; font-size: 12px; font-weight: 200;" x="407.8024998626709" y="0" dx="0em" dy="0.95em" fill="rgb(50, 49, 63)" stroke="none" stroke-width="1px">25</text><text style="text-anchor: middle; visibility: inherit; font-family: &quot;Helvetica Neue&quot;, sans-serif; font-size: 12px; font-weight: 200;" x="475.7695831731161" y="0" dx="0em" dy="0.95em" fill="rgb(50, 49, 63)" stroke="none" stroke-width="1px">30</text><text style="text-anchor: middle; visibility: inherit; font-family: &quot;Helvetica Neue&quot;, sans-serif; font-size: 12px; font-weight: 200;" x="543.7366664835612" y="0" dx="0em" dy="0.95em" fill="rgb(50, 49, 63)" stroke="none" stroke-width="1px">35</text><text style="text-anchor: middle; visibility: inherit; font-family: &quot;Helvetica Neue&quot;, sans-serif; font-size: 12px; font-weight: 200;" x="611.7037497940064" y="0" dx="0em" dy="0.95em" fill="rgb(50, 49, 63)" stroke="none" stroke-width="1px">40</text><text style="text-anchor: middle; visibility: inherit; font-family: &quot;Helvetica Neue&quot;, sans-serif; font-size: 12px; font-weight: 200;" x="679.6708331044515" y="0" dx="0em" dy="0.95em" fill="rgb(50, 49, 63)" stroke="none" stroke-width="1px">45</text><text style="text-anchor: middle; visibility: inherit; font-family: &quot;Helvetica Neue&quot;, sans-serif; font-size: 12px; font-weight: 200;" x="747.6379164148966" y="0" dx="0em" dy="0.95em" fill="rgb(50, 49, 63)" stroke="none" stroke-width="1px">50</text><text style="text-anchor: middle; visibility: hidden; font-family: &quot;Helvetica Neue&quot;, sans-serif; font-size: 12px; font-weight: 200;" x="815.6049997253418" y="0" dx="0em" dy="0.95em" fill="rgb(50, 49, 63)" stroke="none" stroke-width="1px">55</text></g><line x1="0" y1="0" x2="815.6049997253418" y2="0" fill="rgb(0, 0, 0)" stroke="rgb(204, 204, 204)" stroke-width="1px"></line></g></g></g></g></svg>