<svg viewBox="0 0 767.9166870117188 400" xmlns="http://www.w3.org/2000/svg"><g><g><g><g><g><line x1="41.0620002746582" y1="377.8999996185303" x2="36.0620002746582" y2="377.8999996185303" style="visibility: inherit;" fill="rgb(0, 0, 0)" stroke="rgb(204, 204, 204)" stroke-width="1px"></line><line x1="41.0620002746582" y1="330.662499666214" x2="36.0620002746582" y2="330.662499666214" style="visibility: inherit;" fill="rgb(0, 0, 0)" stroke="rgb(204, 204, 204)" stroke-width="1px"></line><line x1="41.0620002746582" y1="283.42499971389765" x2="36.0620002746582" y2="283.42499971389765" style="visibility: inherit;" fill="rgb(0, 0, 0)" stroke="rgb(204, 204, 204)" stroke-width="1px"></line><line x1="41.0620002746582" y1="236.18749976158145" x2="36.0620002746582" y2="236.18749976158145" style="visibility: inherit;" fill="rgb(0, 0, 0)" stroke="rgb(204, 204, 204)" stroke-width="1px"></line><line x1="41.0620002746582" y1="188.9499998092651" x2="36.0620002746582" y2="188.9499998092651" style="visibility: inherit;" fill="rgb(0, 0, 0)" stroke="rgb(204, 204, 204)" stroke-width="1px"></line><line x1="41.0620002746582" y1="141.71249985694888" x2="36.0620002746582" y2="141.71249985694888" style="visibility: inherit;" fill="rgb(0, 0, 0)" stroke="rgb(204, 204, 204)" stroke-width="1px"></line><line x1="41.0620002746582" y1="94.47499990463257" x2="36.0620002746582" y2="94.47499990463257" style="visibility: inherit;" fill="rgb(0, 0, 0)" stroke="rgb(204, 204, 204)" stroke-width="1px"></line><line x1="41.0620002746582" y1="47.23749995231623" x2="36.0620002746582" y2="47.23749995231623" style="visibility: inherit;" fill="rgb(0, 0, 0)" stroke="rgb(204, 204, 204)" stroke-width="1px"></line><line x1="41.0620002746582" y1="0" x2="36.0620002746582" y2="0" style="visibility: inherit;" fill="rgb(0, 0, 0)" stroke="rgb(204, 204, 204)" stroke-width="1px"></line></g><g transform="translate(31.062000274658203, 0)"><text style="text-anchor: end; visibility: hidden; font-family: &quot;Helvetica Neue&quot;, sans-serif; font-size: 12px; font-weight: 200;" x="0" y="377.8999996185303" dx="0em" dy="0.3em" fill="rgb(50, 49, 63)" stroke="none" stroke-width="1px">0.9</text><text style="text-anchor: end; visibility: inherit; font-family: &quot;Helvetica Neue&quot;, sans-serif; font-size: 12px; font-weight: 200;" x="0" y="330.662499666214" dx="0em" dy="0.3em" fill="rgb(50, 49, 63)" stroke="none" stroke-width="1px">1</text><text style="text-anchor: end; visibility: inherit; font-family: &quot;Helvetica Neue&quot;, sans-serif; font-size: 12px; font-weight: 200;" x="0" y="283.42499971389765" dx="0em" dy="0.3em" fill="rgb(50, 49, 63)" stroke="none" stroke-width="1px">1.1</text><text style="text-anchor: end; visibility: inherit; font-family: &quot;Helvetica Neue&quot;, sans-serif; font-size: 12px; font-weight: 200;" x="0" y="236.18749976158145" dx="0em" dy="0.3em" fill="rgb(50, 49, 63)" stroke="none" stroke-width="1px">1.2</text><text style="text-anchor: end; visibility: inherit; font-family: &quot;Helvetica Neue&quot;, sans-serif; font-size: 12px; font-weight: 200;" x="0" y="188.9499998092651" dx="0em" dy="0.3em" fill="rgb(50, 49, 63)" stroke="none" stroke-width="1px">1.3</text><text style="text-anchor: end; visibility: inherit; font-family: &quot;Helvetica Neue&quot;, sans-serif; font-size: 12px; font-weight: 200;" x="0" y="141.71249985694888" dx="0em" dy="0.3em" fill="rgb(50, 49, 63)" stroke="none" stroke-width="1px">1.4</text><text style="text-anchor: end; visibility: inherit; font-family: &quot;Helvetica Neue&quot;, sans-serif; font-size: 12px; font-weight: 200;" x="0" y="94.47499990463257" dx="0em" dy="0.3em" fill="rgb(50, 49, 63)" stroke="none" stroke-width="1px">1.5</text><text style="text-anchor: end; visibility: inherit; font-family: &quot;Helvetica Neue&quot;, sans-serif; font-size: 12px; font-weight: 200;" x="0" y="47.23749995231623" dx="0em" dy="0.3em" fill="rgb(50, 49, 63)" stroke="none" stroke-width="1px">1.6</text><text style="text-anchor: end; visibility: hidden; font-family: &quot;Helvetica Neue&quot;, sans-serif; font-size: 12px; font-weight: 200;" x="0" y="0" dx="0em" dy="0.3em" fill="rgb(50, 49, 63)" stroke="none" stroke-width="1px">1.7</text></g><line x1="41.0620002746582" y1="0" x2="41.0620002746582" y2="377.8999996185303" fill="rgb(0, 0, 0)" stroke="rgb(204, 204, 204)" stroke-width="1px"></line></g></g><g transform="translate(41, 0)" clip-path="url(#clip_0)"><clipPath id="clip_0"><rect width="726" height="377"></rect></clipPath><g><g><g><line x1="0" y1="0" x2="0" y2="377.8999996185303" fill="rgb(0, 0, 0)" stroke="rgb(60, 60, 60)" stroke-width="1px" opacity="0.25"></line><line x1="72.68549997253419" y1="0" x2="72.68549997253419" y2="377.8999996185303" fill="rgb(0, 0, 0)" stroke="rgb(60, 60, 60)" stroke-width="1px" opacity="0.25"></line><line x1="145.37099994506838" y1="0" x2="145.37099994506838" y2="377.8999996185303" fill="rgb(0, 0, 0)" stroke="rgb(60, 60, 60)" stroke-width="1px" opacity="0.25"></line><line x1="218.05649991760254" y1="0" x2="218.05649991760254" y2="377.8999996185303" fill="rgb(0, 0, 0)" stroke="rgb(60, 60, 60)" stroke-width="1px" opacity="0.25"></line><line x1="290.74199989013675" y1="0" x2="290.74199989013675" y2="377.8999996185303" fill="rgb(0, 0, 0)" stroke="rgb(60, 60, 60)" stroke-width="1px" opacity="0.25"></line><line x1="363.4274998626709" y1="0" x2="363.4274998626709" y2="377.8999996185303" fill="rgb(0, 0, 0)" stroke="rgb(60, 60, 60)" stroke-width="1px" opacity="0.25"></line><line x1="436.1129998352051" y1="0" x2="436.1129998352051" y2="377.8999996185303" fill="rgb(0, 0, 0)" stroke="rgb(60, 60, 60)" stroke-width="1px" opacity="0.25"></line><line x1="508.79849980773923" y1="0" x2="508.79849980773923" y2="377.8999996185303" fill="rgb(0, 0, 0)" stroke="rgb(60, 60, 60)" stroke-width="1px" opacity="0.25"></line><line x1="581.4839997802735" y1="0" x2="581.4839997802735" y2="377.8999996185303" fill="rgb(0, 0, 0)" stroke="rgb(60, 60, 60)" stroke-width="1px" opacity="0.25"></line><line x1="654.1694997528076" y1="0" x2="654.1694997528076" y2="377.8999996185303" fill="rgb(0, 0, 0)" stroke="rgb(60, 60, 60)" stroke-width="1px" opacity="0.25"></line><line x1="726.8549997253418" y1="0" x2="726.8549997253418" y2="377.8999996185303" fill="rgb(0, 0, 0)" stroke="rgb(60, 60, 60)" stroke-width="1px" opacity="0.25"></line></g><g><line x1="0" y1="377.8999996185303" x2="726.8549997253418" y2="377.8999996185303" fill="rgb(0, 0, 0)" stroke="rgb(60, 60, 60)" stroke-width="1px" opacity="0.25"></line><line x1="0" y1="330.662499666214" x2="726.8549997253418" y2="330.662499666214" fill="rgb(0, 0, 0)" stroke="rgb(60, 60, 60)" stroke-width="1px" opacity="0.25"></line><line x1="0" y1="283.42499971389765" x2="726.8549997253418" y2="283.42499971389765" fill="rgb(0, 0, 0)" stroke="rgb(60, 60, 60)" stroke-width="1px" opacity="0.25"></line><line x1="0" y1="236.18749976158145" x2="726.8549997253418" y2="236.18749976158145" fill="rgb(0, 0, 0)" stroke="rgb(60, 60, 60)" stroke-width="1px" opacity="0.25"></line><line x1="0" y1="188.9499998092651" x2="726.8549997253418" y2="188.9499998092651" fill="rgb(0, 0, 0)" stroke="rgb(60, 60, 60)" stroke-width="1px" opacity="0.25"></line><line x1="0" y1="141.71249985694888" x2="726.8549997253418" y2="141.71249985694888" fill="rgb(0, 0, 0)" stroke="rgb(60, 60, 60)" stroke-width="1px" opacity="0.25"></line><line x1="0" y1="94.47499990463257" x2="726.8549997253418" y2="94.47499990463257" fill="rgb(0, 0, 0)" stroke="rgb(60, 60, 60)" stroke-width="1px" opacity="0.25"></line><line x1="0" y1="47.23749995231623" x2="726.8549997253418" y2="47.23749995231623" fill="rgb(0, 0, 0)" stroke="rgb(60, 60, 60)" stroke-width="1px" opacity="0.25"></line><line x1="0" y1="0" x2="726.8549997253418" y2="0" fill="rgb(0, 0, 0)" stroke="rgb(60, 60, 60)" stroke-width="1px" opacity="0.25"></line></g></g></g><g><g><line x1="0" y1="803.0374991893768" x2="726.8549997253418" y2="803.0374991893768" fill="rgb(0, 0, 0)" stroke="rgb(153, 153, 153)" stroke-width="1.5px"></line></g></g><g><g><line x1="72.68549997253419" y1="0" x2="72.68549997253419" y2="377.8999996185303" fill="rgb(0, 0, 0)" stroke="rgb(153, 153, 153)" stroke-width="1.5px"></line></g></g><g><g><g><g><g><path style="fill: none;" stroke="rgb(0, 119, 187)" stroke-width="2px" d="M72.68549997253419,-27.17696028588665L79.9540499697876,0.19045812282098495L87.22259996704102,25.31812013246548L94.49114996429444,48.09464622067651L101.75969996154787,68.50256069233444L109.02824995880127,86.6194587427729L116.2967999560547,102.60028903525148L123.56534995330811,116.65343596806332L130.83389995056152,129.01267803057402L138.10244994781496,139.9105674728551L145.37099994506838,149.56950383107628L152.63954994232176,158.18661230496122L159.9080999395752,165.9307240603989L167.17664993682862,172.9452018425172L174.44519993408204,179.34849647659095L181.71374993133546,185.23712754440498L188.98229992858887,190.6894066521758L196.25084992584232,195.7676278709603L203.51939992309573,200.52237465031868L210.78794992034912,204.99538075683972L218.05649991760254,209.22024636740647L225.32504991485595,213.22517095018307L232.5935999121094,217.03325488466382L239.8621499093628,220.66371169376242L247.13069990661623,224.13272784475728L254.39924990386962,227.45388706002524L261.66779990112303,230.63878448495294L268.9363498983765,233.69786775182374L276.2048998956299,236.639972806051L283.4734498928833,239.47290119511177L290.74199989013675,242.20369878690542L298.01054988739014,244.83900315174412L305.27909988464353,247.38464380136747L312.547649881897,249.8452446453819L319.8161998791504,252.22547207991502L327.0847498764038,254.52940983552026L334.35329987365725,256.7609947685887L341.62184987091064,258.9238053180711L348.8903998681641,261.02095710318L356.15894986541747,263.0552204782374L363.4274998626709,265.02895591769993L370.69604985992436,266.9446834110666L377.96459985717775,268.8045456405045L385.2331498544312,270.61068414981753L392.50169985168463,272.3642261930541L399.770249848938,274.0668392047948L407.03879984619147,275.720266957408L414.3073498434448,277.32616387837294L421.57589984069824,278.88577039471693L428.84444983795163,280.3998082380567L436.1129998352051,281.86909336547865L443.3815498324585,283.294565843138L450.6500998297119,284.67762312075087L457.91864982696535,286.0186757008365L465.1871998242188,287.3185104751921L472.4557498214722,288.57737433294346L479.7242998187256,289.79642901435165L486.99284981597907,290.9758985470731L494.26139981323246,292.1155794787733L501.52994981048585,293.2157326561705L508.79849980773923,294.2761767183668L516.0670498049926,295.29572166825244L523.3355998022461,296.2740814748708L530.6041497994995,297.210611503148L537.872699796753,298.1047898244684L545.1412497940064,298.95562754380524L552.4097997912598,299.7624412257618L559.6783497885132,300.5236270055521L566.9468997857666,301.23761440023344L574.2154497830201,301.90237993946835L581.4839997802735,302.51695731160265L588.752549777527,303.0794828277147L596.0210997747803,303.58872565147556L603.2896497720337,304.04158219858795L610.5581997692871,304.4351767116875L617.8267497665405,304.7659817687368L625.095299763794,305.0293131126562L632.3638497610474,305.2207834675314L639.6323997583008,305.33755774645647L646.9009497555543,305.37451115881186" fill="none"></path></g><g><path style="fill: none;" stroke="rgb(255, 112, 67)" stroke-width="2px" d="M79.9540499697876,-14.97541520126947L87.22259996704102,14.541041368225592L94.49114996429444,40.888696753002705L101.75969996154787,64.16261797024515L109.02824995880127,84.55243387167593L116.2967999560547,102.31804812408365L123.56534995330811,117.75989638933692L130.83389995056152,131.19489905717325L138.10244994781496,142.92536108053483L145.37099994506838,153.22698514562745L152.63954994232176,162.34238867414157L159.9080999395752,170.4763969202164L167.17664993682862,177.7988308071626L174.44519993408204,184.44813044219126L181.71374993133546,190.53590887207045L188.98229992858887,196.1522466836497L196.25084992584232,201.36839750323264L203.51939992309573,206.2409209573772L210.78794992034912,210.81542577376803L218.05649991760254,215.12875894458242L225.32504991485595,219.21061668176327L232.5935999121094,223.08596557322915L239.8621499093628,226.77475572871234L247.13069990661623,230.2946741200869L254.39924990386962,233.6595965469228L261.66779990112303,236.88205920939635L268.9363498983765,239.97271396242508L276.2048998956299,242.94085714605328L283.4734498928833,245.79434129406215L290.74199989013675,248.54091860184462L298.01054988739014,251.1867945001917L305.27909988464353,253.7377869871437L312.547649881897,256.1993464738035L319.8161998791504,258.5761171912894L327.0847498764038,260.87223714485947L334.35329987365725,263.0916307064978L341.62184987091064,265.2376886277305L348.8903998681641,267.3134589644997L356.15894986541747,269.32245989399576L363.4274998626709,271.26718524006066L370.69604985992436,273.1503025756107L377.96459985717775,274.97381788691166L385.2331498544312,276.73992584779876L392.50169985168463,278.45041627900616L399.770249848938,280.10701628619785L407.03879984619147,281.71137029682086L414.3073498434448,283.2643298197592L421.57589984069824,284.7672842195499L428.84444983795163,286.2211346886961L436.1129998352051,287.6270075821741L443.3815498324585,288.98569133594356L450.6500998297119,290.29774910996076L457.91864982696535,291.56369899696097L465.1871998242188,292.7846627380133L472.4557498214722,293.9608854104497L479.7242998187256,295.0925591098596L486.99284981597907,296.1800693887398L494.26139981323246,297.2230619391118L501.52994981048585,298.2215944713314L508.79849980773923,299.175025873755L516.0670498049926,300.0834219713013L523.3355998022461,300.94637176701644L530.6041497994995,301.7640115808476L537.872699796753,302.5346212371435L545.1412497940064,303.25755154863293L552.4097997912598,303.93193998645296L559.6783497885132,304.5563230002856L566.9468997857666,305.12957468939294L574.2154497830201,305.6503663000699L581.4839997802735,306.1163689076176L588.752549777527,306.52550941935914L596.0210997747803,306.8756655204745L603.2896497720337,307.1641222479764L610.5581997692871,307.38868750919124L617.8267497665405,307.54559086763436L625.095299763794,307.632615110605L632.3638497610474,307.64671804124487L639.6323997583008,307.5829659472961L646.9009497555543,307.4371597486659" fill="none"></path></g></g></g></g><g opacity="0.2"><g><g><g><path style="fill: none;" stroke="rgb(0, 119, 187)" stroke-width="2px" d="M72.68549997253419,-27.17696028588648L79.9540499697876,16.61090916804568L87.22259996704102,49.44067566172407L94.49114996429444,74.87984090041266L101.75969996154787,95.14713382653099L109.02824995880127,111.68165082982739L116.2967999560547,125.45313204678081L123.56534995330811,137.1430591063134L130.83389995056152,147.2401594135991L138.10244994781496,156.09266321101558L145.37099994506838,163.9703025265365L152.63954994232176,171.06538109200528L159.9080999395752,177.52160582503961L167.17664993682862,183.45317642349556L174.44519993408204,188.94591159522946L181.71374993133546,194.0659210272645L188.98229992858887,198.86551809204065L196.25084992584232,203.38367033931945L203.51939992309573,207.65377048154107L210.78794992034912,211.70448106614572L218.05649991760254,215.55731308158556L225.32504991485595,219.2324260405985L232.5935999121094,222.7453056024106L239.8621499093628,226.1093539011884L247.13069990661623,229.33622741496748L254.39924990386962,232.43561171970015L261.66779990112303,235.4161224730649L268.9363498983765,238.28648795571638L276.2048998956299,241.05312767729743L283.4734498928833,243.72229221298653L290.74199989013675,246.29989426903364L298.01054988739014,248.7919591746649L305.27909988464353,251.20310447190406L312.547649881897,253.53614573515586L319.8161998791504,255.79581312942025L327.0847498764038,257.98531640951865L334.35329987365725,260.1083721336653L341.62184987091064,262.1680211222173L348.8903998681641,264.1666847691627L356.15894986541747,266.10661553402537L363.4274998626709,267.9895590729362L370.69604985992436,269.8182746488118L377.96459985717775,271.59433898331883L385.2331498544312,273.31989191300494L392.50169985168463,274.9945392574534L399.770249848938,276.62075872214047L407.03879984619147,278.2004085861732L414.3073498434448,279.73500925973013L421.57589984069824,281.22518016918036L428.84444983795163,282.6708650030358L436.1129998352051,284.073021056594L443.3815498324585,285.43277455961686L450.6500998297119,286.75220903716394L457.91864982696535,288.0302545709614L465.1871998242188,289.26826263672353L472.4557498214722,290.4656701195694L479.7242998187256,291.6250110364632L486.99284981597907,292.745102846155L494.26139981323246,293.8251008763234L501.52994981048585,294.86596242226597L508.79849980773923,295.8668428116613L516.0670498049926,296.8250390930808L523.3355998022461,297.74162118479836L530.6041497994995,298.6154065455639L537.872699796753,299.44605730644895L545.1412497940064,300.2318841228106L552.4097997912598,300.97266174869645L559.6783497885132,301.66540567523754L566.9468997857666,302.3085954922553L574.2154497830201,302.89952824832113L581.4839997802735,303.43882336980414L588.752549777527,303.9232711018829L596.0210997747803,304.35258988711695L603.2896497720337,304.72086701925633L610.5581997692871,305.0255684813368L617.8267497665405,305.26218935431075L625.095299763794,305.4243101285354L632.3638497610474,305.50798899984414L639.6323997583008,305.5127191648441L646.9009497555543,305.4299412773449" fill="none"></path></g><g><path style="fill: none;" stroke="rgb(255, 112, 67)" stroke-width="2px" d="M72.68549997253419,-47.673666214502646L79.9540499697876,4.64353540667048L87.22259996704102,42.876839674940754L94.49114996429444,71.87353948550054L101.75969996154787,94.54904951147711L109.02824995880127,112.75888959707913L116.2967999560547,127.72316075485463L123.56534995330811,140.27425940181956L130.83389995056152,151.00891837731353L138.10244994781496,160.3437300702612L145.37099994506838,168.58598627119534L152.63954994232176,175.96588834344715L159.9080999395752,182.65085034112218L167.17664993682862,188.76813622731447L174.44519993408204,194.41426389261835L181.71374993133546,199.66328294387836L188.98229992858887,204.57437675508203L196.25084992584232,209.19129935247895L203.51939992309573,213.54896385868784L210.78794992034912,217.67676487049414L218.05649991760254,221.5985221473619L225.32504991485595,225.33326897226715L232.5935999121094,228.898912398424L239.8621499093628,232.30789726470135L247.13069990661623,235.5745266890753L254.39924990386962,238.70696583731956L261.66779990112303,241.71574495770784L268.9363498983765,244.6086913470853L276.2048998956299,247.3930691874162L283.4734498928833,250.07456593899803L290.74199989013675,252.66078365272364L298.01054988739014,255.15560782127153L305.27909988464353,257.5642754130345L312.547649881897,259.89168552747685L319.8161998791504,262.1412731653723L327.0847498764038,264.31641701600654L334.35329987365725,266.42072101461764L341.62184987091064,268.45677548965796L348.8903998681641,270.42711445809175L356.15894986541747,272.3359612815261L363.4274998626709,274.1842732552587L370.69604985992436,275.97497857667037L377.96459985717775,277.70909085254686L385.2331498544312,279.38908778836435L392.50169985168463,281.0161519253728L399.770249848938,282.591916296727L407.03879984619147,284.11790131260545L414.3073498434448,285.5937691040796L421.57589984069824,287.0217158191852L428.84444983795163,288.40191039238647L436.1129998352051,289.7358169223739L443.3815498324585,291.0237169665879L450.6500998297119,292.26583577098097L457.91864982696535,293.4626238274578L465.1871998242188,294.61610834958975L472.4557498214722,295.7252194191031L479.7242998187256,296.790069658974L486.99284981597907,297.8113348070596L494.26139981323246,298.78755076466945L501.52994981048585,299.71939326966066L508.79849980773923,300.6051729773904L516.0670498049926,301.44601611762056L523.3355998022461,302.24079646058925L530.6041497994995,302.9904713015941L537.872699796753,303.6905357215875L545.1412497940064,304.34194701586705L552.4097997912598,304.9435226431828L559.6783497885132,305.49289752103476L566.9468997857666,305.9894522230539L574.2154497830201,306.43155371608543L581.4839997802735,306.81537281893895L588.752549777527,307.1392201869716L596.0210997747803,307.4008996721477L603.2896497720337,307.5968073392292L610.5581997692871,307.7255354010137L617.8267497665405,307.7809459052989L625.095299763794,307.76315147506097L632.3638497610474,307.6678724372047L639.6323997583008,307.4873378063731L646.9009497555543,307.21845045072087" fill="none"></path></g></g></g></g></g></g><g transform="translate(41, 377)" clip-path="url(#clip_1)"><clipPath id="clip_1"><rect width="726" height="22"></rect></clipPath><g><g><line x1="0" y1="0" x2="0" y2="5" style="visibility: inherit;" fill="rgb(0, 0, 0)" stroke="rgb(204, 204, 204)" stroke-width="1px"></line><line x1="72.68549997253419" y1="0" x2="72.68549997253419" y2="5" style="visibility: inherit;" fill="rgb(0, 0, 0)" stroke="rgb(204, 204, 204)" stroke-width="1px"></line><line x1="145.37099994506838" y1="0" x2="145.37099994506838" y2="5" style="visibility: inherit;" fill="rgb(0, 0, 0)" stroke="rgb(204, 204, 204)" stroke-width="1px"></line><line x1="218.05649991760254" y1="0" x2="218.05649991760254" y2="5" style="visibility: inherit;" fill="rgb(0, 0, 0)" stroke="rgb(204, 204, 204)" stroke-width="1px"></line><line x1="290.74199989013675" y1="0" x2="290.74199989013675" y2="5" style="visibility: inherit;" fill="rgb(0, 0, 0)" stroke="rgb(204, 204, 204)" stroke-width="1px"></line><line x1="363.4274998626709" y1="0" x2="363.4274998626709" y2="5" style="visibility: inherit;" fill="rgb(0, 0, 0)" stroke="rgb(204, 204, 204)" stroke-width="1px"></line><line x1="436.1129998352051" y1="0" x2="436.1129998352051" y2="5" style="visibility: inherit;" fill="rgb(0, 0, 0)" stroke="rgb(204, 204, 204)" stroke-width="1px"></line><line x1="508.79849980773923" y1="0" x2="508.79849980773923" y2="5" style="visibility: inherit;" fill="rgb(0, 0, 0)" stroke="rgb(204, 204, 204)" stroke-width="1px"></line><line x1="581.4839997802735" y1="0" x2="581.4839997802735" y2="5" style="visibility: inherit;" fill="rgb(0, 0, 0)" stroke="rgb(204, 204, 204)" stroke-width="1px"></line><line x1="654.1694997528076" y1="0" x2="654.1694997528076" y2="5" style="visibility: inherit;" fill="rgb(0, 0, 0)" stroke="rgb(204, 204, 204)" stroke-width="1px"></line><line x1="726.8549997253418" y1="0" x2="726.8549997253418" y2="5" style="visibility: inherit;" fill="rgb(0, 0, 0)" stroke="rgb(204, 204, 204)" stroke-width="1px"></line></g><g transform="translate(0, 8)"><text style="text-anchor: middle; visibility: hidden; font-family: &quot;Helvetica Neue&quot;, sans-serif; font-size: 12px; font-weight: 200;" x="0" y="0" dx="0em" dy="0.95em" fill="rgb(50, 49, 63)" stroke="none" stroke-width="1px">-10</text><text style="text-anchor: middle; visibility: inherit; font-family: &quot;Helvetica Neue&quot;, sans-serif; font-size: 12px; font-weight: 200;" x="72.68549997253419" y="0" dx="0em" dy="0.95em" fill="rgb(50, 49, 63)" stroke="none" stroke-width="1px">0</text><text style="text-anchor: middle; visibility: inherit; font-family: &quot;Helvetica Neue&quot;, sans-serif; font-size: 12px; font-weight: 200;" x="145.37099994506838" y="0" dx="0em" dy="0.95em" fill="rgb(50, 49, 63)" stroke="none" stroke-width="1px">10</text><text style="text-anchor: middle; visibility: inherit; font-family: &quot;Helvetica Neue&quot;, sans-serif; font-size: 12px; font-weight: 200;" x="218.05649991760254" y="0" dx="0em" dy="0.95em" fill="rgb(50, 49, 63)" stroke="none" stroke-width="1px">20</text><text style="text-anchor: middle; visibility: inherit; font-family: &quot;Helvetica Neue&quot;, sans-serif; font-size: 12px; font-weight: 200;" x="290.74199989013675" y="0" dx="0em" dy="0.95em" fill="rgb(50, 49, 63)" stroke="none" stroke-width="1px">30</text><text style="text-anchor: middle; visibility: inherit; font-family: &quot;Helvetica Neue&quot;, sans-serif; font-size: 12px; font-weight: 200;" x="363.4274998626709" y="0" dx="0em" dy="0.95em" fill="rgb(50, 49, 63)" stroke="none" stroke-width="1px">40</text><text style="text-anchor: middle; visibility: inherit; font-family: &quot;Helvetica Neue&quot;, sans-serif; font-size: 12px; font-weight: 200;" x="436.1129998352051" y="0" dx="0em" dy="0.95em" fill="rgb(50, 49, 63)" stroke="none" stroke-width="1px">50</text><text style="text-anchor: middle; visibility: inherit; font-family: &quot;Helvetica Neue&quot;, sans-serif; font-size: 12px; font-weight: 200;" x="508.79849980773923" y="0" dx="0em" dy="0.95em" fill="rgb(50, 49, 63)" stroke="none" stroke-width="1px">60</text><text style="text-anchor: middle; visibility: inherit; font-family: &quot;Helvetica Neue&quot;, sans-serif; font-size: 12px; font-weight: 200;" x="581.4839997802735" y="0" dx="0em" dy="0.95em" fill="rgb(50, 49, 63)" stroke="none" stroke-width="1px">70</text><text style="text-anchor: middle; visibility: inherit; font-family: &quot;Helvetica Neue&quot;, sans-serif; font-size: 12px; font-weight: 200;" x="654.1694997528076" y="0" dx="0em" dy="0.95em" fill="rgb(50, 49, 63)" stroke="none" stroke-width="1px">80</text><text style="text-anchor: middle; visibility: hidden; font-family: &quot;Helvetica Neue&quot;, sans-serif; font-size: 12px; font-weight: 200;" x="726.8549997253418" y="0" dx="0em" dy="0.95em" fill="rgb(50, 49, 63)" stroke="none" stroke-width="1px">90</text></g><line x1="0" y1="0" x2="726.8549997253418" y2="0" fill="rgb(0, 0, 0)" stroke="rgb(204, 204, 204)" stroke-width="1px"></line></g></g></g></g></svg>