<svg viewBox="0 0 856.6666870117188 400" xmlns="http://www.w3.org/2000/svg"><g><g><g><g><g><line x1="61.77000045776367" y1="377.8999996185303" x2="56.77000045776367" y2="377.8999996185303" style="visibility: inherit;" fill="rgb(0, 0, 0)" stroke="rgb(204, 204, 204)" stroke-width="1px"></line><line x1="61.77000045776367" y1="343.5454541986639" x2="56.77000045776367" y2="343.5454541986639" style="visibility: inherit;" fill="rgb(0, 0, 0)" stroke="rgb(204, 204, 204)" stroke-width="1px"></line><line x1="61.77000045776367" y1="309.1909087787975" x2="56.77000045776367" y2="309.1909087787975" style="visibility: inherit;" fill="rgb(0, 0, 0)" stroke="rgb(204, 204, 204)" stroke-width="1px"></line><line x1="61.77000045776367" y1="274.83636335893107" x2="56.77000045776367" y2="274.83636335893107" style="visibility: inherit;" fill="rgb(0, 0, 0)" stroke="rgb(204, 204, 204)" stroke-width="1px"></line><line x1="61.77000045776367" y1="240.4818179390647" x2="56.77000045776367" y2="240.4818179390647" style="visibility: inherit;" fill="rgb(0, 0, 0)" stroke="rgb(204, 204, 204)" stroke-width="1px"></line><line x1="61.77000045776367" y1="206.12727251919833" x2="56.77000045776367" y2="206.12727251919833" style="visibility: inherit;" fill="rgb(0, 0, 0)" stroke="rgb(204, 204, 204)" stroke-width="1px"></line><line x1="61.77000045776367" y1="171.77272709933195" x2="56.77000045776367" y2="171.77272709933195" style="visibility: inherit;" fill="rgb(0, 0, 0)" stroke="rgb(204, 204, 204)" stroke-width="1px"></line><line x1="61.77000045776367" y1="137.4181816794656" x2="56.77000045776367" y2="137.4181816794656" style="visibility: inherit;" fill="rgb(0, 0, 0)" stroke="rgb(204, 204, 204)" stroke-width="1px"></line><line x1="61.77000045776367" y1="103.0636362595992" x2="56.77000045776367" y2="103.0636362595992" style="visibility: inherit;" fill="rgb(0, 0, 0)" stroke="rgb(204, 204, 204)" stroke-width="1px"></line><line x1="61.77000045776367" y1="68.70909083973282" x2="56.77000045776367" y2="68.70909083973282" style="visibility: inherit;" fill="rgb(0, 0, 0)" stroke="rgb(204, 204, 204)" stroke-width="1px"></line><line x1="61.77000045776367" y1="34.35454541986638" x2="56.77000045776367" y2="34.35454541986638" style="visibility: inherit;" fill="rgb(0, 0, 0)" stroke="rgb(204, 204, 204)" stroke-width="1px"></line><line x1="61.77000045776367" y1="0" x2="56.77000045776367" y2="0" style="visibility: inherit;" fill="rgb(0, 0, 0)" stroke="rgb(204, 204, 204)" stroke-width="1px"></line></g><g transform="translate(51.77000045776367, 0)"><text style="text-anchor: end; visibility: hidden; font-family: &quot;Helvetica Neue&quot;, sans-serif; font-size: 12px; font-weight: 200;" x="0" y="377.8999996185303" dx="0em" dy="0.3em" fill="rgb(50, 49, 63)" stroke="none" stroke-width="1px">-0.05</text><text style="text-anchor: end; visibility: inherit; font-family: &quot;Helvetica Neue&quot;, sans-serif; font-size: 12px; font-weight: 200;" x="0" y="343.5454541986639" dx="0em" dy="0.3em" fill="rgb(50, 49, 63)" stroke="none" stroke-width="1px">0</text><text style="text-anchor: end; visibility: inherit; font-family: &quot;Helvetica Neue&quot;, sans-serif; font-size: 12px; font-weight: 200;" x="0" y="309.1909087787975" dx="0em" dy="0.3em" fill="rgb(50, 49, 63)" stroke="none" stroke-width="1px">0.05</text><text style="text-anchor: end; visibility: inherit; font-family: &quot;Helvetica Neue&quot;, sans-serif; font-size: 12px; font-weight: 200;" x="0" y="274.83636335893107" dx="0em" dy="0.3em" fill="rgb(50, 49, 63)" stroke="none" stroke-width="1px">0.1</text><text style="text-anchor: end; visibility: inherit; font-family: &quot;Helvetica Neue&quot;, sans-serif; font-size: 12px; font-weight: 200;" x="0" y="240.4818179390647" dx="0em" dy="0.3em" fill="rgb(50, 49, 63)" stroke="none" stroke-width="1px">0.15</text><text style="text-anchor: end; visibility: inherit; font-family: &quot;Helvetica Neue&quot;, sans-serif; font-size: 12px; font-weight: 200;" x="0" y="206.12727251919833" dx="0em" dy="0.3em" fill="rgb(50, 49, 63)" stroke="none" stroke-width="1px">0.2</text><text style="text-anchor: end; visibility: inherit; font-family: &quot;Helvetica Neue&quot;, sans-serif; font-size: 12px; font-weight: 200;" x="0" y="171.77272709933195" dx="0em" dy="0.3em" fill="rgb(50, 49, 63)" stroke="none" stroke-width="1px">0.25</text><text style="text-anchor: end; visibility: inherit; font-family: &quot;Helvetica Neue&quot;, sans-serif; font-size: 12px; font-weight: 200;" x="0" y="137.4181816794656" dx="0em" dy="0.3em" fill="rgb(50, 49, 63)" stroke="none" stroke-width="1px">0.3</text><text style="text-anchor: end; visibility: inherit; font-family: &quot;Helvetica Neue&quot;, sans-serif; font-size: 12px; font-weight: 200;" x="0" y="103.0636362595992" dx="0em" dy="0.3em" fill="rgb(50, 49, 63)" stroke="none" stroke-width="1px">0.35</text><text style="text-anchor: end; visibility: inherit; font-family: &quot;Helvetica Neue&quot;, sans-serif; font-size: 12px; font-weight: 200;" x="0" y="68.70909083973282" dx="0em" dy="0.3em" fill="rgb(50, 49, 63)" stroke="none" stroke-width="1px">0.4</text><text style="text-anchor: end; visibility: inherit; font-family: &quot;Helvetica Neue&quot;, sans-serif; font-size: 12px; font-weight: 200;" x="0" y="34.35454541986638" dx="0em" dy="0.3em" fill="rgb(50, 49, 63)" stroke="none" stroke-width="1px">0.45</text><text style="text-anchor: end; visibility: hidden; font-family: &quot;Helvetica Neue&quot;, sans-serif; font-size: 12px; font-weight: 200;" x="0" y="0" dx="0em" dy="0.3em" fill="rgb(50, 49, 63)" stroke="none" stroke-width="1px">0.5</text></g><line x1="61.77000045776367" y1="0" x2="61.77000045776367" y2="377.8999996185303" fill="rgb(0, 0, 0)" stroke="rgb(204, 204, 204)" stroke-width="1px"></line></g></g><g transform="translate(61, 0)" clip-path="url(#clip_0)"><clipPath id="clip_0"><rect width="794" height="377"></rect></clipPath><g><g><g><line x1="0" y1="0" x2="0" y2="377.8999996185303" fill="rgb(0, 0, 0)" stroke="rgb(60, 60, 60)" stroke-width="1px" opacity="0.25"></line><line x1="66.24141662851969" y1="0" x2="66.24141662851969" y2="377.8999996185303" fill="rgb(0, 0, 0)" stroke="rgb(60, 60, 60)" stroke-width="1px" opacity="0.25"></line><line x1="132.48283325703937" y1="0" x2="132.48283325703937" y2="377.8999996185303" fill="rgb(0, 0, 0)" stroke="rgb(60, 60, 60)" stroke-width="1px" opacity="0.25"></line><line x1="198.7242498855591" y1="0" x2="198.7242498855591" y2="377.8999996185303" fill="rgb(0, 0, 0)" stroke="rgb(60, 60, 60)" stroke-width="1px" opacity="0.25"></line><line x1="264.96566651407875" y1="0" x2="264.96566651407875" y2="377.8999996185303" fill="rgb(0, 0, 0)" stroke="rgb(60, 60, 60)" stroke-width="1px" opacity="0.25"></line><line x1="331.2070831425985" y1="0" x2="331.2070831425985" y2="377.8999996185303" fill="rgb(0, 0, 0)" stroke="rgb(60, 60, 60)" stroke-width="1px" opacity="0.25"></line><line x1="397.4484997711182" y1="0" x2="397.4484997711182" y2="377.8999996185303" fill="rgb(0, 0, 0)" stroke="rgb(60, 60, 60)" stroke-width="1px" opacity="0.25"></line><line x1="463.6899163996379" y1="0" x2="463.6899163996379" y2="377.8999996185303" fill="rgb(0, 0, 0)" stroke="rgb(60, 60, 60)" stroke-width="1px" opacity="0.25"></line><line x1="529.9313330281575" y1="0" x2="529.9313330281575" y2="377.8999996185303" fill="rgb(0, 0, 0)" stroke="rgb(60, 60, 60)" stroke-width="1px" opacity="0.25"></line><line x1="596.1727496566773" y1="0" x2="596.1727496566773" y2="377.8999996185303" fill="rgb(0, 0, 0)" stroke="rgb(60, 60, 60)" stroke-width="1px" opacity="0.25"></line><line x1="662.414166285197" y1="0" x2="662.414166285197" y2="377.8999996185303" fill="rgb(0, 0, 0)" stroke="rgb(60, 60, 60)" stroke-width="1px" opacity="0.25"></line><line x1="728.6555829137167" y1="0" x2="728.6555829137167" y2="377.8999996185303" fill="rgb(0, 0, 0)" stroke="rgb(60, 60, 60)" stroke-width="1px" opacity="0.25"></line><line x1="794.8969995422364" y1="0" x2="794.8969995422364" y2="377.8999996185303" fill="rgb(0, 0, 0)" stroke="rgb(60, 60, 60)" stroke-width="1px" opacity="0.25"></line></g><g><line x1="0" y1="377.8999996185303" x2="794.8969995422364" y2="377.8999996185303" fill="rgb(0, 0, 0)" stroke="rgb(60, 60, 60)" stroke-width="1px" opacity="0.25"></line><line x1="0" y1="343.5454541986639" x2="794.8969995422364" y2="343.5454541986639" fill="rgb(0, 0, 0)" stroke="rgb(60, 60, 60)" stroke-width="1px" opacity="0.25"></line><line x1="0" y1="309.1909087787975" x2="794.8969995422364" y2="309.1909087787975" fill="rgb(0, 0, 0)" stroke="rgb(60, 60, 60)" stroke-width="1px" opacity="0.25"></line><line x1="0" y1="274.83636335893107" x2="794.8969995422364" y2="274.83636335893107" fill="rgb(0, 0, 0)" stroke="rgb(60, 60, 60)" stroke-width="1px" opacity="0.25"></line><line x1="0" y1="240.4818179390647" x2="794.8969995422364" y2="240.4818179390647" fill="rgb(0, 0, 0)" stroke="rgb(60, 60, 60)" stroke-width="1px" opacity="0.25"></line><line x1="0" y1="206.12727251919833" x2="794.8969995422364" y2="206.12727251919833" fill="rgb(0, 0, 0)" stroke="rgb(60, 60, 60)" stroke-width="1px" opacity="0.25"></line><line x1="0" y1="171.77272709933195" x2="794.8969995422364" y2="171.77272709933195" fill="rgb(0, 0, 0)" stroke="rgb(60, 60, 60)" stroke-width="1px" opacity="0.25"></line><line x1="0" y1="137.4181816794656" x2="794.8969995422364" y2="137.4181816794656" fill="rgb(0, 0, 0)" stroke="rgb(60, 60, 60)" stroke-width="1px" opacity="0.25"></line><line x1="0" y1="103.0636362595992" x2="794.8969995422364" y2="103.0636362595992" fill="rgb(0, 0, 0)" stroke="rgb(60, 60, 60)" stroke-width="1px" opacity="0.25"></line><line x1="0" y1="68.70909083973282" x2="794.8969995422364" y2="68.70909083973282" fill="rgb(0, 0, 0)" stroke="rgb(60, 60, 60)" stroke-width="1px" opacity="0.25"></line><line x1="0" y1="34.35454541986638" x2="794.8969995422364" y2="34.35454541986638" fill="rgb(0, 0, 0)" stroke="rgb(60, 60, 60)" stroke-width="1px" opacity="0.25"></line><line x1="0" y1="0" x2="794.8969995422364" y2="0" fill="rgb(0, 0, 0)" stroke="rgb(60, 60, 60)" stroke-width="1px" opacity="0.25"></line></g></g></g><g><g><line x1="0" y1="343.5454541986639" x2="794.8969995422364" y2="343.5454541986639" fill="rgb(0, 0, 0)" stroke="rgb(153, 153, 153)" stroke-width="1.5px"></line></g></g><g><g><line x1="66.24141662851969" y1="0" x2="66.24141662851969" y2="377.8999996185303" fill="rgb(0, 0, 0)" stroke="rgb(153, 153, 153)" stroke-width="1.5px"></line></g></g><g><g><g><g><g><path style="fill: none;" stroke="rgb(0, 119, 187)" stroke-width="2px" d="M66.24141662851969,199.48539188145145L79.48969995422364,179.15895397554203L92.73798327992758,165.57488747270918L105.98626660563151,153.58250381320892L119.23454993133545,141.90278812919158L132.48283325703937,132.6217985479211L145.7311165827433,125.92455827755742L158.97939990844728,118.86022460169738L172.22768323415121,113.31016576286186L185.47596655985515,109.18662210807173L198.7242498855591,105.34932730799767L211.97253321126303,101.31144724062403L225.22081653696696,97.97703347289593L238.4690998626709,95.1540212925446L251.71738318837484,92.54507919131447L264.96566651407875,91.16377008654388L278.2139498397827,90.42686324435385L291.4622331654866,90.3512826936477L304.7105164911906,90.489177785761L317.95879981689455,90.93836935826653L331.2070831425985,91.39110515406492L344.45536646830243,93.86145638696888L357.70364979400637,96.62623147092268L370.9519331197103,100.02571779821955L384.20021644541424,104.17248696666121L397.4484997711182,108.03472377288517L410.6967830968222,111.63462978718718L423.94506642252605,114.16101775959316L437.19334974823005,116.50136471028588L450.44163307393393,118.08879152236989L463.6899163996379,120.41543626433253L476.9381997253418,122.63592964322672L490.1864830510458,123.96822555746138L503.4347663767497,124.9508222235809L516.6830497024537,125.44877472251824L529.9313330281575,125.83915169848896L543.1796163538615,126.80627907049941L556.4278996795654,127.29494181763107L569.6761830052694,127.4965257926408L582.9244663309732,127.43425702406836L596.1727496566773,123.54918706602362L609.4210329823812,115.26335470571496L622.6693163080852,108.45961461652229L635.9175996337891,102.63673537007406L649.165882959493,99.87590900739622L662.414166285197,100.96777420269012L675.6624496109009,104.0048078356038L688.9107329366049,111.32375823125562L702.1590162623088,120.20412467503581L715.4072995880127,129.01359854750842L728.6555829137167,136.5895919055073L741.9038662394206,148.0060904516669L755.1521495651245,159.6198227061143L768.4004328908285,167.77901931661688L781.6487162165324,172.58292770639L794.8969995422364,178.4884706731293L808.1452828679403,161.51068614945564" fill="none"></path></g><g><path style="fill: none;" stroke="rgb(255, 112, 67)" stroke-width="2px" d="M66.24141662851969,194.02460068114587L79.48969995422364,172.3296336387166L92.73798327992758,154.84739457808982L105.98626660563151,141.0822580912063L119.23454993133545,129.75051320756677L132.48283325703937,120.25628403670186L145.7311165827433,112.19192153200117L158.97939990844728,105.18974527106309L172.22768323415121,99.08617725753271L185.47596655985515,93.55247648820892L198.7242498855591,88.66170051279249L211.97253321126303,84.10962933219804L225.22081653696696,79.87482890053758L238.4690998626709,76.14194810169784L251.71738318837484,72.94405254981456L264.96566651407875,69.73339444913461L278.2139498397827,66.5540086094341L291.4622331654866,63.53034658178666L304.7105164911906,60.79586114137203L317.95879981689455,58.45023910581506L331.2070831425985,56.27914004151978L344.45536646830243,54.01690155256193L357.70364979400637,51.15162995906371L370.9519331197103,48.1399567503413L384.20021644541424,44.62918853979352L397.4484997711182,41.30854157627448L410.6967830968222,37.67113910032049L423.94506642252605,33.4324161492101L437.19334974823005,28.402066466458393L450.44163307393393,23.131741833352805L463.6899163996379,17.71743198865505L476.9381997253418,11.922977342115075L490.1864830510458,6.174613308115909L503.4347663767497,-0.09445157813928517" fill="none"></path></g></g></g></g><g opacity="0.2"><g><g><g><path style="fill: none;" stroke="rgb(0, 119, 187)" stroke-width="2px" d="M66.24141662851969,199.48539188145148L79.48969995422364,166.96309123199637L92.73798327992758,152.53418362998966L105.98626660563151,139.47946062963663L119.23454993133545,126.65375133213854L132.48283325703937,119.78284880077479L145.7311165827433,116.34739753509291L158.97939990844728,108.56035828469021L172.22768323415121,105.12490701900833L185.47596655985515,103.06364035498012L198.7242498855591,99.62818908929825L211.97253321126303,95.27660110457742L225.22081653696696,92.9863002607895L238.4690998626709,90.92503359676135L251.71738318837484,88.63473275297343L264.96566651407875,89.0927806355881L278.2139498397827,89.32181481534792L291.4622331654866,90.23793105748206L304.7105164911906,90.69599941700159L317.95879981689455,91.61211565913584L331.2070831425985,92.07018401865531L344.45536646830243,97.56690194836534L357.70364979400637,100.7733395111922L370.9519331197103,105.12490701900833L384.20021644541424,110.3926112458634L397.4484997711182,113.82806251154528L410.6967830968222,117.0344795974674L423.94506642252605,117.95059583960159L437.19334974823005,120.01188298053455L450.44163307393393,120.46993086314927L463.6899163996379,123.9054026057359L476.9381997253418,125.96666926976408L490.1864830510458,125.96666926976408L503.4347663767497,126.4247171523788L516.6830497024537,126.19570344952382L529.9313330281575,126.4247171523788L543.1796163538615,128.256970113552L556.4278996795654,128.02793593379224L569.6761830052694,127.7989017540325L582.9244663309732,127.34085387141778L596.1727496566773,117.72158213674663L609.4210329823812,102.83460617522042L622.6693163080852,98.25400448764458L635.9175996337891,93.90241650292376L649.165882959493,95.7346694640969L662.414166285197,102.60557199546065L675.6624496109009,108.56035828469021L688.9107329366049,122.30218382432244L702.1590162623088,133.52467434040707L715.4072995880127,142.22780935603924L728.6555829137167,147.95358194241382L741.9038662394206,165.1308382708232L755.1521495651245,177.04042108773467L768.4004328908285,180.01781423234942L781.6487162165324,179.78879029104206L794.8969995422364,187.34678512323265L808.1452828679403,136.04400936395476" fill="none"></path></g><g><path style="fill: none;" stroke="rgb(255, 112, 67)" stroke-width="2px" d="M66.24141662851969,194.02460068114587L79.48969995422364,159.31265341325903L92.73798327992758,138.06444507988803L105.98626660563151,124.89445758263133L119.23454993133545,114.95578708748701L132.48283325703937,107.12234717089422L145.7311165827433,100.65975412047902L158.97939990844728,94.98050506172308L172.22768323415121,90.08459999462639L185.47596655985515,85.3355757653855L198.7242498855591,81.36989552780386L211.97253321126303,77.30629473165175L225.22081653696696,73.53645561121107L238.4690998626709,70.54994000552495L251.71738318837484,68.15096822816662L264.96566651407875,64.91967170295902L278.2139498397827,61.78627525941715L291.4622331654866,58.995621247776796L304.7105164911906,56.694549552084254L317.95879981689455,54.93202045162468L331.2070831425985,53.02261051330936L344.45536646830243,50.62361825904628L357.70364979400637,46.85377913860566L370.9519331197103,43.62248261339806L384.20021644541424,39.36306117700963L397.4484997711182,36.32758529203829L410.6967830968222,32.215044693505604L423.94506642252605,27.074338229982686L437.19334974823005,20.85654657599372L450.44163307393393,15.226257796523043L463.6899163996379,9.595969017052312L476.9381997253418,3.231296525207597L490.1864830510458,-2.4479320566435945" fill="none"></path></g></g></g></g></g></g><g transform="translate(61, 377)" clip-path="url(#clip_1)"><clipPath id="clip_1"><rect width="794" height="22"></rect></clipPath><g><g><line x1="0" y1="0" x2="0" y2="5" style="visibility: inherit;" fill="rgb(0, 0, 0)" stroke="rgb(204, 204, 204)" stroke-width="1px"></line><line x1="66.24141662851969" y1="0" x2="66.24141662851969" y2="5" style="visibility: inherit;" fill="rgb(0, 0, 0)" stroke="rgb(204, 204, 204)" stroke-width="1px"></line><line x1="132.48283325703937" y1="0" x2="132.48283325703937" y2="5" style="visibility: inherit;" fill="rgb(0, 0, 0)" stroke="rgb(204, 204, 204)" stroke-width="1px"></line><line x1="198.7242498855591" y1="0" x2="198.7242498855591" y2="5" style="visibility: inherit;" fill="rgb(0, 0, 0)" stroke="rgb(204, 204, 204)" stroke-width="1px"></line><line x1="264.96566651407875" y1="0" x2="264.96566651407875" y2="5" style="visibility: inherit;" fill="rgb(0, 0, 0)" stroke="rgb(204, 204, 204)" stroke-width="1px"></line><line x1="331.2070831425985" y1="0" x2="331.2070831425985" y2="5" style="visibility: inherit;" fill="rgb(0, 0, 0)" stroke="rgb(204, 204, 204)" stroke-width="1px"></line><line x1="397.4484997711182" y1="0" x2="397.4484997711182" y2="5" style="visibility: inherit;" fill="rgb(0, 0, 0)" stroke="rgb(204, 204, 204)" stroke-width="1px"></line><line x1="463.6899163996379" y1="0" x2="463.6899163996379" y2="5" style="visibility: inherit;" fill="rgb(0, 0, 0)" stroke="rgb(204, 204, 204)" stroke-width="1px"></line><line x1="529.9313330281575" y1="0" x2="529.9313330281575" y2="5" style="visibility: inherit;" fill="rgb(0, 0, 0)" stroke="rgb(204, 204, 204)" stroke-width="1px"></line><line x1="596.1727496566773" y1="0" x2="596.1727496566773" y2="5" style="visibility: inherit;" fill="rgb(0, 0, 0)" stroke="rgb(204, 204, 204)" stroke-width="1px"></line><line x1="662.414166285197" y1="0" x2="662.414166285197" y2="5" style="visibility: inherit;" fill="rgb(0, 0, 0)" stroke="rgb(204, 204, 204)" stroke-width="1px"></line><line x1="728.6555829137167" y1="0" x2="728.6555829137167" y2="5" style="visibility: inherit;" fill="rgb(0, 0, 0)" stroke="rgb(204, 204, 204)" stroke-width="1px"></line><line x1="794.8969995422364" y1="0" x2="794.8969995422364" y2="5" style="visibility: inherit;" fill="rgb(0, 0, 0)" stroke="rgb(204, 204, 204)" stroke-width="1px"></line></g><g transform="translate(0, 8)"><text style="text-anchor: middle; visibility: hidden; font-family: &quot;Helvetica Neue&quot;, sans-serif; font-size: 12px; font-weight: 200;" x="0" y="0" dx="0em" dy="0.95em" fill="rgb(50, 49, 63)" stroke="none" stroke-width="1px">-5</text><text style="text-anchor: middle; visibility: inherit; font-family: &quot;Helvetica Neue&quot;, sans-serif; font-size: 12px; font-weight: 200;" x="66.24141662851969" y="0" dx="0em" dy="0.95em" fill="rgb(50, 49, 63)" stroke="none" stroke-width="1px">0</text><text style="text-anchor: middle; visibility: inherit; font-family: &quot;Helvetica Neue&quot;, sans-serif; font-size: 12px; font-weight: 200;" x="132.48283325703937" y="0" dx="0em" dy="0.95em" fill="rgb(50, 49, 63)" stroke="none" stroke-width="1px">5</text><text style="text-anchor: middle; visibility: inherit; font-family: &quot;Helvetica Neue&quot;, sans-serif; font-size: 12px; font-weight: 200;" x="198.7242498855591" y="0" dx="0em" dy="0.95em" fill="rgb(50, 49, 63)" stroke="none" stroke-width="1px">10</text><text style="text-anchor: middle; visibility: inherit; font-family: &quot;Helvetica Neue&quot;, sans-serif; font-size: 12px; font-weight: 200;" x="264.96566651407875" y="0" dx="0em" dy="0.95em" fill="rgb(50, 49, 63)" stroke="none" stroke-width="1px">15</text><text style="text-anchor: middle; visibility: inherit; font-family: &quot;Helvetica Neue&quot;, sans-serif; font-size: 12px; font-weight: 200;" x="331.2070831425985" y="0" dx="0em" dy="0.95em" fill="rgb(50, 49, 63)" stroke="none" stroke-width="1px">20</text><text style="text-anchor: middle; visibility: inherit; font-family: &quot;Helvetica Neue&quot;, sans-serif; font-size: 12px; font-weight: 200;" x="397.4484997711182" y="0" dx="0em" dy="0.95em" fill="rgb(50, 49, 63)" stroke="none" stroke-width="1px">25</text><text style="text-anchor: middle; visibility: inherit; font-family: &quot;Helvetica Neue&quot;, sans-serif; font-size: 12px; font-weight: 200;" x="463.6899163996379" y="0" dx="0em" dy="0.95em" fill="rgb(50, 49, 63)" stroke="none" stroke-width="1px">30</text><text style="text-anchor: middle; visibility: inherit; font-family: &quot;Helvetica Neue&quot;, sans-serif; font-size: 12px; font-weight: 200;" x="529.9313330281575" y="0" dx="0em" dy="0.95em" fill="rgb(50, 49, 63)" stroke="none" stroke-width="1px">35</text><text style="text-anchor: middle; visibility: inherit; font-family: &quot;Helvetica Neue&quot;, sans-serif; font-size: 12px; font-weight: 200;" x="596.1727496566773" y="0" dx="0em" dy="0.95em" fill="rgb(50, 49, 63)" stroke="none" stroke-width="1px">40</text><text style="text-anchor: middle; visibility: inherit; font-family: &quot;Helvetica Neue&quot;, sans-serif; font-size: 12px; font-weight: 200;" x="662.414166285197" y="0" dx="0em" dy="0.95em" fill="rgb(50, 49, 63)" stroke="none" stroke-width="1px">45</text><text style="text-anchor: middle; visibility: inherit; font-family: &quot;Helvetica Neue&quot;, sans-serif; font-size: 12px; font-weight: 200;" x="728.6555829137167" y="0" dx="0em" dy="0.95em" fill="rgb(50, 49, 63)" stroke="none" stroke-width="1px">50</text><text style="text-anchor: middle; visibility: hidden; font-family: &quot;Helvetica Neue&quot;, sans-serif; font-size: 12px; font-weight: 200;" x="794.8969995422364" y="0" dx="0em" dy="0.95em" fill="rgb(50, 49, 63)" stroke="none" stroke-width="1px">55</text></g><line x1="0" y1="0" x2="794.8969995422364" y2="0" fill="rgb(0, 0, 0)" stroke="rgb(204, 204, 204)" stroke-width="1px"></line></g></g></g></g></svg>