<svg viewBox="0 0 856.6666870117188 400" xmlns="http://www.w3.org/2000/svg"><g><g><g><g><g><line x1="51.41600036621094" y1="377.8999996185303" x2="46.41600036621094" y2="377.8999996185303" style="visibility: inherit;" fill="rgb(0, 0, 0)" stroke="rgb(204, 204, 204)" stroke-width="1px"></line><line x1="51.41600036621094" y1="346.40833298365277" x2="46.41600036621094" y2="346.40833298365277" style="visibility: inherit;" fill="rgb(0, 0, 0)" stroke="rgb(204, 204, 204)" stroke-width="1px"></line><line x1="51.41600036621094" y1="314.91666634877527" x2="46.41600036621094" y2="314.91666634877527" style="visibility: inherit;" fill="rgb(0, 0, 0)" stroke="rgb(204, 204, 204)" stroke-width="1px"></line><line x1="51.41600036621094" y1="283.4249997138977" x2="46.41600036621094" y2="283.4249997138977" style="visibility: inherit;" fill="rgb(0, 0, 0)" stroke="rgb(204, 204, 204)" stroke-width="1px"></line><line x1="51.41600036621094" y1="251.93333307902014" x2="46.41600036621094" y2="251.93333307902014" style="visibility: inherit;" fill="rgb(0, 0, 0)" stroke="rgb(204, 204, 204)" stroke-width="1px"></line><line x1="51.41600036621094" y1="220.44166644414273" x2="46.41600036621094" y2="220.44166644414273" style="visibility: inherit;" fill="rgb(0, 0, 0)" stroke="rgb(204, 204, 204)" stroke-width="1px"></line><line x1="51.41600036621094" y1="188.94999980926517" x2="46.41600036621094" y2="188.94999980926517" style="visibility: inherit;" fill="rgb(0, 0, 0)" stroke="rgb(204, 204, 204)" stroke-width="1px"></line><line x1="51.41600036621094" y1="157.4583331743876" x2="46.41600036621094" y2="157.4583331743876" style="visibility: inherit;" fill="rgb(0, 0, 0)" stroke="rgb(204, 204, 204)" stroke-width="1px"></line><line x1="51.41600036621094" y1="125.96666653951007" x2="46.41600036621094" y2="125.96666653951007" style="visibility: inherit;" fill="rgb(0, 0, 0)" stroke="rgb(204, 204, 204)" stroke-width="1px"></line><line x1="51.41600036621094" y1="94.47499990463251" x2="46.41600036621094" y2="94.47499990463251" style="visibility: inherit;" fill="rgb(0, 0, 0)" stroke="rgb(204, 204, 204)" stroke-width="1px"></line><line x1="51.41600036621094" y1="62.98333326975512" x2="46.41600036621094" y2="62.98333326975512" style="visibility: inherit;" fill="rgb(0, 0, 0)" stroke="rgb(204, 204, 204)" stroke-width="1px"></line><line x1="51.41600036621094" y1="31.49166663487756" x2="46.41600036621094" y2="31.49166663487756" style="visibility: inherit;" fill="rgb(0, 0, 0)" stroke="rgb(204, 204, 204)" stroke-width="1px"></line><line x1="51.41600036621094" y1="0" x2="46.41600036621094" y2="0" style="visibility: inherit;" fill="rgb(0, 0, 0)" stroke="rgb(204, 204, 204)" stroke-width="1px"></line></g><g transform="translate(41.41600036621094, 0)"><text style="text-anchor: end; visibility: hidden; font-family: &quot;Helvetica Neue&quot;, sans-serif; font-size: 12px; font-weight: 200;" x="0" y="377.8999996185303" dx="0em" dy="0.3em" fill="rgb(50, 49, 63)" stroke="none" stroke-width="1px">0.9</text><text style="text-anchor: end; visibility: inherit; font-family: &quot;Helvetica Neue&quot;, sans-serif; font-size: 12px; font-weight: 200;" x="0" y="346.40833298365277" dx="0em" dy="0.3em" fill="rgb(50, 49, 63)" stroke="none" stroke-width="1px">0.95</text><text style="text-anchor: end; visibility: inherit; font-family: &quot;Helvetica Neue&quot;, sans-serif; font-size: 12px; font-weight: 200;" x="0" y="314.91666634877527" dx="0em" dy="0.3em" fill="rgb(50, 49, 63)" stroke="none" stroke-width="1px">1</text><text style="text-anchor: end; visibility: inherit; font-family: &quot;Helvetica Neue&quot;, sans-serif; font-size: 12px; font-weight: 200;" x="0" y="283.4249997138977" dx="0em" dy="0.3em" fill="rgb(50, 49, 63)" stroke="none" stroke-width="1px">1.05</text><text style="text-anchor: end; visibility: inherit; font-family: &quot;Helvetica Neue&quot;, sans-serif; font-size: 12px; font-weight: 200;" x="0" y="251.93333307902014" dx="0em" dy="0.3em" fill="rgb(50, 49, 63)" stroke="none" stroke-width="1px">1.1</text><text style="text-anchor: end; visibility: inherit; font-family: &quot;Helvetica Neue&quot;, sans-serif; font-size: 12px; font-weight: 200;" x="0" y="220.44166644414273" dx="0em" dy="0.3em" fill="rgb(50, 49, 63)" stroke="none" stroke-width="1px">1.15</text><text style="text-anchor: end; visibility: inherit; font-family: &quot;Helvetica Neue&quot;, sans-serif; font-size: 12px; font-weight: 200;" x="0" y="188.94999980926517" dx="0em" dy="0.3em" fill="rgb(50, 49, 63)" stroke="none" stroke-width="1px">1.2</text><text style="text-anchor: end; visibility: inherit; font-family: &quot;Helvetica Neue&quot;, sans-serif; font-size: 12px; font-weight: 200;" x="0" y="157.4583331743876" dx="0em" dy="0.3em" fill="rgb(50, 49, 63)" stroke="none" stroke-width="1px">1.25</text><text style="text-anchor: end; visibility: inherit; font-family: &quot;Helvetica Neue&quot;, sans-serif; font-size: 12px; font-weight: 200;" x="0" y="125.96666653951007" dx="0em" dy="0.3em" fill="rgb(50, 49, 63)" stroke="none" stroke-width="1px">1.3</text><text style="text-anchor: end; visibility: inherit; font-family: &quot;Helvetica Neue&quot;, sans-serif; font-size: 12px; font-weight: 200;" x="0" y="94.47499990463251" dx="0em" dy="0.3em" fill="rgb(50, 49, 63)" stroke="none" stroke-width="1px">1.35</text><text style="text-anchor: end; visibility: inherit; font-family: &quot;Helvetica Neue&quot;, sans-serif; font-size: 12px; font-weight: 200;" x="0" y="62.98333326975512" dx="0em" dy="0.3em" fill="rgb(50, 49, 63)" stroke="none" stroke-width="1px">1.4</text><text style="text-anchor: end; visibility: inherit; font-family: &quot;Helvetica Neue&quot;, sans-serif; font-size: 12px; font-weight: 200;" x="0" y="31.49166663487756" dx="0em" dy="0.3em" fill="rgb(50, 49, 63)" stroke="none" stroke-width="1px">1.45</text><text style="text-anchor: end; visibility: hidden; font-family: &quot;Helvetica Neue&quot;, sans-serif; font-size: 12px; font-weight: 200;" x="0" y="0" dx="0em" dy="0.3em" fill="rgb(50, 49, 63)" stroke="none" stroke-width="1px">1.5</text></g><line x1="51.41600036621094" y1="0" x2="51.41600036621094" y2="377.8999996185303" fill="rgb(0, 0, 0)" stroke="rgb(204, 204, 204)" stroke-width="1px"></line></g></g><g transform="translate(51, 0)" clip-path="url(#clip_0)"><clipPath id="clip_0"><rect width="805" height="377"></rect></clipPath><g><g><g><line x1="0" y1="0" x2="0" y2="377.8999996185303" fill="rgb(0, 0, 0)" stroke="rgb(60, 60, 60)" stroke-width="1px" opacity="0.25"></line><line x1="80.52509996337892" y1="0" x2="80.52509996337892" y2="377.8999996185303" fill="rgb(0, 0, 0)" stroke="rgb(60, 60, 60)" stroke-width="1px" opacity="0.25"></line><line x1="161.05019992675784" y1="0" x2="161.05019992675784" y2="377.8999996185303" fill="rgb(0, 0, 0)" stroke="rgb(60, 60, 60)" stroke-width="1px" opacity="0.25"></line><line x1="241.5752998901367" y1="0" x2="241.5752998901367" y2="377.8999996185303" fill="rgb(0, 0, 0)" stroke="rgb(60, 60, 60)" stroke-width="1px" opacity="0.25"></line><line x1="322.1003998535157" y1="0" x2="322.1003998535157" y2="377.8999996185303" fill="rgb(0, 0, 0)" stroke="rgb(60, 60, 60)" stroke-width="1px" opacity="0.25"></line><line x1="402.62549981689455" y1="0" x2="402.62549981689455" y2="377.8999996185303" fill="rgb(0, 0, 0)" stroke="rgb(60, 60, 60)" stroke-width="1px" opacity="0.25"></line><line x1="483.1505997802734" y1="0" x2="483.1505997802734" y2="377.8999996185303" fill="rgb(0, 0, 0)" stroke="rgb(60, 60, 60)" stroke-width="1px" opacity="0.25"></line><line x1="563.6756997436523" y1="0" x2="563.6756997436523" y2="377.8999996185303" fill="rgb(0, 0, 0)" stroke="rgb(60, 60, 60)" stroke-width="1px" opacity="0.25"></line><line x1="644.2007997070314" y1="0" x2="644.2007997070314" y2="377.8999996185303" fill="rgb(0, 0, 0)" stroke="rgb(60, 60, 60)" stroke-width="1px" opacity="0.25"></line><line x1="724.7258996704102" y1="0" x2="724.7258996704102" y2="377.8999996185303" fill="rgb(0, 0, 0)" stroke="rgb(60, 60, 60)" stroke-width="1px" opacity="0.25"></line><line x1="805.2509996337891" y1="0" x2="805.2509996337891" y2="377.8999996185303" fill="rgb(0, 0, 0)" stroke="rgb(60, 60, 60)" stroke-width="1px" opacity="0.25"></line></g><g><line x1="0" y1="377.8999996185303" x2="805.2509996337891" y2="377.8999996185303" fill="rgb(0, 0, 0)" stroke="rgb(60, 60, 60)" stroke-width="1px" opacity="0.25"></line><line x1="0" y1="346.40833298365277" x2="805.2509996337891" y2="346.40833298365277" fill="rgb(0, 0, 0)" stroke="rgb(60, 60, 60)" stroke-width="1px" opacity="0.25"></line><line x1="0" y1="314.91666634877527" x2="805.2509996337891" y2="314.91666634877527" fill="rgb(0, 0, 0)" stroke="rgb(60, 60, 60)" stroke-width="1px" opacity="0.25"></line><line x1="0" y1="283.4249997138977" x2="805.2509996337891" y2="283.4249997138977" fill="rgb(0, 0, 0)" stroke="rgb(60, 60, 60)" stroke-width="1px" opacity="0.25"></line><line x1="0" y1="251.93333307902014" x2="805.2509996337891" y2="251.93333307902014" fill="rgb(0, 0, 0)" stroke="rgb(60, 60, 60)" stroke-width="1px" opacity="0.25"></line><line x1="0" y1="220.44166644414273" x2="805.2509996337891" y2="220.44166644414273" fill="rgb(0, 0, 0)" stroke="rgb(60, 60, 60)" stroke-width="1px" opacity="0.25"></line><line x1="0" y1="188.94999980926517" x2="805.2509996337891" y2="188.94999980926517" fill="rgb(0, 0, 0)" stroke="rgb(60, 60, 60)" stroke-width="1px" opacity="0.25"></line><line x1="0" y1="157.4583331743876" x2="805.2509996337891" y2="157.4583331743876" fill="rgb(0, 0, 0)" stroke="rgb(60, 60, 60)" stroke-width="1px" opacity="0.25"></line><line x1="0" y1="125.96666653951007" x2="805.2509996337891" y2="125.96666653951007" fill="rgb(0, 0, 0)" stroke="rgb(60, 60, 60)" stroke-width="1px" opacity="0.25"></line><line x1="0" y1="94.47499990463251" x2="805.2509996337891" y2="94.47499990463251" fill="rgb(0, 0, 0)" stroke="rgb(60, 60, 60)" stroke-width="1px" opacity="0.25"></line><line x1="0" y1="62.98333326975512" x2="805.2509996337891" y2="62.98333326975512" fill="rgb(0, 0, 0)" stroke="rgb(60, 60, 60)" stroke-width="1px" opacity="0.25"></line><line x1="0" y1="31.49166663487756" x2="805.2509996337891" y2="31.49166663487756" fill="rgb(0, 0, 0)" stroke="rgb(60, 60, 60)" stroke-width="1px" opacity="0.25"></line><line x1="0" y1="0" x2="805.2509996337891" y2="0" fill="rgb(0, 0, 0)" stroke="rgb(60, 60, 60)" stroke-width="1px" opacity="0.25"></line></g></g></g><g><g><line x1="0" y1="944.7499990463257" x2="805.2509996337891" y2="944.7499990463257" fill="rgb(0, 0, 0)" stroke="rgb(153, 153, 153)" stroke-width="1.5px"></line></g></g><g><g><line x1="80.52509996337892" y1="0" x2="80.52509996337892" y2="377.8999996185303" fill="rgb(0, 0, 0)" stroke="rgb(153, 153, 153)" stroke-width="1.5px"></line></g></g><g><g><g><g><g><path style="fill: none;" stroke="rgb(255, 112, 67)" stroke-width="2px" d="M80.52509996337892,8.766121974679209L88.5776099597168,22.209926642409528L96.63011995605468,35.52269026355873L104.68262995239259,48.5019812631935L112.73513994873048,61.001752777600416L120.78764994506835,72.93141434291232L128.84015994140626,84.24566815331144L136.89266993774416,94.93640779808243L144.94517993408203,105.01882604381933L152.99768993041994,114.5235016345153L161.05019992675784,123.48962522665411L169.10270992309572,131.9588250827921L177.1552199194336,139.97231577005675L185.2077299157715,147.56819544469784L193.26023991210937,154.78181559566065L201.31274990844727,161.64522207565736L209.36525990478518,168.1861433939132L217.41776990112308,174.42923526804861L225.47027989746095,180.39568494067956L233.52278989379883,186.10382395745424L241.5752998901367,191.57027793139903L249.6278098864746,196.8109104411809L257.6803198828125,201.83864719712605L265.7328298791504,206.66588948205302L273.7853398754883,211.30370673776108L281.83784987182617,215.76159070710509L289.89035986816407,220.04889869466493L297.942869864502,224.17331634223467L305.9953798608399,228.1429082301589L314.0478898571778,231.96428470873528L322.1003998535157,235.64393455155863L330.15290984985353,239.1884538638549L338.20541984619143,242.6037223437973L346.2579298425293,245.89564036425244L354.3104398388672,249.07057121033165L362.3629498352051,252.13401467727235L370.415459831543,255.09095247158837L378.46796982788084,257.94590528558035L386.52047982421874,260.7042884837007L394.57298982055664,263.37052256220414L402.62549981689455,265.9484911625943L410.67800981323245,268.4417257810626L418.73051980957035,270.85375685636177L426.78302980590826,273.1876336681933L434.83553980224616,275.44653726000337L442.88804979858406,277.63378779911017L450.9405597949219,279.7517077466048L458.99306979125976,281.80367274350533L467.04557978759766,283.792128633524L475.09808978393556,285.7195039722791L483.1505997802734,287.58821694253464L491.2031097766113,289.3998385851223L499.2556197729492,291.15639270511065L507.3081297692871,292.85984440538203L515.360639765625,294.5121836330937L523.4131497619629,296.1143340613971L531.4656597583008,297.6668198613891L539.5181697546387,299.17049612601375L547.5706797509766,300.6254854847197L555.6231897473144,302.0315611872396L563.6756997436523,303.38909774090564L571.7282097399902,304.6992208339259L579.7807197363281,305.96089400998756L587.833229732666,307.1735254280964L595.885739729004,308.3359791310212L603.9382497253418,309.4472732164862L611.9907597216798,310.506368051222L620.0432697180177,311.5121292977742L628.0957797143556,312.46249484516267L636.1482897106935,313.35631752517975L644.2007997070314,314.1891549376953L652.2533097033692,314.9553233468688L660.3058196997071,315.6506166421643L668.358329696045,316.2692075499589L676.4108396923829,316.8044913119356L684.4633496887207,317.247910055676L692.5158596850586,317.590725122491L700.5683696813965,317.82132636491303L708.6208796777344,317.92741687358875L716.6733896740723,317.89287895995386" fill="none"></path></g></g></g></g><g opacity="0.2"><g><g><g><path style="fill: none;" stroke="rgb(255, 112, 67)" stroke-width="2px" d="M80.52509996337892,8.766121974679209L88.5776099597168,30.27620944304772L96.63011995605468,48.30294333986183L104.68262995239259,63.76562747876358L112.73513994873048,77.32145446681022L120.78764994506835,89.43443096590238L128.84015994140626,100.4252321302431L136.89266993774416,110.52360883125891L144.94517993408203,119.88843454736104L152.99768993041994,128.6368371737865L161.05019992675784,136.8574885337883L169.10270992309572,144.61653585538178L177.1552199194336,151.96638636348703L185.2077299157715,158.94713383762755L193.26023991210937,165.5937664824061L201.31274990844727,171.93549118964788L209.36525990478518,177.99475747260658L217.41776990112308,183.79228795890108L225.47027989746095,189.34445052107094L233.52278989379883,194.66551073610012L241.5752998901367,199.76965909898848L249.6278098864746,204.6716867606089L257.6803198828125,209.38015306715178L265.7328298791504,213.9066957261567L273.7853398754883,218.26039965770292L281.83784987182617,222.44839765028246L289.89035986816407,226.4798497059587L297.942869864502,230.3599364816364L305.9953798608399,234.09729240549004L314.0478898571778,237.69634731458308L322.1003998535157,241.1634080955821L330.15290984985353,244.50523212705852L338.20541984619143,247.72662465599637L346.2579298425293,250.83351715914168L354.3104398388672,253.83296734300228L362.3629498352051,256.72917979868924L370.415459831543,259.52635911731363L378.46796982788084,262.22833448006594L386.52047982421874,264.8418632655175L394.57298982055664,267.36987367104916L402.62549981689455,269.81544405801026L410.67800981323245,272.1815777057657L418.73051980957035,274.4718034675695L426.78302980590826,276.6884488849295L434.83553980224616,278.8348926471315L442.88804979858406,280.91466360742936L450.9405597949219,282.92858766764846L458.99306979125976,284.8816202387411L467.04557978759766,286.77481246848515L475.09808978393556,288.6105669803726L483.1505997802734,290.3912863978955L491.2031097766113,292.11727104899035L499.2556197729492,293.7912238850856L507.3081297692871,295.4150219557846L515.360639765625,296.99069247465866L523.4131497619629,298.51755970385057L531.4656597583008,299.9955485613763L539.5181697546387,301.42601052295015L547.5706797509766,302.80796952277836L555.6231897473144,304.1406747410198L563.6756997436523,305.42540257140445L571.7282097399902,306.66440547345627L579.7807197363281,307.85340377408L587.833229732666,308.9924725552597L595.885739729004,310.07965968540816L603.9382497253418,311.1142143446841L611.9907597216798,312.0950103033257L620.0432697180177,313.0207711676027L628.0957797143556,313.88804316624527L636.1482897106935,314.6970515452059L644.2007997070314,315.43841105646874L652.2533097033692,316.1045759606291L660.3058196997071,316.6935565851077L668.358329696045,317.19709391165054L676.4108396923829,317.60741695490066L684.4633496887207,317.91303817128664L692.5158596850586,318.1049477227134L700.5683696813965,318.16722822854615L708.6208796777344,318.0865526366025L716.6733896740723,317.8410720895016" fill="none"></path></g></g></g></g></g></g><g transform="translate(51, 377)" clip-path="url(#clip_1)"><clipPath id="clip_1"><rect width="805" height="22"></rect></clipPath><g><g><line x1="0" y1="0" x2="0" y2="5" style="visibility: inherit;" fill="rgb(0, 0, 0)" stroke="rgb(204, 204, 204)" stroke-width="1px"></line><line x1="80.52509996337892" y1="0" x2="80.52509996337892" y2="5" style="visibility: inherit;" fill="rgb(0, 0, 0)" stroke="rgb(204, 204, 204)" stroke-width="1px"></line><line x1="161.05019992675784" y1="0" x2="161.05019992675784" y2="5" style="visibility: inherit;" fill="rgb(0, 0, 0)" stroke="rgb(204, 204, 204)" stroke-width="1px"></line><line x1="241.5752998901367" y1="0" x2="241.5752998901367" y2="5" style="visibility: inherit;" fill="rgb(0, 0, 0)" stroke="rgb(204, 204, 204)" stroke-width="1px"></line><line x1="322.1003998535157" y1="0" x2="322.1003998535157" y2="5" style="visibility: inherit;" fill="rgb(0, 0, 0)" stroke="rgb(204, 204, 204)" stroke-width="1px"></line><line x1="402.62549981689455" y1="0" x2="402.62549981689455" y2="5" style="visibility: inherit;" fill="rgb(0, 0, 0)" stroke="rgb(204, 204, 204)" stroke-width="1px"></line><line x1="483.1505997802734" y1="0" x2="483.1505997802734" y2="5" style="visibility: inherit;" fill="rgb(0, 0, 0)" stroke="rgb(204, 204, 204)" stroke-width="1px"></line><line x1="563.6756997436523" y1="0" x2="563.6756997436523" y2="5" style="visibility: inherit;" fill="rgb(0, 0, 0)" stroke="rgb(204, 204, 204)" stroke-width="1px"></line><line x1="644.2007997070314" y1="0" x2="644.2007997070314" y2="5" style="visibility: inherit;" fill="rgb(0, 0, 0)" stroke="rgb(204, 204, 204)" stroke-width="1px"></line><line x1="724.7258996704102" y1="0" x2="724.7258996704102" y2="5" style="visibility: inherit;" fill="rgb(0, 0, 0)" stroke="rgb(204, 204, 204)" stroke-width="1px"></line><line x1="805.2509996337891" y1="0" x2="805.2509996337891" y2="5" style="visibility: inherit;" fill="rgb(0, 0, 0)" stroke="rgb(204, 204, 204)" stroke-width="1px"></line></g><g transform="translate(0, 8)"><text style="text-anchor: middle; visibility: hidden; font-family: &quot;Helvetica Neue&quot;, sans-serif; font-size: 12px; font-weight: 200;" x="0" y="0" dx="0em" dy="0.95em" fill="rgb(50, 49, 63)" stroke="none" stroke-width="1px">-10</text><text style="text-anchor: middle; visibility: inherit; font-family: &quot;Helvetica Neue&quot;, sans-serif; font-size: 12px; font-weight: 200;" x="80.52509996337892" y="0" dx="0em" dy="0.95em" fill="rgb(50, 49, 63)" stroke="none" stroke-width="1px">0</text><text style="text-anchor: middle; visibility: inherit; font-family: &quot;Helvetica Neue&quot;, sans-serif; font-size: 12px; font-weight: 200;" x="161.05019992675784" y="0" dx="0em" dy="0.95em" fill="rgb(50, 49, 63)" stroke="none" stroke-width="1px">10</text><text style="text-anchor: middle; visibility: inherit; font-family: &quot;Helvetica Neue&quot;, sans-serif; font-size: 12px; font-weight: 200;" x="241.5752998901367" y="0" dx="0em" dy="0.95em" fill="rgb(50, 49, 63)" stroke="none" stroke-width="1px">20</text><text style="text-anchor: middle; visibility: inherit; font-family: &quot;Helvetica Neue&quot;, sans-serif; font-size: 12px; font-weight: 200;" x="322.1003998535157" y="0" dx="0em" dy="0.95em" fill="rgb(50, 49, 63)" stroke="none" stroke-width="1px">30</text><text style="text-anchor: middle; visibility: inherit; font-family: &quot;Helvetica Neue&quot;, sans-serif; font-size: 12px; font-weight: 200;" x="402.62549981689455" y="0" dx="0em" dy="0.95em" fill="rgb(50, 49, 63)" stroke="none" stroke-width="1px">40</text><text style="text-anchor: middle; visibility: inherit; font-family: &quot;Helvetica Neue&quot;, sans-serif; font-size: 12px; font-weight: 200;" x="483.1505997802734" y="0" dx="0em" dy="0.95em" fill="rgb(50, 49, 63)" stroke="none" stroke-width="1px">50</text><text style="text-anchor: middle; visibility: inherit; font-family: &quot;Helvetica Neue&quot;, sans-serif; font-size: 12px; font-weight: 200;" x="563.6756997436523" y="0" dx="0em" dy="0.95em" fill="rgb(50, 49, 63)" stroke="none" stroke-width="1px">60</text><text style="text-anchor: middle; visibility: inherit; font-family: &quot;Helvetica Neue&quot;, sans-serif; font-size: 12px; font-weight: 200;" x="644.2007997070314" y="0" dx="0em" dy="0.95em" fill="rgb(50, 49, 63)" stroke="none" stroke-width="1px">70</text><text style="text-anchor: middle; visibility: inherit; font-family: &quot;Helvetica Neue&quot;, sans-serif; font-size: 12px; font-weight: 200;" x="724.7258996704102" y="0" dx="0em" dy="0.95em" fill="rgb(50, 49, 63)" stroke="none" stroke-width="1px">80</text><text style="text-anchor: middle; visibility: hidden; font-family: &quot;Helvetica Neue&quot;, sans-serif; font-size: 12px; font-weight: 200;" x="805.2509996337891" y="0" dx="0em" dy="0.95em" fill="rgb(50, 49, 63)" stroke="none" stroke-width="1px">90</text></g><line x1="0" y1="0" x2="805.2509996337891" y2="0" fill="rgb(0, 0, 0)" stroke="rgb(204, 204, 204)" stroke-width="1px"></line></g></g></g></g></svg>