<svg viewBox="0 0 856.6666870117188 400" xmlns="http://www.w3.org/2000/svg"><g><g><g><g><g><line x1="61.77000045776367" y1="377.8999996185303" x2="56.77000045776367" y2="377.8999996185303" style="visibility: inherit;" fill="rgb(0, 0, 0)" stroke="rgb(204, 204, 204)" stroke-width="1px"></line><line x1="61.77000045776367" y1="343.5454541986639" x2="56.77000045776367" y2="343.5454541986639" style="visibility: inherit;" fill="rgb(0, 0, 0)" stroke="rgb(204, 204, 204)" stroke-width="1px"></line><line x1="61.77000045776367" y1="309.1909087787975" x2="56.77000045776367" y2="309.1909087787975" style="visibility: inherit;" fill="rgb(0, 0, 0)" stroke="rgb(204, 204, 204)" stroke-width="1px"></line><line x1="61.77000045776367" y1="274.83636335893107" x2="56.77000045776367" y2="274.83636335893107" style="visibility: inherit;" fill="rgb(0, 0, 0)" stroke="rgb(204, 204, 204)" stroke-width="1px"></line><line x1="61.77000045776367" y1="240.4818179390647" x2="56.77000045776367" y2="240.4818179390647" style="visibility: inherit;" fill="rgb(0, 0, 0)" stroke="rgb(204, 204, 204)" stroke-width="1px"></line><line x1="61.77000045776367" y1="206.12727251919833" x2="56.77000045776367" y2="206.12727251919833" style="visibility: inherit;" fill="rgb(0, 0, 0)" stroke="rgb(204, 204, 204)" stroke-width="1px"></line><line x1="61.77000045776367" y1="171.77272709933195" x2="56.77000045776367" y2="171.77272709933195" style="visibility: inherit;" fill="rgb(0, 0, 0)" stroke="rgb(204, 204, 204)" stroke-width="1px"></line><line x1="61.77000045776367" y1="137.4181816794656" x2="56.77000045776367" y2="137.4181816794656" style="visibility: inherit;" fill="rgb(0, 0, 0)" stroke="rgb(204, 204, 204)" stroke-width="1px"></line><line x1="61.77000045776367" y1="103.0636362595992" x2="56.77000045776367" y2="103.0636362595992" style="visibility: inherit;" fill="rgb(0, 0, 0)" stroke="rgb(204, 204, 204)" stroke-width="1px"></line><line x1="61.77000045776367" y1="68.70909083973282" x2="56.77000045776367" y2="68.70909083973282" style="visibility: inherit;" fill="rgb(0, 0, 0)" stroke="rgb(204, 204, 204)" stroke-width="1px"></line><line x1="61.77000045776367" y1="34.35454541986638" x2="56.77000045776367" y2="34.35454541986638" style="visibility: inherit;" fill="rgb(0, 0, 0)" stroke="rgb(204, 204, 204)" stroke-width="1px"></line><line x1="61.77000045776367" y1="0" x2="56.77000045776367" y2="0" style="visibility: inherit;" fill="rgb(0, 0, 0)" stroke="rgb(204, 204, 204)" stroke-width="1px"></line></g><g transform="translate(51.77000045776367, 0)"><text style="text-anchor: end; visibility: hidden; font-family: &quot;Helvetica Neue&quot;, sans-serif; font-size: 12px; font-weight: 200;" x="0" y="377.8999996185303" dx="0em" dy="0.3em" fill="rgb(50, 49, 63)" stroke="none" stroke-width="1px">-0.05</text><text style="text-anchor: end; visibility: inherit; font-family: &quot;Helvetica Neue&quot;, sans-serif; font-size: 12px; font-weight: 200;" x="0" y="343.5454541986639" dx="0em" dy="0.3em" fill="rgb(50, 49, 63)" stroke="none" stroke-width="1px">0</text><text style="text-anchor: end; visibility: inherit; font-family: &quot;Helvetica Neue&quot;, sans-serif; font-size: 12px; font-weight: 200;" x="0" y="309.1909087787975" dx="0em" dy="0.3em" fill="rgb(50, 49, 63)" stroke="none" stroke-width="1px">0.05</text><text style="text-anchor: end; visibility: inherit; font-family: &quot;Helvetica Neue&quot;, sans-serif; font-size: 12px; font-weight: 200;" x="0" y="274.83636335893107" dx="0em" dy="0.3em" fill="rgb(50, 49, 63)" stroke="none" stroke-width="1px">0.1</text><text style="text-anchor: end; visibility: inherit; font-family: &quot;Helvetica Neue&quot;, sans-serif; font-size: 12px; font-weight: 200;" x="0" y="240.4818179390647" dx="0em" dy="0.3em" fill="rgb(50, 49, 63)" stroke="none" stroke-width="1px">0.15</text><text style="text-anchor: end; visibility: inherit; font-family: &quot;Helvetica Neue&quot;, sans-serif; font-size: 12px; font-weight: 200;" x="0" y="206.12727251919833" dx="0em" dy="0.3em" fill="rgb(50, 49, 63)" stroke="none" stroke-width="1px">0.2</text><text style="text-anchor: end; visibility: inherit; font-family: &quot;Helvetica Neue&quot;, sans-serif; font-size: 12px; font-weight: 200;" x="0" y="171.77272709933195" dx="0em" dy="0.3em" fill="rgb(50, 49, 63)" stroke="none" stroke-width="1px">0.25</text><text style="text-anchor: end; visibility: inherit; font-family: &quot;Helvetica Neue&quot;, sans-serif; font-size: 12px; font-weight: 200;" x="0" y="137.4181816794656" dx="0em" dy="0.3em" fill="rgb(50, 49, 63)" stroke="none" stroke-width="1px">0.3</text><text style="text-anchor: end; visibility: inherit; font-family: &quot;Helvetica Neue&quot;, sans-serif; font-size: 12px; font-weight: 200;" x="0" y="103.0636362595992" dx="0em" dy="0.3em" fill="rgb(50, 49, 63)" stroke="none" stroke-width="1px">0.35</text><text style="text-anchor: end; visibility: inherit; font-family: &quot;Helvetica Neue&quot;, sans-serif; font-size: 12px; font-weight: 200;" x="0" y="68.70909083973282" dx="0em" dy="0.3em" fill="rgb(50, 49, 63)" stroke="none" stroke-width="1px">0.4</text><text style="text-anchor: end; visibility: inherit; font-family: &quot;Helvetica Neue&quot;, sans-serif; font-size: 12px; font-weight: 200;" x="0" y="34.35454541986638" dx="0em" dy="0.3em" fill="rgb(50, 49, 63)" stroke="none" stroke-width="1px">0.45</text><text style="text-anchor: end; visibility: hidden; font-family: &quot;Helvetica Neue&quot;, sans-serif; font-size: 12px; font-weight: 200;" x="0" y="0" dx="0em" dy="0.3em" fill="rgb(50, 49, 63)" stroke="none" stroke-width="1px">0.5</text></g><line x1="61.77000045776367" y1="0" x2="61.77000045776367" y2="377.8999996185303" fill="rgb(0, 0, 0)" stroke="rgb(204, 204, 204)" stroke-width="1px"></line></g></g><g transform="translate(61, 0)" clip-path="url(#clip_0)"><clipPath id="clip_0"><rect width="794" height="377"></rect></clipPath><g><g><g><line x1="0" y1="0" x2="0" y2="377.8999996185303" fill="rgb(0, 0, 0)" stroke="rgb(60, 60, 60)" stroke-width="1px" opacity="0.25"></line><line x1="79.48969995422364" y1="0" x2="79.48969995422364" y2="377.8999996185303" fill="rgb(0, 0, 0)" stroke="rgb(60, 60, 60)" stroke-width="1px" opacity="0.25"></line><line x1="158.97939990844728" y1="0" x2="158.97939990844728" y2="377.8999996185303" fill="rgb(0, 0, 0)" stroke="rgb(60, 60, 60)" stroke-width="1px" opacity="0.25"></line><line x1="238.4690998626709" y1="0" x2="238.4690998626709" y2="377.8999996185303" fill="rgb(0, 0, 0)" stroke="rgb(60, 60, 60)" stroke-width="1px" opacity="0.25"></line><line x1="317.95879981689455" y1="0" x2="317.95879981689455" y2="377.8999996185303" fill="rgb(0, 0, 0)" stroke="rgb(60, 60, 60)" stroke-width="1px" opacity="0.25"></line><line x1="397.4484997711182" y1="0" x2="397.4484997711182" y2="377.8999996185303" fill="rgb(0, 0, 0)" stroke="rgb(60, 60, 60)" stroke-width="1px" opacity="0.25"></line><line x1="476.9381997253418" y1="0" x2="476.9381997253418" y2="377.8999996185303" fill="rgb(0, 0, 0)" stroke="rgb(60, 60, 60)" stroke-width="1px" opacity="0.25"></line><line x1="556.4278996795654" y1="0" x2="556.4278996795654" y2="377.8999996185303" fill="rgb(0, 0, 0)" stroke="rgb(60, 60, 60)" stroke-width="1px" opacity="0.25"></line><line x1="635.9175996337891" y1="0" x2="635.9175996337891" y2="377.8999996185303" fill="rgb(0, 0, 0)" stroke="rgb(60, 60, 60)" stroke-width="1px" opacity="0.25"></line><line x1="715.4072995880127" y1="0" x2="715.4072995880127" y2="377.8999996185303" fill="rgb(0, 0, 0)" stroke="rgb(60, 60, 60)" stroke-width="1px" opacity="0.25"></line><line x1="794.8969995422364" y1="0" x2="794.8969995422364" y2="377.8999996185303" fill="rgb(0, 0, 0)" stroke="rgb(60, 60, 60)" stroke-width="1px" opacity="0.25"></line></g><g><line x1="0" y1="377.8999996185303" x2="794.8969995422364" y2="377.8999996185303" fill="rgb(0, 0, 0)" stroke="rgb(60, 60, 60)" stroke-width="1px" opacity="0.25"></line><line x1="0" y1="343.5454541986639" x2="794.8969995422364" y2="343.5454541986639" fill="rgb(0, 0, 0)" stroke="rgb(60, 60, 60)" stroke-width="1px" opacity="0.25"></line><line x1="0" y1="309.1909087787975" x2="794.8969995422364" y2="309.1909087787975" fill="rgb(0, 0, 0)" stroke="rgb(60, 60, 60)" stroke-width="1px" opacity="0.25"></line><line x1="0" y1="274.83636335893107" x2="794.8969995422364" y2="274.83636335893107" fill="rgb(0, 0, 0)" stroke="rgb(60, 60, 60)" stroke-width="1px" opacity="0.25"></line><line x1="0" y1="240.4818179390647" x2="794.8969995422364" y2="240.4818179390647" fill="rgb(0, 0, 0)" stroke="rgb(60, 60, 60)" stroke-width="1px" opacity="0.25"></line><line x1="0" y1="206.12727251919833" x2="794.8969995422364" y2="206.12727251919833" fill="rgb(0, 0, 0)" stroke="rgb(60, 60, 60)" stroke-width="1px" opacity="0.25"></line><line x1="0" y1="171.77272709933195" x2="794.8969995422364" y2="171.77272709933195" fill="rgb(0, 0, 0)" stroke="rgb(60, 60, 60)" stroke-width="1px" opacity="0.25"></line><line x1="0" y1="137.4181816794656" x2="794.8969995422364" y2="137.4181816794656" fill="rgb(0, 0, 0)" stroke="rgb(60, 60, 60)" stroke-width="1px" opacity="0.25"></line><line x1="0" y1="103.0636362595992" x2="794.8969995422364" y2="103.0636362595992" fill="rgb(0, 0, 0)" stroke="rgb(60, 60, 60)" stroke-width="1px" opacity="0.25"></line><line x1="0" y1="68.70909083973282" x2="794.8969995422364" y2="68.70909083973282" fill="rgb(0, 0, 0)" stroke="rgb(60, 60, 60)" stroke-width="1px" opacity="0.25"></line><line x1="0" y1="34.35454541986638" x2="794.8969995422364" y2="34.35454541986638" fill="rgb(0, 0, 0)" stroke="rgb(60, 60, 60)" stroke-width="1px" opacity="0.25"></line><line x1="0" y1="0" x2="794.8969995422364" y2="0" fill="rgb(0, 0, 0)" stroke="rgb(60, 60, 60)" stroke-width="1px" opacity="0.25"></line></g></g></g><g><g><line x1="0" y1="343.5454541986639" x2="794.8969995422364" y2="343.5454541986639" fill="rgb(0, 0, 0)" stroke="rgb(153, 153, 153)" stroke-width="1.5px"></line></g></g><g><g><line x1="79.48969995422364" y1="0" x2="79.48969995422364" y2="377.8999996185303" fill="rgb(0, 0, 0)" stroke="rgb(153, 153, 153)" stroke-width="1.5px"></line></g></g><g><g><g><g><g><path style="fill: none;" stroke="rgb(255, 112, 67)" stroke-width="2px" d="M79.48969995422364,247.58176079325966L87.438669949646,243.5737266377915L95.38763994506836,234.40082943514784L103.33660994049073,220.98645663837664L111.2855799359131,203.91262612804795L119.23454993133545,186.1032088240059L127.18351992675782,171.06362530806058L135.13248992218018,158.40048648394483L143.08145991760253,147.79359475552434L151.0304299130249,138.45669405243797L158.97939990844728,131.4196860627131L166.92836990386962,125.46943191544642L174.877339899292,120.07293476961866L182.82630989471437,114.91418772598723L190.77527989013672,110.63001459246323L198.7242498855591,107.14442140456481L206.67321988098146,102.94625651615775L214.62218987640384,99.23673829121196L222.5711598718262,96.00347306316979L230.52012986724853,93.14748619159002L238.4690998626709,89.96813456459097L246.41806985809328,87.32765739479152L254.36703985351565,84.82726576345868L262.316009848938,82.50253284992505L270.26497984436037,80.2831829512271L278.2139498397827,78.49351610008176L286.16291983520506,76.5035966680606L294.11188983062743,75.4928737686401L302.0608598260498,73.69547863417796L310.0098298214722,72.25059539948302L317.95879981689455,70.92560543358195L325.9077698123169,69.48932400291966L333.85673980773925,67.89466218897547L341.8057098031616,65.93013111105199L349.754679798584,64.29335232368902L357.70364979400637,62.303551049465966L365.65261978942874,60.9264429531255L373.60158978485106,59.64211793031711L381.55055978027343,58.321849077798106L389.4995297756958,57.16324127082572L397.4484997711182,56.28485743444071L405.39746976654055,55.57459978916455L413.3464397619629,54.6903850333278L421.2954097573853,53.97662883614953L429.2443797528077,53.54837511792181L437.19334974823005,52.83336271822748L445.1423197436524,52.22113612538669L453.0912897390747,51.67057282588496L461.04025973449706,51.065402021238356L468.98922972991943,50.42745852274163L476.9381997253418,50.04469242364695L484.8871697207642,49.1737452516241L492.83613971618655,48.46795779536575L500.7851097116089,47.58642515285351L508.7340797070313,46.50783172668491L516.6830497024537,45.769061999080236L524.632019697876,45.234186490613695L532.5809896932984,44.730042032487916L540.5299596887207,44.427555357612505L548.478929684143,43.604775840121874L556.4278996795654,42.83627530467777L564.3768696749878,42.00872029579563L572.3258396704101,41.32896813742053L580.2748096658325,40.46305667363794L588.2237796612549,39.66866877965663L596.1727496566773,39.28364971517169L604.1217196520996,38.86941093267302L612.070689647522,38.5292621820318L620.0196596429444,38.05033191593532L627.9686296383668,37.396527259423806L635.9175996337891,37.00424446551688L643.8665696292115,36.76887478917274L651.8155396246337,37.08571315212379L659.7645096200562,36.8177560011369L667.7134796154785,36.8402090543525L675.6624496109009,36.76206721437802L683.6114196063232,36.7151821103933L691.5603896017457,36.5038237041947L699.509359597168,36.65184967618717L707.4583295925904,36.46582424367102" fill="none"></path></g></g></g></g><g opacity="0.2"><g><g><g><path style="fill: none;" stroke="rgb(255, 112, 67)" stroke-width="2px" d="M79.48969995422364,247.58176079325966L87.438669949646,241.16890614451063L95.38763994506836,225.59484812060992L103.33660994049073,205.21115422937368L111.2855799359131,181.62103301376285L119.23454993133545,161.4663733022863L127.18351992675782,149.5567802469225L135.13248992218018,139.93750851225133L143.08145991760253,132.15048973875338L151.0304299130249,124.59248466811036L158.97939990844728,120.92799922266875L166.92836990386962,116.57643171485267L174.877339899292,111.99580955037209L182.82630989471437,107.18617368303649L190.77527989013672,104.20879077687408L198.7242498855591,101.91848993308616L206.67321988098146,96.65078570623115L214.62218987640384,93.67340280006874L222.5711598718262,91.15406777652106L230.52012986724853,88.86376693273314L238.4690998626709,85.19928148729156L246.41806985809328,83.3670285261183L254.36703985351565,81.07672768233039L262.316009848938,79.01546101830229L270.26497984436037,76.95417387736933L278.2139498397827,75.80902345547537L286.16291983520506,73.51872261168745L294.11188983062743,73.97679097120692L302.0608598260498,70.99938758813977L310.0098298214722,70.08327134600557L317.95879981689455,68.93812092411162L325.9077698123169,67.33490214269813L333.85673980773925,65.50266965842974L341.8057098031616,62.983334634882056L349.754679798584,61.8381842129881L357.70364979400637,59.318849189440414L365.65261978942874,58.86078082992094L373.60158978485106,57.71563040802698L381.55055978027343,56.341445806373315L389.4995297756958,55.425329564239064L397.4484997711182,54.96728168162434L405.39746976654055,54.50921332210487L413.3464397619629,53.36406290021091L421.2954097573853,52.90599454069144L429.2443797528077,52.90599454069144L437.19334974823005,51.76084411879748L445.1423197436524,51.3027962361827L453.0912897390747,50.84472787666323L461.04025973449706,50.15764581428874L468.98922972991943,49.47054327500956L476.9381997253418,49.47054327500956L484.8871697207642,47.86732449359613L492.83613971618655,47.40927661098135L500.7851097116089,46.26412618908739L508.7340797070313,44.889941587433725L516.6830497024537,44.66090740767396L524.632019697876,44.43187322791425L532.5809896932984,43.973825345299474L540.5299596887207,43.973825345299474L548.478929684143,42.37060656388604L556.4278996795654,41.683524501511556L564.3768696749878,40.76738778247261L572.3258396704101,40.30933989985789L580.2748096658325,39.16418947796393L588.2237796612549,38.47708693868469L596.1727496566773,38.70612111844446L604.1217196520996,38.24805275892493L612.070689647522,38.01903905606997L620.0196596429444,37.33193651679073L627.9686296383668,36.41582027465654L635.9175996337891,36.41582027465654L643.8665696292115,36.41582027465654L651.8155396246337,37.5609706965505L659.7645096200562,36.41582027465654L667.7134796154785,36.87388863417601L675.6624496109009,36.64485445441625L683.6114196063232,36.64485445441625L691.5603896017457,36.186786094896775L699.509359597168,36.87388863417601L707.4583295925904,36.186786094896775" fill="none"></path></g></g></g></g></g></g><g transform="translate(61, 377)" clip-path="url(#clip_1)"><clipPath id="clip_1"><rect width="794" height="22"></rect></clipPath><g><g><line x1="0" y1="0" x2="0" y2="5" style="visibility: inherit;" fill="rgb(0, 0, 0)" stroke="rgb(204, 204, 204)" stroke-width="1px"></line><line x1="79.48969995422364" y1="0" x2="79.48969995422364" y2="5" style="visibility: inherit;" fill="rgb(0, 0, 0)" stroke="rgb(204, 204, 204)" stroke-width="1px"></line><line x1="158.97939990844728" y1="0" x2="158.97939990844728" y2="5" style="visibility: inherit;" fill="rgb(0, 0, 0)" stroke="rgb(204, 204, 204)" stroke-width="1px"></line><line x1="238.4690998626709" y1="0" x2="238.4690998626709" y2="5" style="visibility: inherit;" fill="rgb(0, 0, 0)" stroke="rgb(204, 204, 204)" stroke-width="1px"></line><line x1="317.95879981689455" y1="0" x2="317.95879981689455" y2="5" style="visibility: inherit;" fill="rgb(0, 0, 0)" stroke="rgb(204, 204, 204)" stroke-width="1px"></line><line x1="397.4484997711182" y1="0" x2="397.4484997711182" y2="5" style="visibility: inherit;" fill="rgb(0, 0, 0)" stroke="rgb(204, 204, 204)" stroke-width="1px"></line><line x1="476.9381997253418" y1="0" x2="476.9381997253418" y2="5" style="visibility: inherit;" fill="rgb(0, 0, 0)" stroke="rgb(204, 204, 204)" stroke-width="1px"></line><line x1="556.4278996795654" y1="0" x2="556.4278996795654" y2="5" style="visibility: inherit;" fill="rgb(0, 0, 0)" stroke="rgb(204, 204, 204)" stroke-width="1px"></line><line x1="635.9175996337891" y1="0" x2="635.9175996337891" y2="5" style="visibility: inherit;" fill="rgb(0, 0, 0)" stroke="rgb(204, 204, 204)" stroke-width="1px"></line><line x1="715.4072995880127" y1="0" x2="715.4072995880127" y2="5" style="visibility: inherit;" fill="rgb(0, 0, 0)" stroke="rgb(204, 204, 204)" stroke-width="1px"></line><line x1="794.8969995422364" y1="0" x2="794.8969995422364" y2="5" style="visibility: inherit;" fill="rgb(0, 0, 0)" stroke="rgb(204, 204, 204)" stroke-width="1px"></line></g><g transform="translate(0, 8)"><text style="text-anchor: middle; visibility: hidden; font-family: &quot;Helvetica Neue&quot;, sans-serif; font-size: 12px; font-weight: 200;" x="0" y="0" dx="0em" dy="0.95em" fill="rgb(50, 49, 63)" stroke="none" stroke-width="1px">-10</text><text style="text-anchor: middle; visibility: hidden; font-family: &quot;Helvetica Neue&quot;, sans-serif; font-size: 12px; font-weight: 200;" x="79.48969995422364" y="0" dx="0em" dy="0.95em" fill="rgb(50, 49, 63)" stroke="none" stroke-width="1px">0</text><text style="text-anchor: middle; visibility: hidden; font-family: &quot;Helvetica Neue&quot;, sans-serif; font-size: 12px; font-weight: 200;" x="158.97939990844728" y="0" dx="0em" dy="0.95em" fill="rgb(50, 49, 63)" stroke="none" stroke-width="1px">10</text><text style="text-anchor: middle; visibility: hidden; font-family: &quot;Helvetica Neue&quot;, sans-serif; font-size: 12px; font-weight: 200;" x="238.4690998626709" y="0" dx="0em" dy="0.95em" fill="rgb(50, 49, 63)" stroke="none" stroke-width="1px">20</text><text style="text-anchor: middle; visibility: hidden; font-family: &quot;Helvetica Neue&quot;, sans-serif; font-size: 12px; font-weight: 200;" x="317.95879981689455" y="0" dx="0em" dy="0.95em" fill="rgb(50, 49, 63)" stroke="none" stroke-width="1px">30</text><text style="text-anchor: middle; visibility: hidden; font-family: &quot;Helvetica Neue&quot;, sans-serif; font-size: 12px; font-weight: 200;" x="397.4484997711182" y="0" dx="0em" dy="0.95em" fill="rgb(50, 49, 63)" stroke="none" stroke-width="1px">40</text><text style="text-anchor: middle; visibility: hidden; font-family: &quot;Helvetica Neue&quot;, sans-serif; font-size: 12px; font-weight: 200;" x="476.9381997253418" y="0" dx="0em" dy="0.95em" fill="rgb(50, 49, 63)" stroke="none" stroke-width="1px">50</text><text style="text-anchor: middle; visibility: hidden; font-family: &quot;Helvetica Neue&quot;, sans-serif; font-size: 12px; font-weight: 200;" x="556.4278996795654" y="0" dx="0em" dy="0.95em" fill="rgb(50, 49, 63)" stroke="none" stroke-width="1px">60</text><text style="text-anchor: middle; visibility: hidden; font-family: &quot;Helvetica Neue&quot;, sans-serif; font-size: 12px; font-weight: 200;" x="635.9175996337891" y="0" dx="0em" dy="0.95em" fill="rgb(50, 49, 63)" stroke="none" stroke-width="1px">70</text><text style="text-anchor: middle; visibility: hidden; font-family: &quot;Helvetica Neue&quot;, sans-serif; font-size: 12px; font-weight: 200;" x="715.4072995880127" y="0" dx="0em" dy="0.95em" fill="rgb(50, 49, 63)" stroke="none" stroke-width="1px">80</text><text style="text-anchor: middle; visibility: hidden; font-family: &quot;Helvetica Neue&quot;, sans-serif; font-size: 12px; font-weight: 200;" x="794.8969995422364" y="0" dx="0em" dy="0.95em" fill="rgb(50, 49, 63)" stroke="none" stroke-width="1px">90</text></g><line x1="0" y1="0" x2="794.8969995422364" y2="0" fill="rgb(0, 0, 0)" stroke="rgb(204, 204, 204)" stroke-width="1px"></line></g></g></g></g></svg>