<svg viewBox="0 0 856.6666870117188 400" xmlns="http://www.w3.org/2000/svg"><g><g><g><g><g><line x1="51.41600036621094" y1="377.8999996185303" x2="46.41600036621094" y2="377.8999996185303" style="visibility: inherit;" fill="rgb(0, 0, 0)" stroke="rgb(204, 204, 204)" stroke-width="1px"></line><line x1="51.41600036621094" y1="335.91111077202686" x2="46.41600036621094" y2="335.91111077202686" style="visibility: inherit;" fill="rgb(0, 0, 0)" stroke="rgb(204, 204, 204)" stroke-width="1px"></line><line x1="51.41600036621094" y1="293.92222192552356" x2="46.41600036621094" y2="293.92222192552356" style="visibility: inherit;" fill="rgb(0, 0, 0)" stroke="rgb(204, 204, 204)" stroke-width="1px"></line><line x1="51.41600036621094" y1="251.9333330790202" x2="46.41600036621094" y2="251.9333330790202" style="visibility: inherit;" fill="rgb(0, 0, 0)" stroke="rgb(204, 204, 204)" stroke-width="1px"></line><line x1="51.41600036621094" y1="209.9444442325168" x2="46.41600036621094" y2="209.9444442325168" style="visibility: inherit;" fill="rgb(0, 0, 0)" stroke="rgb(204, 204, 204)" stroke-width="1px"></line><line x1="51.41600036621094" y1="167.9555553860135" x2="46.41600036621094" y2="167.9555553860135" style="visibility: inherit;" fill="rgb(0, 0, 0)" stroke="rgb(204, 204, 204)" stroke-width="1px"></line><line x1="51.41600036621094" y1="125.9666665395101" x2="46.41600036621094" y2="125.9666665395101" style="visibility: inherit;" fill="rgb(0, 0, 0)" stroke="rgb(204, 204, 204)" stroke-width="1px"></line><line x1="51.41600036621094" y1="83.97777769300666" x2="46.41600036621094" y2="83.97777769300666" style="visibility: inherit;" fill="rgb(0, 0, 0)" stroke="rgb(204, 204, 204)" stroke-width="1px"></line><line x1="51.41600036621094" y1="41.98888884650336" x2="46.41600036621094" y2="41.98888884650336" style="visibility: inherit;" fill="rgb(0, 0, 0)" stroke="rgb(204, 204, 204)" stroke-width="1px"></line><line x1="51.41600036621094" y1="0" x2="46.41600036621094" y2="0" style="visibility: inherit;" fill="rgb(0, 0, 0)" stroke="rgb(204, 204, 204)" stroke-width="1px"></line></g><g transform="translate(41.41600036621094, 0)"><text style="text-anchor: end; visibility: hidden; font-family: &quot;Helvetica Neue&quot;, sans-serif; font-size: 12px; font-weight: 200;" x="0" y="377.8999996185303" dx="0em" dy="0.3em" fill="rgb(50, 49, 63)" stroke="none" stroke-width="1px">0.32</text><text style="text-anchor: end; visibility: inherit; font-family: &quot;Helvetica Neue&quot;, sans-serif; font-size: 12px; font-weight: 200;" x="0" y="335.91111077202686" dx="0em" dy="0.3em" fill="rgb(50, 49, 63)" stroke="none" stroke-width="1px">0.34</text><text style="text-anchor: end; visibility: inherit; font-family: &quot;Helvetica Neue&quot;, sans-serif; font-size: 12px; font-weight: 200;" x="0" y="293.92222192552356" dx="0em" dy="0.3em" fill="rgb(50, 49, 63)" stroke="none" stroke-width="1px">0.36</text><text style="text-anchor: end; visibility: inherit; font-family: &quot;Helvetica Neue&quot;, sans-serif; font-size: 12px; font-weight: 200;" x="0" y="251.9333330790202" dx="0em" dy="0.3em" fill="rgb(50, 49, 63)" stroke="none" stroke-width="1px">0.38</text><text style="text-anchor: end; visibility: inherit; font-family: &quot;Helvetica Neue&quot;, sans-serif; font-size: 12px; font-weight: 200;" x="0" y="209.9444442325168" dx="0em" dy="0.3em" fill="rgb(50, 49, 63)" stroke="none" stroke-width="1px">0.4</text><text style="text-anchor: end; visibility: inherit; font-family: &quot;Helvetica Neue&quot;, sans-serif; font-size: 12px; font-weight: 200;" x="0" y="167.9555553860135" dx="0em" dy="0.3em" fill="rgb(50, 49, 63)" stroke="none" stroke-width="1px">0.42</text><text style="text-anchor: end; visibility: inherit; font-family: &quot;Helvetica Neue&quot;, sans-serif; font-size: 12px; font-weight: 200;" x="0" y="125.9666665395101" dx="0em" dy="0.3em" fill="rgb(50, 49, 63)" stroke="none" stroke-width="1px">0.44</text><text style="text-anchor: end; visibility: inherit; font-family: &quot;Helvetica Neue&quot;, sans-serif; font-size: 12px; font-weight: 200;" x="0" y="83.97777769300666" dx="0em" dy="0.3em" fill="rgb(50, 49, 63)" stroke="none" stroke-width="1px">0.46</text><text style="text-anchor: end; visibility: inherit; font-family: &quot;Helvetica Neue&quot;, sans-serif; font-size: 12px; font-weight: 200;" x="0" y="41.98888884650336" dx="0em" dy="0.3em" fill="rgb(50, 49, 63)" stroke="none" stroke-width="1px">0.48</text><text style="text-anchor: end; visibility: hidden; font-family: &quot;Helvetica Neue&quot;, sans-serif; font-size: 12px; font-weight: 200;" x="0" y="0" dx="0em" dy="0.3em" fill="rgb(50, 49, 63)" stroke="none" stroke-width="1px">0.5</text></g><line x1="51.41600036621094" y1="0" x2="51.41600036621094" y2="377.8999996185303" fill="rgb(0, 0, 0)" stroke="rgb(204, 204, 204)" stroke-width="1px"></line></g></g><g transform="translate(51, 0)" clip-path="url(#clip_0)"><clipPath id="clip_0"><rect width="805" height="377"></rect></clipPath><g><g><g><line x1="0" y1="0" x2="0" y2="377.8999996185303" fill="rgb(0, 0, 0)" stroke="rgb(60, 60, 60)" stroke-width="1px" opacity="0.25"></line><line x1="57.51792854527065" y1="0" x2="57.51792854527065" y2="377.8999996185303" fill="rgb(0, 0, 0)" stroke="rgb(60, 60, 60)" stroke-width="1px" opacity="0.25"></line><line x1="115.0358570905413" y1="0" x2="115.0358570905413" y2="377.8999996185303" fill="rgb(0, 0, 0)" stroke="rgb(60, 60, 60)" stroke-width="1px" opacity="0.25"></line><line x1="172.55378563581195" y1="0" x2="172.55378563581195" y2="377.8999996185303" fill="rgb(0, 0, 0)" stroke="rgb(60, 60, 60)" stroke-width="1px" opacity="0.25"></line><line x1="230.0717141810826" y1="0" x2="230.0717141810826" y2="377.8999996185303" fill="rgb(0, 0, 0)" stroke="rgb(60, 60, 60)" stroke-width="1px" opacity="0.25"></line><line x1="287.58964272635325" y1="0" x2="287.58964272635325" y2="377.8999996185303" fill="rgb(0, 0, 0)" stroke="rgb(60, 60, 60)" stroke-width="1px" opacity="0.25"></line><line x1="345.1075712716239" y1="0" x2="345.1075712716239" y2="377.8999996185303" fill="rgb(0, 0, 0)" stroke="rgb(60, 60, 60)" stroke-width="1px" opacity="0.25"></line><line x1="402.62549981689455" y1="0" x2="402.62549981689455" y2="377.8999996185303" fill="rgb(0, 0, 0)" stroke="rgb(60, 60, 60)" stroke-width="1px" opacity="0.25"></line><line x1="460.1434283621652" y1="0" x2="460.1434283621652" y2="377.8999996185303" fill="rgb(0, 0, 0)" stroke="rgb(60, 60, 60)" stroke-width="1px" opacity="0.25"></line><line x1="517.6613569074359" y1="0" x2="517.6613569074359" y2="377.8999996185303" fill="rgb(0, 0, 0)" stroke="rgb(60, 60, 60)" stroke-width="1px" opacity="0.25"></line><line x1="575.1792854527065" y1="0" x2="575.1792854527065" y2="377.8999996185303" fill="rgb(0, 0, 0)" stroke="rgb(60, 60, 60)" stroke-width="1px" opacity="0.25"></line><line x1="632.6972139979771" y1="0" x2="632.6972139979771" y2="377.8999996185303" fill="rgb(0, 0, 0)" stroke="rgb(60, 60, 60)" stroke-width="1px" opacity="0.25"></line><line x1="690.2151425432478" y1="0" x2="690.2151425432478" y2="377.8999996185303" fill="rgb(0, 0, 0)" stroke="rgb(60, 60, 60)" stroke-width="1px" opacity="0.25"></line><line x1="747.7330710885185" y1="0" x2="747.7330710885185" y2="377.8999996185303" fill="rgb(0, 0, 0)" stroke="rgb(60, 60, 60)" stroke-width="1px" opacity="0.25"></line><line x1="805.2509996337891" y1="0" x2="805.2509996337891" y2="377.8999996185303" fill="rgb(0, 0, 0)" stroke="rgb(60, 60, 60)" stroke-width="1px" opacity="0.25"></line></g><g><line x1="0" y1="377.8999996185303" x2="805.2509996337891" y2="377.8999996185303" fill="rgb(0, 0, 0)" stroke="rgb(60, 60, 60)" stroke-width="1px" opacity="0.25"></line><line x1="0" y1="335.91111077202686" x2="805.2509996337891" y2="335.91111077202686" fill="rgb(0, 0, 0)" stroke="rgb(60, 60, 60)" stroke-width="1px" opacity="0.25"></line><line x1="0" y1="293.92222192552356" x2="805.2509996337891" y2="293.92222192552356" fill="rgb(0, 0, 0)" stroke="rgb(60, 60, 60)" stroke-width="1px" opacity="0.25"></line><line x1="0" y1="251.9333330790202" x2="805.2509996337891" y2="251.9333330790202" fill="rgb(0, 0, 0)" stroke="rgb(60, 60, 60)" stroke-width="1px" opacity="0.25"></line><line x1="0" y1="209.9444442325168" x2="805.2509996337891" y2="209.9444442325168" fill="rgb(0, 0, 0)" stroke="rgb(60, 60, 60)" stroke-width="1px" opacity="0.25"></line><line x1="0" y1="167.9555553860135" x2="805.2509996337891" y2="167.9555553860135" fill="rgb(0, 0, 0)" stroke="rgb(60, 60, 60)" stroke-width="1px" opacity="0.25"></line><line x1="0" y1="125.9666665395101" x2="805.2509996337891" y2="125.9666665395101" fill="rgb(0, 0, 0)" stroke="rgb(60, 60, 60)" stroke-width="1px" opacity="0.25"></line><line x1="0" y1="83.97777769300666" x2="805.2509996337891" y2="83.97777769300666" fill="rgb(0, 0, 0)" stroke="rgb(60, 60, 60)" stroke-width="1px" opacity="0.25"></line><line x1="0" y1="41.98888884650336" x2="805.2509996337891" y2="41.98888884650336" fill="rgb(0, 0, 0)" stroke="rgb(60, 60, 60)" stroke-width="1px" opacity="0.25"></line><line x1="0" y1="0" x2="805.2509996337891" y2="0" fill="rgb(0, 0, 0)" stroke="rgb(60, 60, 60)" stroke-width="1px" opacity="0.25"></line></g></g></g><g><g><line x1="0" y1="1049.722221162584" x2="805.2509996337891" y2="1049.722221162584" fill="rgb(0, 0, 0)" stroke="rgb(153, 153, 153)" stroke-width="1.5px"></line></g></g><g><g><line x1="57.51792854527065" y1="0" x2="57.51792854527065" y2="377.8999996185303" fill="rgb(0, 0, 0)" stroke="rgb(153, 153, 153)" stroke-width="1.5px"></line></g></g><g><g><g><g><g><path style="fill: none;" stroke="rgb(0, 119, 187)" stroke-width="2px" d="M80.52509996337892,387.75276920902155L86.27689281790597,350.4391223986476L92.02868567243304,323.4374527035269L97.78047852696011,299.7566447279629L103.53227138148716,279.3014855678358L109.28406423601423,266.03458843711564L115.0358570905413,253.91180402714917L120.78764994506835,243.86097944184237L126.53944279959542,235.04158782369282L132.2912356541225,226.9558787051224L138.04302850864957,221.2683233367566L143.79482136317662,217.01749814924085L149.5466142177037,213.0679054136985L155.29840707223076,209.8587254171793L161.05019992675784,205.13397382192886L166.8019927812849,200.05982999483084L172.55378563581195,195.05592982527133L178.305578490339,189.5343008945247L184.05737134486608,185.38159645241115L189.80916419939314,180.9304958695656L195.56095705392022,177.97991755814022L201.31274990844727,175.089876400707L207.06454276297433,171.67629418478376L212.8163356175014,168.22851793831288L218.56812847202846,163.92043243446946L224.31992132655554,160.21588427125124L230.0717141810826,155.4738296405916L235.82350703560968,152.06873589190107L241.5752998901367,147.50635377312284L247.32709274466382,142.5295042912476L253.07888559919084,138.98355838278422L258.83067845371795,135.45636256885666L264.582471308245,131.940416801696L270.33426416277206,127.59142906113175L276.08605701729914,125.5418977566772L281.83784987182617,124.31217897692684L287.58964272635325,122.45465007995566L293.3414355808803,121.6200383796837L299.0932284354074,119.43973742904393L304.84502128993444,117.01183420226567L310.5968141444615,114.9952559654364L316.34860699898854,111.82581940162316L322.1003998535157,109.08439049830582L327.8521927080427,106.31981049975275L333.6039855625698,104.38115686383412L339.3557784170968,102.37817268984037L345.1075712716239,101.45631284960683L350.859364126151,101.18312760962107L356.611156980678,100.45935513732752L362.3629498352051,99.18532468882711L368.11474268973217,98.42090641972766L373.86653554425925,97.96225545826826L379.6183283987863,96.84727288894021L385.37012125331336,96.1782833473435L391.12191410784044,96.05682028653627L396.8737069623675,95.70401178590129L402.62549981689455,95.49232668552025L408.37729267142157,94.80547932431813L414.12908552594865,94.11344024344606L419.8808783804758,93.13835546662108L425.6326712350028,91.99346829955266L431.38446408952984,91.02660533516075L437.1362569440569,90.16655689237484L442.88804979858406,88.81076086157896L448.6398426531111,87.71735257895045L454.3916355076381,86.78137694522252L460.1434283621652,85.93986090083519L465.8952212166923,84.8750899459011L471.64701407121936,83.95632173611779L477.3988069257464,83.12513014609715L483.1505997802734,82.62641519208472L488.9023926348005,80.92755792625132L494.65418548932763,80.18817423090212L500.40597834385466,79.18468268539095L506.1577711983817,78.02272642978267L511.90956405290876,77.88541400471928L517.6613569074359,79.48258550725814L523.4131497619629,78.48139878705376L529.16494261649,77.8806867549311L534.916735471017,77.5202595356576L540.6685283255441,76.18430557481838L546.4203211800711,74.82287187001316L552.1721140345983,73.16624468200575L557.9239068891253,72.45219903335214L563.6756997436523,70.62414335073396L569.4274925981795,69.24737927701221L575.1792854527065,67.8614595044777L580.9310783072335,67.02990764095705L586.6828711617605,67.09083785114603L592.4346640162877,66.56753464895792L598.1864568708148,65.69371642667159L603.9382497253418,66.28912312257484L609.6900425798689,65.80657514766443L615.4418354343959,66.35683835517057L621.193628288923,67.52676324479859L626.9454211434501,68.78857950687706L632.6972139979771,69.82559992827493L638.4490068525042,71.5675098103888L644.2007997070314,72.89258640380785L649.9525925615584,73.12777103155776L655.7043854160854,74.38857943748269L661.4561782706124,76.54469277446378L667.2079711251396,80.91754802765507L672.9597639796666,84.6609838361731L678.7115568341936,88.02674295055891L684.4633496887207,90.3261290833413L690.2151425432478,93.38529469325954L695.9669353977749,99.4197039668162L701.718728252302,105.55967545365132L707.470521106829,110.64328663917843L713.222313961356,113.69345335049468L718.9741068158831,118.60274062828711L724.7258996704102,123.78770825351279L730.4776925249372,129.4180397786774L736.2294853794643,135.5954952806281L741.9812782339914,142.661086496952" fill="none"></path></g><g><path style="fill: none;" stroke="rgb(255, 112, 67)" stroke-width="2px" d="M86.27689281790597,389.2366683261917L92.02868567243304,356.4301152512346L97.78047852696011,328.64086059604676L103.53227138148716,307.67500724072306L109.28406423601423,289.5122773778187L115.0358570905413,275.0817887827335L120.78764994506835,262.9788388095193L126.53944279959542,252.25877347508043L132.2912356541225,243.67981035710312L138.04302850864957,235.4835192192334L143.79482136317662,229.2514027059557L149.5466142177037,223.4185417454961L155.29840707223076,218.18396100948374L161.05019992675784,212.4703114015296L166.8019927812849,207.66601635455933L172.55378563581195,202.62930225497269L178.305578490339,198.05152521147915L184.05737134486608,193.5096981575524L189.80916419939314,189.70751866025324L195.56095705392022,185.9302597601344L201.31274990844727,182.3474465649522L207.06454276297433,179.12066033993534L212.8163356175014,175.50911018657183L218.56812847202846,171.2478188497389L224.31992132655554,166.89588446983745L230.0717141810826,163.02810214996285L235.82350703560968,159.151634142154L241.5752998901367,155.8084927107432L247.32709274466382,152.90502783544912L253.07888559919084,150.26536885518112L258.83067845371795,148.02335476176566L264.582471308245,146.01990256160798L270.33426416277206,143.74073012850133L276.08605701729914,141.4158062376705L281.83784987182617,139.0634314709569L287.58964272635325,137.11346856769956L293.3414355808803,135.40492775434916L299.0932284354074,133.2428868355687L304.84502128993444,131.28741852975094L310.5968141444615,129.75512052567592L316.34860699898854,127.81848094767065L322.1003998535157,126.05809378743587L327.8521927080427,124.52316378786529L333.6039855625698,123.06364271600012L339.3557784170968,121.5895516867302L345.1075712716239,120.10671868301478L350.859364126151,118.4390944432555L356.611156980678,116.72046083054602L362.3629498352051,115.03106193541458L368.11474268973217,113.17968284678335L373.86653554425925,111.5302923214673L379.6183283987863,109.82259893742247L385.37012125331336,108.37910051755512L391.12191410784044,107.33350546891688L396.8737069623675,105.92822400220177L402.62549981689455,104.54651707736286L408.37729267142157,102.87975317090667L414.12908552594865,101.76001414433574L419.8808783804758,100.31027131818871L425.6326712350028,99.08138357440873L431.38446408952984,97.62599185928497L437.1362569440569,96.69291648886224L442.88804979858406,95.23549117370698L448.6398426531111,93.82247291247597L454.3916355076381,93.09434263843468L460.1434283621652,92.29844745324607L465.8952212166923,91.22250692864662L471.64701407121936,90.0384045690771L477.3988069257464,88.66969939850054L483.1505997802734,87.30993825134465L488.9023926348005,85.59650147014969L494.65418548932763,84.44875871873529L500.40597834385466,83.04205399903111L506.1577711983817,82.01851014316259L511.90956405290876,80.56664407808847L517.6613569074359,79.15696136690633L523.4131497619629,78.19147105749971L529.16494261649,77.25315985109194L534.916735471017,76.86969415129312L540.6685283255441,76.34041302467068L546.4203211800711,75.72364264195403L552.1721140345983,74.4560003194224L557.9239068891253,73.33639790513968L563.6756997436523,72.66463645657001L569.4274925981795,71.96237788068498L575.1792854527065,70.88280400764694L580.9310783072335,69.39729490494318L586.6828711617605,68.80519115006422L592.4346640162877,67.91139085232697L598.1864568708148,67.37511067368456L603.9382497253418,66.57461983571005L609.6900425798689,65.55578728811554L615.4418354343959,65.12400878360484L621.193628288923,65.10427801896492L626.9454211434501,64.1350191259308L632.6972139979771,62.89524506260324L638.4490068525042,61.25380053170511L644.2007997070314,60.328774154514974L649.9525925615584,59.53439696280623L655.7043854160854,59.11761098912967L661.4561782706124,58.209320677416656L667.2079711251396,57.305304442297086L672.9597639796666,55.80547426697507L678.7115568341936,54.067836410228836L684.4633496887207,52.54653096539204L690.2151425432478,51.39441136042353L695.9669353977749,50.28425720800192L701.718728252302,48.42138291690412L707.470521106829,46.10687654260067L713.222313961356,43.760752283768454L718.9741068158831,41.51533797691599L724.7258996704102,39.031172961836546L730.4776925249372,35.3864717188938L736.2294853794643,32.12254985618068L741.9812782339914,28.967414938908007" fill="none"></path></g></g></g></g><g opacity="0.2"><g><g><g><path style="fill: none;" stroke="rgb(0, 119, 187)" stroke-width="2px" d="M69.02151425432479,434.5849730323421L74.77330710885185,366.7029757738555L80.52509996337892,328.91296179669877L86.27689281790597,298.8209159470488L92.02868567243304,284.82463301278926L97.78047852696011,265.22979936383393L103.53227138148716,249.13409901676354L109.28406423601423,246.33479237525555L115.0358570905413,235.8375801745609L120.78764994506835,228.83943870743119L126.53944279959542,221.84129724030143L132.2912356541225,214.84315577317167L138.04302850864957,212.74367579204068L143.79482136317662,210.6442583792298L149.5466142177037,207.14518764566492L155.29840707223076,205.04577023285404L161.05019992675784,198.0475661974042L166.8019927812849,192.44907805102844L172.55378563581195,187.55035399670956L178.305578490339,181.2520391899568L184.05737134486608,179.15262177714592L189.80916419939314,174.25389772282708L195.56095705392022,173.55407106245005L201.31274990844727,170.75482698926217L207.06454276297433,166.55592959532032L212.8163356175014,163.05685886175544L218.56812847202846,157.45830814705957L224.31992132655554,154.6590640738717L230.0717141810826,148.36074926711896L235.82350703560968,146.96109594636494L241.5752998901367,140.6627811396122L247.32709274466382,135.06423042491633L253.07888559919084,133.66463967248248L258.83067845371795,130.16556893891757L264.582471308245,126.6664982053527L270.33426416277206,121.06794749065682L276.08605701729914,122.46760081141085L281.83784987182617,122.46760081141085L287.58964272635325,119.66835673822294L293.3414355808803,120.36812083027985L299.0932284354074,116.16928600465803L304.84502128993444,113.3699793631501L310.5968141444615,111.97038861071621L316.34860699898854,107.07166455639731L322.1003998535157,104.97224714358646L327.8521927080427,102.17294050207846L333.6039855625698,101.47317641002155L339.3557784170968,99.37369642889058L345.1075712716239,100.07352308926761L350.859364126151,100.77334974964458L356.611156980678,99.37369642889058L362.3629498352051,97.27427901607973L368.11474268973217,97.27427901607973L373.86653554425925,97.27427901607973L379.6183283987863,95.1747990349487L385.37012125331336,95.1747990349487L391.12191410784044,95.87462569532568L396.8737069623675,95.1747990349487L402.62549981689455,95.1747990349487L408.37729267142157,93.77520828251482L414.12908552594865,93.0753816221378L419.8808783804758,91.67572830138386L425.6326712350028,90.27613754894992L431.38446408952984,89.57631088857295L437.1362569440569,88.87648422819598L442.88804979858406,86.77706681538507L448.6398426531111,86.0772401550081L454.3916355076381,85.37741349463113L460.1434283621652,84.6775868342541L465.8952212166923,83.2779335135001L471.64701407121936,82.57816942144325L477.3988069257464,81.87834276106622L483.1505997802734,81.87834276106622L488.9023926348005,78.37927202750132L494.65418548932763,79.07909868787834L500.40597834385466,77.67944536712434L506.1577711983817,76.27979204637035L511.90956405290876,77.67944536712434L517.6613569074359,81.87834276106622L523.4131497619629,76.97961870674737L529.16494261649,76.97961870674737L534.916735471017,76.97961870674737L540.6685283255441,74.1803746335595L546.4203211800711,72.78072131280544L552.1721140345983,70.68130389999459L557.9239068891253,71.38113056037162L563.6756997436523,67.88205982680671L569.4274925981795,67.18223316642968L575.1792854527065,65.78257984567574L580.9310783072335,65.78257984567574L586.6828711617605,67.18223316642968L592.4346640162877,65.78257984567574L598.1864568708148,64.3829890932418L603.9382497253418,67.18223316642968L609.6900425798689,65.08275318529877L615.4418354343959,67.18223316642968L621.193628288923,69.28165057924059L626.9454211434501,70.68130389999459L632.6972139979771,71.38113056037162L638.4490068525042,74.1803746335595L644.2007997070314,74.88020129393647L649.9525925615584,73.48054797318247L655.7043854160854,76.27979204637035L661.4561782706124,79.77886277993525L667.2079711251396,87.47683090744198L672.9597639796666,90.27613754894992L678.7115568341936,93.0753816221378L684.4633496887207,93.77520828251482L690.2151425432478,97.97404310813658L695.9669353977749,108.47131787715136L701.718728252302,114.76963268390409L707.470521106829,118.26870341746894L713.222313961356,118.26870341746894L718.9741068158831,125.9666715449757L724.7258996704102,131.56515969135145L730.4776925249372,137.86353706642433L736.2294853794643,144.86167853355406L741.9812782339914,153.2594733214378" fill="none"></path></g><g><path style="fill: none;" stroke="rgb(255, 112, 67)" stroke-width="2px" d="M74.77330710885185,413.48612210469724L80.52509996337892,367.7094497710682L86.27689281790597,332.2549860467995L92.02868567243304,309.51621944919657L97.78047852696011,288.123860531938L103.53227138148716,276.7544459489765L109.28406423601423,262.5427402885947L115.0358570905413,253.56693935957887L120.78764994506835,244.8902775689861L126.53944279959542,236.21367834671346L132.2912356541225,230.8281727619759L138.04302850864957,223.1987169449844L143.79482136317662,219.90762330744928L149.5466142177037,214.67171857608335L155.29840707223076,210.33341896494701L161.05019992675784,203.90070740660823L166.8019927812849,200.46001291570153L172.55378563581195,195.07450733096397L178.305578490339,191.18501027994247L184.05737134486608,186.69704724711445L189.80916419939314,184.0042944547457L195.56095705392022,180.26439825709576L201.31274990844727,176.9732420512406L207.06454276297433,174.28048925887177L212.8163356175014,170.09179050110706L218.56812847202846,164.85588576974112L224.31992132655554,160.3679853052332L230.0717141810826,157.2264299527496L235.82350703560968,153.3369329017281L241.5752998901367,150.79378096273092L247.32709274466382,148.54983073047694L253.07888559919084,146.305880498223L258.83067845371795,144.66033367945545L264.582471308245,143.0147242923678L270.33426416277206,140.321971499999L276.08605701729914,137.92842041437345L281.83784987182617,135.53486932874787L287.58964272635325,134.18852421672352L293.3414355808803,132.84211653637908L299.0932284354074,129.99982545895884L304.84502128993444,128.35421607187118L310.5968141444615,127.45667351996164L316.34860699898854,124.91352158096447L322.1003998535157,123.41751304724843L327.8521927080427,122.2207687885957L333.6039855625698,120.87436110825126L339.3557784170968,119.37841514285532L345.1075712716239,117.88246917745937L350.859364126151,115.93765808362855L356.611156980678,114.14251041148935L362.3629498352051,112.49696359272184L368.11474268973217,110.40261421383946L373.86653554425925,109.05620653349501L379.6183283987863,107.26105886135588L385.37012125331336,106.21385288775463L391.12191410784044,105.76511289595993L396.8737069623675,103.82030180212905L402.62549981689455,102.47395669010473L408.37729267142157,100.37960731122234L414.12908552594865,100.08040560447915L419.8808783804758,98.13565707896839L425.6326712350028,97.23805195873877L431.38446408952984,95.44290428659963L437.1362569440569,95.29330343322806L442.88804979858406,93.04935320097405L448.6398426531111,91.70294552062961L454.3916355076381,92.0021472273728L460.1434283621652,91.10460467546329L465.8952212166923,89.60859614174728L471.64701407121936,88.26225102972296L477.3988069257464,86.61664164263527L483.1505997802734,85.27029653061095L488.9023926348005,83.026346298357L494.65418548932763,82.72714459161375L500.40597834385466,80.93199691947461L506.1577711983817,80.4831943593598L511.90956405290876,78.38884498047742L517.6613569074359,77.04243730013297L523.4131497619629,76.74323559338978L529.16494261649,75.84569304148027L534.916735471017,76.29449560159509L540.6685283255441,75.54649133473708L546.4203211800711,74.79848706787902L552.1721140345983,72.55453683562507L557.9239068891253,71.65699428371556L563.6756997436523,71.65699428371556L569.4274925981795,70.9089900168575L575.1792854527065,69.26344319808999L580.9310783072335,67.16903125088754L586.6828711617605,67.91703551774555L592.4346640162877,66.57069040572117L598.1864568708148,66.57069040572117L603.9382497253418,65.3738835787484L609.6900425798689,64.02753846672402L615.4418354343959,64.47634102683884L621.193628288923,65.07468187200516L626.9454211434501,62.68113078637958L632.6972139979771,61.03558396761207L638.4490068525042,58.79163373535812L644.2007997070314,58.941234588729685L649.9525925615584,58.342831175243305L655.7043854160854,58.49243202861487L661.4561782706124,56.8468852098473L667.2079711251396,55.94928008961767L672.9597639796666,53.555729003992155L678.7115568341936,51.46137962510977L684.4633496887207,50.264572798136896L690.2151425432478,49.666231952970634L695.9669353977749,48.61902597936938L701.718728252302,45.62707148025743L707.470521106829,42.635116981145416L713.222313961356,40.24156589551984L718.9741068158831,38.14721651663751L724.7258996704102,35.304925439217186L730.4776925249372,29.919419854479656L736.2294853794643,27.22666706211089L741.9812782339914,24.23471256299888" fill="none"></path></g></g></g></g></g></g><g transform="translate(51, 377)" clip-path="url(#clip_1)"><clipPath id="clip_1"><rect width="805" height="22"></rect></clipPath><g><g><line x1="0" y1="0" x2="0" y2="5" style="visibility: inherit;" fill="rgb(0, 0, 0)" stroke="rgb(204, 204, 204)" stroke-width="1px"></line><line x1="57.51792854527065" y1="0" x2="57.51792854527065" y2="5" style="visibility: inherit;" fill="rgb(0, 0, 0)" stroke="rgb(204, 204, 204)" stroke-width="1px"></line><line x1="115.0358570905413" y1="0" x2="115.0358570905413" y2="5" style="visibility: inherit;" fill="rgb(0, 0, 0)" stroke="rgb(204, 204, 204)" stroke-width="1px"></line><line x1="172.55378563581195" y1="0" x2="172.55378563581195" y2="5" style="visibility: inherit;" fill="rgb(0, 0, 0)" stroke="rgb(204, 204, 204)" stroke-width="1px"></line><line x1="230.0717141810826" y1="0" x2="230.0717141810826" y2="5" style="visibility: inherit;" fill="rgb(0, 0, 0)" stroke="rgb(204, 204, 204)" stroke-width="1px"></line><line x1="287.58964272635325" y1="0" x2="287.58964272635325" y2="5" style="visibility: inherit;" fill="rgb(0, 0, 0)" stroke="rgb(204, 204, 204)" stroke-width="1px"></line><line x1="345.1075712716239" y1="0" x2="345.1075712716239" y2="5" style="visibility: inherit;" fill="rgb(0, 0, 0)" stroke="rgb(204, 204, 204)" stroke-width="1px"></line><line x1="402.62549981689455" y1="0" x2="402.62549981689455" y2="5" style="visibility: inherit;" fill="rgb(0, 0, 0)" stroke="rgb(204, 204, 204)" stroke-width="1px"></line><line x1="460.1434283621652" y1="0" x2="460.1434283621652" y2="5" style="visibility: inherit;" fill="rgb(0, 0, 0)" stroke="rgb(204, 204, 204)" stroke-width="1px"></line><line x1="517.6613569074359" y1="0" x2="517.6613569074359" y2="5" style="visibility: inherit;" fill="rgb(0, 0, 0)" stroke="rgb(204, 204, 204)" stroke-width="1px"></line><line x1="575.1792854527065" y1="0" x2="575.1792854527065" y2="5" style="visibility: inherit;" fill="rgb(0, 0, 0)" stroke="rgb(204, 204, 204)" stroke-width="1px"></line><line x1="632.6972139979771" y1="0" x2="632.6972139979771" y2="5" style="visibility: inherit;" fill="rgb(0, 0, 0)" stroke="rgb(204, 204, 204)" stroke-width="1px"></line><line x1="690.2151425432478" y1="0" x2="690.2151425432478" y2="5" style="visibility: inherit;" fill="rgb(0, 0, 0)" stroke="rgb(204, 204, 204)" stroke-width="1px"></line><line x1="747.7330710885185" y1="0" x2="747.7330710885185" y2="5" style="visibility: inherit;" fill="rgb(0, 0, 0)" stroke="rgb(204, 204, 204)" stroke-width="1px"></line><line x1="805.2509996337891" y1="0" x2="805.2509996337891" y2="5" style="visibility: inherit;" fill="rgb(0, 0, 0)" stroke="rgb(204, 204, 204)" stroke-width="1px"></line></g><g transform="translate(0, 8)"><text style="text-anchor: middle; visibility: hidden; font-family: &quot;Helvetica Neue&quot;, sans-serif; font-size: 12px; font-weight: 200;" x="0" y="0" dx="0em" dy="0.95em" fill="rgb(50, 49, 63)" stroke="none" stroke-width="1px">-10</text><text style="text-anchor: middle; visibility: inherit; font-family: &quot;Helvetica Neue&quot;, sans-serif; font-size: 12px; font-weight: 200;" x="57.51792854527065" y="0" dx="0em" dy="0.95em" fill="rgb(50, 49, 63)" stroke="none" stroke-width="1px">0</text><text style="text-anchor: middle; visibility: inherit; font-family: &quot;Helvetica Neue&quot;, sans-serif; font-size: 12px; font-weight: 200;" x="115.0358570905413" y="0" dx="0em" dy="0.95em" fill="rgb(50, 49, 63)" stroke="none" stroke-width="1px">10</text><text style="text-anchor: middle; visibility: inherit; font-family: &quot;Helvetica Neue&quot;, sans-serif; font-size: 12px; font-weight: 200;" x="172.55378563581195" y="0" dx="0em" dy="0.95em" fill="rgb(50, 49, 63)" stroke="none" stroke-width="1px">20</text><text style="text-anchor: middle; visibility: inherit; font-family: &quot;Helvetica Neue&quot;, sans-serif; font-size: 12px; font-weight: 200;" x="230.0717141810826" y="0" dx="0em" dy="0.95em" fill="rgb(50, 49, 63)" stroke="none" stroke-width="1px">30</text><text style="text-anchor: middle; visibility: inherit; font-family: &quot;Helvetica Neue&quot;, sans-serif; font-size: 12px; font-weight: 200;" x="287.58964272635325" y="0" dx="0em" dy="0.95em" fill="rgb(50, 49, 63)" stroke="none" stroke-width="1px">40</text><text style="text-anchor: middle; visibility: inherit; font-family: &quot;Helvetica Neue&quot;, sans-serif; font-size: 12px; font-weight: 200;" x="345.1075712716239" y="0" dx="0em" dy="0.95em" fill="rgb(50, 49, 63)" stroke="none" stroke-width="1px">50</text><text style="text-anchor: middle; visibility: inherit; font-family: &quot;Helvetica Neue&quot;, sans-serif; font-size: 12px; font-weight: 200;" x="402.62549981689455" y="0" dx="0em" dy="0.95em" fill="rgb(50, 49, 63)" stroke="none" stroke-width="1px">60</text><text style="text-anchor: middle; visibility: inherit; font-family: &quot;Helvetica Neue&quot;, sans-serif; font-size: 12px; font-weight: 200;" x="460.1434283621652" y="0" dx="0em" dy="0.95em" fill="rgb(50, 49, 63)" stroke="none" stroke-width="1px">70</text><text style="text-anchor: middle; visibility: inherit; font-family: &quot;Helvetica Neue&quot;, sans-serif; font-size: 12px; font-weight: 200;" x="517.6613569074359" y="0" dx="0em" dy="0.95em" fill="rgb(50, 49, 63)" stroke="none" stroke-width="1px">80</text><text style="text-anchor: middle; visibility: inherit; font-family: &quot;Helvetica Neue&quot;, sans-serif; font-size: 12px; font-weight: 200;" x="575.1792854527065" y="0" dx="0em" dy="0.95em" fill="rgb(50, 49, 63)" stroke="none" stroke-width="1px">90</text><text style="text-anchor: middle; visibility: inherit; font-family: &quot;Helvetica Neue&quot;, sans-serif; font-size: 12px; font-weight: 200;" x="632.6972139979771" y="0" dx="0em" dy="0.95em" fill="rgb(50, 49, 63)" stroke="none" stroke-width="1px">100</text><text style="text-anchor: middle; visibility: inherit; font-family: &quot;Helvetica Neue&quot;, sans-serif; font-size: 12px; font-weight: 200;" x="690.2151425432478" y="0" dx="0em" dy="0.95em" fill="rgb(50, 49, 63)" stroke="none" stroke-width="1px">110</text><text style="text-anchor: middle; visibility: inherit; font-family: &quot;Helvetica Neue&quot;, sans-serif; font-size: 12px; font-weight: 200;" x="747.7330710885185" y="0" dx="0em" dy="0.95em" fill="rgb(50, 49, 63)" stroke="none" stroke-width="1px">120</text><text style="text-anchor: middle; visibility: hidden; font-family: &quot;Helvetica Neue&quot;, sans-serif; font-size: 12px; font-weight: 200;" x="805.2509996337891" y="0" dx="0em" dy="0.95em" fill="rgb(50, 49, 63)" stroke="none" stroke-width="1px">130</text></g><line x1="0" y1="0" x2="805.2509996337891" y2="0" fill="rgb(0, 0, 0)" stroke="rgb(204, 204, 204)" stroke-width="1px"></line></g></g></g></g></svg>