<svg viewBox="0 0 767.9166870117188 400" xmlns="http://www.w3.org/2000/svg"><g><g><g><g><g><line x1="51.41600036621094" y1="377.8999996185303" x2="46.41600036621094" y2="377.8999996185303" style="visibility: inherit;" fill="rgb(0, 0, 0)" stroke="rgb(204, 204, 204)" stroke-width="1px"></line><line x1="51.41600036621094" y1="352.7066663106283" x2="46.41600036621094" y2="352.7066663106283" style="visibility: inherit;" fill="rgb(0, 0, 0)" stroke="rgb(204, 204, 204)" stroke-width="1px"></line><line x1="51.41600036621094" y1="327.51333300272626" x2="46.41600036621094" y2="327.51333300272626" style="visibility: inherit;" fill="rgb(0, 0, 0)" stroke="rgb(204, 204, 204)" stroke-width="1px"></line><line x1="51.41600036621094" y1="302.3199996948242" x2="46.41600036621094" y2="302.3199996948242" style="visibility: inherit;" fill="rgb(0, 0, 0)" stroke="rgb(204, 204, 204)" stroke-width="1px"></line><line x1="51.41600036621094" y1="277.1266663869222" x2="46.41600036621094" y2="277.1266663869222" style="visibility: inherit;" fill="rgb(0, 0, 0)" stroke="rgb(204, 204, 204)" stroke-width="1px"></line><line x1="51.41600036621094" y1="251.9333330790202" x2="46.41600036621094" y2="251.9333330790202" style="visibility: inherit;" fill="rgb(0, 0, 0)" stroke="rgb(204, 204, 204)" stroke-width="1px"></line><line x1="51.41600036621094" y1="226.73999977111816" x2="46.41600036621094" y2="226.73999977111816" style="visibility: inherit;" fill="rgb(0, 0, 0)" stroke="rgb(204, 204, 204)" stroke-width="1px"></line><line x1="51.41600036621094" y1="201.54666646321613" x2="46.41600036621094" y2="201.54666646321613" style="visibility: inherit;" fill="rgb(0, 0, 0)" stroke="rgb(204, 204, 204)" stroke-width="1px"></line><line x1="51.41600036621094" y1="176.35333315531412" x2="46.41600036621094" y2="176.35333315531412" style="visibility: inherit;" fill="rgb(0, 0, 0)" stroke="rgb(204, 204, 204)" stroke-width="1px"></line><line x1="51.41600036621094" y1="151.1599998474121" x2="46.41600036621094" y2="151.1599998474121" style="visibility: inherit;" fill="rgb(0, 0, 0)" stroke="rgb(204, 204, 204)" stroke-width="1px"></line><line x1="51.41600036621094" y1="125.96666653951007" x2="46.41600036621094" y2="125.96666653951007" style="visibility: inherit;" fill="rgb(0, 0, 0)" stroke="rgb(204, 204, 204)" stroke-width="1px"></line><line x1="51.41600036621094" y1="100.77333323160809" x2="46.41600036621094" y2="100.77333323160809" style="visibility: inherit;" fill="rgb(0, 0, 0)" stroke="rgb(204, 204, 204)" stroke-width="1px"></line><line x1="51.41600036621094" y1="75.57999992370605" x2="46.41600036621094" y2="75.57999992370605" style="visibility: inherit;" fill="rgb(0, 0, 0)" stroke="rgb(204, 204, 204)" stroke-width="1px"></line><line x1="51.41600036621094" y1="50.38666661580402" x2="46.41600036621094" y2="50.38666661580402" style="visibility: inherit;" fill="rgb(0, 0, 0)" stroke="rgb(204, 204, 204)" stroke-width="1px"></line><line x1="51.41600036621094" y1="25.193333307902037" x2="46.41600036621094" y2="25.193333307902037" style="visibility: inherit;" fill="rgb(0, 0, 0)" stroke="rgb(204, 204, 204)" stroke-width="1px"></line><line x1="51.41600036621094" y1="0" x2="46.41600036621094" y2="0" style="visibility: inherit;" fill="rgb(0, 0, 0)" stroke="rgb(204, 204, 204)" stroke-width="1px"></line></g><g transform="translate(41.41600036621094, 0)"><text style="text-anchor: end; visibility: hidden; font-family: &quot;Helvetica Neue&quot;, sans-serif; font-size: 12px; font-weight: 200;" x="0" y="377.8999996185303" dx="0em" dy="0.3em" fill="rgb(50, 49, 63)" stroke="none" stroke-width="1px">0.2</text><text style="text-anchor: end; visibility: inherit; font-family: &quot;Helvetica Neue&quot;, sans-serif; font-size: 12px; font-weight: 200;" x="0" y="352.7066663106283" dx="0em" dy="0.3em" fill="rgb(50, 49, 63)" stroke="none" stroke-width="1px">0.22</text><text style="text-anchor: end; visibility: hidden; font-family: &quot;Helvetica Neue&quot;, sans-serif; font-size: 12px; font-weight: 200;" x="0" y="327.51333300272626" dx="0em" dy="0.3em" fill="rgb(50, 49, 63)" stroke="none" stroke-width="1px">0.24</text><text style="text-anchor: end; visibility: inherit; font-family: &quot;Helvetica Neue&quot;, sans-serif; font-size: 12px; font-weight: 200;" x="0" y="302.3199996948242" dx="0em" dy="0.3em" fill="rgb(50, 49, 63)" stroke="none" stroke-width="1px">0.26</text><text style="text-anchor: end; visibility: hidden; font-family: &quot;Helvetica Neue&quot;, sans-serif; font-size: 12px; font-weight: 200;" x="0" y="277.1266663869222" dx="0em" dy="0.3em" fill="rgb(50, 49, 63)" stroke="none" stroke-width="1px">0.28</text><text style="text-anchor: end; visibility: inherit; font-family: &quot;Helvetica Neue&quot;, sans-serif; font-size: 12px; font-weight: 200;" x="0" y="251.9333330790202" dx="0em" dy="0.3em" fill="rgb(50, 49, 63)" stroke="none" stroke-width="1px">0.3</text><text style="text-anchor: end; visibility: hidden; font-family: &quot;Helvetica Neue&quot;, sans-serif; font-size: 12px; font-weight: 200;" x="0" y="226.73999977111816" dx="0em" dy="0.3em" fill="rgb(50, 49, 63)" stroke="none" stroke-width="1px">0.32</text><text style="text-anchor: end; visibility: inherit; font-family: &quot;Helvetica Neue&quot;, sans-serif; font-size: 12px; font-weight: 200;" x="0" y="201.54666646321613" dx="0em" dy="0.3em" fill="rgb(50, 49, 63)" stroke="none" stroke-width="1px">0.34</text><text style="text-anchor: end; visibility: hidden; font-family: &quot;Helvetica Neue&quot;, sans-serif; font-size: 12px; font-weight: 200;" x="0" y="176.35333315531412" dx="0em" dy="0.3em" fill="rgb(50, 49, 63)" stroke="none" stroke-width="1px">0.36</text><text style="text-anchor: end; visibility: inherit; font-family: &quot;Helvetica Neue&quot;, sans-serif; font-size: 12px; font-weight: 200;" x="0" y="151.1599998474121" dx="0em" dy="0.3em" fill="rgb(50, 49, 63)" stroke="none" stroke-width="1px">0.38</text><text style="text-anchor: end; visibility: hidden; font-family: &quot;Helvetica Neue&quot;, sans-serif; font-size: 12px; font-weight: 200;" x="0" y="125.96666653951007" dx="0em" dy="0.3em" fill="rgb(50, 49, 63)" stroke="none" stroke-width="1px">0.4</text><text style="text-anchor: end; visibility: inherit; font-family: &quot;Helvetica Neue&quot;, sans-serif; font-size: 12px; font-weight: 200;" x="0" y="100.77333323160809" dx="0em" dy="0.3em" fill="rgb(50, 49, 63)" stroke="none" stroke-width="1px">0.42</text><text style="text-anchor: end; visibility: hidden; font-family: &quot;Helvetica Neue&quot;, sans-serif; font-size: 12px; font-weight: 200;" x="0" y="75.57999992370605" dx="0em" dy="0.3em" fill="rgb(50, 49, 63)" stroke="none" stroke-width="1px">0.44</text><text style="text-anchor: end; visibility: inherit; font-family: &quot;Helvetica Neue&quot;, sans-serif; font-size: 12px; font-weight: 200;" x="0" y="50.38666661580402" dx="0em" dy="0.3em" fill="rgb(50, 49, 63)" stroke="none" stroke-width="1px">0.46</text><text style="text-anchor: end; visibility: hidden; font-family: &quot;Helvetica Neue&quot;, sans-serif; font-size: 12px; font-weight: 200;" x="0" y="25.193333307902037" dx="0em" dy="0.3em" fill="rgb(50, 49, 63)" stroke="none" stroke-width="1px">0.48</text><text style="text-anchor: end; visibility: hidden; font-family: &quot;Helvetica Neue&quot;, sans-serif; font-size: 12px; font-weight: 200;" x="0" y="0" dx="0em" dy="0.3em" fill="rgb(50, 49, 63)" stroke="none" stroke-width="1px">0.5</text></g><line x1="51.41600036621094" y1="0" x2="51.41600036621094" y2="377.8999996185303" fill="rgb(0, 0, 0)" stroke="rgb(204, 204, 204)" stroke-width="1px"></line></g></g><g transform="translate(51, 0)" clip-path="url(#clip_0)"><clipPath id="clip_0"><rect width="716" height="377"></rect></clipPath><g><g><g><line x1="0" y1="0" x2="0" y2="377.8999996185303" fill="rgb(0, 0, 0)" stroke="rgb(60, 60, 60)" stroke-width="1px" opacity="0.25"></line><line x1="51.178642830984934" y1="0" x2="51.178642830984934" y2="377.8999996185303" fill="rgb(0, 0, 0)" stroke="rgb(60, 60, 60)" stroke-width="1px" opacity="0.25"></line><line x1="102.35728566196987" y1="0" x2="102.35728566196987" y2="377.8999996185303" fill="rgb(0, 0, 0)" stroke="rgb(60, 60, 60)" stroke-width="1px" opacity="0.25"></line><line x1="153.5359284929548" y1="0" x2="153.5359284929548" y2="377.8999996185303" fill="rgb(0, 0, 0)" stroke="rgb(60, 60, 60)" stroke-width="1px" opacity="0.25"></line><line x1="204.71457132393974" y1="0" x2="204.71457132393974" y2="377.8999996185303" fill="rgb(0, 0, 0)" stroke="rgb(60, 60, 60)" stroke-width="1px" opacity="0.25"></line><line x1="255.8932141549247" y1="0" x2="255.8932141549247" y2="377.8999996185303" fill="rgb(0, 0, 0)" stroke="rgb(60, 60, 60)" stroke-width="1px" opacity="0.25"></line><line x1="307.0718569859096" y1="0" x2="307.0718569859096" y2="377.8999996185303" fill="rgb(0, 0, 0)" stroke="rgb(60, 60, 60)" stroke-width="1px" opacity="0.25"></line><line x1="358.25049981689455" y1="0" x2="358.25049981689455" y2="377.8999996185303" fill="rgb(0, 0, 0)" stroke="rgb(60, 60, 60)" stroke-width="1px" opacity="0.25"></line><line x1="409.4291426478795" y1="0" x2="409.4291426478795" y2="377.8999996185303" fill="rgb(0, 0, 0)" stroke="rgb(60, 60, 60)" stroke-width="1px" opacity="0.25"></line><line x1="460.60778547886446" y1="0" x2="460.60778547886446" y2="377.8999996185303" fill="rgb(0, 0, 0)" stroke="rgb(60, 60, 60)" stroke-width="1px" opacity="0.25"></line><line x1="511.7864283098494" y1="0" x2="511.7864283098494" y2="377.8999996185303" fill="rgb(0, 0, 0)" stroke="rgb(60, 60, 60)" stroke-width="1px" opacity="0.25"></line><line x1="562.9650711408343" y1="0" x2="562.9650711408343" y2="377.8999996185303" fill="rgb(0, 0, 0)" stroke="rgb(60, 60, 60)" stroke-width="1px" opacity="0.25"></line><line x1="614.1437139718192" y1="0" x2="614.1437139718192" y2="377.8999996185303" fill="rgb(0, 0, 0)" stroke="rgb(60, 60, 60)" stroke-width="1px" opacity="0.25"></line><line x1="665.3223568028042" y1="0" x2="665.3223568028042" y2="377.8999996185303" fill="rgb(0, 0, 0)" stroke="rgb(60, 60, 60)" stroke-width="1px" opacity="0.25"></line><line x1="716.5009996337891" y1="0" x2="716.5009996337891" y2="377.8999996185303" fill="rgb(0, 0, 0)" stroke="rgb(60, 60, 60)" stroke-width="1px" opacity="0.25"></line></g><g><line x1="0" y1="377.8999996185303" x2="716.5009996337891" y2="377.8999996185303" fill="rgb(0, 0, 0)" stroke="rgb(60, 60, 60)" stroke-width="1px" opacity="0.25"></line><line x1="0" y1="352.7066663106283" x2="716.5009996337891" y2="352.7066663106283" fill="rgb(0, 0, 0)" stroke="rgb(60, 60, 60)" stroke-width="1px" opacity="0.25"></line><line x1="0" y1="327.51333300272626" x2="716.5009996337891" y2="327.51333300272626" fill="rgb(0, 0, 0)" stroke="rgb(60, 60, 60)" stroke-width="1px" opacity="0.25"></line><line x1="0" y1="302.3199996948242" x2="716.5009996337891" y2="302.3199996948242" fill="rgb(0, 0, 0)" stroke="rgb(60, 60, 60)" stroke-width="1px" opacity="0.25"></line><line x1="0" y1="277.1266663869222" x2="716.5009996337891" y2="277.1266663869222" fill="rgb(0, 0, 0)" stroke="rgb(60, 60, 60)" stroke-width="1px" opacity="0.25"></line><line x1="0" y1="251.9333330790202" x2="716.5009996337891" y2="251.9333330790202" fill="rgb(0, 0, 0)" stroke="rgb(60, 60, 60)" stroke-width="1px" opacity="0.25"></line><line x1="0" y1="226.73999977111816" x2="716.5009996337891" y2="226.73999977111816" fill="rgb(0, 0, 0)" stroke="rgb(60, 60, 60)" stroke-width="1px" opacity="0.25"></line><line x1="0" y1="201.54666646321613" x2="716.5009996337891" y2="201.54666646321613" fill="rgb(0, 0, 0)" stroke="rgb(60, 60, 60)" stroke-width="1px" opacity="0.25"></line><line x1="0" y1="176.35333315531412" x2="716.5009996337891" y2="176.35333315531412" fill="rgb(0, 0, 0)" stroke="rgb(60, 60, 60)" stroke-width="1px" opacity="0.25"></line><line x1="0" y1="151.1599998474121" x2="716.5009996337891" y2="151.1599998474121" fill="rgb(0, 0, 0)" stroke="rgb(60, 60, 60)" stroke-width="1px" opacity="0.25"></line><line x1="0" y1="125.96666653951007" x2="716.5009996337891" y2="125.96666653951007" fill="rgb(0, 0, 0)" stroke="rgb(60, 60, 60)" stroke-width="1px" opacity="0.25"></line><line x1="0" y1="100.77333323160809" x2="716.5009996337891" y2="100.77333323160809" fill="rgb(0, 0, 0)" stroke="rgb(60, 60, 60)" stroke-width="1px" opacity="0.25"></line><line x1="0" y1="75.57999992370605" x2="716.5009996337891" y2="75.57999992370605" fill="rgb(0, 0, 0)" stroke="rgb(60, 60, 60)" stroke-width="1px" opacity="0.25"></line><line x1="0" y1="50.38666661580402" x2="716.5009996337891" y2="50.38666661580402" fill="rgb(0, 0, 0)" stroke="rgb(60, 60, 60)" stroke-width="1px" opacity="0.25"></line><line x1="0" y1="25.193333307902037" x2="716.5009996337891" y2="25.193333307902037" fill="rgb(0, 0, 0)" stroke="rgb(60, 60, 60)" stroke-width="1px" opacity="0.25"></line><line x1="0" y1="0" x2="716.5009996337891" y2="0" fill="rgb(0, 0, 0)" stroke="rgb(60, 60, 60)" stroke-width="1px" opacity="0.25"></line></g></g></g><g><g><line x1="0" y1="629.8333326975505" x2="716.5009996337891" y2="629.8333326975505" fill="rgb(0, 0, 0)" stroke="rgb(153, 153, 153)" stroke-width="1.5px"></line></g></g><g><g><line x1="51.178642830984934" y1="0" x2="51.178642830984934" y2="377.8999996185303" fill="rgb(0, 0, 0)" stroke="rgb(153, 153, 153)" stroke-width="1.5px"></line></g></g><g><g><g><g><g><path style="fill: none;" stroke="rgb(0, 119, 187)" stroke-width="2px" d="M61.414371397181924,389.5540590182602L66.53223568028042,364.51604306258184L71.6500999633789,341.3644271717689L76.7679642464774,323.572928660153L81.88582852957589,308.9519732516497L87.00369281267439,296.687675373214L92.12155709577287,284.20264920248195L97.23942137887137,273.07514533641955L102.35728566196987,263.7447871861621L107.47514994506837,255.30682223889124L112.59301422816685,246.89229801033466L117.71087851126535,238.99315061624768L122.82874279436385,232.57726665981454L127.94660707746235,224.69760351689038L133.06447136056084,216.61155196808141L138.18233564365934,210.92093482231797L143.3001999267578,205.82727813464797L148.4180642098563,199.7479661160599L153.5359284929548,195.4286878448271L158.65379277605328,190.48576302818995L163.77165705915178,187.01618561845035L168.88952134225028,182.41511384310868L174.00738562534877,176.9671877642683L179.12524990844727,172.69070493613052L184.24311419154574,168.10934709607835L189.36097847464427,164.18485591437562L194.47884275774274,161.8301627477593L199.59670704084127,159.0736949344814L204.71457132393974,155.57230204085621L209.83243560703824,153.303508190065L214.95029989013673,149.926776166215L220.06816417323523,146.22118305486993L225.1860284563337,143.99782725601145L230.30389273943223,141.82403681644033L235.4217570225307,140.01588736845767L240.53962130562917,138.42713752588406L245.6574855887277,136.8020540286569L250.77534987182617,135.3231437528895L255.8932141549247,134.09988079144404L261.01107843802316,132.8620628358875L266.1289427211217,132.4552888600128L271.24680700422016,131.37143248196523L276.3646712873187,129.88134167911406L281.48253557041716,128.98728719750244L286.6003998535156,128.11495272797447L291.71826413661415,126.91973346869838L296.8361284197126,125.36282493708305L301.9539927028111,124.42867981812728L307.0718569859096,123.70023434826732L312.1897212690081,122.92725026937168L317.30758555210656,122.12754302505417L322.4254498352051,120.4720399218237L327.54331411830356,118.13508588835856L332.6611784014021,115.55723471164032L337.77904268450055,113.50664881013842L342.8969069675991,111.9403954886534L348.01477125069755,110.49676830029114L353.1326355337961,109.63059198727382L358.25049981689455,108.27110922340779L363.368364099993,107.11950276810734L368.4862283830915,105.7567203173619L373.60409266619007,105.10700924540521L378.72195694928854,104.21332242315651L383.839821232387,103.5091519313167L388.9576855154855,103.08664963621294L394.075549798584,102.3292730636793L399.19341408168253,101.53894533957498L404.311278364781,100.39293012754712L409.4291426478795,99.53736260184007L414.547006930978,98.85606368792531L419.66487121407647,98.11136754259553L424.78273549717494,96.99273127783266L429.90059978027347,95.98563272199391L435.01846406337194,94.3736532303414L440.13632834647046,92.73463194138799L445.25419262956893,91.58326076952545L450.3720569126674,90.38857788733338L455.4899211957659,89.16790797894345L460.60778547886446,88.60344941600317L465.7256497619629,87.92887249765488L470.8435140450614,87.35616794815542L475.96137832815987,86.84458681996529L481.07924261125834,85.52990276850511L486.1971068943569,84.40519055704488L491.3149711774554,83.89832162865929L496.43283546055386,82.92236667766593L501.55069974365233,82.50475210556044L506.6685640267509,82.42214176078761L511.7864283098494,82.20461715543348L516.9042925929479,81.23432541616535L522.0221568760463,80.14829019352987L527.1400211591449,79.49666905994866L532.2578854422434,78.9377379813094L537.3757497253418,78.26646253714489L542.4936140084403,77.69573887215569L547.6114782915388,77.18536129106855L552.7293425746374,76.54321794543534L557.8472068577358,75.65405674258398L562.9650711408343,75.12056002087309L568.0829354239328,74.46456020726242L573.2007997070313,73.90300192060562L578.3186639901298,73.06220676953689L583.4365282732283,71.88589608493373L588.5543925563268,71.18010967417177L593.6722568394252,71.09255462469554L598.7901211225237,71.37593839199093L603.9079854056222,70.87413505840613L609.0258496887208,70.74101145674581L614.1437139718192,70.6611372957496L619.2615782549177,69.6054774246058L624.3794425380162,68.97208150191949L629.4973068211146,68.92796074528866L634.6151711042131,69.06944668980066L639.7330353873117,69.3222966549983L644.8508996704102,69.64195001621061L649.9687639535086,69.6657986508443L655.0866282366071,69.68010783162447L660.2044925197056,69.35277654311164" fill="none"></path></g><g><path style="fill: none;" stroke="rgb(255, 112, 67)" stroke-width="2px" d="M61.414371397181924,399.0539943817263L66.53223568028042,376.99073992491833L71.6500999633789,350.5152686990443L76.7679642464774,326.22036247312866L81.88582852957589,304.96535267015065L87.00369281267439,286.3918376637787L92.12155709577287,270.62566660227606L97.23942137887137,257.6199756170581L102.35728566196987,246.51591531318667L107.47514994506837,235.77741472287323L112.59301422816685,226.2935207966236L117.71087851126535,218.38337170974603L122.82874279436385,210.65987559074833L127.94660707746235,203.87328758082543L133.06447136056084,197.39664642671605L138.18233564365934,191.9673558407241L143.3001999267578,186.62762369252076L148.4180642098563,182.02370750414323L153.5359284929548,177.3226409800173L158.65379277605328,173.0659250218083L163.77165705915178,169.75795206584536L168.88952134225028,166.01391568919814L174.00738562534877,162.47498020224933L179.12524990844727,158.7359784260989L184.24311419154574,155.7745116276428L189.36097847464427,152.7410305976278L194.47884275774274,149.70022979134035L199.59670704084127,146.83454287137263L204.71457132393974,144.14574749921277L209.83243560703824,141.13225145436874L214.95029989013673,138.8573992961481L220.06816417323523,136.7744339867749L225.1860284563337,134.84248995264136L230.30389273943223,132.57032322564555L235.4217570225307,130.45304991518492L240.53962130562917,127.9619730020431L245.6574855887277,126.28780583563201L250.77534987182617,124.92427850599759L255.8932141549247,123.35218882418269L261.01107843802316,121.79857855024761L266.1289427211217,119.82522047939182L271.24680700422016,117.88723235251621L276.3646712873187,116.25769983043472L281.48253557041716,114.27469261536794L286.6003998535156,112.51043602583547L291.71826413661415,111.05693581924828L296.8361284197126,109.50268583672681L301.9539927028111,108.28290220875158L307.0718569859096,107.01248397622913L312.1897212690081,105.78349339059565L317.30758555210656,104.57935939309436L322.4254498352051,103.4619327416936L327.54331411830356,102.21702449030334L332.6611784014021,100.96743568853776L337.77904268450055,99.67913435173762L342.8969069675991,98.40350969872588L348.01477125069755,97.17139526079632L353.1326355337961,96.25260557399281L358.25049981689455,95.414113139834L363.368364099993,95.16233209660624L368.4862283830915,94.36500280050097L373.60409266619007,93.77889260841033L378.72195694928854,93.31952889512525L383.839821232387,92.7925812334899L388.9576855154855,92.18919401443202L394.075549798584,91.21680521763795L399.19341408168253,90.34613830108805L404.311278364781,89.32109430022632L409.4291426478795,88.38293005642663L414.547006930978,87.64052550249772L419.66487121407647,86.65653471439941L424.78273549717494,86.10204444634968L429.90059978027347,85.41030823742796L435.01846406337194,84.67214368518904L440.13632834647046,84.04972392979977L445.25419262956893,83.0300114063977L450.3720569126674,82.20277367989814L455.4899211957659,81.31148479109743L460.60778547886446,80.48949283574035L465.7256497619629,79.92448925290779L470.8435140450614,79.26234925992549L475.96137832815987,78.75736766610544L481.07924261125834,78.05943245691236L486.1971068943569,77.42526111893824L491.3149711774554,76.93704570172616L496.43283546055386,76.64411645139893L501.55069974365233,76.36064628677508L506.6685640267509,75.72382454187812L511.7864283098494,74.98268944684816L516.9042925929479,74.25078976775353L522.0221568760463,73.45262292860173L527.1400211591449,72.9737228251106L532.2578854422434,72.39914912454253L537.3757497253418,71.80307547053735L542.4936140084403,71.58904809737089L547.6114782915388,71.06570043696684L552.7293425746374,70.64397922629689L557.8472068577358,70.31913809027651L562.9650711408343,69.98061658942754L568.0829354239328,69.63390188607832L573.2007997070313,69.31816044964114L578.3186639901298,69.20052399739717L583.4365282732283,68.69910668473756L588.5543925563268,68.5418580999816L593.6722568394252,68.44750894912801L598.7901211225237,68.24729765577598L603.9079854056222,68.09126667495553L609.0258496887208,67.78222285760819L614.1437139718192,67.59679656719976L619.2615782549177,67.48554079295468L624.3794425380162,67.05976029671262L629.4973068211146,66.40934574606632L634.6151711042131,65.76778259841109L639.7330353873117,65.38284470981796L644.8508996704102,65.15188197666208L649.9687639535086,64.905591722341L655.0866282366071,64.61420075051166L660.2044925197056,64.58298298665079" fill="none"></path></g></g></g></g><g opacity="0.2"><g><g><g><path style="fill: none;" stroke="rgb(0, 119, 187)" stroke-width="2px" d="M56.296507114083425,404.3529931347768L61.414371397181924,368.2425568856928L66.53223568028042,335.0713362987042L71.6500999633789,311.1376774647236L76.7679642464774,298.9608812791242L81.88582852957589,288.04377308220336L87.00369281267439,278.80621132919526L92.12155709577287,265.7896606921355L97.23942137887137,256.5520989391274L102.35728566196987,249.83387562248444L107.47514994506837,242.69579385060734L112.59301422816685,234.29798654905957L117.71087851126535,227.15990477718248L122.82874279436385,222.96098235591256L127.94660707746235,212.88366615144412L133.06447136056084,204.48589639088843L138.18233564365934,202.3864539507495L143.3001999267578,198.18756907047165L148.4180642098563,190.6295537613763L153.5359284929548,188.95000731746356L158.65379277605328,183.07153845228092L163.77165705915178,181.81188800459438L168.88952134225028,175.5135606841776L174.00738562534877,168.79533736753464L179.12524990844727,166.2759989311695L184.24311419154574,161.23732205843928L189.36097847464427,158.29812516684L194.47884275774274,158.29812516684L199.59670704084127,154.9389947380225L204.71457132393974,150.32021386151845L209.83243560703824,149.90031786529224L214.95029989013673,144.86167853355406L220.06816417323523,140.66279365327622L225.1860284563337,140.66279365327622L230.30389273943223,138.56335121313728L235.4217570225307,137.3036632244587L240.53962130562917,136.04401277677218L245.6574855887277,134.36442879186737L250.77534987182617,133.10477834418086L255.8932141549247,132.26498635172845L261.01107843802316,131.0053359040419L266.1289427211217,131.84512789649432L271.24680700422016,129.74564791536332L276.3646712873187,127.6462054752244L281.48253557041716,127.6462054752244L286.6003998535156,126.80645102376408L291.71826413661415,125.12690457985136L296.8361284197126,123.02746213971241L301.9539927028111,123.02746213971241L307.0718569859096,122.60756614348622L312.1897212690081,121.76777415103379L317.30758555210656,120.92798215858147L322.4254498352051,117.98878526698218L327.54331411830356,114.6296548381647L332.6611784014021,111.6904579465654L337.77904268450055,110.43076995788681L342.8969069675991,109.59101550642652L348.01477125069755,108.33132751774792L353.1326355337961,108.33132751774792L358.25049981689455,106.23188507760892L363.368364099993,105.3920930851566L368.4862283830915,103.71254664124388L373.60409266619007,104.13244263747004L378.72195694928854,102.87279218978347L383.839821232387,102.45289619355731L388.9576855154855,102.45289619355731L394.075549798584,101.19320820487872L399.19341408168253,100.35345375341842L404.311278364781,98.6739073095057L409.4291426478795,98.25401131327942L414.547006930978,97.83411531705326L419.66487121407647,96.99432332460083L424.78273549717494,95.3147768806881L429.90059978027347,94.47498488823578L435.01846406337194,91.95568399286265L440.13632834647046,90.2761000079579L445.25419262956893,89.85620401173173L450.3720569126674,88.59655356404517L455.4899211957659,87.3369031163586L460.60778547886446,87.75676157159273L465.7256497619629,86.91700712013244L470.8435140450614,86.49711112390628L475.96137832815987,86.07721512768L481.07924261125834,83.55787669131496L486.1971068943569,82.71812223985455L491.3149711774554,83.13801823608082L496.43283546055386,81.45843425117596L501.55069974365233,81.87833024740223L506.6685640267509,82.29822624362839L511.7864283098494,81.87833024740223L516.9042925929479,79.77888780726323L522.0221568760463,78.51923735957678L527.1400211591449,78.51923735957678L532.2578854422434,78.0993413633505L537.3757497253418,77.25954937089818L542.4936140084403,76.83965337467191L547.6114782915388,76.41979491943778L552.7293425746374,75.58000292698546L557.8472068577358,74.32031493830686L562.9650711408343,74.32031493830686L568.0829354239328,73.48056048684646L573.2007997070313,73.0606644906203L578.3186639901298,71.80101404293373L583.4365282732283,70.12143005802898L588.5543925563268,70.12143005802898L593.6722568394252,70.96122205048141L598.7901211225237,71.80101404293373L603.9079854056222,70.12143005802898L609.0258496887208,70.54132605425514L614.1437139718192,70.54132605425514L619.2615782549177,68.02198761789009L624.3794425380162,68.02198761789009L629.4973068211146,68.86177961034241L634.6151711042131,69.28167560656868L639.7330353873117,69.70157160279484L644.8508996704102,70.12143005802898L649.9687639535086,69.70157160279484L655.0866282366071,69.70157160279484L660.2044925197056,68.86177961034241" fill="none"></path></g><g><path style="fill: none;" stroke="rgb(255, 112, 67)" stroke-width="2px" d="M61.414371397181924,385.60124882874334L66.53223568028042,351.0443526837122L71.6500999633789,315.94889346654327L76.7679642464774,292.611760996446L81.88582852957589,274.5703485717352L87.00369281267439,259.31147447874423L92.12155709577287,247.3736267076267L97.23942137887137,238.30804023925984L102.35728566196987,229.96053786707668L107.47514994506837,219.72810228340336L112.59301422816685,212.09864646641185L117.71087851126535,206.5336448849564L122.82874279436385,199.08371009201082L127.94660707746235,193.69819199360924L133.06447136056084,187.68442539303103L138.18233564365934,183.82479845802777L143.3001999267578,178.61883892466417L148.4180642098563,175.11825403775276L153.5359284929548,170.27129901148896L158.65379277605328,166.68099115354664L163.77165705915178,164.79605794205648L168.88952134225028,160.3979054759075L174.00738562534877,157.16660212506497L179.12524990844727,153.12749170700783L184.24311419154574,151.33231900754063L189.36097847464427,148.19081370971313L194.47884275774274,145.13903138291653L199.59670704084127,142.53601407524266L204.71457132393974,140.1125553326068L209.83243560703824,136.61200798668744L214.95029989013673,135.44512133038893L220.06816417323523,133.6499861719138L225.1860284563337,131.94457398446957L230.30389273943223,129.16207319374186L235.4217570225307,127.2771399822517L240.53962130562917,124.2253576554551L245.6574855887277,123.77655509534029L250.77534987182617,122.87898751610271L255.8932141549247,120.99405430461252L261.01107843802316,119.46816314121429L266.1289427211217,116.86518337453242L271.24680700422016,114.98025016304234L276.3646712873187,113.81340104773585L281.48253557041716,111.30018179307706L286.6003998535156,109.86405114170168L291.71826413661415,108.87668550944909L296.8361284197126,107.17131086299696L301.9539927028111,106.45322676681326L307.0718569859096,105.10685662746084L312.1897212690081,103.94000751215435L317.30758555210656,102.77315839684798L322.4254498352051,101.78579276459539L327.54331411830356,100.34966211322L332.6611784014021,99.09305248589055L337.77904268450055,97.74668234653825L342.8969069675991,96.4900727192088L348.01477125069755,95.3232236039023L353.1326355337961,94.87442104378749L358.25049981689455,94.15637448859593L363.368364099993,94.78466053176453L368.4862283830915,93.16900885634334L373.60409266619007,92.89972732027445L378.72195694928854,92.63048332519759L383.839821232387,92.00215974103685L388.9576855154855,91.28411318584517L394.075549798584,89.75822202244694L399.19341408168253,89.04013792626324L404.311278364781,87.78352829893379L409.4291426478795,86.97568369072712L414.547006930978,86.52691867160434L419.66487121407647,85.18054853225203L424.78273549717494,85.270309044275L429.90059978027347,84.37270392404537L435.01846406337194,83.56489685683073L440.13632834647046,83.11609429671591L445.25419262956893,81.50044262129461L450.3720569126674,80.96191709014897L455.4899211957659,79.97455145789638L460.60778547886446,79.2565049027047L465.7256497619629,79.07698387865878L470.8435140450614,78.26913927045211L475.96137832815987,77.99989527537525L481.07924261125834,77.01252964312266L486.1971068943569,76.47400411197702L491.3149711774554,76.20472257590814L496.43283546055386,76.20472257590814L501.55069974365233,75.93544103983925L506.6685640267509,74.76859192453276L511.7864283098494,73.87098680430313L516.9042925929479,73.15294024911145L522.0221568760463,72.25537266987396L527.1400211591449,72.25537266987396L532.2578854422434,71.53728857369026L537.3757497253418,70.90896498952952L542.4936140084403,71.26800703762137L547.6114782915388,70.28067894636081L552.7293425746374,70.01139741029192L557.8472068577358,69.831876386246L562.9650711408343,69.47283433815414L568.0829354239328,69.11382983105432L573.2007997070313,68.84454829498543L578.3186639901298,69.02406931903136L583.4365282732283,67.94698071574794L588.5543925563268,68.30598522284765L593.6722568394252,68.30598522284765L598.7901211225237,67.94698071574794L603.9079854056222,67.85722020372498L609.0258496887208,67.3186571315872L614.1437139718192,67.3186571315872L619.2615782549177,67.3186571315872L624.3794425380162,66.4210895523496L629.4973068211146,65.43372392009701L634.6151711042131,64.8054378769283L639.7330353873117,64.8054378769283L644.8508996704102,64.8054378769283L649.9687639535086,64.5361563408594L655.0866282366071,64.17711429276756L660.2044925197056,64.5361563408594" fill="none"></path></g></g></g></g></g></g><g transform="translate(51, 377)" clip-path="url(#clip_1)"><clipPath id="clip_1"><rect width="716" height="22"></rect></clipPath><g><g><line x1="0" y1="0" x2="0" y2="5" style="visibility: inherit;" fill="rgb(0, 0, 0)" stroke="rgb(204, 204, 204)" stroke-width="1px"></line><line x1="51.178642830984934" y1="0" x2="51.178642830984934" y2="5" style="visibility: inherit;" fill="rgb(0, 0, 0)" stroke="rgb(204, 204, 204)" stroke-width="1px"></line><line x1="102.35728566196987" y1="0" x2="102.35728566196987" y2="5" style="visibility: inherit;" fill="rgb(0, 0, 0)" stroke="rgb(204, 204, 204)" stroke-width="1px"></line><line x1="153.5359284929548" y1="0" x2="153.5359284929548" y2="5" style="visibility: inherit;" fill="rgb(0, 0, 0)" stroke="rgb(204, 204, 204)" stroke-width="1px"></line><line x1="204.71457132393974" y1="0" x2="204.71457132393974" y2="5" style="visibility: inherit;" fill="rgb(0, 0, 0)" stroke="rgb(204, 204, 204)" stroke-width="1px"></line><line x1="255.8932141549247" y1="0" x2="255.8932141549247" y2="5" style="visibility: inherit;" fill="rgb(0, 0, 0)" stroke="rgb(204, 204, 204)" stroke-width="1px"></line><line x1="307.0718569859096" y1="0" x2="307.0718569859096" y2="5" style="visibility: inherit;" fill="rgb(0, 0, 0)" stroke="rgb(204, 204, 204)" stroke-width="1px"></line><line x1="358.25049981689455" y1="0" x2="358.25049981689455" y2="5" style="visibility: inherit;" fill="rgb(0, 0, 0)" stroke="rgb(204, 204, 204)" stroke-width="1px"></line><line x1="409.4291426478795" y1="0" x2="409.4291426478795" y2="5" style="visibility: inherit;" fill="rgb(0, 0, 0)" stroke="rgb(204, 204, 204)" stroke-width="1px"></line><line x1="460.60778547886446" y1="0" x2="460.60778547886446" y2="5" style="visibility: inherit;" fill="rgb(0, 0, 0)" stroke="rgb(204, 204, 204)" stroke-width="1px"></line><line x1="511.7864283098494" y1="0" x2="511.7864283098494" y2="5" style="visibility: inherit;" fill="rgb(0, 0, 0)" stroke="rgb(204, 204, 204)" stroke-width="1px"></line><line x1="562.9650711408343" y1="0" x2="562.9650711408343" y2="5" style="visibility: inherit;" fill="rgb(0, 0, 0)" stroke="rgb(204, 204, 204)" stroke-width="1px"></line><line x1="614.1437139718192" y1="0" x2="614.1437139718192" y2="5" style="visibility: inherit;" fill="rgb(0, 0, 0)" stroke="rgb(204, 204, 204)" stroke-width="1px"></line><line x1="665.3223568028042" y1="0" x2="665.3223568028042" y2="5" style="visibility: inherit;" fill="rgb(0, 0, 0)" stroke="rgb(204, 204, 204)" stroke-width="1px"></line><line x1="716.5009996337891" y1="0" x2="716.5009996337891" y2="5" style="visibility: inherit;" fill="rgb(0, 0, 0)" stroke="rgb(204, 204, 204)" stroke-width="1px"></line></g><g transform="translate(0, 8)"><text style="text-anchor: middle; visibility: hidden; font-family: &quot;Helvetica Neue&quot;, sans-serif; font-size: 12px; font-weight: 200;" x="0" y="0" dx="0em" dy="0.95em" fill="rgb(50, 49, 63)" stroke="none" stroke-width="1px">-10</text><text style="text-anchor: middle; visibility: inherit; font-family: &quot;Helvetica Neue&quot;, sans-serif; font-size: 12px; font-weight: 200;" x="51.178642830984934" y="0" dx="0em" dy="0.95em" fill="rgb(50, 49, 63)" stroke="none" stroke-width="1px">0</text><text style="text-anchor: middle; visibility: inherit; font-family: &quot;Helvetica Neue&quot;, sans-serif; font-size: 12px; font-weight: 200;" x="102.35728566196987" y="0" dx="0em" dy="0.95em" fill="rgb(50, 49, 63)" stroke="none" stroke-width="1px">10</text><text style="text-anchor: middle; visibility: inherit; font-family: &quot;Helvetica Neue&quot;, sans-serif; font-size: 12px; font-weight: 200;" x="153.5359284929548" y="0" dx="0em" dy="0.95em" fill="rgb(50, 49, 63)" stroke="none" stroke-width="1px">20</text><text style="text-anchor: middle; visibility: inherit; font-family: &quot;Helvetica Neue&quot;, sans-serif; font-size: 12px; font-weight: 200;" x="204.71457132393974" y="0" dx="0em" dy="0.95em" fill="rgb(50, 49, 63)" stroke="none" stroke-width="1px">30</text><text style="text-anchor: middle; visibility: inherit; font-family: &quot;Helvetica Neue&quot;, sans-serif; font-size: 12px; font-weight: 200;" x="255.8932141549247" y="0" dx="0em" dy="0.95em" fill="rgb(50, 49, 63)" stroke="none" stroke-width="1px">40</text><text style="text-anchor: middle; visibility: inherit; font-family: &quot;Helvetica Neue&quot;, sans-serif; font-size: 12px; font-weight: 200;" x="307.0718569859096" y="0" dx="0em" dy="0.95em" fill="rgb(50, 49, 63)" stroke="none" stroke-width="1px">50</text><text style="text-anchor: middle; visibility: inherit; font-family: &quot;Helvetica Neue&quot;, sans-serif; font-size: 12px; font-weight: 200;" x="358.25049981689455" y="0" dx="0em" dy="0.95em" fill="rgb(50, 49, 63)" stroke="none" stroke-width="1px">60</text><text style="text-anchor: middle; visibility: inherit; font-family: &quot;Helvetica Neue&quot;, sans-serif; font-size: 12px; font-weight: 200;" x="409.4291426478795" y="0" dx="0em" dy="0.95em" fill="rgb(50, 49, 63)" stroke="none" stroke-width="1px">70</text><text style="text-anchor: middle; visibility: inherit; font-family: &quot;Helvetica Neue&quot;, sans-serif; font-size: 12px; font-weight: 200;" x="460.60778547886446" y="0" dx="0em" dy="0.95em" fill="rgb(50, 49, 63)" stroke="none" stroke-width="1px">80</text><text style="text-anchor: middle; visibility: inherit; font-family: &quot;Helvetica Neue&quot;, sans-serif; font-size: 12px; font-weight: 200;" x="511.7864283098494" y="0" dx="0em" dy="0.95em" fill="rgb(50, 49, 63)" stroke="none" stroke-width="1px">90</text><text style="text-anchor: middle; visibility: inherit; font-family: &quot;Helvetica Neue&quot;, sans-serif; font-size: 12px; font-weight: 200;" x="562.9650711408343" y="0" dx="0em" dy="0.95em" fill="rgb(50, 49, 63)" stroke="none" stroke-width="1px">100</text><text style="text-anchor: middle; visibility: inherit; font-family: &quot;Helvetica Neue&quot;, sans-serif; font-size: 12px; font-weight: 200;" x="614.1437139718192" y="0" dx="0em" dy="0.95em" fill="rgb(50, 49, 63)" stroke="none" stroke-width="1px">110</text><text style="text-anchor: middle; visibility: inherit; font-family: &quot;Helvetica Neue&quot;, sans-serif; font-size: 12px; font-weight: 200;" x="665.3223568028042" y="0" dx="0em" dy="0.95em" fill="rgb(50, 49, 63)" stroke="none" stroke-width="1px">120</text><text style="text-anchor: middle; visibility: hidden; font-family: &quot;Helvetica Neue&quot;, sans-serif; font-size: 12px; font-weight: 200;" x="716.5009996337891" y="0" dx="0em" dy="0.95em" fill="rgb(50, 49, 63)" stroke="none" stroke-width="1px">130</text></g><line x1="0" y1="0" x2="716.5009996337891" y2="0" fill="rgb(0, 0, 0)" stroke="rgb(204, 204, 204)" stroke-width="1px"></line></g></g></g></g></svg>