<svg viewBox="0 0 767.9166870117188 400" xmlns="http://www.w3.org/2000/svg"><g><g><g><g><g><line x1="51.41600036621094" y1="377.8999996185303" x2="46.41600036621094" y2="377.8999996185303" style="visibility: inherit;" fill="rgb(0, 0, 0)" stroke="rgb(204, 204, 204)" stroke-width="1px"></line><line x1="51.41600036621094" y1="350.9071425029209" x2="46.41600036621094" y2="350.9071425029209" style="visibility: inherit;" fill="rgb(0, 0, 0)" stroke="rgb(204, 204, 204)" stroke-width="1px"></line><line x1="51.41600036621094" y1="323.9142853873117" x2="46.41600036621094" y2="323.9142853873117" style="visibility: inherit;" fill="rgb(0, 0, 0)" stroke="rgb(204, 204, 204)" stroke-width="1px"></line><line x1="51.41600036621094" y1="296.9214282717023" x2="46.41600036621094" y2="296.9214282717023" style="visibility: inherit;" fill="rgb(0, 0, 0)" stroke="rgb(204, 204, 204)" stroke-width="1px"></line><line x1="51.41600036621094" y1="269.928571156093" x2="46.41600036621094" y2="269.928571156093" style="visibility: inherit;" fill="rgb(0, 0, 0)" stroke="rgb(204, 204, 204)" stroke-width="1px"></line><line x1="51.41600036621094" y1="242.9357140404837" x2="46.41600036621094" y2="242.9357140404837" style="visibility: inherit;" fill="rgb(0, 0, 0)" stroke="rgb(204, 204, 204)" stroke-width="1px"></line><line x1="51.41600036621094" y1="215.9428569248745" x2="46.41600036621094" y2="215.9428569248745" style="visibility: inherit;" fill="rgb(0, 0, 0)" stroke="rgb(204, 204, 204)" stroke-width="1px"></line><line x1="51.41600036621094" y1="188.94999980926517" x2="46.41600036621094" y2="188.94999980926517" style="visibility: inherit;" fill="rgb(0, 0, 0)" stroke="rgb(204, 204, 204)" stroke-width="1px"></line><line x1="51.41600036621094" y1="161.95714269365584" x2="46.41600036621094" y2="161.95714269365584" style="visibility: inherit;" fill="rgb(0, 0, 0)" stroke="rgb(204, 204, 204)" stroke-width="1px"></line><line x1="51.41600036621094" y1="134.9642855780465" x2="46.41600036621094" y2="134.9642855780465" style="visibility: inherit;" fill="rgb(0, 0, 0)" stroke="rgb(204, 204, 204)" stroke-width="1px"></line><line x1="51.41600036621094" y1="107.97142846243719" x2="46.41600036621094" y2="107.97142846243719" style="visibility: inherit;" fill="rgb(0, 0, 0)" stroke="rgb(204, 204, 204)" stroke-width="1px"></line><line x1="51.41600036621094" y1="80.97857134682795" x2="46.41600036621094" y2="80.97857134682795" style="visibility: inherit;" fill="rgb(0, 0, 0)" stroke="rgb(204, 204, 204)" stroke-width="1px"></line><line x1="51.41600036621094" y1="53.98571423121865" x2="46.41600036621094" y2="53.98571423121865" style="visibility: inherit;" fill="rgb(0, 0, 0)" stroke="rgb(204, 204, 204)" stroke-width="1px"></line><line x1="51.41600036621094" y1="26.992857115609354" x2="46.41600036621094" y2="26.992857115609354" style="visibility: inherit;" fill="rgb(0, 0, 0)" stroke="rgb(204, 204, 204)" stroke-width="1px"></line><line x1="51.41600036621094" y1="0" x2="46.41600036621094" y2="0" style="visibility: inherit;" fill="rgb(0, 0, 0)" stroke="rgb(204, 204, 204)" stroke-width="1px"></line></g><g transform="translate(41.41600036621094, 0)"><text style="text-anchor: end; visibility: hidden; font-family: &quot;Helvetica Neue&quot;, sans-serif; font-size: 12px; font-weight: 200;" x="0" y="377.8999996185303" dx="0em" dy="0.3em" fill="rgb(50, 49, 63)" stroke="none" stroke-width="1px">0.85</text><text style="text-anchor: end; visibility: inherit; font-family: &quot;Helvetica Neue&quot;, sans-serif; font-size: 12px; font-weight: 200;" x="0" y="350.9071425029209" dx="0em" dy="0.3em" fill="rgb(50, 49, 63)" stroke="none" stroke-width="1px">0.9</text><text style="text-anchor: end; visibility: inherit; font-family: &quot;Helvetica Neue&quot;, sans-serif; font-size: 12px; font-weight: 200;" x="0" y="323.9142853873117" dx="0em" dy="0.3em" fill="rgb(50, 49, 63)" stroke="none" stroke-width="1px">0.95</text><text style="text-anchor: end; visibility: inherit; font-family: &quot;Helvetica Neue&quot;, sans-serif; font-size: 12px; font-weight: 200;" x="0" y="296.9214282717023" dx="0em" dy="0.3em" fill="rgb(50, 49, 63)" stroke="none" stroke-width="1px">1</text><text style="text-anchor: end; visibility: inherit; font-family: &quot;Helvetica Neue&quot;, sans-serif; font-size: 12px; font-weight: 200;" x="0" y="269.928571156093" dx="0em" dy="0.3em" fill="rgb(50, 49, 63)" stroke="none" stroke-width="1px">1.05</text><text style="text-anchor: end; visibility: inherit; font-family: &quot;Helvetica Neue&quot;, sans-serif; font-size: 12px; font-weight: 200;" x="0" y="242.9357140404837" dx="0em" dy="0.3em" fill="rgb(50, 49, 63)" stroke="none" stroke-width="1px">1.1</text><text style="text-anchor: end; visibility: inherit; font-family: &quot;Helvetica Neue&quot;, sans-serif; font-size: 12px; font-weight: 200;" x="0" y="215.9428569248745" dx="0em" dy="0.3em" fill="rgb(50, 49, 63)" stroke="none" stroke-width="1px">1.15</text><text style="text-anchor: end; visibility: inherit; font-family: &quot;Helvetica Neue&quot;, sans-serif; font-size: 12px; font-weight: 200;" x="0" y="188.94999980926517" dx="0em" dy="0.3em" fill="rgb(50, 49, 63)" stroke="none" stroke-width="1px">1.2</text><text style="text-anchor: end; visibility: inherit; font-family: &quot;Helvetica Neue&quot;, sans-serif; font-size: 12px; font-weight: 200;" x="0" y="161.95714269365584" dx="0em" dy="0.3em" fill="rgb(50, 49, 63)" stroke="none" stroke-width="1px">1.25</text><text style="text-anchor: end; visibility: inherit; font-family: &quot;Helvetica Neue&quot;, sans-serif; font-size: 12px; font-weight: 200;" x="0" y="134.9642855780465" dx="0em" dy="0.3em" fill="rgb(50, 49, 63)" stroke="none" stroke-width="1px">1.3</text><text style="text-anchor: end; visibility: inherit; font-family: &quot;Helvetica Neue&quot;, sans-serif; font-size: 12px; font-weight: 200;" x="0" y="107.97142846243719" dx="0em" dy="0.3em" fill="rgb(50, 49, 63)" stroke="none" stroke-width="1px">1.35</text><text style="text-anchor: end; visibility: inherit; font-family: &quot;Helvetica Neue&quot;, sans-serif; font-size: 12px; font-weight: 200;" x="0" y="80.97857134682795" dx="0em" dy="0.3em" fill="rgb(50, 49, 63)" stroke="none" stroke-width="1px">1.4</text><text style="text-anchor: end; visibility: inherit; font-family: &quot;Helvetica Neue&quot;, sans-serif; font-size: 12px; font-weight: 200;" x="0" y="53.98571423121865" dx="0em" dy="0.3em" fill="rgb(50, 49, 63)" stroke="none" stroke-width="1px">1.45</text><text style="text-anchor: end; visibility: inherit; font-family: &quot;Helvetica Neue&quot;, sans-serif; font-size: 12px; font-weight: 200;" x="0" y="26.992857115609354" dx="0em" dy="0.3em" fill="rgb(50, 49, 63)" stroke="none" stroke-width="1px">1.5</text><text style="text-anchor: end; visibility: hidden; font-family: &quot;Helvetica Neue&quot;, sans-serif; font-size: 12px; font-weight: 200;" x="0" y="0" dx="0em" dy="0.3em" fill="rgb(50, 49, 63)" stroke="none" stroke-width="1px">1.55</text></g><line x1="51.41600036621094" y1="0" x2="51.41600036621094" y2="377.8999996185303" fill="rgb(0, 0, 0)" stroke="rgb(204, 204, 204)" stroke-width="1px"></line></g></g><g transform="translate(51, 0)" clip-path="url(#clip_0)"><clipPath id="clip_0"><rect width="716" height="377"></rect></clipPath><g><g><g><line x1="0" y1="0" x2="0" y2="377.8999996185303" fill="rgb(0, 0, 0)" stroke="rgb(60, 60, 60)" stroke-width="1px" opacity="0.25"></line><line x1="51.178642830984934" y1="0" x2="51.178642830984934" y2="377.8999996185303" fill="rgb(0, 0, 0)" stroke="rgb(60, 60, 60)" stroke-width="1px" opacity="0.25"></line><line x1="102.35728566196987" y1="0" x2="102.35728566196987" y2="377.8999996185303" fill="rgb(0, 0, 0)" stroke="rgb(60, 60, 60)" stroke-width="1px" opacity="0.25"></line><line x1="153.5359284929548" y1="0" x2="153.5359284929548" y2="377.8999996185303" fill="rgb(0, 0, 0)" stroke="rgb(60, 60, 60)" stroke-width="1px" opacity="0.25"></line><line x1="204.71457132393974" y1="0" x2="204.71457132393974" y2="377.8999996185303" fill="rgb(0, 0, 0)" stroke="rgb(60, 60, 60)" stroke-width="1px" opacity="0.25"></line><line x1="255.8932141549247" y1="0" x2="255.8932141549247" y2="377.8999996185303" fill="rgb(0, 0, 0)" stroke="rgb(60, 60, 60)" stroke-width="1px" opacity="0.25"></line><line x1="307.0718569859096" y1="0" x2="307.0718569859096" y2="377.8999996185303" fill="rgb(0, 0, 0)" stroke="rgb(60, 60, 60)" stroke-width="1px" opacity="0.25"></line><line x1="358.25049981689455" y1="0" x2="358.25049981689455" y2="377.8999996185303" fill="rgb(0, 0, 0)" stroke="rgb(60, 60, 60)" stroke-width="1px" opacity="0.25"></line><line x1="409.4291426478795" y1="0" x2="409.4291426478795" y2="377.8999996185303" fill="rgb(0, 0, 0)" stroke="rgb(60, 60, 60)" stroke-width="1px" opacity="0.25"></line><line x1="460.60778547886446" y1="0" x2="460.60778547886446" y2="377.8999996185303" fill="rgb(0, 0, 0)" stroke="rgb(60, 60, 60)" stroke-width="1px" opacity="0.25"></line><line x1="511.7864283098494" y1="0" x2="511.7864283098494" y2="377.8999996185303" fill="rgb(0, 0, 0)" stroke="rgb(60, 60, 60)" stroke-width="1px" opacity="0.25"></line><line x1="562.9650711408343" y1="0" x2="562.9650711408343" y2="377.8999996185303" fill="rgb(0, 0, 0)" stroke="rgb(60, 60, 60)" stroke-width="1px" opacity="0.25"></line><line x1="614.1437139718192" y1="0" x2="614.1437139718192" y2="377.8999996185303" fill="rgb(0, 0, 0)" stroke="rgb(60, 60, 60)" stroke-width="1px" opacity="0.25"></line><line x1="665.3223568028042" y1="0" x2="665.3223568028042" y2="377.8999996185303" fill="rgb(0, 0, 0)" stroke="rgb(60, 60, 60)" stroke-width="1px" opacity="0.25"></line><line x1="716.5009996337891" y1="0" x2="716.5009996337891" y2="377.8999996185303" fill="rgb(0, 0, 0)" stroke="rgb(60, 60, 60)" stroke-width="1px" opacity="0.25"></line></g><g><line x1="0" y1="377.8999996185303" x2="716.5009996337891" y2="377.8999996185303" fill="rgb(0, 0, 0)" stroke="rgb(60, 60, 60)" stroke-width="1px" opacity="0.25"></line><line x1="0" y1="350.9071425029209" x2="716.5009996337891" y2="350.9071425029209" fill="rgb(0, 0, 0)" stroke="rgb(60, 60, 60)" stroke-width="1px" opacity="0.25"></line><line x1="0" y1="323.9142853873117" x2="716.5009996337891" y2="323.9142853873117" fill="rgb(0, 0, 0)" stroke="rgb(60, 60, 60)" stroke-width="1px" opacity="0.25"></line><line x1="0" y1="296.9214282717023" x2="716.5009996337891" y2="296.9214282717023" fill="rgb(0, 0, 0)" stroke="rgb(60, 60, 60)" stroke-width="1px" opacity="0.25"></line><line x1="0" y1="269.928571156093" x2="716.5009996337891" y2="269.928571156093" fill="rgb(0, 0, 0)" stroke="rgb(60, 60, 60)" stroke-width="1px" opacity="0.25"></line><line x1="0" y1="242.9357140404837" x2="716.5009996337891" y2="242.9357140404837" fill="rgb(0, 0, 0)" stroke="rgb(60, 60, 60)" stroke-width="1px" opacity="0.25"></line><line x1="0" y1="215.9428569248745" x2="716.5009996337891" y2="215.9428569248745" fill="rgb(0, 0, 0)" stroke="rgb(60, 60, 60)" stroke-width="1px" opacity="0.25"></line><line x1="0" y1="188.94999980926517" x2="716.5009996337891" y2="188.94999980926517" fill="rgb(0, 0, 0)" stroke="rgb(60, 60, 60)" stroke-width="1px" opacity="0.25"></line><line x1="0" y1="161.95714269365584" x2="716.5009996337891" y2="161.95714269365584" fill="rgb(0, 0, 0)" stroke="rgb(60, 60, 60)" stroke-width="1px" opacity="0.25"></line><line x1="0" y1="134.9642855780465" x2="716.5009996337891" y2="134.9642855780465" fill="rgb(0, 0, 0)" stroke="rgb(60, 60, 60)" stroke-width="1px" opacity="0.25"></line><line x1="0" y1="107.97142846243719" x2="716.5009996337891" y2="107.97142846243719" fill="rgb(0, 0, 0)" stroke="rgb(60, 60, 60)" stroke-width="1px" opacity="0.25"></line><line x1="0" y1="80.97857134682795" x2="716.5009996337891" y2="80.97857134682795" fill="rgb(0, 0, 0)" stroke="rgb(60, 60, 60)" stroke-width="1px" opacity="0.25"></line><line x1="0" y1="53.98571423121865" x2="716.5009996337891" y2="53.98571423121865" fill="rgb(0, 0, 0)" stroke="rgb(60, 60, 60)" stroke-width="1px" opacity="0.25"></line><line x1="0" y1="26.992857115609354" x2="716.5009996337891" y2="26.992857115609354" fill="rgb(0, 0, 0)" stroke="rgb(60, 60, 60)" stroke-width="1px" opacity="0.25"></line><line x1="0" y1="0" x2="716.5009996337891" y2="0" fill="rgb(0, 0, 0)" stroke="rgb(60, 60, 60)" stroke-width="1px" opacity="0.25"></line></g></g></g><g><g><line x1="0" y1="836.7785705838885" x2="716.5009996337891" y2="836.7785705838885" fill="rgb(0, 0, 0)" stroke="rgb(153, 153, 153)" stroke-width="1.5px"></line></g></g><g><g><line x1="51.178642830984934" y1="0" x2="51.178642830984934" y2="377.8999996185303" fill="rgb(0, 0, 0)" stroke="rgb(153, 153, 153)" stroke-width="1.5px"></line></g></g><g><g><g><g><g><path style="fill: none;" stroke="rgb(0, 119, 187)" stroke-width="2px" d="M61.414371397181924,-24.46122106016651L66.53223568028042,0.6011411770871291L71.6500999633789,22.57899316927609L76.7679642464774,41.881553357080804L81.88582852957589,58.88400039437073L87.00369281267439,73.9200512255361L92.12155709577287,87.27975156288045L97.23942137887137,99.21089762099484L102.35728566196987,109.92247645660353L107.47514994506837,119.5896146609814L112.59301422816685,128.35834155059507L117.71087851126535,136.34969709595958L122.82874279436385,143.6651631401848L127.94660707746235,150.38971756589567L133.06447136056084,156.595051714505L138.18233564365934,162.34170402255742L143.3001999267578,167.68134869969344L148.4180642098563,172.65823119893977L153.5359284929548,177.31076619468274L158.65379277605328,181.67196226783577L163.77165705915178,185.77054156174307L168.88952134225028,189.63186329833414L174.00738562534877,193.27814011966476L179.12524990844727,196.72877212434673L184.24311419154574,200.00118990416223L189.36097847464427,203.11053608353123L194.47884275774274,206.0705808769846L199.59670704084127,208.89331879154807L204.71457132393974,211.58970476911432L209.83243560703824,214.16934929115374L214.95029989013673,216.64095323058402L220.06816417323523,219.01238854992303L225.1860284563337,221.29090116545066L230.30389273943223,223.48271781264643L235.4217570225307,225.59368540395732L240.53962130562917,227.62911405148895L245.6574855887277,229.59381159165022L250.77534987182617,231.49210429939717L255.8932141549247,233.3278750588648L261.01107843802316,235.1047407199352L266.1289427211217,236.82623573926097L271.24680700422016,238.49538177453357L276.3646712873187,240.11502151608767L281.48253557041716,241.68758136513446L286.6003998535156,243.21564982774072L291.71826413661415,244.70144930979217L296.8361284197126,246.1470340418611L301.9539927028111,247.5543830917287L307.0718569859096,248.9251472631635L312.1897212690081,250.26085762871068L317.30758555210656,251.5630249069713L322.4254498352051,252.83325057375896L327.54331411830356,254.07272719611223L332.6611784014021,255.28273664693427L337.77904268450055,256.4644341858858L342.8969069675991,257.61877039270814L348.01477125069755,258.74665026637547L353.1326355337961,259.84910591176924L358.25049981689455,260.9268853037905L363.368364099993,261.98079762090435L368.4862283830915,263.01153430934573L373.60409266619007,264.0198191455905L378.72195694928854,265.00631807707526L383.839821232387,265.971713838602L388.9576855154855,266.91667349499767L394.075549798584,267.8417774819201L399.19341408168253,268.7474512879478L404.311278364781,269.63431059975164L409.4291426478795,270.50267334454503L414.547006930978,271.3529877026016L419.66487121407647,272.1855483244801L424.78273549717494,273.0007894244616L429.90059978027347,273.79886856153587L435.01846406337194,274.57998324067546L440.13632834647046,275.3446381007824L445.25419262956893,276.09295572843564L450.3720569126674,276.8251383875554L455.4899211957659,277.5416678300179L460.60778547886446,278.2427301373705L465.7256497619629,278.92841121614686L470.8435140450614,279.5985824135054L475.96137832815987,280.25334673450334L481.07924261125834,280.8927144973854L486.1971068943569,281.5169235746498L491.3149711774554,282.12624540176813L496.43283546055386,282.7208943248124L501.55069974365233,283.3007157850859L506.6685640267509,283.865411108214L511.7864283098494,284.41513574070115L516.9042925929479,284.9500086928444L522.0221568760463,285.4698439468769L527.1400211591449,285.9747358312944L532.2578854422434,286.46399441375274L537.3757497253418,286.93736018921254L542.4936140084403,287.39449725788813L547.6114782915388,287.83474071680615L552.7293425746374,288.2575114274207L557.8472068577358,288.6626678457609L562.9650711408343,289.0499191062874L568.0829354239328,289.41960553756803L573.2007997070313,289.77139074645766L578.3186639901298,290.1051758666474L583.4365282732283,290.42074712398465L588.5543925563268,290.7176416028485L593.6722568394252,290.9946805700571L598.7901211225237,291.2513884672521L603.9079854056222,291.4868878843439L609.0258496887208,291.7010385111969L614.1437139718192,291.89295814749863L619.2615782549177,292.0614224284084L624.3794425380162,292.20536208389257L629.4973068211146,292.3242385215093L634.6151711042131,292.417522646637L639.7330353873117,292.48448512418963L644.8508996704102,292.5235042029662L649.9687639535086,292.5331177267493L655.0866282366071,292.5117533571555L660.2044925197056,292.4577983888962" fill="none"></path></g><g><path style="fill: none;" stroke="rgb(255, 112, 67)" stroke-width="2px" d="M66.53223568028042,-2.2646065269378823L71.6500999633789,23.729036164597744L76.7679642464774,46.09748060349335L81.88582852957589,65.43297620163952L87.00369281267439,82.24792849182143L92.12155709577287,96.97267302351452L97.23942137887137,109.96171177433877L102.35728566196987,121.50316566208454L107.47514994506837,131.8299638227007L112.59301422816685,141.13023115456843L117.71087851126535,149.55535387024037L122.82874279436385,157.22942505335652L127.94660707746235,164.25315875643216L133.06447136056084,170.71026907330491L138.18233564365934,176.67059741190778L143.3001999267578,182.19223870121175L148.4180642098563,187.32477879088262L153.5359284929548,192.11096668681733L158.65379277605328,196.58700234276097L163.77165705915178,200.78457751584264L168.88952134225028,204.73124473625157L174.00738562534877,208.4508928537841L179.12524990844727,211.9645969071525L184.24311419154574,215.2910755724928L189.36097847464427,218.44652746766903L194.47884275774274,221.44584549670938L199.59670704084127,224.30192945545846L204.71457132393974,227.02607151660757L209.83243560703824,229.62883102798875L214.95029989013673,232.1193494694209L220.06816417323523,234.50620078783956L225.1860284563337,236.79656298442725L230.30389273943223,238.99762599889925L235.4217570225307,241.11545427264528L240.53962130562917,243.15553991989856L245.6574855887277,245.12290294790864L250.77534987182617,247.02194544933937L255.8932141549247,248.85705916204984L261.01107843802316,250.63208902097045L266.1289427211217,252.35060336420355L271.24680700422016,254.01559269352146L276.3646712873187,255.6304215959928L281.48253557041716,257.1974949597399L286.6003998535156,258.719208186214L291.71826413661415,260.1981569240285L296.8361284197126,261.63661934939205L301.9539927028111,263.036348503944L307.0718569859096,264.39927145408046L312.1897212690081,265.7268533483725L317.30758555210656,267.02108019892785L322.4254498352051,268.2831693554052L327.54331411830356,269.51462349943625L332.6611784014021,270.7167561183128L337.77904268450055,271.89081866751184L342.8969069675991,273.0375362779248L348.01477125069755,274.1584766934475L353.1326355337961,275.25429739407673L358.25049981689455,276.3259849428857L363.368364099993,277.374671868004L368.4862283830915,278.40075451996927L373.60409266619007,279.40534595051884L378.72195694928854,280.38895953632795L383.839821232387,281.352237954531L388.9576855154855,282.2956955233814L394.075549798584,283.22010419693316L399.19341408168253,284.1259271476187L404.311278364781,285.0137254452376L409.4291426478795,285.88380998927516L414.547006930978,286.7364702890007L419.66487121407647,287.5724721250507L424.78273549717494,288.39217199622874L429.90059978027347,289.19604122576254L435.01846406337194,289.98423389561583L440.13632834647046,290.75730581806937L445.25419262956893,291.5156934500693L450.3720569126674,292.2593497570489L455.4899211957659,292.988761366159L460.60778547886446,293.70409154171773L465.7256497619629,294.40536101513203L470.8435140450614,295.0928396491917L475.96137832815987,295.766612134387L481.07924261125834,296.42675502740644L486.1971068943569,297.07370039818176L491.3149711774554,297.7076560038828L496.43283546055386,298.3286821428249L501.55069974365233,298.93678925160293L506.6685640267509,299.53209943294917L511.7864283098494,300.1148146604759L516.9042925929479,300.68479869440483L522.0221568760463,301.2426262219302L527.1400211591449,301.78810146508295L532.2578854422434,302.32101685870055L537.3757497253418,302.84190429474677L542.4936140084403,303.3505938029032L547.6114782915388,303.84657152266595L552.7293425746374,304.330043985624L557.8472068577358,304.8011737243222L562.9650711408343,305.2601354854715L568.0829354239328,305.7068925339281L573.2007997070313,306.1411525334631L578.3186639901298,306.5633192862166L583.4365282732283,306.9731330967788L588.5543925563268,307.37012923916916L593.6722568394252,307.7547496648468L598.7901211225237,308.1264229168644L603.9079854056222,308.4853338401416L609.0258496887208,308.8315289856442L614.1437139718192,309.1647531176112L619.2615782549177,309.4850590337427L624.3794425380162,309.7922853446994L629.4973068211146,310.0859619521567L634.6151711042131,310.36616719064375L639.7330353873117,310.6330252880616L644.8508996704102,310.8863790995998L649.9687639535086,311.1260442399913L655.0866282366071,311.3517427525112L660.2044925197056,311.56375835502917" fill="none"></path></g></g></g></g><g opacity="0.2"><g><g><g><path style="fill: none;" stroke="rgb(0, 119, 187)" stroke-width="2px" d="M56.296507114083425,-33.56895774449964L61.414371397181924,2.959886268625155L66.53223568028042,30.074479168097298L71.6500999633789,51.27327673027821L76.7679642464774,68.58394301848227L81.88582852957589,83.19777169684784L87.00369281267439,95.84275768346322L92.12155709577287,106.98271457226969L97.23942137887137,116.92725901380857L102.35728566196987,125.8926914783498L107.47514994506837,134.037713828341L112.59301422816685,141.48280047031156L117.71087851126535,148.3210745165736L122.82874279436385,154.6297631507998L127.94660707746235,160.47180652768344L133.06447136056084,165.90042704797239L138.18233564365934,170.96022341023757L143.3001999267578,175.69000227427458L148.4180642098563,180.12310004103549L153.5359284929548,184.28931353222066L158.65379277605328,188.213612870551L163.77165705915178,191.91832958330517L168.88952134225028,195.42380016218368L174.00738562534877,198.74752943548566L179.12524990844727,201.90470541600007L184.24311419154574,204.9098082006656L189.36097847464427,207.7745505790059L194.47884275774274,210.51064534054476L199.59670704084127,213.12742410330918L204.71457132393974,215.6342828413127L209.83243560703824,218.03881556094993L214.95029989013673,220.34835884466963L220.06816417323523,222.56954135907043L225.1860284563337,224.70866999081898L230.30389273943223,226.77044272692194L235.4217570225307,228.76013675826374L240.53962130562917,230.68225700389186L245.6574855887277,232.54085789094916L250.77534987182617,234.33954335467368L255.8932141549247,236.08153119438515L261.01107843802316,237.77003920940322L266.1289427211217,239.4084782670068L271.24680700422016,240.99910082671968L276.3646712873187,242.54448112799764L281.48253557041716,244.04642113845966L286.6003998535156,245.5077525215071L291.71826413661415,246.9301485327862L296.8361284197126,248.315411139916L301.9539927028111,249.6654066665019L307.0718569859096,250.981293520299L312.1897212690081,252.2644231770216L317.30758555210656,253.51627582435674L322.4254498352051,254.73858907393702L327.54331411830356,255.93194212964005L332.6611784014021,257.0977508231665L337.77904268450055,258.2369804943122L342.8969069675991,259.35027470294114L348.01477125069755,260.43847007687646L353.1326355337961,261.5027893798596L358.25049981689455,262.54355439182257L363.368364099993,263.56166609657487L368.4862283830915,264.55763934200763L373.60409266619007,265.53224639995767L378.72195694928854,266.4860664743024L383.839821232387,267.41980748089225L388.9576855154855,268.33411297959105L394.075549798584,269.22943346230375L399.19341408168253,270.1059619969893L404.311278364781,270.9645995674574L409.4291426478795,271.8052174617352L414.547006930978,272.62845923968666L419.66487121407647,273.4343892572981L424.78273549717494,274.2236510744335L429.90059978027347,274.99598726714726L435.01846406337194,275.7516552593851L440.13632834647046,276.49162039094267L445.25419262956893,277.21543216991546L450.3720569126674,277.9234123762353L455.4899211957659,278.61646199371177L460.60778547886446,279.2943235983993L465.7256497619629,279.9569328343114L470.8435140450614,280.60383920954337L475.96137832815987,281.235493216L481.07924261125834,281.8517661417085L486.1971068943569,282.45323719054636L491.3149711774554,283.0402281424456L496.43283546055386,283.6128677093789L501.55069974365233,284.17044797549613L506.6685640267509,284.71245409290594L511.7864283098494,285.2397226894316L516.9042925929479,285.75231812105943L522.0221568760463,286.2495968279255L527.1400211591449,286.7320736579209L532.2578854422434,287.19788228744034L537.3757497253418,287.64740885240207L542.4936140084403,288.0802028609014L547.6114782915388,288.4951059051832L552.7293425746374,288.8916674933427L557.8472068577358,289.27040247327113L562.9650711408343,289.63079599707726L568.0829354239328,289.974135184489L573.2007997070313,290.29906855979203L578.3186639901298,290.605853546932L583.4365282732283,290.8941040099905L588.5543925563268,291.16298332114445L593.6722568394252,291.41023902087L598.7901211225237,291.63645031304475L603.9079854056222,291.84013700998156L609.0258496887208,292.0222644514765L614.1437139718192,292.18083760195117L619.2615782549177,292.314118849773L624.3794425380162,292.42127156711894L629.4973068211146,292.5025531779345L634.6151711042131,292.55744883432857L639.7330353873117,292.5849288405188L644.8508996704102,292.58203282113107L649.9687639535086,292.5475380124239L655.0866282366071,292.47970680276467L660.2044925197056,292.3768659365071" fill="none"></path></g><g><path style="fill: none;" stroke="rgb(255, 112, 67)" stroke-width="2px" d="M56.296507114083425,-43.354028051754256L61.414371397181924,1.2484031664644704L66.53223568028042,33.332758403236596L71.6500999633789,57.666336062666915L76.7679642464774,77.04109190248414L81.88582852957589,93.08304427491782L87.00369281267439,106.76429035444858L92.12155709577287,118.6888110733837L97.23942137887137,129.24892052478071L102.35728566196987,138.71066635639215L107.47514994506837,147.26396308406655L112.59301422816685,155.05026516589786L117.71087851126535,162.17653225127282L122.82874279436385,168.73151124542866L127.94660707746235,174.78380562986138L133.06447136056084,180.3932021159309L138.18233564365934,185.60957659309258L143.3001999267578,190.47385946869292L148.4180642098563,195.02311979089492L153.5359284929548,199.28998604480023L158.65379277605328,203.30090854081683L163.77165705915178,207.08085740166553L168.88952134225028,210.65119881482914L174.00738562534877,214.0303385924163L179.12524990844727,217.23513800286227L184.24311419154574,220.28078505895598L189.36097847464427,223.1797004660715L194.47884275774274,225.94481977747398L199.59670704084127,228.5860538150681L204.71457132393974,231.11228370497622L209.83243560703824,233.5329697771983L214.95029989013673,235.85512683425122L220.06816417323523,238.0864775945023L225.1860284563337,240.2321061808766L230.30389273943223,242.29922046385028L235.4217570225307,244.29219665049814L240.53962130562917,246.21566837184056L245.6574855887277,248.0739474789659L250.77534987182617,249.87050919513942L255.8932141549247,251.60972972743593L261.01107843802316,253.29463380721597L266.1289427211217,254.9283748778128L271.24680700422016,256.5130766867774L276.3646712873187,258.0526649492799L281.48253557041716,259.54810500511616L286.6003998535156,261.0017780257827L291.71826413661415,262.4165800306673L296.8361284197126,263.79431298738905L301.9539927028111,265.1359422357437L307.0718569859096,266.4436558792688L312.1897212690081,267.718226189801L317.30758555210656,268.9624204747552L322.4254498352051,270.1763030901179L327.54331411830356,271.3618047154809L332.6611784014021,272.5199550466264L337.77904268450055,273.65191249130964L342.8969069675991,274.7576126935441L348.01477125069755,275.83988731673116L353.1326355337961,276.8980284450205L358.25049981689455,277.93351626609916L363.368364099993,278.9477022556814L368.4862283830915,279.939878497917L373.60409266619007,280.9122330963432L378.72195694928854,281.8643799150417L383.839821232387,282.79715558183557L388.9576855154855,283.7108818766569L394.075549798584,284.6067172072607L399.19341408168253,285.484661573647L404.311278364781,286.3454228916661L409.4291426478795,287.1889368053316L414.547006930978,288.01546073858907L419.66487121407647,288.82647487912567L424.78273549717494,289.6217218029957L429.90059978027347,290.4018450700632L435.01846406337194,291.1665229003961L440.13632834647046,291.91691370174954L445.25419262956893,292.6532748980691L450.3720569126674,293.3748342175181L455.4899211957659,294.08287877982434L460.60778547886446,294.7770868050559L465.7256497619629,295.4572652252536L470.8435140450614,296.1240576002813L475.96137832815987,296.7772708621799L481.07924261125834,297.41696936693575L486.1971068943569,298.0441184543448L491.3149711774554,298.65858941243425L496.43283546055386,299.2602213512381L501.55069974365233,299.84894991476995L506.6685640267509,300.42506470496863L511.7864283098494,300.98888750176604L516.9042925929479,301.53977474529825L522.0221568760463,302.0793675132183L527.1400211591449,302.606314329812L532.2578854422434,303.1203899491269L537.3757497253418,303.623235448816L542.4936140084403,304.1136280651379L547.6114782915388,304.5905381023103L552.7293425746374,305.055252680061L557.8472068577358,305.50786833236964L562.9650711408343,305.94857812719545L568.0829354239328,306.3770281066131L573.2007997070313,306.7925425327657L578.3186639901298,307.1965694153469L583.4365282732283,307.58785381262214L588.5543925563268,307.96562345275464L593.6722568394252,308.33168030336344L598.7901211225237,308.6839327948907L603.9079854056222,309.02370022505755L609.0258496887208,309.350821703898L614.1437139718192,309.6645893155617L619.2615782549177,309.96551790793984L624.3794425380162,310.2531248111344L629.4973068211146,310.52647686334274L634.6151711042131,310.78647504837426L639.7330353873117,311.03331243418825L644.8508996704102,311.2664098169072L649.9687639535086,311.4855419505786L655.0866282366071,311.69029052129093L660.2044925197056,311.88178175880614" fill="none"></path></g></g></g></g></g><g><g opacity="0.425157"><span fill="rgb(0, 0, 0)" stroke="none" stroke-width="1px">Alt + Scroll to Zoom</span></g></g></g><g transform="translate(51, 377)" clip-path="url(#clip_1)"><clipPath id="clip_1"><rect width="716" height="22"></rect></clipPath><g><g><line x1="0" y1="0" x2="0" y2="5" style="visibility: inherit;" fill="rgb(0, 0, 0)" stroke="rgb(204, 204, 204)" stroke-width="1px"></line><line x1="51.178642830984934" y1="0" x2="51.178642830984934" y2="5" style="visibility: inherit;" fill="rgb(0, 0, 0)" stroke="rgb(204, 204, 204)" stroke-width="1px"></line><line x1="102.35728566196987" y1="0" x2="102.35728566196987" y2="5" style="visibility: inherit;" fill="rgb(0, 0, 0)" stroke="rgb(204, 204, 204)" stroke-width="1px"></line><line x1="153.5359284929548" y1="0" x2="153.5359284929548" y2="5" style="visibility: inherit;" fill="rgb(0, 0, 0)" stroke="rgb(204, 204, 204)" stroke-width="1px"></line><line x1="204.71457132393974" y1="0" x2="204.71457132393974" y2="5" style="visibility: inherit;" fill="rgb(0, 0, 0)" stroke="rgb(204, 204, 204)" stroke-width="1px"></line><line x1="255.8932141549247" y1="0" x2="255.8932141549247" y2="5" style="visibility: inherit;" fill="rgb(0, 0, 0)" stroke="rgb(204, 204, 204)" stroke-width="1px"></line><line x1="307.0718569859096" y1="0" x2="307.0718569859096" y2="5" style="visibility: inherit;" fill="rgb(0, 0, 0)" stroke="rgb(204, 204, 204)" stroke-width="1px"></line><line x1="358.25049981689455" y1="0" x2="358.25049981689455" y2="5" style="visibility: inherit;" fill="rgb(0, 0, 0)" stroke="rgb(204, 204, 204)" stroke-width="1px"></line><line x1="409.4291426478795" y1="0" x2="409.4291426478795" y2="5" style="visibility: inherit;" fill="rgb(0, 0, 0)" stroke="rgb(204, 204, 204)" stroke-width="1px"></line><line x1="460.60778547886446" y1="0" x2="460.60778547886446" y2="5" style="visibility: inherit;" fill="rgb(0, 0, 0)" stroke="rgb(204, 204, 204)" stroke-width="1px"></line><line x1="511.7864283098494" y1="0" x2="511.7864283098494" y2="5" style="visibility: inherit;" fill="rgb(0, 0, 0)" stroke="rgb(204, 204, 204)" stroke-width="1px"></line><line x1="562.9650711408343" y1="0" x2="562.9650711408343" y2="5" style="visibility: inherit;" fill="rgb(0, 0, 0)" stroke="rgb(204, 204, 204)" stroke-width="1px"></line><line x1="614.1437139718192" y1="0" x2="614.1437139718192" y2="5" style="visibility: inherit;" fill="rgb(0, 0, 0)" stroke="rgb(204, 204, 204)" stroke-width="1px"></line><line x1="665.3223568028042" y1="0" x2="665.3223568028042" y2="5" style="visibility: inherit;" fill="rgb(0, 0, 0)" stroke="rgb(204, 204, 204)" stroke-width="1px"></line><line x1="716.5009996337891" y1="0" x2="716.5009996337891" y2="5" style="visibility: inherit;" fill="rgb(0, 0, 0)" stroke="rgb(204, 204, 204)" stroke-width="1px"></line></g><g transform="translate(0, 8)"><text style="text-anchor: middle; visibility: hidden; font-family: &quot;Helvetica Neue&quot;, sans-serif; font-size: 12px; font-weight: 200;" x="0" y="0" dx="0em" dy="0.95em" fill="rgb(50, 49, 63)" stroke="none" stroke-width="1px">-10</text><text style="text-anchor: middle; visibility: inherit; font-family: &quot;Helvetica Neue&quot;, sans-serif; font-size: 12px; font-weight: 200;" x="51.178642830984934" y="0" dx="0em" dy="0.95em" fill="rgb(50, 49, 63)" stroke="none" stroke-width="1px">0</text><text style="text-anchor: middle; visibility: inherit; font-family: &quot;Helvetica Neue&quot;, sans-serif; font-size: 12px; font-weight: 200;" x="102.35728566196987" y="0" dx="0em" dy="0.95em" fill="rgb(50, 49, 63)" stroke="none" stroke-width="1px">10</text><text style="text-anchor: middle; visibility: inherit; font-family: &quot;Helvetica Neue&quot;, sans-serif; font-size: 12px; font-weight: 200;" x="153.5359284929548" y="0" dx="0em" dy="0.95em" fill="rgb(50, 49, 63)" stroke="none" stroke-width="1px">20</text><text style="text-anchor: middle; visibility: inherit; font-family: &quot;Helvetica Neue&quot;, sans-serif; font-size: 12px; font-weight: 200;" x="204.71457132393974" y="0" dx="0em" dy="0.95em" fill="rgb(50, 49, 63)" stroke="none" stroke-width="1px">30</text><text style="text-anchor: middle; visibility: inherit; font-family: &quot;Helvetica Neue&quot;, sans-serif; font-size: 12px; font-weight: 200;" x="255.8932141549247" y="0" dx="0em" dy="0.95em" fill="rgb(50, 49, 63)" stroke="none" stroke-width="1px">40</text><text style="text-anchor: middle; visibility: inherit; font-family: &quot;Helvetica Neue&quot;, sans-serif; font-size: 12px; font-weight: 200;" x="307.0718569859096" y="0" dx="0em" dy="0.95em" fill="rgb(50, 49, 63)" stroke="none" stroke-width="1px">50</text><text style="text-anchor: middle; visibility: inherit; font-family: &quot;Helvetica Neue&quot;, sans-serif; font-size: 12px; font-weight: 200;" x="358.25049981689455" y="0" dx="0em" dy="0.95em" fill="rgb(50, 49, 63)" stroke="none" stroke-width="1px">60</text><text style="text-anchor: middle; visibility: inherit; font-family: &quot;Helvetica Neue&quot;, sans-serif; font-size: 12px; font-weight: 200;" x="409.4291426478795" y="0" dx="0em" dy="0.95em" fill="rgb(50, 49, 63)" stroke="none" stroke-width="1px">70</text><text style="text-anchor: middle; visibility: inherit; font-family: &quot;Helvetica Neue&quot;, sans-serif; font-size: 12px; font-weight: 200;" x="460.60778547886446" y="0" dx="0em" dy="0.95em" fill="rgb(50, 49, 63)" stroke="none" stroke-width="1px">80</text><text style="text-anchor: middle; visibility: inherit; font-family: &quot;Helvetica Neue&quot;, sans-serif; font-size: 12px; font-weight: 200;" x="511.7864283098494" y="0" dx="0em" dy="0.95em" fill="rgb(50, 49, 63)" stroke="none" stroke-width="1px">90</text><text style="text-anchor: middle; visibility: inherit; font-family: &quot;Helvetica Neue&quot;, sans-serif; font-size: 12px; font-weight: 200;" x="562.9650711408343" y="0" dx="0em" dy="0.95em" fill="rgb(50, 49, 63)" stroke="none" stroke-width="1px">100</text><text style="text-anchor: middle; visibility: inherit; font-family: &quot;Helvetica Neue&quot;, sans-serif; font-size: 12px; font-weight: 200;" x="614.1437139718192" y="0" dx="0em" dy="0.95em" fill="rgb(50, 49, 63)" stroke="none" stroke-width="1px">110</text><text style="text-anchor: middle; visibility: inherit; font-family: &quot;Helvetica Neue&quot;, sans-serif; font-size: 12px; font-weight: 200;" x="665.3223568028042" y="0" dx="0em" dy="0.95em" fill="rgb(50, 49, 63)" stroke="none" stroke-width="1px">120</text><text style="text-anchor: middle; visibility: hidden; font-family: &quot;Helvetica Neue&quot;, sans-serif; font-size: 12px; font-weight: 200;" x="716.5009996337891" y="0" dx="0em" dy="0.95em" fill="rgb(50, 49, 63)" stroke="none" stroke-width="1px">130</text></g><line x1="0" y1="0" x2="716.5009996337891" y2="0" fill="rgb(0, 0, 0)" stroke="rgb(204, 204, 204)" stroke-width="1px"></line></g></g></g></g></svg>