<svg viewBox="0 0 642.5390625 399.984375" xmlns="http://www.w3.org/2000/svg"><g><g><g><g><g><line x1="58" y1="377.984" x2="53" y2="377.984" style="visibility: inherit;" fill="rgb(0, 0, 0)" stroke="rgb(204, 204, 204)" stroke-width="1px"></line><line x1="58" y1="348.90830769230763" x2="53" y2="348.90830769230763" style="visibility: inherit;" fill="rgb(0, 0, 0)" stroke="rgb(204, 204, 204)" stroke-width="1px"></line><line x1="58" y1="319.83261538461534" x2="53" y2="319.83261538461534" style="visibility: inherit;" fill="rgb(0, 0, 0)" stroke="rgb(204, 204, 204)" stroke-width="1px"></line><line x1="58" y1="290.756923076923" x2="53" y2="290.756923076923" style="visibility: inherit;" fill="rgb(0, 0, 0)" stroke="rgb(204, 204, 204)" stroke-width="1px"></line><line x1="58" y1="261.6812307692308" x2="53" y2="261.6812307692308" style="visibility: inherit;" fill="rgb(0, 0, 0)" stroke="rgb(204, 204, 204)" stroke-width="1px"></line><line x1="58" y1="232.6055384615385" x2="53" y2="232.6055384615385" style="visibility: inherit;" fill="rgb(0, 0, 0)" stroke="rgb(204, 204, 204)" stroke-width="1px"></line><line x1="58" y1="203.52984615384617" x2="53" y2="203.52984615384617" style="visibility: inherit;" fill="rgb(0, 0, 0)" stroke="rgb(204, 204, 204)" stroke-width="1px"></line><line x1="58" y1="174.45415384615384" x2="53" y2="174.45415384615384" style="visibility: inherit;" fill="rgb(0, 0, 0)" stroke="rgb(204, 204, 204)" stroke-width="1px"></line><line x1="58" y1="145.37846153846152" x2="53" y2="145.37846153846152" style="visibility: inherit;" fill="rgb(0, 0, 0)" stroke="rgb(204, 204, 204)" stroke-width="1px"></line><line x1="58" y1="116.30276923076934" x2="53" y2="116.30276923076934" style="visibility: inherit;" fill="rgb(0, 0, 0)" stroke="rgb(204, 204, 204)" stroke-width="1px"></line><line x1="58" y1="87.227076923077" x2="53" y2="87.227076923077" style="visibility: inherit;" fill="rgb(0, 0, 0)" stroke="rgb(204, 204, 204)" stroke-width="1px"></line><line x1="58" y1="58.15138461538464" x2="53" y2="58.15138461538464" style="visibility: inherit;" fill="rgb(0, 0, 0)" stroke="rgb(204, 204, 204)" stroke-width="1px"></line><line x1="58" y1="29.07569230769235" x2="53" y2="29.07569230769235" style="visibility: inherit;" fill="rgb(0, 0, 0)" stroke="rgb(204, 204, 204)" stroke-width="1px"></line><line x1="58" y1="0" x2="53" y2="0" style="visibility: inherit;" fill="rgb(0, 0, 0)" stroke="rgb(204, 204, 204)" stroke-width="1px"></line></g><g transform="translate(48, 0)"><text x="0" y="377.984" dx="0em" dy="0.3em" style="text-anchor: end; visibility: hidden; font-family: &quot;Helvetica Neue&quot;, sans-serif; font-size: 12px; font-weight: 200;" fill="rgb(50, 49, 63)" stroke="none" stroke-width="1px">0.95</text><text x="0" y="348.90830769230763" dx="0em" dy="0.3em" style="text-anchor: end; visibility: inherit; font-family: &quot;Helvetica Neue&quot;, sans-serif; font-size: 12px; font-weight: 200;" fill="rgb(50, 49, 63)" stroke="none" stroke-width="1px">1</text><text x="0" y="319.83261538461534" dx="0em" dy="0.3em" style="text-anchor: end; visibility: inherit; font-family: &quot;Helvetica Neue&quot;, sans-serif; font-size: 12px; font-weight: 200;" fill="rgb(50, 49, 63)" stroke="none" stroke-width="1px">1.05</text><text x="0" y="290.756923076923" dx="0em" dy="0.3em" style="text-anchor: end; visibility: inherit; font-family: &quot;Helvetica Neue&quot;, sans-serif; font-size: 12px; font-weight: 200;" fill="rgb(50, 49, 63)" stroke="none" stroke-width="1px">1.1</text><text x="0" y="261.6812307692308" dx="0em" dy="0.3em" style="text-anchor: end; visibility: inherit; font-family: &quot;Helvetica Neue&quot;, sans-serif; font-size: 12px; font-weight: 200;" fill="rgb(50, 49, 63)" stroke="none" stroke-width="1px">1.15</text><text x="0" y="232.6055384615385" dx="0em" dy="0.3em" style="text-anchor: end; visibility: inherit; font-family: &quot;Helvetica Neue&quot;, sans-serif; font-size: 12px; font-weight: 200;" fill="rgb(50, 49, 63)" stroke="none" stroke-width="1px">1.2</text><text x="0" y="203.52984615384617" dx="0em" dy="0.3em" style="text-anchor: end; visibility: inherit; font-family: &quot;Helvetica Neue&quot;, sans-serif; font-size: 12px; font-weight: 200;" fill="rgb(50, 49, 63)" stroke="none" stroke-width="1px">1.25</text><text x="0" y="174.45415384615384" dx="0em" dy="0.3em" style="text-anchor: end; visibility: inherit; font-family: &quot;Helvetica Neue&quot;, sans-serif; font-size: 12px; font-weight: 200;" fill="rgb(50, 49, 63)" stroke="none" stroke-width="1px">1.3</text><text x="0" y="145.37846153846152" dx="0em" dy="0.3em" style="text-anchor: end; visibility: inherit; font-family: &quot;Helvetica Neue&quot;, sans-serif; font-size: 12px; font-weight: 200;" fill="rgb(50, 49, 63)" stroke="none" stroke-width="1px">1.35</text><text x="0" y="116.30276923076934" dx="0em" dy="0.3em" style="text-anchor: end; visibility: inherit; font-family: &quot;Helvetica Neue&quot;, sans-serif; font-size: 12px; font-weight: 200;" fill="rgb(50, 49, 63)" stroke="none" stroke-width="1px">1.4</text><text x="0" y="87.227076923077" dx="0em" dy="0.3em" style="text-anchor: end; visibility: inherit; font-family: &quot;Helvetica Neue&quot;, sans-serif; font-size: 12px; font-weight: 200;" fill="rgb(50, 49, 63)" stroke="none" stroke-width="1px">1.45</text><text x="0" y="58.15138461538464" dx="0em" dy="0.3em" style="text-anchor: end; visibility: inherit; font-family: &quot;Helvetica Neue&quot;, sans-serif; font-size: 12px; font-weight: 200;" fill="rgb(50, 49, 63)" stroke="none" stroke-width="1px">1.5</text><text x="0" y="29.07569230769235" dx="0em" dy="0.3em" style="text-anchor: end; visibility: inherit; font-family: &quot;Helvetica Neue&quot;, sans-serif; font-size: 12px; font-weight: 200;" fill="rgb(50, 49, 63)" stroke="none" stroke-width="1px">1.55</text><text x="0" y="0" dx="0em" dy="0.3em" style="text-anchor: end; visibility: hidden; font-family: &quot;Helvetica Neue&quot;, sans-serif; font-size: 12px; font-weight: 200;" fill="rgb(50, 49, 63)" stroke="none" stroke-width="1px">1.6</text></g><line x1="58" y1="0" x2="58" y2="377.984" fill="rgb(0, 0, 0)" stroke="rgb(204, 204, 204)" stroke-width="1px"></line></g></g><g transform="translate(58, 0)" clip-path="url(#clip_0)"><clipPath id="clip_0"><rect width="584" height="377"></rect></clipPath><g><g><g><line x1="0" y1="0" x2="0" y2="377.984" fill="rgb(0, 0, 0)" stroke="rgb(60, 60, 60)" stroke-width="1px" opacity="0.25"></line><line x1="41.752785714285714" y1="0" x2="41.752785714285714" y2="377.984" fill="rgb(0, 0, 0)" stroke="rgb(60, 60, 60)" stroke-width="1px" opacity="0.25"></line><line x1="83.50557142857143" y1="0" x2="83.50557142857143" y2="377.984" fill="rgb(0, 0, 0)" stroke="rgb(60, 60, 60)" stroke-width="1px" opacity="0.25"></line><line x1="125.25835714285714" y1="0" x2="125.25835714285714" y2="377.984" fill="rgb(0, 0, 0)" stroke="rgb(60, 60, 60)" stroke-width="1px" opacity="0.25"></line><line x1="167.01114285714286" y1="0" x2="167.01114285714286" y2="377.984" fill="rgb(0, 0, 0)" stroke="rgb(60, 60, 60)" stroke-width="1px" opacity="0.25"></line><line x1="208.76392857142858" y1="0" x2="208.76392857142858" y2="377.984" fill="rgb(0, 0, 0)" stroke="rgb(60, 60, 60)" stroke-width="1px" opacity="0.25"></line><line x1="250.51671428571427" y1="0" x2="250.51671428571427" y2="377.984" fill="rgb(0, 0, 0)" stroke="rgb(60, 60, 60)" stroke-width="1px" opacity="0.25"></line><line x1="292.2695" y1="0" x2="292.2695" y2="377.984" fill="rgb(0, 0, 0)" stroke="rgb(60, 60, 60)" stroke-width="1px" opacity="0.25"></line><line x1="334.0222857142857" y1="0" x2="334.0222857142857" y2="377.984" fill="rgb(0, 0, 0)" stroke="rgb(60, 60, 60)" stroke-width="1px" opacity="0.25"></line><line x1="375.77507142857144" y1="0" x2="375.77507142857144" y2="377.984" fill="rgb(0, 0, 0)" stroke="rgb(60, 60, 60)" stroke-width="1px" opacity="0.25"></line><line x1="417.52785714285716" y1="0" x2="417.52785714285716" y2="377.984" fill="rgb(0, 0, 0)" stroke="rgb(60, 60, 60)" stroke-width="1px" opacity="0.25"></line><line x1="459.2806428571428" y1="0" x2="459.2806428571428" y2="377.984" fill="rgb(0, 0, 0)" stroke="rgb(60, 60, 60)" stroke-width="1px" opacity="0.25"></line><line x1="501.03342857142854" y1="0" x2="501.03342857142854" y2="377.984" fill="rgb(0, 0, 0)" stroke="rgb(60, 60, 60)" stroke-width="1px" opacity="0.25"></line><line x1="542.7862142857143" y1="0" x2="542.7862142857143" y2="377.984" fill="rgb(0, 0, 0)" stroke="rgb(60, 60, 60)" stroke-width="1px" opacity="0.25"></line><line x1="584.539" y1="0" x2="584.539" y2="377.984" fill="rgb(0, 0, 0)" stroke="rgb(60, 60, 60)" stroke-width="1px" opacity="0.25"></line></g><g><line x1="0" y1="377.984" x2="584.539" y2="377.984" fill="rgb(0, 0, 0)" stroke="rgb(60, 60, 60)" stroke-width="1px" opacity="0.25"></line><line x1="0" y1="348.90830769230763" x2="584.539" y2="348.90830769230763" fill="rgb(0, 0, 0)" stroke="rgb(60, 60, 60)" stroke-width="1px" opacity="0.25"></line><line x1="0" y1="319.83261538461534" x2="584.539" y2="319.83261538461534" fill="rgb(0, 0, 0)" stroke="rgb(60, 60, 60)" stroke-width="1px" opacity="0.25"></line><line x1="0" y1="290.756923076923" x2="584.539" y2="290.756923076923" fill="rgb(0, 0, 0)" stroke="rgb(60, 60, 60)" stroke-width="1px" opacity="0.25"></line><line x1="0" y1="261.6812307692308" x2="584.539" y2="261.6812307692308" fill="rgb(0, 0, 0)" stroke="rgb(60, 60, 60)" stroke-width="1px" opacity="0.25"></line><line x1="0" y1="232.6055384615385" x2="584.539" y2="232.6055384615385" fill="rgb(0, 0, 0)" stroke="rgb(60, 60, 60)" stroke-width="1px" opacity="0.25"></line><line x1="0" y1="203.52984615384617" x2="584.539" y2="203.52984615384617" fill="rgb(0, 0, 0)" stroke="rgb(60, 60, 60)" stroke-width="1px" opacity="0.25"></line><line x1="0" y1="174.45415384615384" x2="584.539" y2="174.45415384615384" fill="rgb(0, 0, 0)" stroke="rgb(60, 60, 60)" stroke-width="1px" opacity="0.25"></line><line x1="0" y1="145.37846153846152" x2="584.539" y2="145.37846153846152" fill="rgb(0, 0, 0)" stroke="rgb(60, 60, 60)" stroke-width="1px" opacity="0.25"></line><line x1="0" y1="116.30276923076934" x2="584.539" y2="116.30276923076934" fill="rgb(0, 0, 0)" stroke="rgb(60, 60, 60)" stroke-width="1px" opacity="0.25"></line><line x1="0" y1="87.227076923077" x2="584.539" y2="87.227076923077" fill="rgb(0, 0, 0)" stroke="rgb(60, 60, 60)" stroke-width="1px" opacity="0.25"></line><line x1="0" y1="58.15138461538464" x2="584.539" y2="58.15138461538464" fill="rgb(0, 0, 0)" stroke="rgb(60, 60, 60)" stroke-width="1px" opacity="0.25"></line><line x1="0" y1="29.07569230769235" x2="584.539" y2="29.07569230769235" fill="rgb(0, 0, 0)" stroke="rgb(60, 60, 60)" stroke-width="1px" opacity="0.25"></line><line x1="0" y1="0" x2="584.539" y2="0" fill="rgb(0, 0, 0)" stroke="rgb(60, 60, 60)" stroke-width="1px" opacity="0.25"></line></g></g></g><g><g><line x1="0" y1="930.4221538461536" x2="584.539" y2="930.4221538461536" fill="rgb(0, 0, 0)" stroke="rgb(153, 153, 153)" stroke-width="1.5px"></line></g></g><g><g><line x1="41.752785714285714" y1="0" x2="41.752785714285714" y2="377.984" fill="rgb(0, 0, 0)" stroke="rgb(153, 153, 153)" stroke-width="1.5px"></line></g></g><g><g><g><g><g><path stroke="rgb(238, 51, 119)" stroke-width="2px" d="M41.752785714285714,48.38927338585489L50.103342857142856,57.08782275918816L58.453900000000004,66.16379955613922L66.80445714285715,75.45318849743114L75.15501428571427,84.80635954763716L83.50557142857143,94.09703907574038L91.85612857142857,103.23006730669061L100.20668571428571,112.13879338179271L108.55724285714285,120.78471891284067L116.90780000000001,129.14741842175823L125.25835714285714,137.22015262047228L133.6089142857143,145.00517273923455L141.95947142857142,152.51062707919053L150.31002857142855,159.74578941517908L158.6605857142857,166.7181989120894L167.01114285714286,173.43697013877468L175.36169999999998,179.9112504442392L183.71225714285714,186.1486667385725L192.06281428571427,192.1572300968198L200.41337142857142,197.9433562899741L208.76392857142858,203.5117068156626L217.1144857142857,208.86804583180555L225.46504285714286,214.0180896661791L233.81560000000002,218.9672831008581L242.16615714285714,223.72152191173336L250.51671428571427,228.28497824253537L258.8672714285714,232.66187278603286L267.2178285714286,236.85992220815135L275.5683857142857,240.88639014312974L283.91894285714284,244.7478249992608L292.2695,248.45195446211736L300.6200571428571,252.00679793577427L308.9706142857143,255.42007851505033L317.3211714285714,258.6988978771759L325.67172857142856,261.8477111080351L334.0222857142857,264.87093815746715L342.37284285714287,267.77522392695215L350.72339999999997,270.5660249765101L359.0739571428572,273.24730845830095L367.4245142857143,275.82317384419906L375.77507142857144,278.30046195762L384.12562857142854,280.68444189927686L392.4761857142857,282.9790515340838L400.82674285714285,285.18756862929143L409.17729999999995,287.31445543185237L417.52785714285716,289.3644966742033L425.87841428571426,291.342226920236L434.2289714285714,293.25208609021035L442.57952857142857,295.09640539138064L450.9300857142857,296.8780809001071L459.2806428571428,298.59848978857013L467.63120000000004,300.2615639790664L475.98175714285713,301.86988445490067L484.3323142857143,303.4257207533208L492.68287142857145,304.9309059852716L501.03342857142854,306.38667866102526L509.3839857142857,307.79453056275133L517.7345428571429,309.1569372979876L526.0851,310.47571697614836L534.4356571428572,311.75229320777436" style="fill: none;" fill="none"></path></g><g><path stroke="rgb(51, 187, 238)" stroke-width="2px" d="M41.752785714285714,45.589363764836264L50.103342857142856,54.94833376136194L58.453900000000004,64.65670004162268L66.80445714285715,74.54824650836105L75.15501428571427,84.46806145106393L83.50557142857143,94.28676711293605L91.85612857142857,103.90730119148344L100.20668571428571,113.2643496736855L108.55724285714285,122.32154225481491L116.90780000000001,131.063328942311L125.25835714285714,139.4859687839463L133.6089142857143,147.5959157999072L141.95947142857142,155.40162991757413L150.31002857142855,162.91526667221245L158.6605857142857,170.14736187759777L167.01114285714286,177.10984674975134L175.36169999999998,183.81254086804947L183.71225714285714,190.26471225875557L192.06281428571427,196.47263320068294L200.41337142857142,202.44344790359452L208.76392857142858,208.1825580665895L217.1144857142857,213.6969195960248L225.46504285714286,218.99207594059988L233.81560000000002,224.07544750212418L242.16615714285714,228.95198011366935L250.51671428571427,233.62616318017578L258.8672714285714,238.1049032826928L267.2178285714286,242.39525482627596L275.5683857142857,246.50458319029815L283.91894285714284,250.44179930660488L292.2695,254.2121663445975L300.6200571428571,257.8225022838466L308.9706142857143,261.2811958000406L317.3211714285714,264.59616384904075L325.67172857142856,267.7744580677123L334.0222857142857,270.82272182594477L342.37284285714287,273.7469098789881L350.72339999999997,276.5533402211669L359.0739571428572,279.24655232266986L367.4245142857143,281.8310167749113L375.77507142857144,284.3138248017638L384.12562857142854,286.7009503190308L392.4761857142857,288.99789095905896L400.82674285714285,291.2080284873267L409.17729999999995,293.33597073594655L417.52785714285716,295.38536972384713L425.87841428571426,297.3595258119963L434.2289714285714,299.26216612764006L442.57952857142857,301.0972738577986L450.9300857142857,302.8673498296424L459.2806428571428,304.57494823162796L467.63120000000004,306.22326530128623L475.98175714285713,307.8147178984727L484.3323142857143,309.35119979895615L492.68287142857145,310.8356219076197L501.03342857142854,312.2679561279707L509.3839857142857,313.65162396599555L517.7345428571429,314.98729188823626L526.0851,316.27782763256613L534.4356571428572,317.52467455429945" style="fill: none;" fill="none"></path></g></g></g></g><g opacity="0.2"><g><g><g><path stroke="rgb(238, 51, 119)" stroke-width="2px" d="M41.752785714285714,48.38927338585489L50.103342857142856,62.306952383188104L58.453900000000004,74.87673728121251L66.80445714285715,86.37750989239038L75.15501428571427,97.01785967078575L83.50557142857143,106.9493935077374L91.85612857142857,116.29044380540114L100.20668571428571,125.12780152306192L108.55724285714285,133.53577968656103L116.90780000000001,141.5650525700496L125.25835714285714,149.25603481351413L133.6089142857143,156.6403371816782L141.95947142857142,163.74430197847806L150.31002857142855,170.58435848294775L158.6605857142857,177.16861735182542L167.01114285714286,183.51038838078426L175.36169999999998,189.61993120398887L183.71225714285714,195.50320750075122L192.06281428571427,201.16915979003906L200.41337142857142,206.62201670485277L208.76392857142858,211.86392722261868L217.1144857142857,216.90237810340295L225.46504285714286,221.74305373910755L233.81560000000002,226.39101462496245L242.16615714285714,230.85284633695161L250.51671428571427,235.13014327768178L258.8672714285714,239.2272034020057L267.2178285714286,243.15698989633412L275.5683857142857,246.92608833665113L283.91894285714284,250.53997514930137L292.2695,254.0081474280724L300.6200571428571,257.33906243896485L308.9706142857143,260.53999897648737L317.3211714285714,263.6171266855093L325.67172857142856,266.5709308189979L334.0222857142857,269.40577865365833L342.37284285714287,272.1316525362455L350.72339999999997,274.7522265249399L359.0739571428572,277.2692336660532L367.4245142857143,279.68697191443806L375.77507142857144,282.01639412278394L384.12562857142854,284.2604118088942L392.4761857142857,286.4209659846379L400.82674285714285,288.50034427114633L409.17729999999995,290.5047856351412L417.52785714285716,292.4395585374098L425.87841428571426,294.3088222891L434.2289714285714,296.11687484506456L442.57952857142857,297.8628843430739L450.9300857142857,299.550594163161L459.2806428571428,301.179103121244L467.63120000000004,302.7561752647987L475.98175714285713,304.2823651686448L484.3323142857143,305.7594752009465L492.68287142857145,307.18868383319557L501.03342857142854,308.5703376746544L509.3839857142857,309.9063084153395L517.7345428571429,311.2005474008413L526.0851,312.4538864933894L534.4356571428572,313.6671575552133" style="fill: none;" fill="none"></path></g><g><path stroke="rgb(51, 187, 238)" stroke-width="2px" d="M41.752785714285714,45.589363764836264L50.103342857142856,60.563715759277386L58.453900000000004,73.97673167067308L66.80445714285715,86.18070515324519L75.15501428571427,97.41937184025693L83.50557142857143,107.86957177734377L91.85612857142857,117.66481885235129L100.20668571428571,126.90701618840146L108.55724285714285,135.67914204289363L116.90780000000001,144.04386337045526L125.25835714285714,152.04353582294172L133.6089142857143,159.71670235032303L141.95947142857142,167.08471408315805L150.31002857142855,174.17100180757961L158.6605857142857,180.98700362924427L167.01114285714286,187.54866357421875L175.36169999999998,193.86374568997897L183.71225714285714,199.94133113919773L192.06281428571427,205.78356889930137L200.41337142857142,211.39912420184797L208.76392857142858,216.79090856464092L217.1144857142857,221.96828043776293L225.46504285714286,226.93470591383712L233.81560000000002,231.70044462702825L242.16615714285714,236.26674437068058L250.51671428571427,240.63741784667968L258.8672714285714,244.82300197660007L267.2178285714286,248.8307755549504L275.5683857142857,252.6685719510592L283.91894285714284,256.34762130502554L292.2695,259.8677156512921L300.6200571428571,263.238005474384L308.9706142857143,266.4692356614333L317.3211714285714,269.5686156850961L325.67172857142856,272.5418992591271L334.0222857142857,275.3951173846905L342.37284285714287,278.1331919133113L350.72339999999997,280.7629857083834L359.0739571428572,283.2863704599233L367.4245142857143,285.7077134446364L375.77507142857144,288.0380368370643L384.12562857142854,290.2816385920598L392.4761857142857,292.4433019174429L400.82674285714285,294.523234778771L409.17729999999995,296.5278841083233L417.52785714285716,298.4594682053786L425.87841428571426,300.32075994403544L434.2289714285714,302.11612660099905L442.57952857142857,303.8499354529747L450.9300857142857,305.52246378737226L459.2806428571428,307.1363458345853L467.63120000000004,308.6957409057617L475.98175714285713,310.2018967942458L484.3323142857143,311.65592264967694L492.68287142857145,313.06225507061293L501.03342857142854,314.4164574584961L509.3839857142857,315.7271257230318L517.7345428571429,316.990793771597L526.0851,318.213631249061L534.4356571428572,319.39494493689904" style="fill: none;" fill="none"></path></g></g></g></g></g></g><g transform="translate(58, 377)" clip-path="url(#clip_1)"><clipPath id="clip_1"><rect width="584" height="21"></rect></clipPath><g><g><line x1="0" y1="0" x2="0" y2="5" style="visibility: inherit;" fill="rgb(0, 0, 0)" stroke="rgb(204, 204, 204)" stroke-width="1px"></line><line x1="41.752785714285714" y1="0" x2="41.752785714285714" y2="5" style="visibility: inherit;" fill="rgb(0, 0, 0)" stroke="rgb(204, 204, 204)" stroke-width="1px"></line><line x1="83.50557142857143" y1="0" x2="83.50557142857143" y2="5" style="visibility: inherit;" fill="rgb(0, 0, 0)" stroke="rgb(204, 204, 204)" stroke-width="1px"></line><line x1="125.25835714285714" y1="0" x2="125.25835714285714" y2="5" style="visibility: inherit;" fill="rgb(0, 0, 0)" stroke="rgb(204, 204, 204)" stroke-width="1px"></line><line x1="167.01114285714286" y1="0" x2="167.01114285714286" y2="5" style="visibility: inherit;" fill="rgb(0, 0, 0)" stroke="rgb(204, 204, 204)" stroke-width="1px"></line><line x1="208.76392857142858" y1="0" x2="208.76392857142858" y2="5" style="visibility: inherit;" fill="rgb(0, 0, 0)" stroke="rgb(204, 204, 204)" stroke-width="1px"></line><line x1="250.51671428571427" y1="0" x2="250.51671428571427" y2="5" style="visibility: inherit;" fill="rgb(0, 0, 0)" stroke="rgb(204, 204, 204)" stroke-width="1px"></line><line x1="292.2695" y1="0" x2="292.2695" y2="5" style="visibility: inherit;" fill="rgb(0, 0, 0)" stroke="rgb(204, 204, 204)" stroke-width="1px"></line><line x1="334.0222857142857" y1="0" x2="334.0222857142857" y2="5" style="visibility: inherit;" fill="rgb(0, 0, 0)" stroke="rgb(204, 204, 204)" stroke-width="1px"></line><line x1="375.77507142857144" y1="0" x2="375.77507142857144" y2="5" style="visibility: inherit;" fill="rgb(0, 0, 0)" stroke="rgb(204, 204, 204)" stroke-width="1px"></line><line x1="417.52785714285716" y1="0" x2="417.52785714285716" y2="5" style="visibility: inherit;" fill="rgb(0, 0, 0)" stroke="rgb(204, 204, 204)" stroke-width="1px"></line><line x1="459.2806428571428" y1="0" x2="459.2806428571428" y2="5" style="visibility: inherit;" fill="rgb(0, 0, 0)" stroke="rgb(204, 204, 204)" stroke-width="1px"></line><line x1="501.03342857142854" y1="0" x2="501.03342857142854" y2="5" style="visibility: inherit;" fill="rgb(0, 0, 0)" stroke="rgb(204, 204, 204)" stroke-width="1px"></line><line x1="542.7862142857143" y1="0" x2="542.7862142857143" y2="5" style="visibility: inherit;" fill="rgb(0, 0, 0)" stroke="rgb(204, 204, 204)" stroke-width="1px"></line><line x1="584.539" y1="0" x2="584.539" y2="5" style="visibility: inherit;" fill="rgb(0, 0, 0)" stroke="rgb(204, 204, 204)" stroke-width="1px"></line></g><g transform="translate(0, 8)"><text x="0" y="0" dx="0em" dy="0.95em" style="text-anchor: middle; visibility: hidden; font-family: &quot;Helvetica Neue&quot;, sans-serif; font-size: 12px; font-weight: 200;" fill="rgb(50, 49, 63)" stroke="none" stroke-width="1px">-5</text><text x="41.752785714285714" y="0" dx="0em" dy="0.95em" style="text-anchor: middle; visibility: inherit; font-family: &quot;Helvetica Neue&quot;, sans-serif; font-size: 12px; font-weight: 200;" fill="rgb(50, 49, 63)" stroke="none" stroke-width="1px">0</text><text x="83.50557142857143" y="0" dx="0em" dy="0.95em" style="text-anchor: middle; visibility: inherit; font-family: &quot;Helvetica Neue&quot;, sans-serif; font-size: 12px; font-weight: 200;" fill="rgb(50, 49, 63)" stroke="none" stroke-width="1px">5</text><text x="125.25835714285714" y="0" dx="0em" dy="0.95em" style="text-anchor: middle; visibility: inherit; font-family: &quot;Helvetica Neue&quot;, sans-serif; font-size: 12px; font-weight: 200;" fill="rgb(50, 49, 63)" stroke="none" stroke-width="1px">10</text><text x="167.01114285714286" y="0" dx="0em" dy="0.95em" style="text-anchor: middle; visibility: inherit; font-family: &quot;Helvetica Neue&quot;, sans-serif; font-size: 12px; font-weight: 200;" fill="rgb(50, 49, 63)" stroke="none" stroke-width="1px">15</text><text x="208.76392857142858" y="0" dx="0em" dy="0.95em" style="text-anchor: middle; visibility: inherit; font-family: &quot;Helvetica Neue&quot;, sans-serif; font-size: 12px; font-weight: 200;" fill="rgb(50, 49, 63)" stroke="none" stroke-width="1px">20</text><text x="250.51671428571427" y="0" dx="0em" dy="0.95em" style="text-anchor: middle; visibility: inherit; font-family: &quot;Helvetica Neue&quot;, sans-serif; font-size: 12px; font-weight: 200;" fill="rgb(50, 49, 63)" stroke="none" stroke-width="1px">25</text><text x="292.2695" y="0" dx="0em" dy="0.95em" style="text-anchor: middle; visibility: inherit; font-family: &quot;Helvetica Neue&quot;, sans-serif; font-size: 12px; font-weight: 200;" fill="rgb(50, 49, 63)" stroke="none" stroke-width="1px">30</text><text x="334.0222857142857" y="0" dx="0em" dy="0.95em" style="text-anchor: middle; visibility: inherit; font-family: &quot;Helvetica Neue&quot;, sans-serif; font-size: 12px; font-weight: 200;" fill="rgb(50, 49, 63)" stroke="none" stroke-width="1px">35</text><text x="375.77507142857144" y="0" dx="0em" dy="0.95em" style="text-anchor: middle; visibility: inherit; font-family: &quot;Helvetica Neue&quot;, sans-serif; font-size: 12px; font-weight: 200;" fill="rgb(50, 49, 63)" stroke="none" stroke-width="1px">40</text><text x="417.52785714285716" y="0" dx="0em" dy="0.95em" style="text-anchor: middle; visibility: inherit; font-family: &quot;Helvetica Neue&quot;, sans-serif; font-size: 12px; font-weight: 200;" fill="rgb(50, 49, 63)" stroke="none" stroke-width="1px">45</text><text x="459.2806428571428" y="0" dx="0em" dy="0.95em" style="text-anchor: middle; visibility: inherit; font-family: &quot;Helvetica Neue&quot;, sans-serif; font-size: 12px; font-weight: 200;" fill="rgb(50, 49, 63)" stroke="none" stroke-width="1px">50</text><text x="501.03342857142854" y="0" dx="0em" dy="0.95em" style="text-anchor: middle; visibility: inherit; font-family: &quot;Helvetica Neue&quot;, sans-serif; font-size: 12px; font-weight: 200;" fill="rgb(50, 49, 63)" stroke="none" stroke-width="1px">55</text><text x="542.7862142857143" y="0" dx="0em" dy="0.95em" style="text-anchor: middle; visibility: inherit; font-family: &quot;Helvetica Neue&quot;, sans-serif; font-size: 12px; font-weight: 200;" fill="rgb(50, 49, 63)" stroke="none" stroke-width="1px">60</text><text x="584.539" y="0" dx="0em" dy="0.95em" style="text-anchor: middle; visibility: hidden; font-family: &quot;Helvetica Neue&quot;, sans-serif; font-size: 12px; font-weight: 200;" fill="rgb(50, 49, 63)" stroke="none" stroke-width="1px">65</text></g><line x1="0" y1="0" x2="584.539" y2="0" fill="rgb(0, 0, 0)" stroke="rgb(204, 204, 204)" stroke-width="1px"></line></g></g></g></g></svg>