<svg viewBox="0 0 767.9166870117188 400" xmlns="http://www.w3.org/2000/svg"><g><g><g><g><g><line x1="51.41600036621094" y1="377.8999996185303" x2="46.41600036621094" y2="377.8999996185303" style="visibility: inherit;" fill="rgb(0, 0, 0)" stroke="rgb(204, 204, 204)" stroke-width="1px"></line><line x1="51.41600036621094" y1="348.83076887864337" x2="46.41600036621094" y2="348.83076887864337" style="visibility: inherit;" fill="rgb(0, 0, 0)" stroke="rgb(204, 204, 204)" stroke-width="1px"></line><line x1="51.41600036621094" y1="319.7615381387564" x2="46.41600036621094" y2="319.7615381387564" style="visibility: inherit;" fill="rgb(0, 0, 0)" stroke="rgb(204, 204, 204)" stroke-width="1px"></line><line x1="51.41600036621094" y1="290.69230739886945" x2="46.41600036621094" y2="290.69230739886945" style="visibility: inherit;" fill="rgb(0, 0, 0)" stroke="rgb(204, 204, 204)" stroke-width="1px"></line><line x1="51.41600036621094" y1="261.6230766589825" x2="46.41600036621094" y2="261.6230766589825" style="visibility: inherit;" fill="rgb(0, 0, 0)" stroke="rgb(204, 204, 204)" stroke-width="1px"></line><line x1="51.41600036621094" y1="232.55384591909558" x2="46.41600036621094" y2="232.55384591909558" style="visibility: inherit;" fill="rgb(0, 0, 0)" stroke="rgb(204, 204, 204)" stroke-width="1px"></line><line x1="51.41600036621094" y1="203.48461517920862" x2="46.41600036621094" y2="203.48461517920862" style="visibility: inherit;" fill="rgb(0, 0, 0)" stroke="rgb(204, 204, 204)" stroke-width="1px"></line><line x1="51.41600036621094" y1="174.41538443932163" x2="46.41600036621094" y2="174.41538443932163" style="visibility: inherit;" fill="rgb(0, 0, 0)" stroke="rgb(204, 204, 204)" stroke-width="1px"></line><line x1="51.41600036621094" y1="145.34615369943475" x2="46.41600036621094" y2="145.34615369943475" style="visibility: inherit;" fill="rgb(0, 0, 0)" stroke="rgb(204, 204, 204)" stroke-width="1px"></line><line x1="51.41600036621094" y1="116.27692295954779" x2="46.41600036621094" y2="116.27692295954779" style="visibility: inherit;" fill="rgb(0, 0, 0)" stroke="rgb(204, 204, 204)" stroke-width="1px"></line><line x1="51.41600036621094" y1="87.20769221966083" x2="46.41600036621094" y2="87.20769221966083" style="visibility: inherit;" fill="rgb(0, 0, 0)" stroke="rgb(204, 204, 204)" stroke-width="1px"></line><line x1="51.41600036621094" y1="58.13846147977392" x2="46.41600036621094" y2="58.13846147977392" style="visibility: inherit;" fill="rgb(0, 0, 0)" stroke="rgb(204, 204, 204)" stroke-width="1px"></line><line x1="51.41600036621094" y1="29.06923073988696" x2="46.41600036621094" y2="29.06923073988696" style="visibility: inherit;" fill="rgb(0, 0, 0)" stroke="rgb(204, 204, 204)" stroke-width="1px"></line><line x1="51.41600036621094" y1="0" x2="46.41600036621094" y2="0" style="visibility: inherit;" fill="rgb(0, 0, 0)" stroke="rgb(204, 204, 204)" stroke-width="1px"></line></g><g transform="translate(41.41600036621094, 0)"><text style="text-anchor: end; visibility: hidden; font-family: &quot;Helvetica Neue&quot;, sans-serif; font-size: 12px; font-weight: 200;" x="0" y="377.8999996185303" dx="0em" dy="0.3em" fill="rgb(50, 49, 63)" stroke="none" stroke-width="1px">0.2</text><text style="text-anchor: end; visibility: inherit; font-family: &quot;Helvetica Neue&quot;, sans-serif; font-size: 12px; font-weight: 200;" x="0" y="348.83076887864337" dx="0em" dy="0.3em" fill="rgb(50, 49, 63)" stroke="none" stroke-width="1px">0.22</text><text style="text-anchor: end; visibility: inherit; font-family: &quot;Helvetica Neue&quot;, sans-serif; font-size: 12px; font-weight: 200;" x="0" y="319.7615381387564" dx="0em" dy="0.3em" fill="rgb(50, 49, 63)" stroke="none" stroke-width="1px">0.24</text><text style="text-anchor: end; visibility: inherit; font-family: &quot;Helvetica Neue&quot;, sans-serif; font-size: 12px; font-weight: 200;" x="0" y="290.69230739886945" dx="0em" dy="0.3em" fill="rgb(50, 49, 63)" stroke="none" stroke-width="1px">0.26</text><text style="text-anchor: end; visibility: inherit; font-family: &quot;Helvetica Neue&quot;, sans-serif; font-size: 12px; font-weight: 200;" x="0" y="261.6230766589825" dx="0em" dy="0.3em" fill="rgb(50, 49, 63)" stroke="none" stroke-width="1px">0.28</text><text style="text-anchor: end; visibility: inherit; font-family: &quot;Helvetica Neue&quot;, sans-serif; font-size: 12px; font-weight: 200;" x="0" y="232.55384591909558" dx="0em" dy="0.3em" fill="rgb(50, 49, 63)" stroke="none" stroke-width="1px">0.3</text><text style="text-anchor: end; visibility: inherit; font-family: &quot;Helvetica Neue&quot;, sans-serif; font-size: 12px; font-weight: 200;" x="0" y="203.48461517920862" dx="0em" dy="0.3em" fill="rgb(50, 49, 63)" stroke="none" stroke-width="1px">0.32</text><text style="text-anchor: end; visibility: inherit; font-family: &quot;Helvetica Neue&quot;, sans-serif; font-size: 12px; font-weight: 200;" x="0" y="174.41538443932163" dx="0em" dy="0.3em" fill="rgb(50, 49, 63)" stroke="none" stroke-width="1px">0.34</text><text style="text-anchor: end; visibility: inherit; font-family: &quot;Helvetica Neue&quot;, sans-serif; font-size: 12px; font-weight: 200;" x="0" y="145.34615369943475" dx="0em" dy="0.3em" fill="rgb(50, 49, 63)" stroke="none" stroke-width="1px">0.36</text><text style="text-anchor: end; visibility: inherit; font-family: &quot;Helvetica Neue&quot;, sans-serif; font-size: 12px; font-weight: 200;" x="0" y="116.27692295954779" dx="0em" dy="0.3em" fill="rgb(50, 49, 63)" stroke="none" stroke-width="1px">0.38</text><text style="text-anchor: end; visibility: inherit; font-family: &quot;Helvetica Neue&quot;, sans-serif; font-size: 12px; font-weight: 200;" x="0" y="87.20769221966083" dx="0em" dy="0.3em" fill="rgb(50, 49, 63)" stroke="none" stroke-width="1px">0.4</text><text style="text-anchor: end; visibility: inherit; font-family: &quot;Helvetica Neue&quot;, sans-serif; font-size: 12px; font-weight: 200;" x="0" y="58.13846147977392" dx="0em" dy="0.3em" fill="rgb(50, 49, 63)" stroke="none" stroke-width="1px">0.42</text><text style="text-anchor: end; visibility: inherit; font-family: &quot;Helvetica Neue&quot;, sans-serif; font-size: 12px; font-weight: 200;" x="0" y="29.06923073988696" dx="0em" dy="0.3em" fill="rgb(50, 49, 63)" stroke="none" stroke-width="1px">0.44</text><text style="text-anchor: end; visibility: hidden; font-family: &quot;Helvetica Neue&quot;, sans-serif; font-size: 12px; font-weight: 200;" x="0" y="0" dx="0em" dy="0.3em" fill="rgb(50, 49, 63)" stroke="none" stroke-width="1px">0.46</text></g><line x1="51.41600036621094" y1="0" x2="51.41600036621094" y2="377.8999996185303" fill="rgb(0, 0, 0)" stroke="rgb(204, 204, 204)" stroke-width="1px"></line></g></g><g transform="translate(51, 0)" clip-path="url(#clip_0)"><clipPath id="clip_0"><rect width="716" height="377"></rect></clipPath><g><g><g><line x1="0" y1="0" x2="0" y2="377.8999996185303" fill="rgb(0, 0, 0)" stroke="rgb(60, 60, 60)" stroke-width="1px" opacity="0.25"></line><line x1="71.6500999633789" y1="0" x2="71.6500999633789" y2="377.8999996185303" fill="rgb(0, 0, 0)" stroke="rgb(60, 60, 60)" stroke-width="1px" opacity="0.25"></line><line x1="143.3001999267578" y1="0" x2="143.3001999267578" y2="377.8999996185303" fill="rgb(0, 0, 0)" stroke="rgb(60, 60, 60)" stroke-width="1px" opacity="0.25"></line><line x1="214.95029989013673" y1="0" x2="214.95029989013673" y2="377.8999996185303" fill="rgb(0, 0, 0)" stroke="rgb(60, 60, 60)" stroke-width="1px" opacity="0.25"></line><line x1="286.6003998535156" y1="0" x2="286.6003998535156" y2="377.8999996185303" fill="rgb(0, 0, 0)" stroke="rgb(60, 60, 60)" stroke-width="1px" opacity="0.25"></line><line x1="358.25049981689455" y1="0" x2="358.25049981689455" y2="377.8999996185303" fill="rgb(0, 0, 0)" stroke="rgb(60, 60, 60)" stroke-width="1px" opacity="0.25"></line><line x1="429.90059978027347" y1="0" x2="429.90059978027347" y2="377.8999996185303" fill="rgb(0, 0, 0)" stroke="rgb(60, 60, 60)" stroke-width="1px" opacity="0.25"></line><line x1="501.55069974365233" y1="0" x2="501.55069974365233" y2="377.8999996185303" fill="rgb(0, 0, 0)" stroke="rgb(60, 60, 60)" stroke-width="1px" opacity="0.25"></line><line x1="573.2007997070313" y1="0" x2="573.2007997070313" y2="377.8999996185303" fill="rgb(0, 0, 0)" stroke="rgb(60, 60, 60)" stroke-width="1px" opacity="0.25"></line><line x1="644.8508996704102" y1="0" x2="644.8508996704102" y2="377.8999996185303" fill="rgb(0, 0, 0)" stroke="rgb(60, 60, 60)" stroke-width="1px" opacity="0.25"></line><line x1="716.5009996337891" y1="0" x2="716.5009996337891" y2="377.8999996185303" fill="rgb(0, 0, 0)" stroke="rgb(60, 60, 60)" stroke-width="1px" opacity="0.25"></line></g><g><line x1="0" y1="377.8999996185303" x2="716.5009996337891" y2="377.8999996185303" fill="rgb(0, 0, 0)" stroke="rgb(60, 60, 60)" stroke-width="1px" opacity="0.25"></line><line x1="0" y1="348.83076887864337" x2="716.5009996337891" y2="348.83076887864337" fill="rgb(0, 0, 0)" stroke="rgb(60, 60, 60)" stroke-width="1px" opacity="0.25"></line><line x1="0" y1="319.7615381387564" x2="716.5009996337891" y2="319.7615381387564" fill="rgb(0, 0, 0)" stroke="rgb(60, 60, 60)" stroke-width="1px" opacity="0.25"></line><line x1="0" y1="290.69230739886945" x2="716.5009996337891" y2="290.69230739886945" fill="rgb(0, 0, 0)" stroke="rgb(60, 60, 60)" stroke-width="1px" opacity="0.25"></line><line x1="0" y1="261.6230766589825" x2="716.5009996337891" y2="261.6230766589825" fill="rgb(0, 0, 0)" stroke="rgb(60, 60, 60)" stroke-width="1px" opacity="0.25"></line><line x1="0" y1="232.55384591909558" x2="716.5009996337891" y2="232.55384591909558" fill="rgb(0, 0, 0)" stroke="rgb(60, 60, 60)" stroke-width="1px" opacity="0.25"></line><line x1="0" y1="203.48461517920862" x2="716.5009996337891" y2="203.48461517920862" fill="rgb(0, 0, 0)" stroke="rgb(60, 60, 60)" stroke-width="1px" opacity="0.25"></line><line x1="0" y1="174.41538443932163" x2="716.5009996337891" y2="174.41538443932163" fill="rgb(0, 0, 0)" stroke="rgb(60, 60, 60)" stroke-width="1px" opacity="0.25"></line><line x1="0" y1="145.34615369943475" x2="716.5009996337891" y2="145.34615369943475" fill="rgb(0, 0, 0)" stroke="rgb(60, 60, 60)" stroke-width="1px" opacity="0.25"></line><line x1="0" y1="116.27692295954779" x2="716.5009996337891" y2="116.27692295954779" fill="rgb(0, 0, 0)" stroke="rgb(60, 60, 60)" stroke-width="1px" opacity="0.25"></line><line x1="0" y1="87.20769221966083" x2="716.5009996337891" y2="87.20769221966083" fill="rgb(0, 0, 0)" stroke="rgb(60, 60, 60)" stroke-width="1px" opacity="0.25"></line><line x1="0" y1="58.13846147977392" x2="716.5009996337891" y2="58.13846147977392" fill="rgb(0, 0, 0)" stroke="rgb(60, 60, 60)" stroke-width="1px" opacity="0.25"></line><line x1="0" y1="29.06923073988696" x2="716.5009996337891" y2="29.06923073988696" fill="rgb(0, 0, 0)" stroke="rgb(60, 60, 60)" stroke-width="1px" opacity="0.25"></line><line x1="0" y1="0" x2="716.5009996337891" y2="0" fill="rgb(0, 0, 0)" stroke="rgb(60, 60, 60)" stroke-width="1px" opacity="0.25"></line></g></g></g><g><g><line x1="0" y1="668.5923070173997" x2="716.5009996337891" y2="668.5923070173997" fill="rgb(0, 0, 0)" stroke="rgb(153, 153, 153)" stroke-width="1.5px"></line></g></g><g><g><line x1="71.6500999633789" y1="0" x2="71.6500999633789" y2="377.8999996185303" fill="rgb(0, 0, 0)" stroke="rgb(153, 153, 153)" stroke-width="1.5px"></line></g></g><g><g><g><g><g><path style="fill: none;" stroke="rgb(0, 119, 187)" stroke-width="2px" d="M71.6500999633789,344.95487254401047L78.8151099597168,335.8707330646863L85.9801199560547,323.9439424822647L93.14512995239258,309.33080902736936L100.31013994873048,297.25422590688805L107.47514994506837,282.9140892274469L114.64015994140625,269.9655143948165L121.80516993774415,257.1104678269515L128.97017993408204,246.4047478600712L136.13518993041993,238.491002918171L143.3001999267578,231.43948145818914L150.4652099230957,222.95218626034307L157.6302199194336,215.93116733008904L164.7952299157715,207.65154576595503L171.9602399121094,199.1979715820124L179.12524990844727,191.60833669835557L186.29025990478516,183.95468292583354L193.45526990112307,178.78186636289033L200.62027989746096,173.35284510803476L207.78528989379882,168.35141427525602L214.95029989013673,163.2188983507626L222.11530988647462,158.201471153151L229.2803198828125,152.477913524525L236.44532987915042,146.52447194081532L243.6103398754883,141.40205274685712L250.77534987182617,135.8092649292598L257.9403598681641,131.29084289501102L265.10536986450194,127.22322206300163L272.27037986083985,123.81367737151925L279.43538985717777,120.79897771251706L286.6003998535156,118.2149829590291L293.7654098498535,116.08319182371338L300.9304198461914,114.02894193228553L308.0954298425293,112.40879574489543L315.2604398388672,109.69255931647035L322.4254498352051,107.0938440453948L329.590459831543,104.3718433066935L336.75546982788086,102.73864287425391L343.9204798242188,101.17734548767453L351.08548982055663,99.07779547038416L358.25049981689455,97.81806546180616L365.41550981323246,95.31806141413875L372.5805198095703,93.62427816075967L379.74552980590823,92.22041190476926L386.91053980224615,90.7967150215689L394.075549798584,88.39212900142309L401.2405597949219,85.98040395548503L408.4055697912597,84.53336892798L415.57057978759764,81.9209991957581L422.73558978393555,79.19080577042342L429.90059978027347,76.58371628132176L437.0656097766113,74.63186628365895L444.23061977294924,72.87937915536236L451.39562976928715,71.24649242207266L458.560639765625,69.29778694818907L465.7256497619629,68.12856366385955L472.89065975830084,66.45805625935168L480.0556697546387,65.45575181664725L487.2206797509766,64.07919386921873L494.3856897473144,62.86566279655284L501.55069974365233,61.55616702325182L508.71570973999025,60.576671407166884L515.8807197363282,59.40759690781442L523.045729732666,58.70615220820292L530.2107397290039,58.28528538843608L537.3757497253418,58.03276529657592L544.5407597216797,56.91227980754962L551.7057697180176,55.852392209925085L558.8707797143555,55.41025780345478L566.0357897106934,54.56358270325927L573.2007997070313,53.861796817649406L580.3658097033692,53.05312898207467L587.530819699707,51.017577717117945L594.6958296960449,48.827256197622035L601.8608396923828,47.12548430832743L609.0258496887208,45.13544774084039L616.1908596850586,44.522802930049636L623.3558696813965,44.3490141956795L630.5208796777345,43.66336382535604L637.6858896740723,42.476780994744274" fill="none"></path></g><g><path style="fill: none;" stroke="rgb(255, 112, 67)" stroke-width="2px" d="M71.6500999633789,360.8942724145103L78.8151099597168,347.1716230039541L85.9801199560547,333.77658026156706L93.14512995239258,320.72772789005666L100.31013994873048,307.7832200753918L107.47514994506837,295.781912667379L114.64015994140625,283.7075600144731L121.80516993774415,272.048151541753L128.97017993408204,260.5339240730274L136.13518993041993,249.53221242971614L143.3001999267578,239.231929848349L150.4652099230957,229.71283283361115L157.6302199194336,220.98652898530972L164.7952299157715,212.89734704621944L171.9602399121094,204.2348384471819L179.12524990844727,196.0149351875408L186.29025990478516,188.01836119208528L193.45526990112307,180.85972069120626L200.62027989746096,174.28637877431194L207.78528989379882,167.52549714850326L214.95029989013673,161.68773834785358L222.11530988647462,157.10804203368332L229.2803198828125,152.62032806063476L236.44532987915042,148.2292212170703L243.6103398754883,144.0203393171338L250.77534987182617,140.2522125098527L257.9403598681641,136.8728026481366L265.10536986450194,133.56092702191467L272.27037986083985,129.9995930598363L279.43538985717777,126.86854034217993L286.6003998535156,123.29141583546482L293.7654098498535,119.94374873594995L300.9304198461914,117.10662468789582L308.0954298425293,113.99583538535404L315.2604398388672,111.34224853005765L322.4254498352051,108.88012726256767L329.590459831543,106.49145740952639L336.75546982788086,104.35401537112921L343.9204798242188,102.57441500855117L351.08548982055663,100.80239733257031L358.25049981689455,98.33067180730825L365.41550981323246,95.93625671643281L372.5805198095703,93.9196339883257L379.74552980590823,92.0882587489483L386.91053980224615,90.32660407405211L394.075549798584,88.56535380915761L401.2405597949219,87.13575229264342L408.4055697912597,85.4080222082157L415.57057978759764,83.46000438102351L422.73558978393555,81.66979208194181L429.90059978027347,80.05710163036184L437.0656097766113,78.30239136874627L444.23061977294924,76.87671385414563L451.39562976928715,75.97987941676092L458.560639765625,74.69609336567424L465.7256497619629,73.01444195847415L472.89065975830084,71.50831597064263L480.0556697546387,70.10752256104388L487.2206797509766,68.76992869838449L494.3856897473144,67.51168249251492L501.55069974365233,66.13533316621522L508.71570973999025,64.89524428417553L515.8807197363282,63.944051311821795L523.045729732666,63.3319249263954L530.2107397290039,62.75750945200957L537.3757497253418,61.95715295249221L544.5407597216797,61.43552845076755L551.7057697180176,60.95684203522876L558.8707797143555,60.503918471401676L566.0357897106934,60.066452618601375L573.2007997070313,59.84540103554724L580.3658097033692,59.91990972884469L587.530819699707,59.964614944823154L594.6958296960449,60.19857771754022L601.8608396923828,60.09038780941455L609.0258496887208,59.61121190489098L616.1908596850586,58.867999147291016L623.3558696813965,58.42207149273099L630.5208796777345,57.90596465485089L637.6858896740723,57.140593337236965" fill="none"></path></g></g></g></g><g opacity="0.2"><g><g><g><path style="fill: none;" stroke="rgb(0, 119, 187)" stroke-width="2px" d="M71.6500999633789,344.95487254401047L78.8151099597168,330.42024937709175L85.9801199560547,312.49422352313996L93.14512995239258,292.1457640844125L100.31013994873048,281.4870389847878L107.47514994506837,263.076517750575L114.64015994140625,251.44884520695763L121.80516993774415,238.36768652255722L128.97017993408204,230.6158903879692L136.13518993041993,226.7400139789398L143.3001999267578,220.92615604886643L150.4652099230957,210.2674309492417L157.6302199194336,205.42256377969036L164.7952299157715,195.24833406032664L171.9602399121094,186.5275471652166L179.12524990844727,180.2292371714115L186.29025990478516,172.4774410368235L193.45526990112307,171.02395489604052L200.62027989746096,165.21014028249644L207.78528989379882,160.84972517667677L214.95029989013673,155.5204059433937L222.11530988647462,150.67549545731305L229.2803198828125,143.892690083247L236.44532987915042,137.59438008944193L243.6103398754883,133.71846036388325L250.77534987182617,127.42010705354892L257.9403598681641,124.51322140504152L265.10536986450194,121.12179705974387L272.27037986083985,118.69936347496815L279.43538985717777,116.27692989019249L286.6003998535156,114.3389916856778L293.7654098498535,112.88550554489484L300.9304198461914,110.94756734038015L308.0954298425293,109.9785765798581L315.2604398388672,105.61820479056775L322.4254498352051,103.19577120579208L329.590459831543,100.2888422407554L336.75546982788086,100.2888422407554L343.9204798242188,98.83539941650173L351.08548982055663,95.92847045146505L358.25049981689455,95.92847045146505L365.41550981323246,91.56805534564535L372.5805198095703,91.08360328191367L379.74552980590823,90.11461252139168L386.91053980224615,88.661169697138L394.075549798584,84.78524997157933L401.2405597949219,82.36281638680362L408.4055697912597,82.36281638680362L415.57057978759764,78.00244459751326L422.73558978393555,75.09551563247658L429.90059978027347,72.67308204770092L437.0656097766113,71.70409128717893L444.23061977294924,70.2506484629252L451.39562976928715,68.79716232214224L458.560639765625,66.37472873736652L465.7256497619629,66.37472873736652L472.89065975830084,63.952295152590864L480.0556697546387,63.952295152590864L487.2206797509766,62.01435694807617L494.3856897473144,61.04536618755418L501.55069974365233,59.59192336330051L508.71570973999025,59.107427983039486L515.8807197363282,57.653985158785815L523.045729732666,57.653985158785815L530.2107397290039,57.653985158785815L537.3757497253418,57.653985158785815L544.5407597216797,55.231551574010155L551.7057697180176,54.262560813488165L558.8707797143555,54.74705619374913L566.0357897106934,53.29357005296612L573.2007997070313,52.80911798923444L580.3658097033692,51.84012722871245L587.530819699707,47.96425081968306L594.6958296960449,45.54177391837811L601.8608396923828,44.57282647438541L609.0258496887208,42.15039288960975L616.1908596850586,43.60383571386342L623.3558696813965,44.088331094124385L630.5208796777345,42.634888269870714L637.6858896740723,40.696906748826734" fill="none"></path></g><g><path style="fill: none;" stroke="rgb(255, 112, 67)" stroke-width="2px" d="M71.6500999633789,360.89427241451034L78.8151099597168,338.9380333576204L85.9801199560547,320.91733922887556L93.14512995239258,305.3822775011604L100.31013994873048,290.88287067256545L107.47514994506837,279.17978405143043L114.64015994140625,266.4410425311752L121.80516993774415,255.0486220582057L128.97017993408204,243.5526750802006L136.13518993041993,233.1959528228807L143.3001999267578,223.87492878121043L150.4652099230957,215.4859898170954L157.6302199194336,207.92556610897077L164.7952299157715,200.77942168710595L171.9602399121094,191.25125800230572L179.12524990844727,183.69087761071037L186.29025990478516,176.02688408102077L193.45526990112307,170.12357751793542L200.62027989746096,164.4273672814507L207.78528989379882,157.38479268115083L214.95029989013673,152.9314203034456L222.11530988647462,150.238648259286L229.2803198828125,145.88884570314576L236.44532987915042,141.6426129685704L243.6103398754883,137.70704638216066L250.77534987182617,134.60003836827053L257.9403598681641,131.80369650254602L265.10536986450194,128.59311866709095L272.27037986083985,124.65759539721049L279.43538985717777,122.17196299618084L286.6003998535156,117.92573026160551L293.7654098498535,114.92224875275105L300.9304198461914,112.85093895451053L308.0954298425293,109.32965165436059L315.2604398388672,107.3618683611557L322.4254498352051,105.18694542482092L329.590459831543,102.90845266692116L336.75546982788086,101.14785233337551L343.9204798242188,99.90501447459599L351.08548982055663,98.14437082452105L358.25049981689455,94.62308352437111L365.41550981323246,92.34463408300064L372.5805198095703,90.89469989762057L379.74552980590823,89.34119589067552L386.91053980224615,87.6841220621655L394.075549798584,85.92347841209056L401.2405597949219,84.99135001800596L408.4055697912597,82.81642708167118L415.57057978759764,80.53797764030071L422.73558978393555,78.98447363335566L429.90059978027347,77.63806595301122L437.0656097766113,75.67032597633562L444.23061977294924,74.73819758225102L451.39562976928715,74.63462776068604L458.560639765625,72.77041428904613L465.7256497619629,70.49196484767572L472.89065975830084,69.2491269888962L480.0556697546387,68.00633244664601L487.2206797509766,66.76353790439583L494.3856897473144,65.62431318371063L501.55069974365233,64.07080917676558L508.71570973999025,63.035110961116004L515.8807197363282,62.517261853291245L523.045729732666,62.41373534825556L530.2107397290039,61.89588624043074L537.3757497253418,60.75661820321625L544.5407597216797,60.65309169818056L551.7057697180176,60.238812411920776L558.8707797143555,59.824533125660935L566.0357897106934,59.41025383940109L573.2007997070313,59.51382366096607L580.3658097033692,60.031672768790884L587.530819699707,60.031672768790884L594.6958296960449,60.54952187661564L601.8608396923828,59.92810294722591L609.0258496887208,58.89244804810562L616.1908596850586,57.75318001089113L623.3558696813965,57.75318001089113L630.5208796777345,57.13180439803068L637.6858896740723,55.99253636081613" fill="none"></path></g></g></g></g></g></g><g transform="translate(51, 377)" clip-path="url(#clip_1)"><clipPath id="clip_1"><rect width="716" height="22"></rect></clipPath><g><g><line x1="0" y1="0" x2="0" y2="5" style="visibility: inherit;" fill="rgb(0, 0, 0)" stroke="rgb(204, 204, 204)" stroke-width="1px"></line><line x1="71.6500999633789" y1="0" x2="71.6500999633789" y2="5" style="visibility: inherit;" fill="rgb(0, 0, 0)" stroke="rgb(204, 204, 204)" stroke-width="1px"></line><line x1="143.3001999267578" y1="0" x2="143.3001999267578" y2="5" style="visibility: inherit;" fill="rgb(0, 0, 0)" stroke="rgb(204, 204, 204)" stroke-width="1px"></line><line x1="214.95029989013673" y1="0" x2="214.95029989013673" y2="5" style="visibility: inherit;" fill="rgb(0, 0, 0)" stroke="rgb(204, 204, 204)" stroke-width="1px"></line><line x1="286.6003998535156" y1="0" x2="286.6003998535156" y2="5" style="visibility: inherit;" fill="rgb(0, 0, 0)" stroke="rgb(204, 204, 204)" stroke-width="1px"></line><line x1="358.25049981689455" y1="0" x2="358.25049981689455" y2="5" style="visibility: inherit;" fill="rgb(0, 0, 0)" stroke="rgb(204, 204, 204)" stroke-width="1px"></line><line x1="429.90059978027347" y1="0" x2="429.90059978027347" y2="5" style="visibility: inherit;" fill="rgb(0, 0, 0)" stroke="rgb(204, 204, 204)" stroke-width="1px"></line><line x1="501.55069974365233" y1="0" x2="501.55069974365233" y2="5" style="visibility: inherit;" fill="rgb(0, 0, 0)" stroke="rgb(204, 204, 204)" stroke-width="1px"></line><line x1="573.2007997070313" y1="0" x2="573.2007997070313" y2="5" style="visibility: inherit;" fill="rgb(0, 0, 0)" stroke="rgb(204, 204, 204)" stroke-width="1px"></line><line x1="644.8508996704102" y1="0" x2="644.8508996704102" y2="5" style="visibility: inherit;" fill="rgb(0, 0, 0)" stroke="rgb(204, 204, 204)" stroke-width="1px"></line><line x1="716.5009996337891" y1="0" x2="716.5009996337891" y2="5" style="visibility: inherit;" fill="rgb(0, 0, 0)" stroke="rgb(204, 204, 204)" stroke-width="1px"></line></g><g transform="translate(0, 8)"><text style="text-anchor: middle; visibility: hidden; font-family: &quot;Helvetica Neue&quot;, sans-serif; font-size: 12px; font-weight: 200;" x="0" y="0" dx="0em" dy="0.95em" fill="rgb(50, 49, 63)" stroke="none" stroke-width="1px">-10</text><text style="text-anchor: middle; visibility: inherit; font-family: &quot;Helvetica Neue&quot;, sans-serif; font-size: 12px; font-weight: 200;" x="71.6500999633789" y="0" dx="0em" dy="0.95em" fill="rgb(50, 49, 63)" stroke="none" stroke-width="1px">0</text><text style="text-anchor: middle; visibility: inherit; font-family: &quot;Helvetica Neue&quot;, sans-serif; font-size: 12px; font-weight: 200;" x="143.3001999267578" y="0" dx="0em" dy="0.95em" fill="rgb(50, 49, 63)" stroke="none" stroke-width="1px">10</text><text style="text-anchor: middle; visibility: inherit; font-family: &quot;Helvetica Neue&quot;, sans-serif; font-size: 12px; font-weight: 200;" x="214.95029989013673" y="0" dx="0em" dy="0.95em" fill="rgb(50, 49, 63)" stroke="none" stroke-width="1px">20</text><text style="text-anchor: middle; visibility: inherit; font-family: &quot;Helvetica Neue&quot;, sans-serif; font-size: 12px; font-weight: 200;" x="286.6003998535156" y="0" dx="0em" dy="0.95em" fill="rgb(50, 49, 63)" stroke="none" stroke-width="1px">30</text><text style="text-anchor: middle; visibility: inherit; font-family: &quot;Helvetica Neue&quot;, sans-serif; font-size: 12px; font-weight: 200;" x="358.25049981689455" y="0" dx="0em" dy="0.95em" fill="rgb(50, 49, 63)" stroke="none" stroke-width="1px">40</text><text style="text-anchor: middle; visibility: inherit; font-family: &quot;Helvetica Neue&quot;, sans-serif; font-size: 12px; font-weight: 200;" x="429.90059978027347" y="0" dx="0em" dy="0.95em" fill="rgb(50, 49, 63)" stroke="none" stroke-width="1px">50</text><text style="text-anchor: middle; visibility: inherit; font-family: &quot;Helvetica Neue&quot;, sans-serif; font-size: 12px; font-weight: 200;" x="501.55069974365233" y="0" dx="0em" dy="0.95em" fill="rgb(50, 49, 63)" stroke="none" stroke-width="1px">60</text><text style="text-anchor: middle; visibility: inherit; font-family: &quot;Helvetica Neue&quot;, sans-serif; font-size: 12px; font-weight: 200;" x="573.2007997070313" y="0" dx="0em" dy="0.95em" fill="rgb(50, 49, 63)" stroke="none" stroke-width="1px">70</text><text style="text-anchor: middle; visibility: inherit; font-family: &quot;Helvetica Neue&quot;, sans-serif; font-size: 12px; font-weight: 200;" x="644.8508996704102" y="0" dx="0em" dy="0.95em" fill="rgb(50, 49, 63)" stroke="none" stroke-width="1px">80</text><text style="text-anchor: middle; visibility: hidden; font-family: &quot;Helvetica Neue&quot;, sans-serif; font-size: 12px; font-weight: 200;" x="716.5009996337891" y="0" dx="0em" dy="0.95em" fill="rgb(50, 49, 63)" stroke="none" stroke-width="1px">90</text></g><line x1="0" y1="0" x2="716.5009996337891" y2="0" fill="rgb(0, 0, 0)" stroke="rgb(204, 204, 204)" stroke-width="1px"></line></g></g></g></g></svg>