<svg viewBox="0 0 642.5390625 399.984375" xmlns="http://www.w3.org/2000/svg"><g><g><g><g><g><line x1="58" y1="377.984" x2="53" y2="377.984" style="visibility: inherit;" fill="rgb(0, 0, 0)" stroke="rgb(204, 204, 204)" stroke-width="1px"></line><line x1="58" y1="350.9851428571428" x2="53" y2="350.9851428571428" style="visibility: inherit;" fill="rgb(0, 0, 0)" stroke="rgb(204, 204, 204)" stroke-width="1px"></line><line x1="58" y1="323.98628571428566" x2="53" y2="323.98628571428566" style="visibility: inherit;" fill="rgb(0, 0, 0)" stroke="rgb(204, 204, 204)" stroke-width="1px"></line><line x1="58" y1="296.9874285714285" x2="53" y2="296.9874285714285" style="visibility: inherit;" fill="rgb(0, 0, 0)" stroke="rgb(204, 204, 204)" stroke-width="1px"></line><line x1="58" y1="269.98857142857145" x2="53" y2="269.98857142857145" style="visibility: inherit;" fill="rgb(0, 0, 0)" stroke="rgb(204, 204, 204)" stroke-width="1px"></line><line x1="58" y1="242.98971428571426" x2="53" y2="242.98971428571426" style="visibility: inherit;" fill="rgb(0, 0, 0)" stroke="rgb(204, 204, 204)" stroke-width="1px"></line><line x1="58" y1="215.9908571428571" x2="53" y2="215.9908571428571" style="visibility: inherit;" fill="rgb(0, 0, 0)" stroke="rgb(204, 204, 204)" stroke-width="1px"></line><line x1="58" y1="188.99199999999996" x2="53" y2="188.99199999999996" style="visibility: inherit;" fill="rgb(0, 0, 0)" stroke="rgb(204, 204, 204)" stroke-width="1px"></line><line x1="58" y1="161.99314285714277" x2="53" y2="161.99314285714277" style="visibility: inherit;" fill="rgb(0, 0, 0)" stroke="rgb(204, 204, 204)" stroke-width="1px"></line><line x1="58" y1="134.99428571428572" x2="53" y2="134.99428571428572" style="visibility: inherit;" fill="rgb(0, 0, 0)" stroke="rgb(204, 204, 204)" stroke-width="1px"></line><line x1="58" y1="107.99542857142853" x2="53" y2="107.99542857142853" style="visibility: inherit;" fill="rgb(0, 0, 0)" stroke="rgb(204, 204, 204)" stroke-width="1px"></line><line x1="58" y1="80.99657142857137" x2="53" y2="80.99657142857137" style="visibility: inherit;" fill="rgb(0, 0, 0)" stroke="rgb(204, 204, 204)" stroke-width="1px"></line><line x1="58" y1="53.99771428571421" x2="53" y2="53.99771428571421" style="visibility: inherit;" fill="rgb(0, 0, 0)" stroke="rgb(204, 204, 204)" stroke-width="1px"></line><line x1="58" y1="26.998857142857048" x2="53" y2="26.998857142857048" style="visibility: inherit;" fill="rgb(0, 0, 0)" stroke="rgb(204, 204, 204)" stroke-width="1px"></line><line x1="58" y1="0" x2="53" y2="0" style="visibility: inherit;" fill="rgb(0, 0, 0)" stroke="rgb(204, 204, 204)" stroke-width="1px"></line></g><g transform="translate(48, 0)"><text x="0" y="377.984" dx="0em" dy="0.3em" style="text-anchor: end; visibility: hidden; font-family: &quot;Helvetica Neue&quot;, sans-serif; font-size: 12px; font-weight: 200;" fill="rgb(50, 49, 63)" stroke="none" stroke-width="1px">0.95</text><text x="0" y="350.9851428571428" dx="0em" dy="0.3em" style="text-anchor: end; visibility: inherit; font-family: &quot;Helvetica Neue&quot;, sans-serif; font-size: 12px; font-weight: 200;" fill="rgb(50, 49, 63)" stroke="none" stroke-width="1px">1</text><text x="0" y="323.98628571428566" dx="0em" dy="0.3em" style="text-anchor: end; visibility: inherit; font-family: &quot;Helvetica Neue&quot;, sans-serif; font-size: 12px; font-weight: 200;" fill="rgb(50, 49, 63)" stroke="none" stroke-width="1px">1.05</text><text x="0" y="296.9874285714285" dx="0em" dy="0.3em" style="text-anchor: end; visibility: inherit; font-family: &quot;Helvetica Neue&quot;, sans-serif; font-size: 12px; font-weight: 200;" fill="rgb(50, 49, 63)" stroke="none" stroke-width="1px">1.1</text><text x="0" y="269.98857142857145" dx="0em" dy="0.3em" style="text-anchor: end; visibility: inherit; font-family: &quot;Helvetica Neue&quot;, sans-serif; font-size: 12px; font-weight: 200;" fill="rgb(50, 49, 63)" stroke="none" stroke-width="1px">1.15</text><text x="0" y="242.98971428571426" dx="0em" dy="0.3em" style="text-anchor: end; visibility: inherit; font-family: &quot;Helvetica Neue&quot;, sans-serif; font-size: 12px; font-weight: 200;" fill="rgb(50, 49, 63)" stroke="none" stroke-width="1px">1.2</text><text x="0" y="215.9908571428571" dx="0em" dy="0.3em" style="text-anchor: end; visibility: inherit; font-family: &quot;Helvetica Neue&quot;, sans-serif; font-size: 12px; font-weight: 200;" fill="rgb(50, 49, 63)" stroke="none" stroke-width="1px">1.25</text><text x="0" y="188.99199999999996" dx="0em" dy="0.3em" style="text-anchor: end; visibility: inherit; font-family: &quot;Helvetica Neue&quot;, sans-serif; font-size: 12px; font-weight: 200;" fill="rgb(50, 49, 63)" stroke="none" stroke-width="1px">1.3</text><text x="0" y="161.99314285714277" dx="0em" dy="0.3em" style="text-anchor: end; visibility: inherit; font-family: &quot;Helvetica Neue&quot;, sans-serif; font-size: 12px; font-weight: 200;" fill="rgb(50, 49, 63)" stroke="none" stroke-width="1px">1.35</text><text x="0" y="134.99428571428572" dx="0em" dy="0.3em" style="text-anchor: end; visibility: inherit; font-family: &quot;Helvetica Neue&quot;, sans-serif; font-size: 12px; font-weight: 200;" fill="rgb(50, 49, 63)" stroke="none" stroke-width="1px">1.4</text><text x="0" y="107.99542857142853" dx="0em" dy="0.3em" style="text-anchor: end; visibility: inherit; font-family: &quot;Helvetica Neue&quot;, sans-serif; font-size: 12px; font-weight: 200;" fill="rgb(50, 49, 63)" stroke="none" stroke-width="1px">1.45</text><text x="0" y="80.99657142857137" dx="0em" dy="0.3em" style="text-anchor: end; visibility: inherit; font-family: &quot;Helvetica Neue&quot;, sans-serif; font-size: 12px; font-weight: 200;" fill="rgb(50, 49, 63)" stroke="none" stroke-width="1px">1.5</text><text x="0" y="53.99771428571421" dx="0em" dy="0.3em" style="text-anchor: end; visibility: inherit; font-family: &quot;Helvetica Neue&quot;, sans-serif; font-size: 12px; font-weight: 200;" fill="rgb(50, 49, 63)" stroke="none" stroke-width="1px">1.55</text><text x="0" y="26.998857142857048" dx="0em" dy="0.3em" style="text-anchor: end; visibility: inherit; font-family: &quot;Helvetica Neue&quot;, sans-serif; font-size: 12px; font-weight: 200;" fill="rgb(50, 49, 63)" stroke="none" stroke-width="1px">1.6</text><text x="0" y="0" dx="0em" dy="0.3em" style="text-anchor: end; visibility: hidden; font-family: &quot;Helvetica Neue&quot;, sans-serif; font-size: 12px; font-weight: 200;" fill="rgb(50, 49, 63)" stroke="none" stroke-width="1px">1.65</text></g><line x1="58" y1="0" x2="58" y2="377.984" fill="rgb(0, 0, 0)" stroke="rgb(204, 204, 204)" stroke-width="1px"></line></g></g><g transform="translate(58, 0)" clip-path="url(#clip_0)"><clipPath id="clip_0"><rect width="584" height="377"></rect></clipPath><g><g><g><line x1="0" y1="0" x2="0" y2="377.984" fill="rgb(0, 0, 0)" stroke="rgb(60, 60, 60)" stroke-width="1px" opacity="0.25"></line><line x1="64.94877777777778" y1="0" x2="64.94877777777778" y2="377.984" fill="rgb(0, 0, 0)" stroke="rgb(60, 60, 60)" stroke-width="1px" opacity="0.25"></line><line x1="129.89755555555556" y1="0" x2="129.89755555555556" y2="377.984" fill="rgb(0, 0, 0)" stroke="rgb(60, 60, 60)" stroke-width="1px" opacity="0.25"></line><line x1="194.84633333333332" y1="0" x2="194.84633333333332" y2="377.984" fill="rgb(0, 0, 0)" stroke="rgb(60, 60, 60)" stroke-width="1px" opacity="0.25"></line><line x1="259.7951111111111" y1="0" x2="259.7951111111111" y2="377.984" fill="rgb(0, 0, 0)" stroke="rgb(60, 60, 60)" stroke-width="1px" opacity="0.25"></line><line x1="324.7438888888889" y1="0" x2="324.7438888888889" y2="377.984" fill="rgb(0, 0, 0)" stroke="rgb(60, 60, 60)" stroke-width="1px" opacity="0.25"></line><line x1="389.69266666666664" y1="0" x2="389.69266666666664" y2="377.984" fill="rgb(0, 0, 0)" stroke="rgb(60, 60, 60)" stroke-width="1px" opacity="0.25"></line><line x1="454.64144444444446" y1="0" x2="454.64144444444446" y2="377.984" fill="rgb(0, 0, 0)" stroke="rgb(60, 60, 60)" stroke-width="1px" opacity="0.25"></line><line x1="519.5902222222222" y1="0" x2="519.5902222222222" y2="377.984" fill="rgb(0, 0, 0)" stroke="rgb(60, 60, 60)" stroke-width="1px" opacity="0.25"></line><line x1="584.539" y1="0" x2="584.539" y2="377.984" fill="rgb(0, 0, 0)" stroke="rgb(60, 60, 60)" stroke-width="1px" opacity="0.25"></line></g><g><line x1="0" y1="377.984" x2="584.539" y2="377.984" fill="rgb(0, 0, 0)" stroke="rgb(60, 60, 60)" stroke-width="1px" opacity="0.25"></line><line x1="0" y1="350.9851428571428" x2="584.539" y2="350.9851428571428" fill="rgb(0, 0, 0)" stroke="rgb(60, 60, 60)" stroke-width="1px" opacity="0.25"></line><line x1="0" y1="323.98628571428566" x2="584.539" y2="323.98628571428566" fill="rgb(0, 0, 0)" stroke="rgb(60, 60, 60)" stroke-width="1px" opacity="0.25"></line><line x1="0" y1="296.9874285714285" x2="584.539" y2="296.9874285714285" fill="rgb(0, 0, 0)" stroke="rgb(60, 60, 60)" stroke-width="1px" opacity="0.25"></line><line x1="0" y1="269.98857142857145" x2="584.539" y2="269.98857142857145" fill="rgb(0, 0, 0)" stroke="rgb(60, 60, 60)" stroke-width="1px" opacity="0.25"></line><line x1="0" y1="242.98971428571426" x2="584.539" y2="242.98971428571426" fill="rgb(0, 0, 0)" stroke="rgb(60, 60, 60)" stroke-width="1px" opacity="0.25"></line><line x1="0" y1="215.9908571428571" x2="584.539" y2="215.9908571428571" fill="rgb(0, 0, 0)" stroke="rgb(60, 60, 60)" stroke-width="1px" opacity="0.25"></line><line x1="0" y1="188.99199999999996" x2="584.539" y2="188.99199999999996" fill="rgb(0, 0, 0)" stroke="rgb(60, 60, 60)" stroke-width="1px" opacity="0.25"></line><line x1="0" y1="161.99314285714277" x2="584.539" y2="161.99314285714277" fill="rgb(0, 0, 0)" stroke="rgb(60, 60, 60)" stroke-width="1px" opacity="0.25"></line><line x1="0" y1="134.99428571428572" x2="584.539" y2="134.99428571428572" fill="rgb(0, 0, 0)" stroke="rgb(60, 60, 60)" stroke-width="1px" opacity="0.25"></line><line x1="0" y1="107.99542857142853" x2="584.539" y2="107.99542857142853" fill="rgb(0, 0, 0)" stroke="rgb(60, 60, 60)" stroke-width="1px" opacity="0.25"></line><line x1="0" y1="80.99657142857137" x2="584.539" y2="80.99657142857137" fill="rgb(0, 0, 0)" stroke="rgb(60, 60, 60)" stroke-width="1px" opacity="0.25"></line><line x1="0" y1="53.99771428571421" x2="584.539" y2="53.99771428571421" fill="rgb(0, 0, 0)" stroke="rgb(60, 60, 60)" stroke-width="1px" opacity="0.25"></line><line x1="0" y1="26.998857142857048" x2="584.539" y2="26.998857142857048" fill="rgb(0, 0, 0)" stroke="rgb(60, 60, 60)" stroke-width="1px" opacity="0.25"></line><line x1="0" y1="0" x2="584.539" y2="0" fill="rgb(0, 0, 0)" stroke="rgb(60, 60, 60)" stroke-width="1px" opacity="0.25"></line></g></g></g><g><g><line x1="0" y1="890.9622857142856" x2="584.539" y2="890.9622857142856" fill="rgb(0, 0, 0)" stroke="rgb(153, 153, 153)" stroke-width="1.5px"></line></g></g><g><g><line x1="64.94877777777778" y1="0" x2="64.94877777777778" y2="377.984" fill="rgb(0, 0, 0)" stroke="rgb(153, 153, 153)" stroke-width="1.5px"></line></g></g><g><g><g><g><g><path stroke="rgb(204, 51, 17)" stroke-width="2px" d="M64.94877777777778,52.78127026367184L77.93853333333333,65.12367020143773L90.92828888888889,77.26983106536414L103.91804444444445,89.05075838194773L116.90780000000001,100.32341206657117L129.89755555555556,110.9931215199793L142.8873111111111,121.02817436262569L155.87706666666665,130.4419751168714L168.8668222222222,139.2853754592327L181.85657777777777,147.6349596079893L194.84633333333332,155.580426454408L207.8360888888889,163.21736254378845L220.82584444444444,170.6402337415317L233.81560000000002,177.93256832816908L246.80535555555554,185.16621991877142L259.7951111111111,192.39491463102271L272.7848666666667,199.64914813623142L285.7746222222222,206.93450293105167L298.7643777777777,214.2257200969268L311.7541333333333,221.47561484691647L324.7438888888889,228.61857326784553L337.7336444444444,235.58221615237812L350.72339999999997,242.2993850547881L363.71315555555555,248.71118428167983L376.7029111111111,254.77439107243458L389.69266666666664,260.4613942276103L402.6824222222222,265.770790331452L415.6721777777778,270.71180344510253L428.6619333333333,275.3065489839374L441.6516888888889,279.5831781437796L454.64144444444446,283.5680566859053L467.63120000000004,287.28841033651196L480.6209555555555,290.76840187694233L493.6107111111111,294.0301503731479L506.60046666666665,297.09251458073214L519.5902222222222,299.9725000727875L532.5799777777778,302.6844041358601L545.5697333333334,305.2411050729711L558.559488888889,307.65406334038346L571.5492444444444,309.9319318305172" style="fill: none;" fill="none"></path></g><g><path stroke="rgb(0, 119, 187)" stroke-width="2px" d="M64.94877777777778,38.04118156651083L77.93853333333333,52.500197385515435L90.92828888888889,66.5785220454357L103.91804444444445,80.11589851397025L116.90780000000001,92.9704513298181L129.89755555555556,105.04807466532071L142.8873111111111,116.311956162429L155.87706666666665,126.77963957493117L168.8668222222222,136.50860562733234L181.85657777777777,145.58374158670975L194.84633333333332,154.1072887846235L207.8360888888889,162.18688105166262L220.82584444444444,169.9304686959432L233.81560000000002,177.4374090561701L246.80535555555554,184.79404917860813L259.7951111111111,192.06850388922246L272.7848666666667,199.30952197096258L285.7746222222222,206.54103538855324L298.7643777777777,213.7627171823666L311.7541333333333,220.94532460638058L324.7438888888889,228.0420672555474L337.7336444444444,234.9878687328099L350.72339999999997,241.71369567777L363.71315555555555,248.15782832995217L376.7029111111111,254.27143589838593L389.69266666666664,260.02014368065613L402.6824222222222,265.3906885033647L415.6721777777778,270.3878049001415L428.6619333333333,275.02532722344756L441.6516888888889,279.3271589776834L454.64144444444446,283.3204388135477L467.63120000000004,287.0304873609519L480.6209555555555,290.4826416728664L493.6107111111111,293.7010127832206L506.60046666666665,296.7048049401104L519.5902222222222,299.51228668477876L532.5799777777778,302.14137112556125L545.5697333333334,304.60566416397944L558.559488888889,306.91500296607455L571.5492444444444,309.08149512622094" style="fill: none;" fill="none"></path></g></g></g></g><g opacity="0.2"><g><g><g><path stroke="rgb(204, 51, 17)" stroke-width="2px" d="M64.94877777777778,52.78127026367184L77.93853333333333,72.52911016409735L90.92828888888889,88.9301454947335L103.91804444444445,102.90512890624996L116.90780000000001,115.04098871721533L129.89755555555556,125.7531707894461L142.8873111111111,135.37846048845557L155.87706666666665,144.16738698904848L168.8668222222222,152.32767322213306L181.85657777777777,160.03311897495811L194.84633333333332,167.42656192452563L207.8360888888889,174.63120680890762L220.82584444444444,181.75030357578817L233.81560000000002,188.8567837655203L246.80535555555554,196.00819441877087L259.7951111111111,203.23285846383226L272.7848666666667,210.52742864554264L285.7746222222222,217.8606853724888L298.7643777777777,225.16143510219024L311.7541333333333,232.3497943028041L324.7438888888889,239.33261916242324L337.7336444444444,246.0274513375418L350.72339999999997,252.3750057896205L363.71315555555555,258.3288071681431L376.7029111111111,263.8691581638881L389.69266666666664,268.99187470790315L402.6824222222222,273.7348709019252L415.6721777777778,278.1233155299595L428.6619333333333,282.1986630597795L441.6516888888889,285.99811951991484L454.64144444444446,289.5453731776646L467.63120000000004,292.8689400721958L480.6209555555555,295.988388772147L493.6107111111111,298.9227728838239L506.60046666666665,301.686060760498L519.5902222222222,304.2924782366071L532.5799777777778,306.7522601885114L545.5697333333334,309.0761564549037L558.559488888889,311.2735007280622L571.5492444444444,313.34873455810543" style="fill: none;" fill="none"></path></g><g><path stroke="rgb(0, 119, 187)" stroke-width="2px" d="M64.94877777777778,38.04118156651083L77.93853333333333,61.17560687691821L90.92828888888889,80.09371371895924L103.91804444444445,96.03585324096673L116.90780000000001,109.75335548618858L129.89755555555556,121.75577568272178L142.8873111111111,132.41948692539756L155.87706666666665,142.0416224801199L168.8668222222222,150.85694080025806L181.85657777777777,159.05926083374018L194.84633333333332,166.81530163574214L207.8360888888889,174.26230066789896L220.82584444444444,181.52056600516175L233.81560000000002,188.68311271885457L246.80535555555554,195.82036190795893L259.7951111111111,202.97505544607975L272.7848666666667,210.16798493739532L285.7746222222222,217.38646943446565L298.7643777777777,224.59413972255157L311.7541333333333,231.71857922363276L324.7438888888889,238.68679202706468L337.7336444444444,245.40634239414754L350.72339999999997,251.80230330548966L363.71315555555555,257.8239509713309L376.7029111111111,263.44180379813054L389.69266666666664,268.64318083844864L402.6824222222222,273.44649199567516L415.6721777777778,277.8834718235561L428.6619333333333,281.98160643659315L441.6516888888889,285.77990423148015L454.64144444444446,289.31035724312915L467.63120000000004,292.5955594438825L480.6209555555555,295.66087272862023L493.6107111111111,298.5285692182268L506.60046666666665,301.2104930463518L519.5902222222222,303.7235092293875L532.5799777777778,306.08499774605883L545.5697333333334,308.30210369873043L558.559488888889,310.3790111563546L571.5492444444444,312.33123335920055" style="fill: none;" fill="none"></path></g></g></g></g></g></g><g transform="translate(58, 377)" clip-path="url(#clip_1)"><clipPath id="clip_1"><rect width="584" height="21"></rect></clipPath><g><g><line x1="0" y1="0" x2="0" y2="5" style="visibility: inherit;" fill="rgb(0, 0, 0)" stroke="rgb(204, 204, 204)" stroke-width="1px"></line><line x1="64.94877777777778" y1="0" x2="64.94877777777778" y2="5" style="visibility: inherit;" fill="rgb(0, 0, 0)" stroke="rgb(204, 204, 204)" stroke-width="1px"></line><line x1="129.89755555555556" y1="0" x2="129.89755555555556" y2="5" style="visibility: inherit;" fill="rgb(0, 0, 0)" stroke="rgb(204, 204, 204)" stroke-width="1px"></line><line x1="194.84633333333332" y1="0" x2="194.84633333333332" y2="5" style="visibility: inherit;" fill="rgb(0, 0, 0)" stroke="rgb(204, 204, 204)" stroke-width="1px"></line><line x1="259.7951111111111" y1="0" x2="259.7951111111111" y2="5" style="visibility: inherit;" fill="rgb(0, 0, 0)" stroke="rgb(204, 204, 204)" stroke-width="1px"></line><line x1="324.7438888888889" y1="0" x2="324.7438888888889" y2="5" style="visibility: inherit;" fill="rgb(0, 0, 0)" stroke="rgb(204, 204, 204)" stroke-width="1px"></line><line x1="389.69266666666664" y1="0" x2="389.69266666666664" y2="5" style="visibility: inherit;" fill="rgb(0, 0, 0)" stroke="rgb(204, 204, 204)" stroke-width="1px"></line><line x1="454.64144444444446" y1="0" x2="454.64144444444446" y2="5" style="visibility: inherit;" fill="rgb(0, 0, 0)" stroke="rgb(204, 204, 204)" stroke-width="1px"></line><line x1="519.5902222222222" y1="0" x2="519.5902222222222" y2="5" style="visibility: inherit;" fill="rgb(0, 0, 0)" stroke="rgb(204, 204, 204)" stroke-width="1px"></line><line x1="584.539" y1="0" x2="584.539" y2="5" style="visibility: inherit;" fill="rgb(0, 0, 0)" stroke="rgb(204, 204, 204)" stroke-width="1px"></line></g><g transform="translate(0, 8)"><text x="0" y="0" dx="0em" dy="0.95em" style="text-anchor: middle; visibility: hidden; font-family: &quot;Helvetica Neue&quot;, sans-serif; font-size: 12px; font-weight: 200;" fill="rgb(50, 49, 63)" stroke="none" stroke-width="1px">-5</text><text x="64.94877777777778" y="0" dx="0em" dy="0.95em" style="text-anchor: middle; visibility: inherit; font-family: &quot;Helvetica Neue&quot;, sans-serif; font-size: 12px; font-weight: 200;" fill="rgb(50, 49, 63)" stroke="none" stroke-width="1px">0</text><text x="129.89755555555556" y="0" dx="0em" dy="0.95em" style="text-anchor: middle; visibility: inherit; font-family: &quot;Helvetica Neue&quot;, sans-serif; font-size: 12px; font-weight: 200;" fill="rgb(50, 49, 63)" stroke="none" stroke-width="1px">5</text><text x="194.84633333333332" y="0" dx="0em" dy="0.95em" style="text-anchor: middle; visibility: inherit; font-family: &quot;Helvetica Neue&quot;, sans-serif; font-size: 12px; font-weight: 200;" fill="rgb(50, 49, 63)" stroke="none" stroke-width="1px">10</text><text x="259.7951111111111" y="0" dx="0em" dy="0.95em" style="text-anchor: middle; visibility: inherit; font-family: &quot;Helvetica Neue&quot;, sans-serif; font-size: 12px; font-weight: 200;" fill="rgb(50, 49, 63)" stroke="none" stroke-width="1px">15</text><text x="324.7438888888889" y="0" dx="0em" dy="0.95em" style="text-anchor: middle; visibility: inherit; font-family: &quot;Helvetica Neue&quot;, sans-serif; font-size: 12px; font-weight: 200;" fill="rgb(50, 49, 63)" stroke="none" stroke-width="1px">20</text><text x="389.69266666666664" y="0" dx="0em" dy="0.95em" style="text-anchor: middle; visibility: inherit; font-family: &quot;Helvetica Neue&quot;, sans-serif; font-size: 12px; font-weight: 200;" fill="rgb(50, 49, 63)" stroke="none" stroke-width="1px">25</text><text x="454.64144444444446" y="0" dx="0em" dy="0.95em" style="text-anchor: middle; visibility: inherit; font-family: &quot;Helvetica Neue&quot;, sans-serif; font-size: 12px; font-weight: 200;" fill="rgb(50, 49, 63)" stroke="none" stroke-width="1px">30</text><text x="519.5902222222222" y="0" dx="0em" dy="0.95em" style="text-anchor: middle; visibility: inherit; font-family: &quot;Helvetica Neue&quot;, sans-serif; font-size: 12px; font-weight: 200;" fill="rgb(50, 49, 63)" stroke="none" stroke-width="1px">35</text><text x="584.539" y="0" dx="0em" dy="0.95em" style="text-anchor: middle; visibility: hidden; font-family: &quot;Helvetica Neue&quot;, sans-serif; font-size: 12px; font-weight: 200;" fill="rgb(50, 49, 63)" stroke="none" stroke-width="1px">40</text></g><line x1="0" y1="0" x2="584.539" y2="0" fill="rgb(0, 0, 0)" stroke="rgb(204, 204, 204)" stroke-width="1px"></line></g></g></g></g></svg>